<svg viewBox="0 0 330 200" xmlns="http://www.w3.org/2000/svg"><g><g><g><g><g><line x1="41.171875" y1="177" x2="36.171875" y2="177" style="visibility: inherit;" fill="rgb(0, 0, 0)" stroke="rgb(204, 204, 204)" stroke-width="1px"></line><line x1="41.171875" y1="154.875" x2="36.171875" y2="154.875" style="visibility: inherit;" fill="rgb(0, 0, 0)" stroke="rgb(204, 204, 204)" stroke-width="1px"></line><line x1="41.171875" y1="132.75" x2="36.171875" y2="132.75" style="visibility: inherit;" fill="rgb(0, 0, 0)" stroke="rgb(204, 204, 204)" stroke-width="1px"></line><line x1="41.171875" y1="110.625" x2="36.171875" y2="110.625" style="visibility: inherit;" fill="rgb(0, 0, 0)" stroke="rgb(204, 204, 204)" stroke-width="1px"></line><line x1="41.171875" y1="88.5" x2="36.171875" y2="88.5" style="visibility: inherit;" fill="rgb(0, 0, 0)" stroke="rgb(204, 204, 204)" stroke-width="1px"></line><line x1="41.171875" y1="66.375" x2="36.171875" y2="66.375" style="visibility: inherit;" fill="rgb(0, 0, 0)" stroke="rgb(204, 204, 204)" stroke-width="1px"></line><line x1="41.171875" y1="44.24999999999998" x2="36.171875" y2="44.24999999999998" style="visibility: inherit;" fill="rgb(0, 0, 0)" stroke="rgb(204, 204, 204)" stroke-width="1px"></line><line x1="41.171875" y1="22.12500000000002" x2="36.171875" y2="22.12500000000002" style="visibility: inherit;" fill="rgb(0, 0, 0)" stroke="rgb(204, 204, 204)" stroke-width="1px"></line><line x1="41.171875" y1="0" x2="36.171875" y2="0" style="visibility: inherit;" fill="rgb(0, 0, 0)" stroke="rgb(204, 204, 204)" stroke-width="1px"></line></g><g transform="translate(31.171875, 0)"><text x="0" y="177" dx="0em" dy="0.3em" style="text-anchor: end; visibility: hidden; font-family: Roboto, sans-serif; font-size: 12px; font-weight: 200;" fill="rgb(33, 33, 33)" stroke="none" stroke-width="1px">0.3</text><text x="0" y="154.875" dx="0em" dy="0.3em" style="text-anchor: end; visibility: inherit; font-family: Roboto, sans-serif; font-size: 12px; font-weight: 200;" fill="rgb(33, 33, 33)" stroke="none" stroke-width="1px">0.4</text><text x="0" y="132.75" dx="0em" dy="0.3em" style="text-anchor: end; visibility: hidden; font-family: Roboto, sans-serif; font-size: 12px; font-weight: 200;" fill="rgb(33, 33, 33)" stroke="none" stroke-width="1px">0.5</text><text x="0" y="110.625" dx="0em" dy="0.3em" style="text-anchor: end; visibility: inherit; font-family: Roboto, sans-serif; font-size: 12px; font-weight: 200;" fill="rgb(33, 33, 33)" stroke="none" stroke-width="1px">0.6</text><text x="0" y="88.5" dx="0em" dy="0.3em" style="text-anchor: end; visibility: hidden; font-family: Roboto, sans-serif; font-size: 12px; font-weight: 200;" fill="rgb(33, 33, 33)" stroke="none" stroke-width="1px">0.7</text><text x="0" y="66.375" dx="0em" dy="0.3em" style="text-anchor: end; visibility: inherit; font-family: Roboto, sans-serif; font-size: 12px; font-weight: 200;" fill="rgb(33, 33, 33)" stroke="none" stroke-width="1px">0.8</text><text x="0" y="44.24999999999998" dx="0em" dy="0.3em" style="text-anchor: end; visibility: hidden; font-family: Roboto, sans-serif; font-size: 12px; font-weight: 200;" fill="rgb(33, 33, 33)" stroke="none" stroke-width="1px">0.9</text><text x="0" y="22.12500000000002" dx="0em" dy="0.3em" style="text-anchor: end; visibility: inherit; font-family: Roboto, sans-serif; font-size: 12px; font-weight: 200;" fill="rgb(33, 33, 33)" stroke="none" stroke-width="1px">1</text><text x="0" y="0" dx="0em" dy="0.3em" style="text-anchor: end; visibility: hidden; font-family: Roboto, sans-serif; font-size: 12px; font-weight: 200;" fill="rgb(33, 33, 33)" stroke="none" stroke-width="1px">1.1</text></g><line x1="41.171875" y1="0" x2="41.171875" y2="177" fill="rgb(0, 0, 0)" stroke="rgb(204, 204, 204)" stroke-width="1px"></line></g></g><g transform="translate(41, 0)" clip-path="url(#clip_0)"><clipPath id="clip_0"><rect width="288" height="177"></rect></clipPath><g><g><g><line x1="0" y1="0" x2="0" y2="177" fill="rgb(0, 0, 0)" stroke="rgb(66, 66, 66)" stroke-width="1px" opacity="0.25"></line><line x1="36.10351562500001" y1="0" x2="36.10351562500001" y2="177" fill="rgb(0, 0, 0)" stroke="rgb(66, 66, 66)" stroke-width="1px" opacity="0.25"></line><line x1="72.20703125000001" y1="0" x2="72.20703125000001" y2="177" fill="rgb(0, 0, 0)" stroke="rgb(66, 66, 66)" stroke-width="1px" opacity="0.25"></line><line x1="108.31054687500003" y1="0" x2="108.31054687500003" y2="177" fill="rgb(0, 0, 0)" stroke="rgb(66, 66, 66)" stroke-width="1px" opacity="0.25"></line><line x1="144.41406250000003" y1="0" x2="144.41406250000003" y2="177" fill="rgb(0, 0, 0)" stroke="rgb(66, 66, 66)" stroke-width="1px" opacity="0.25"></line><line x1="180.517578125" y1="0" x2="180.517578125" y2="177" fill="rgb(0, 0, 0)" stroke="rgb(66, 66, 66)" stroke-width="1px" opacity="0.25"></line><line x1="216.62109375" y1="0" x2="216.62109375" y2="177" fill="rgb(0, 0, 0)" stroke="rgb(66, 66, 66)" stroke-width="1px" opacity="0.25"></line><line x1="252.724609375" y1="0" x2="252.724609375" y2="177" fill="rgb(0, 0, 0)" stroke="rgb(66, 66, 66)" stroke-width="1px" opacity="0.25"></line><line x1="288.828125" y1="0" x2="288.828125" y2="177" fill="rgb(0, 0, 0)" stroke="rgb(66, 66, 66)" stroke-width="1px" opacity="0.25"></line></g><g><line x1="0" y1="177" x2="288.828125" y2="177" fill="rgb(0, 0, 0)" stroke="rgb(66, 66, 66)" stroke-width="1px" opacity="0.25"></line><line x1="0" y1="154.875" x2="288.828125" y2="154.875" fill="rgb(0, 0, 0)" stroke="rgb(66, 66, 66)" stroke-width="1px" opacity="0.25"></line><line x1="0" y1="132.75" x2="288.828125" y2="132.75" fill="rgb(0, 0, 0)" stroke="rgb(66, 66, 66)" stroke-width="1px" opacity="0.25"></line><line x1="0" y1="110.625" x2="288.828125" y2="110.625" fill="rgb(0, 0, 0)" stroke="rgb(66, 66, 66)" stroke-width="1px" opacity="0.25"></line><line x1="0" y1="88.5" x2="288.828125" y2="88.5" fill="rgb(0, 0, 0)" stroke="rgb(66, 66, 66)" stroke-width="1px" opacity="0.25"></line><line x1="0" y1="66.375" x2="288.828125" y2="66.375" fill="rgb(0, 0, 0)" stroke="rgb(66, 66, 66)" stroke-width="1px" opacity="0.25"></line><line x1="0" y1="44.24999999999998" x2="288.828125" y2="44.24999999999998" fill="rgb(0, 0, 0)" stroke="rgb(66, 66, 66)" stroke-width="1px" opacity="0.25"></line><line x1="0" y1="22.12500000000002" x2="288.828125" y2="22.12500000000002" fill="rgb(0, 0, 0)" stroke="rgb(66, 66, 66)" stroke-width="1px" opacity="0.25"></line><line x1="0" y1="0" x2="288.828125" y2="0" fill="rgb(0, 0, 0)" stroke="rgb(66, 66, 66)" stroke-width="1px" opacity="0.25"></line></g></g></g><g><g><line x1="0" y1="243.375" x2="288.828125" y2="243.375" fill="rgb(0, 0, 0)" stroke="rgb(153, 153, 153)" stroke-width="1.5px"></line></g></g><g><g><line x1="36.10351562500001" y1="0" x2="36.10351562500001" y2="177" fill="rgb(0, 0, 0)" stroke="rgb(153, 153, 153)" stroke-width="1.5px"></line></g></g><g><g><g><g><g><path stroke="rgb(204, 51, 17)" stroke-width="2px" d="M46.50955170355903,180.625150546521L47.13203648546008,176.34464493687682L48.124281439887156,173.10388316087966L48.49023068576389,170.70672992092247L48.61248120117188,169.15770494473347L49.48187391493056,167.32081925589722L49.84130447048612,165.82176963519123L50.08811211480035,164.63381258267674L50.20976090494792,163.79912229548947L50.329203369140636,159.93562572104221L50.81439450412328,157.103293322935L50.943063422309045,155.43558351302974L51.06380962456598,154.34647459152234L51.4362775607639,153.3327998331957L51.55782606336807,152.57354503642156L51.930093424479175,151.76807957452914L52.42461130099827,150.57436180747973L52.68164827473959,149.55167937956708L52.93066224500869,148.75215479542288L53.05381534830731,148.1164553303091L53.18097995334202,147.57944656244328L53.2994195421007,147.07952881652955L53.54813264973959,146.58447924732474L53.803565022786465,146.12224143433156L54.04626087782119,141.29189954809894L54.41341357421876,138.97166682846873L54.53486178927952,138.25904884676652L54.65801489257813,137.63630001092267L54.89990844726563,137.4102956315536L55.033290879991334,137.26508984629265L55.15483938259549,137.09898363449543L55.53262255859376,136.36325643598062L55.78414371744792,135.47971880220786L55.91120803493925,134.80915696491846L56.160522867838544,134.07432009023458L56.290495524088556,133.38993400479575L56.66326432291668,132.14497495380172L57.27862868923612,130.19433167390304L57.398572591145836,128.8128819633262L57.52523575846355,127.79867989830592L57.76722960069445,121.05020403273353L57.88627091471355,116.43935093526513L58.13137367078994,113.60801974084657L58.38790920681424,111.3582566687267L58.511563747829875,110.2723023539067L58.635017713758685,109.52157538207058L58.76107915581598,109.22208364052585L59.02262906901043,108.55678690220721L59.14317469618056,107.90078967062121L60.01387114800349,106.43454420714069L60.52804538302952,104.96163248508269L61.0365032280816,103.86373582773861L61.16136121961806,103.1326616066304L61.290030137803825,102.61474948272749L61.79918999565973,98.87453816619897L61.92234309895834,96.75464843682877L62.17556914605036,95.138810252979L62.54653276909723,93.5943364118544L62.676806287977435,92.6909412810211L63.04516243489585,91.73854526692655L63.171424452039936,91.01847367175833L63.43136976453994,90.51370413713701L63.55582660590279,90.08112461932329L63.67968172200521,89.58743499259849L63.93752099609376,89.01093877876222L64.0619778374566,88.44666086747895L64.18382720269098,87.94983323880821L64.30537570529515,87.48187603037827L64.43073513454863,87.03818826366228L64.55448996310766,86.62728732519605L64.93106968858507,85.98090092356956L65.31677558051216,81.89374074945422L65.81590668402778,78.86239085560783L65.94567876519099,76.84840023497192L66.19098209635418,75.62830588805345L66.43999606662328,74.67100103251735L66.56946728515626,73.94890725942017L67.20438772243924,73.20800707537866L67.57495019531251,72.58108873247465L67.69910617404514,72.23552751588441L67.83218774414063,71.98487767009509L67.95503998480903,71.7371638085161L68.20144647894966,71.36150429044451L68.70358620876736,70.8858304047244L68.95119615342882,70.43766033194409L69.210439453125,67.6739365311977L69.46246204969619,66.03730869606235L70.0803336046007,64.45635448882044L70.3333590766059,63.24740741842424L70.81885107421876,62.22112089510818L71.44003211805556,61.191587663388646L71.69145298936633,60.47830562394643L71.82012190755208,59.99657876254192L72.19008265516494,59.501268613106404L72.44491330295139,59.089583133319856L72.56886870659723,58.79720675030936L72.68831117078993,58.59455658840889L72.94725360785591,60.54646783976407L73.07171044921876,61.40432113354596L73.1958664279514,61.87582021919006L73.71054210069445,61.88593829850623L73.83560066731772,61.64863596069976L74.0800014105903,61.16404349033931L74.4635009765625,60.39204874888003L74.97486716037326,59.4535153821405L75.10153032769098,58.7709902116833L75.22699004448785,58.25076845223772L75.34773624674479,57.871400105566195L75.60507408311632,57.53529849506043L75.97433281792536,57.12949460063352L76.10430547417536,56.820581026756635L76.22374793836806,56.52894140951863L76.59541357421877,53.9162906269612L76.72849514431425,52.597174278520455L76.97109071180556,51.83811413742476L77.7200380859375,51.26167984901296L77.96624400499131,50.835153806796235L78.3405171169705,50.61669076001082L78.46497395833333,50.49857890913152L78.72291351996529,50.424108966048145L78.84877438693577,50.34322987428643L79.4747692328559,50.16794917840566L79.6044410264757,50.08413928066973L79.84663544379342,49.999792595596816L80.10036292860244,49.93919898861153L80.22271373155382,49.925709997376806L80.34857459852432,48.46350705311361L80.72756122504342,48.02371580413378L80.85061404079862,47.75875967747804L80.9768760579427,47.62427260283731L81.23331130642363,47.58229366424147L81.35315492078995,47.52559866000689L81.59976199001737,47.52431310110971L81.72492084418403,47.579034882150204L81.97854804144967,47.65275983653195L82.2219459092882,47.71822145367699L82.4778797200521,47.73919413557669L82.59962879774307,47.73269802970303L82.72147816297745,47.693262616649946L82.96948925781251,47.64357446423512L83.10457657877605,47.60150772208772L83.4674169108073,47.571746992318666L83.5937792154948,47.56408187583018L83.72044238281251,47.5511904885467L83.84199088541666,47.552133049374575L84.09020255533856,47.14739311087474L84.2108484700521,47.23944905011857L84.33670933702258,47.14703505402209L84.47821506076389,46.8233101437414L85.60233813476562,46.666881201858764L85.73331366644966,46.573023836729185L85.97580894639758,46.46269857938128L86.35559787326389,46.37432727846522L87.23381589084202,46.23129170914308L87.3556652560764,46.142822311996305L87.8576044108073,46.02092287938529L87.97925320095487,45.65609620809991L88.10240630425349,45.36157764673493L88.3626524793837,45.01201494741594L88.61056328667536,44.80535793428515L89.11139927842883,44.703814173489185L90.24234190538195,44.71890610143504L90.36298782009548,44.71489505580045L90.48202913411458,44.727126584118494L90.60357763671877,44.73561545352095L90.85670339626735,44.832625842928636L90.98166167534723,44.884111712479445L91.35402932400174,44.90434771186344L91.73341710069445,44.41358030680557L92.60250895182293,44.39280326273289L92.73047585720487,44.428587562479024L92.85754017469617,44.42079238095134L93.00777091471355,44.44754378794577L93.27242974175348,44.34783978938427L93.41152856445314,44.222274927373924L93.53538368055557,44.15963296179543L93.78780742730034,44.07598111083848L93.9164763454861,44.06553193361008L94.05336884223092,44.12095368165045L94.30860064019097,44.05746830259721L94.56262898763022,44.01978325101712L94.69621199544272,43.97704805286513L95.19965546332466,43.851983525465634L96.08820309787326,43.18798454887311L96.46257649739584,42.73796917966987L96.59325116644968,42.47204281671039L96.83865478515628,42.33120801319593L97.08135064019099,42.1952652232046L97.46334589301216,42.16281517721384L98.84560910373264,42.13666698561412L99.2339224717882,41.75907538668098L99.35627327473959,41.899829997633596L99.47782177734375,41.60976752878113L99.72182137044273,41.47318262601428L99.97966064453125,41.48753228631336L100.10431806098093,41.55865096358491L100.3530311686198,41.62184723799247L100.97240703667536,41.66768279424204L101.10298141818579,41.66674126834213L101.8331750217014,41.61363196760736L102.0823895670573,41.524474492015344L102.2054423828125,41.44534345289583L102.33661848958334,41.39081741464445L102.4605738932292,41.340372479512155L102.58533159722224,41.29749824199307L102.70818383789063,41.28165379520197L102.83173809136287,41.25614801857434L102.96562196180555,41.18755111583213L103.09047995334204,41.2760316460618L103.21453564453127,41.257094963150564L103.46204530164933,41.13194041476092L103.8433385416667,41.042805606278435L103.96749452039931,40.93950751671352L104.08783957248266,40.89817505627365L104.3421687825521,40.83772705524857L104.85303352864585,40.76229657250464L105.11388142903647,40.68237618516577L105.36750862630211,40.61642034000574L105.4907620171441,40.5506089278842L105.87355957031252,40.47794226102736L106.00323136393231,40.43283360774942L106.1325020073785,40.40686034307261L106.40568527560765,40.39246326175559L106.68057343207467,40.39637426428333L107.01202376302085,40.15313217575754L107.28751364474829,39.801925692173285L107.41086732313371,39.63225193811205L107.78403727213545,39.648745083765654L108.03014290364584,39.64621832010536L108.15470003255209,39.618575132116L108.29008821614585,39.60542852653525L108.41434448242191,39.64199835642253L108.53950333658854,39.69432959308672L108.66536420355907,39.710293652715976L108.91477932400176,39.78469669944209L109.03382063802084,39.7993289895425L109.66182123480904,39.80241662666619L109.78617778862849,39.78235153797521L110.0283722059462,39.77474349405322L110.1511241590712,39.78095551530092L110.28781608072919,39.78619138121346L110.65887999131947,40.37039646935306L110.91210603841147,40.36801073212532L111.15550390625002,40.200933392400195L111.39860091145835,39.98647772404829L111.64671229383683,39.7487487443285L111.89011016167535,39.65652463722209L112.01236067708334,39.595788561630116L112.1440382215712,39.54978859622948L112.51299609375002,39.53579814553066L113.00731339518231,39.48013977599026L113.1264549967448,39.40996210212641L113.38329139539931,39.35837102791747L113.50463932291669,39.34577342189001L113.74934092881946,39.34160669038684L114.25047778320315,39.31572780245537L114.37774267578126,38.813338048660746L114.63568223741322,38.439879195334896L114.88559879557293,38.25757669594433L115.76110904947919,38.203651387611295L115.8919842936198,38.214234792661216L116.13478043619793,38.244623061103574L116.25923727756077,38.26250259642778L116.37968261718751,38.31358415225138L116.50484147135417,38.35729401313655L116.63431268988717,38.36677704455493L116.75796723090279,38.333632231962916L117.00718177625868,38.332112932927735L117.12893085394965,38.342474052147494L117.63438007269967,38.32621390154147L117.75643001302086,38.31376755553596L118.01527216254341,38.318031372535906L118.26418584526913,38.05267185086528L118.64547908528647,38.00364584395005L118.89890570746529,38.01065419118829L119.01915047200522,37.99518340826767L119.15052715386285,38.01861128211459L119.52189192708333,37.92523185611038L119.64775279405384,37.91421586990515L119.78203781467016,37.876742188454635L119.90890155707466,37.86495570201934L120.0326563856337,37.84834659015692L120.2817706434462,37.85488663265439L120.41425048828125,37.785588229592676L120.53780474175348,37.72780435377122L120.78090174696182,37.67103173192596L120.90586002604168,37.63581820640721L121.03683555772572,37.59292539545156L121.16028952365453,37.591249034334794L121.27973198784724,37.59748580785365L121.40097962782119,37.57433059055671L121.65330308702259,37.56435679339804L121.7760550401476,37.56661208238269L122.14992700195315,37.648630724943075L122.65296931966147,37.64022296464227L123.03747176106774,37.5595610248791L123.16222946506076,37.415897161230276L123.28628515625002,37.340338540354274L123.5381071777344,37.27467875020437L123.66747810872398,37.22283385000666L123.79273725043403,37.207847343695406L123.91268115234375,37.20417792607084L124.15447441948785,37.165452098898506L124.28264189995662,37.14614121082572L124.404992702908,37.14016201474158L124.89760511610247,37.12426789628203L125.39202270507815,37.098368340890005L125.52289794921877,37.09184360156085L125.76860243055556,36.733585164842765L125.88774403211808,36.42140109890567L126.01260202365452,36.304311606609026L126.14357755533857,36.129264541460984L126.27334963650175,36.05520589232084L126.39800705295139,36.11005696105739L126.7804034559462,36.24606241850725L126.89964534505208,36.28013256829184L127.02139442274309,36.27356660152196L127.65330623372395,36.32205535641144L127.9037242296007,36.331414792959876L128.03991471354166,36.33674560429155L128.16617673068575,36.338656988391286L128.2931407606337,36.37104243436395L128.5416532931858,36.420836665624044L128.92254538302953,36.43941413068392L129.04619992404517,36.448614130637765L129.4199715983073,36.35845070494514L129.546133327908,36.03427208312336L129.6731976453993,35.80014957694996L129.9184006890191,35.684167949609716L130.1749362250434,35.68062738672064L130.54399438476565,35.696717662186444L130.67547135416666,35.7423157528466L130.91666289605038,35.75184506985105L131.29615096028647,35.806699388102025L131.4194043511285,35.83095568589883L131.53944854058162,35.85701426370452L131.78856279839408,35.86304889025399L131.92224609375003,35.86820996941392L132.04539919704862,35.8403001018838L132.16564396158856,35.829061292915085L132.28789447699654,35.84267427522456L132.4118498806424,35.85747275351592L132.5430259874132,35.87246030330127L133.03644070095487,35.88743469571749L133.1669147949219,36.194594606492984L133.65330938042538,35.65291188045387L133.78328203667533,35.28685210874108L134.03139341905384,35.056413023057154L134.27719818793406,35.01321582101733L134.53774522569447,35.05067675771086L134.66380666775171,35.075922700534896L134.78695977105033,35.07646903560798L134.9067030978733,35.077102787293406L135.0365754665799,35.10341499268857L135.15772281901044,35.11665976059344L135.3947022840712,35.17718265659752L135.63960446506078,35.20358992342441L135.89112562391495,35.23942657544784L136.25597170681425,35.280583257881226L136.38293573676216,35.28232041919676L136.5021776258681,35.29367536261351L136.62162009006076,35.295197492567695L136.74677894422743,35.30700894339562L137.25293017578124,34.95507328595925L137.50224500868057,34.8969557874573L137.63893693033853,34.85025343854266L137.89176182725697,34.79685395097162L138.2713501790365,34.77861896237985L138.52257047526044,34.715972310788956L138.64612472873267,34.67787264376136L138.76646978081598,34.5951467429951L139.14074289279515,34.55041696282359L139.5214344075521,34.527139727187965L139.64669354926215,34.54891686076692L139.8973121202257,34.55661317965249L140.15194219292536,34.57025651491201L140.39554063585072,34.568340869882846L140.51829258897573,34.551841200673074L141.0274524468316,34.437153304388204L141.27195347764757,34.51778163002139L141.39901779513892,34.496196153677765L141.5211680230035,34.50639689142541L141.64111192491322,34.496913851350726L142.0132789984809,34.487019843489044L142.2649004448785,34.4437838355482L142.76683959960937,34.49775337337137L143.01525184461804,34.53217652534654L143.14121299913197,34.533639926285815L143.26356380208335,34.53671764646249L143.39774853515627,34.52647922822403L143.51969818793404,34.54977073901036L144.02935948350697,34.53699606438362L144.27506396484378,34.51070519554545L144.40122569444446,34.54751198451479L144.77810628255207,34.18608165359953L144.90266341145835,33.924929187157495L145.0272205403646,33.71349891749546L145.15288083224826,33.57532058195787L145.28766729058162,33.53254586479971L145.53277004665802,33.49823529137319L145.65933292643228,33.454866174537834L145.7820848795573,33.44766594390804L145.9150661621094,33.48420604122121L146.1725042860243,33.52252483399177L146.55299522569445,33.56208491940181L146.80120689561636,33.66720384132196L146.92756920030385,33.712166081496036L147.1836032986111,33.730197006838324L147.30685668945316,33.74700797461083L147.43482359483505,33.75310137189993L147.68303526475697,33.76405275057296L147.8143116590712,33.77156252974594L148.0575089518229,33.78424466439678L148.1866793077257,33.657900314263074L149.06429560004344,33.487565505940644L149.19547170681423,33.36466020252644L149.31902596028647,33.306757878698946L149.44207877604168,33.29283695306661L149.5661344672309,33.31623996428421L149.68808412000868,33.362137562821914L149.81825735134552,33.40926223802008L150.06857505967884,33.42615884427687L150.1942353515625,33.473554211166274L150.3191936306424,33.541105638329256L150.69436933051216,33.62724951528552L150.82043077256947,33.68646328224566L150.95030314127607,33.722292218052274L151.08719563802083,33.73235863056356L151.32939005533856,33.7082043147479L152.08946934678818,33.15854075291121L152.21121842447917,32.92956917726023L152.34560373263892,32.783187062996745L152.5909070638021,32.72596340862399L153.0887344292535,32.62321232251817L153.4618040907118,32.63551732595258L153.8400887044271,32.71883938727079L154.33570974392362,32.82311776290712L154.69975352647572,32.85858178144923L154.8219037543403,32.8594300747289L154.95207698567714,32.861885529778824L155.1964777289497,32.87561792851832L155.31932996961805,32.87119206620068L155.44228249782984,32.89922128816134L155.69420480685764,32.241022030709274L155.81595388454863,31.943331480144337L155.93980900065105,31.74670826203757L156.06376440429688,31.81959478144128L156.1904275716146,31.95623546292951L156.43502888997398,32.0888336029683L156.5557750922309,32.17341429752317L156.8039867621528,32.35001920319922L157.04828721788195,32.48587035928564L157.17775843641496,32.54314237710471L157.43228822157118,32.55744999573608L157.67909586588544,32.572306555068394L157.80194810655382,32.586231751177245L157.9274078233507,32.642288793881875L158.05697932942712,32.67347541437158L158.42683978949657,32.720888721857094L158.54608167860243,32.74530132288555L158.6775586480035,32.74327984854474L159.0382929416233,32.737773104935265L159.16154633246532,32.72901997234187L160.14967949761285,32.54633254567243L160.52395260959204,32.340419487711515L160.64690513780383,32.186624739501895L160.88919984266494,32.15251543756368L161.1336005859375,32.15454250357175L161.26898876953126,32.142618690619635L161.63604117838543,32.19871706050023L161.76099945746532,32.238801045902875L162.02004218207466,32.26903902512091L162.14259356011283,32.28282992852506L162.26434263780382,32.29521370418536L162.38920062934028,32.29000504307549L162.7657803548177,32.27135021384123L163.77397102864586,32.15598639783596L163.8991298828125,32.05743904672467L164.0257930501302,32.0384429202223L164.2677868923611,32.05513467822933L164.51900718858508,32.08747357985058L164.6424611545139,32.12626786148951L164.7666171332465,32.12757928440817L165.01563110351566,32.0845782713285L165.25642149522568,32.031917307149826L165.3795745985243,31.99015050731389L165.50112310112846,31.94513506056243L165.87228729926218,31.896846397884897L165.99443752712676,31.86736152420534L166.11668804253475,31.85352663308436L166.73626448567708,31.891603595674365L166.98748478190103,31.647254637873374L167.10562350802954,31.38901020407449L167.35543977864583,31.330575146196892L167.48079920789934,31.27102223510662L167.73282180447052,31.223590513915543L168.47906141493058,31.26804795911952L168.60432055664063,31.288239437645966L168.86045494249132,31.321459644023324L169.10676114908856,31.350084986080976L169.60318448893233,31.351931009167604L169.84868839518234,31.387837870999686L170.10612651909724,31.42221609001427L170.35313473849826,31.409209550887745L170.5997418077257,31.692718113345137L170.8559764811198,31.581939461757106L170.978026421441,31.466857768851128L171.09847176106774,31.40753059849597L171.21871652560768,31.382014842423565L171.35029378255206,31.441810996289718L171.84130159505207,31.437287378880765L172.09673396809896,31.433665906532646L172.22319656032988,31.404896417346013L172.9725450846354,31.371435164860717L173.22908062065972,31.319439321429655L173.46806583658855,31.294951629442636L173.5925226779514,31.292291314484284L173.71346945529515,31.28600036566352L174.45790388997395,30.581683227210636L174.83508534071183,30.392443608516057L175.08239442274305,30.348034132286056L175.53459095594616,30.35596086905252L175.92811927625868,30.31285146073015L176.0548827311198,30.311082066270806L176.31542976888022,30.312726510270284L176.43998689778644,30.34977842730517L176.56995955403647,30.38725963450809L176.6910066189236,30.41543482075539L176.94132432725698,30.466780479731568L177.06477829318575,30.511476979245213L177.31619916449654,30.553597686046015L177.43935226779516,30.612398080440556L177.5612016330295,30.662833423860175L177.93748049587677,30.730810959009712L178.05732411024306,30.767118995707293L178.30804296875002,30.443205967736862L179.30971495225694,30.456276860948005L179.43527495659725,30.517940334746587L179.5571243218316,30.549373282354644L179.68428892686632,30.565184094525343L180.05354766167537,30.609680830250387L180.17489558919272,30.619456636196485L180.2966446668837,30.64389543371563L180.6760324435764,30.629577801449134L180.80139187282987,30.62879423846186L180.9252469889323,30.61948845713962L181.30403304036463,30.64548120456715L182.7836754557292,30.76454092000594L183.16547013346354,30.767718106118867L183.41378209092886,30.74605039334774L183.54455704752604,30.722246543028856L183.79006095377605,30.678260645543865L183.90910226779516,30.645354468390526L184.03355910915798,30.627024465063332L184.29490844726564,30.615182461297014L184.66376603190105,30.61883300659387L184.79333753797744,30.61351171801881L184.913482014974,30.601678476753214L185.0378385687934,30.581607279790873L185.1625962727865,30.57277176833952L185.2856490885417,30.56812456284049L185.419432671441,30.557012272084222L185.54318750000002,30.556247635009573L185.787688530816,30.467928268505748L186.03900911458337,30.463551150556576L186.1601564670139,30.442557291267025L186.40696411132814,30.396622905777544L186.6547746310764,30.34094119050898L186.90719837782123,30.260173112027637L187.02924831814238,30.20205371968315L187.1490919325087,30.172309395029366L187.2748525119358,30.137245164128643L187.4057277560764,30.132975885756323L187.52868028428819,30.122137826375635L188.0265076497396,30.07566095691471L188.64628466796876,30.024010910401064L188.76853518337677,29.977391024714304L189.01383851453994,29.961646568945408L189.13247867838544,29.95619835386952L189.261348171658,29.949447917522654L189.64183911132815,29.808558593739097L189.76358818901912,29.668210107415316L189.89516544596356,29.49001086850723L190.14417941623267,29.37444558203078L190.5175499403212,29.305111685155993L190.88329861111114,29.359906899189436L191.13943299696183,29.41738140419455L191.38483661566843,29.461783127995325L191.51099834526912,29.508759329922185L191.7599120279948,29.570436096314925L191.88146053059896,29.620249883010597L192.24369913736984,29.680358693405744L192.3721674804688,29.709909340980488L192.49481914605033,29.734913969780713L192.73841758897572,29.773722871986458L192.8598658040365,29.80767956068955L192.98081258138023,29.826486895625866L193.23724782986113,30.05167827018805L193.36030064561635,29.970728641800356L193.48174886067707,29.927560476095827L193.60640627712675,29.926504878778093L193.73527577039934,29.906427829610596L193.85511938476566,29.868143695084648L194.10373220486116,29.853407506637833L194.47559841579863,29.898576631839898L194.5978489312066,29.935373577294214L194.8378370225695,29.959999574910107L195.33506266276044,29.96234724741607L195.46122439236115,29.960342918762144L195.7189633789063,29.94636951978716L196.21247837999135,29.950751007173743L196.4566785481771,29.941036373719136L196.7014804416233,29.93098758479625L196.9583168402778,29.606627218846505L197.0780601671007,29.53804683859589L197.1992075195313,29.58692722425129L197.32426608615452,29.644344889552997L197.58120277235244,29.757192703146682L197.95336984592015,29.73137544516261L198.08254020182292,29.698013352892023L198.32764295789931,29.675427167142132L198.45280181206599,29.704845695808352L198.5759549153646,29.743897532889168L198.8288800998264,29.79241658775145L199.31407123480903,29.80796596722683L199.5649906684028,29.81510646532106L199.6876423339844,29.811678698004055L199.9408683810764,29.774369138682335L200.07304736328126,29.735520093562858L200.44561558702262,29.728452425553L200.5735824924045,29.452696455331804L201.19626784939237,29.431282325275046L201.32794539388024,29.419462474398202L201.44768872070316,29.402342767842068L201.57013981119795,29.420276428060177L201.81323681640626,29.47599554347784L202.0714772406684,29.497336687372858L202.19292545572918,29.505393863753522L202.31688085937503,29.498907995841556L202.43762706163196,29.50672699965336L202.56960546875004,29.520475595935L202.6984749620226,29.54517223819722L203.0701405978733,29.628755267766913L203.44321025933164,29.70436756390797L203.68961675347225,29.733255807032954L203.9484589029948,29.742634036225546L204.0739186197917,29.75028657798913L204.20439271375872,29.73587223818869L204.3326604817709,29.543574124163218L204.46544118923612,29.36337591981042L204.95815388997397,29.176031606049218L205.45848844401044,29.119081209093903L205.70148516167538,29.08347089290054L205.83286184353298,29.085647077557077L206.19500016276044,29.125080568311596L206.3152449273004,29.196163012217298L206.45063311089413,29.25335568406033L206.80194037543404,29.307563353883317L207.1679899088542,29.360407298390292L207.28372173394098,29.414231786480066L207.39915269639755,29.440338891357495L207.64234998914935,29.49126132822654L207.75998727756078,29.5175051063098L207.87792542860242,29.552990464556053L208.24668272569448,29.41943900477164L208.48366219075524,29.319141761608563L208.60069775390627,29.228716502277607L208.71833504231773,29.192976635508874L208.842892171224,29.19893112290691L208.96083032226565,29.156590119056617L209.07816674804687,29.14847172799867L209.31454448784723,29.095703592915328L209.4438151312934,29.074703509222868L209.89179958767363,29.044242271549354L210.5876948513455,29.025707053403178L211.14027921549481,29.02154366210705L212.18397167968752,28.762068188402697L212.31504749891494,28.754030463822893L212.43689686414933,28.721118395166513L212.55603846571185,28.72946058788116L213.0426336263021,28.75390959428676L213.39725037977433,28.720048896353997L213.52301095920143,28.70103540532682L213.77112234157988,28.70120595999299L213.90229844835073,28.68637473647441L214.02906190321184,28.670201762107904L214.16033829752607,28.64262096499674L214.41226060655382,28.595419397445163L214.6678935546875,28.552112150485303L214.79967138671876,28.535327421602567L214.92452937825527,28.526807437525353L215.1828700900608,28.550053906551717L215.3103355577257,28.57357593304616L215.44080965169272,28.596603917638674L215.69303282335073,28.643948678708213L215.93753385416667,28.449085417113373L216.69711170789932,28.375385625792568L216.95324609375004,28.34818293668807L217.47133154296876,28.363812065231688L217.58596020507812,28.34627643591636L217.70841129557292,28.36284224013369L218.1827713758681,28.41108885300091L218.7983363172743,28.45950688655336L218.91747791883682,28.486468802304035L219.40788400607644,28.36180315638243L219.89478002929687,28.204898221639734L220.2554140353733,28.168553557007282L220.62487334526912,28.186762992148864L220.74210948350694,28.23059417224245L220.86044878472222,28.288052370645488L221.22138365342883,28.443963319359977L221.34192928059898,28.565071821390827L221.70918226453992,28.653118854867962L221.82762185329864,28.726213667456822L221.9451588541667,28.791439624824857L222.0614924045139,28.86324334275648L222.17983170572916,28.902960116457496L223.0219462076823,29.00061396049952L223.1446981608073,28.96197726301847L223.2577222222222,28.97120491249857L223.37365462239583,28.976741502186666L223.61855680338542,28.969260233343213L223.73970415581599,28.935442410529003L223.86235582139759,28.86075580276272L223.9795919596354,28.795239419682144L224.10775944010416,28.732877791490136L224.22298982747398,28.717853236535763L224.34333487955732,28.684288602077697L224.46067130533856,28.648356438281365L224.58041463216145,28.630241722227495L224.94325496419273,28.586604523874126L225.18605110677083,28.52650388372946L225.79459592013893,28.528966905433037L225.91153119574653,28.53941223726158L226.03608832465278,28.55062739673546L226.27617670355903,28.570058719058565L227.11648602973094,28.47677644237263L227.36289252387152,28.45167116608848L227.9579988064236,28.49757130316874L228.07202574327258,28.528017916512383L228.55160077582468,28.521456407446806L228.7907865668403,28.527214972340534L228.91133219401044,28.53317574153156L229.15081884765627,28.554819115935636L229.26895757378475,28.56063112553288L229.50453301323785,28.53853452763752L229.62999273003476,28.511872765790223L230.34744981553823,28.45266809306789L230.46518739149306,28.355923511041695L230.58262410481774,28.20785342303127L231.18114016384547,28.08900183228974L231.30278895399303,28.013127993275653L232.38408924696182,28.05277929349534L232.50463487413194,28.074581394456583L232.86386485460068,28.123121279396273L232.98491191948784,28.157298670958067L233.10595898437504,28.17899725839529L233.22479972330729,28.181471663743427L233.35336835394963,28.193210928458104L233.47230938042537,28.217482673417372L233.59175184461807,28.252565513426593L233.83374568684897,28.394312745555943L234.0723297526042,28.544180420771074L234.19247422960072,28.650305859884487L234.3148250325521,28.559491874361598L234.55421139865453,28.430304051390017L234.67505788845486,28.349710751146517L234.90632096354165,28.29919201646474L235.15122314453126,28.33226003357308L235.2693618706597,28.319137299707734L235.50072523328996,28.319017925650623L235.6188639594184,28.33155357765599L236.10114675564236,28.369321882292297L236.21938576931427,28.409833502509994L236.46539111328127,28.468944997631812L236.58663875325522,28.495328325655056L236.7016685655382,28.513178651705942L236.81659809027778,28.53738232563468L237.06320515950523,28.562881828013257L237.18214618598088,28.574541771807176L237.2968751356337,28.596138968704903L237.4232374403212,28.276360139035425L237.9011075846354,28.119059988727127L238.13377468532988,28.08888205818532L238.26204245334202,28.152959972215868L238.37937887912327,28.180904173608532L238.6246822102865,28.19614094123597L238.87008582899307,28.214197770508285L239.1091713324653,28.228687450738036L239.35728271484376,28.207134345442828L239.48214070638022,28.21340879754471L239.60058029513888,28.242314171530293L239.83565429687502,28.226625276647503L239.95589906141495,28.216700263644736L240.0803559027778,28.198064129248593L240.1980934787327,28.17165349167306L240.31693421766494,28.159088166008733L240.43828214518228,28.152076471716374L240.68318432617187,28.144187497419246L240.80784174262155,28.132591323448505L241.17639846462674,27.76056065344409L241.30035386827257,27.623768032691483L241.5317172309028,27.62379800742961L241.6504576822917,27.62813622633275L242.01680807834202,27.601932322261653L242.13574910481773,27.61285406069636L242.25609415690107,27.61763997505119L242.37292914496527,27.620838574349932L242.49818828667537,27.634668708908595L242.7374743652344,27.64905942742114L243.2181525607639,27.63192015447666L243.4565360514323,27.624775222292264L243.57327075195312,27.620862788767056L243.69672471788198,27.625436143166077L244.05996620008682,27.62412894730941L244.1814144151476,27.62353453019365L244.42591544596357,27.62425398218098L244.54425474717883,27.624801703616757L244.90228127712675,27.39106754560754L245.0319530707465,27.223818994161405L245.15199726019966,27.146157685874066L245.27264317491318,27.143491193031174L245.5136341417101,27.18330540917805L245.75913804796008,27.186668870821546L245.995415500217,27.2110107946247L246.11144818793403,27.234203666916486L246.35504663085936,27.27770165233076L246.47047759331596,27.307044575382854L246.59132408311635,27.335137051206548L246.71106740993923,27.364911038793164L246.95877764214413,27.39718148655715L247.31590158420138,27.434858593625012L247.44246446397574,27.467956854869225L247.56361181640628,27.488828613739756L247.68295399305555,27.51557309888694L247.8041013454861,27.53759110249814L248.16122528754343,27.570646496282443L248.28437839084202,27.228935749331953L248.6515310872396,27.358809203505444L248.7712744140625,27.52099630272383L248.8850004882813,27.65647854230399L249.11846988932294,27.774682413468355L249.2369094780816,27.898718822556482L249.3630712076823,28.009153168533892L249.83311892361112,28.081585539063592L250.1932514919705,28.057867695498953L250.3134962565104,28.042223286395334L250.43654907226562,28.03271004066768L250.8081144205729,28.001154539024256L250.92866004774308,27.98324986519541L251.05040912543404,27.962642790211003L251.17496625434026,27.93947532256411L251.29210210503473,27.90645820188505L251.5281789822049,27.871809323358402L251.64681914605032,27.838038194017354L251.77177742513024,27.81501141061589L252.1318097059462,27.382755088032535L252.2474412434896,27.143208961022655L252.4938477376302,26.97967361827658L252.61128445095488,26.948429002880857L252.7289217393663,26.958235868525396L253.10409743923614,26.995052652783354L253.34268150499133,27.009889583126967L253.4570093044705,27.03291822095887L253.58517678493925,27.05177831423386L253.70321522352432,27.054005526138L253.82075222439238,27.096887840409675L254.19261843532988,27.105647518384202L254.54683403862848,27.148150178282116L254.66778081597226,27.177998383336483L255.03603667534722,27.195807081158897L255.150264187283,27.214689667043636L255.62903691948785,27.447490558038687L255.98886862521704,27.414319530135742L256.11603323025173,27.416023358706454L256.36334231228295,27.368431153895756L256.59881746419273,27.30206455171242L256.8458256835938,27.300055869699335L256.96426527235246,27.28596908347656L257.084409749349,27.30505784450086L257.21227636718754,27.338940448153714L257.6868370225694,27.36510944759171L257.80828523763023,27.389736165972504L257.93444696723094,27.399216085894103L258.1788477105035,27.405083388223197L258.29778873697916,27.40597681411141L258.41422257486977,27.39459661965389L258.89349674479166,27.388543929605625L259.1384992133247,27.011641982763383L259.38019219292534,27.059178938608976L259.6139624565972,27.0992270112882L259.7399236111111,27.097329175522948L259.97650192599826,27.085387251407486L260.4583835720486,27.13943860031998L260.6936581488715,27.152320218669413L260.8091893988715,27.1623121694249L261.1721300184462,27.186796253652705L261.52704763454864,27.216747311193554L262.0141442328559,27.26204777803351L262.2573415256076,27.295051670350574L262.3739759385851,27.32131061928152L262.7379194335938,27.533069574693915L263.22511631944445,27.73790498605974L263.346765109592,27.793829417417058L263.4728265516493,27.85361670624593L263.59236930338545,27.8497524212085L263.95169957139757,27.767633482830675L264.07665785047743,27.730642345557765L264.19509743923606,27.702212600118017L264.4312746039497,27.714072363499465L264.55031591796876,27.70795849378326L264.6792856987847,27.687531461807627L264.92077810329863,27.66068983703406L265.05135248480906,27.652428803620033L265.4211126573351,27.60304076539117L265.5412571343316,27.578767353693458L265.78465500217015,27.567041262626578L266.03136235894095,27.579417648696847L266.1512059733073,27.581394393911335L266.2699464246962,27.586125248474108L266.7632608506945,27.340853615881368L267.1333218858507,27.23921398179611L267.25266406250006,27.18942377481986L267.36849617513025,27.165853288853945L267.4868354763455,27.13730494206235L267.8559939236111,27.110200888067975L268.21381987847224,27.080956653446258L268.33376378038196,27.067303070837486L268.46002579752604,27.04936797583952L268.57455417209206,27.034434385090204L268.6928934733073,27.049807856672473L268.93197897677953,27.031338131543084L269.29632362196185,27.041039840052164L269.6608688422309,27.067813209098347L270.1331228841146,26.85161321842776L270.26510129123267,26.761503282094644L270.38123426649304,26.673228873553665L270.50238161892366,26.668878730382165L270.61771229383686,26.72388231530528L270.8667262641059,26.766790937034738L270.98316010199653,26.770628989129303L271.47015641276045,26.840335911744265L271.8299881184896,26.89338001384342L271.94592051866323,26.930608086431054L272.3063539496528,26.94862469592335L272.42810302734375,26.9822754595199L272.54383485243056,27.008495255322387L272.67049801974827,27.029734244353275L272.7870321451823,27.057432294134323L273.03514352756076,27.087207001593114L273.1521790907118,27.11492554673337L273.27894254557293,27.13375107841957L273.39888644748265,27.158276125176386L273.5189306369358,27.1687658693693" style="fill: none;" fill="none"></path></g></g></g></g><g opacity="0.2"><g><g><g><path stroke="rgb(204, 51, 17)" stroke-width="2px" d="M46.50955170355903,180.19234833866358L47.13203648546008,169.92388652265072L48.124281439887156,168.24274049699306L48.49023068576389,167.11100006103516L48.61248120117188,166.83416748046875L49.48187391493056,164.56549072265625L49.84130447048612,163.57319520413876L50.08811211480035,162.85187700390816L50.20976090494792,162.54708686470985L50.329203369140636,154.140380859375L50.81439450412328,152.85479472577572L50.943063422309045,152.93401879817247L51.06380962456598,152.71281120926142L51.4362775607639,151.8122876957059L51.55782606336807,151.43466284126043L51.930093424479175,150.5598813816905L52.42461130099827,148.78378515690565L52.68164827473959,148.01765573769808L52.93066224500869,147.55286791920662L53.05381534830731,147.16290613263845L53.18097995334202,146.77393341064453L53.2994195421007,146.32965219765902L53.54813264973959,145.8419048935175L53.803565022786465,145.42888471484184L54.04626087782119,134.04638671875L54.41341357421876,135.49131774902344L54.53486178927952,137.19012187421322L54.65801489257813,136.70217675715685L54.89990844726563,137.0712890625L55.033290879991334,137.04728116840124L55.15483938259549,136.84982431679964L55.53262255859376,135.2596656382084L55.78414371744792,134.15441235154867L55.91120803493925,133.80331420898438L56.160522867838544,132.97206477820873L56.290495524088556,132.36335487663746L56.66326432291668,130.27753637731075L57.27862868923612,127.26836675405502L57.398572591145836,126.74070739746094L57.52523575846355,126.27737680077553L57.76722960069445,110.927490234375L57.88627091471355,109.5230712890625L58.13137367078994,109.36102294921875L58.38790920681424,107.98361206054688L58.511563747829875,108.64337088167667L58.635017713758685,108.3954849243164L58.76107915581598,108.77284602820873L59.02262906901043,107.55884179472923L59.14317469618056,106.91679382324219L60.01387114800349,104.23517601191998L60.52804538302952,102.75226490199566L61.0365032280816,102.21689084172249L61.16136121961806,102.03605027496815L61.290030137803825,101.83788129687309L61.79918999565973,93.26422119140625L61.92234309895834,93.57481384277344L62.17556914605036,92.71505297720432L62.54653276909723,91.27762565016747L62.676806287977435,91.33584858477116L63.04516243489585,90.30995124578476L63.171424452039936,89.938366279006L63.43136976453994,89.75654983520508L63.55582660590279,89.43225534260273L63.67968172200521,88.84690055251122L63.93752099609376,88.14619445800781L64.0619778374566,87.60024400055408L64.18382720269098,87.20459179580212L64.30537570529515,86.77994021773338L64.43073513454863,86.37265661358833L64.55448996310766,86.01093591749668L64.93106968858507,85.0113213211298L65.31677558051216,75.76300048828125L65.81590668402778,74.31536601483822L65.94567876519099,73.82741430401802L66.19098209635418,73.79816436767578L66.43999606662328,73.23504374921322L66.56946728515626,72.86576659977436L67.20438772243924,72.0966567993164L67.57495019531251,71.64071121811867L67.69910617404514,71.71718569099903L67.83218774414063,71.60890290141106L67.95503998480903,71.36559301614761L68.20144647894966,70.79801501333714L68.70358620876736,70.17231957614422L68.95119615342882,69.76540522277355L69.210439453125,63.528350830078146L69.46246204969619,63.582366943359396L70.0803336046007,62.084923177957556L70.3333590766059,61.43398681282999L70.81885107421876,60.681691110134146L71.44003211805556,59.64728781580927L71.69145298936633,59.40838256478312L71.82012190755208,59.273988470435164L72.19008265516494,58.75830338895323L72.44491330295139,58.472054913640044L72.56886870659723,58.35864217579367L72.68831117078993,58.29058134555819L72.94725360785591,63.474334716796896L73.07171044921876,62.69110107421877L73.1958664279514,62.58306884765627L73.71054210069445,61.90111541748049L73.83560066731772,61.292682453990004L74.0800014105903,60.43715478479864L74.4635009765625,59.234056636691115L74.97486716037326,58.04571533203127L75.10153032769098,57.74720245599749L75.22699004448785,57.470435813069365L75.34773624674479,57.30234758555891L75.60507408311632,57.031146079301855L75.97433281792536,56.52078875899317L76.10430547417536,56.35721066594126L76.22374793836806,56.09148198366167L76.59541357421877,49.99731445312502L76.72849514431425,50.618499755859396L76.97109071180556,50.69952392578127L77.7200380859375,50.39702841639521L77.96624400499131,50.19536474347117L78.3405171169705,50.28899618983271L78.46497395833333,50.32141113281252L78.72291351996529,50.312404051423094L78.84877438693577,50.22191123664381L79.4747692328559,49.90502813458445L79.6044410264757,49.95842443406584L79.84663544379342,49.87327256798746L80.10036292860244,49.848308578133604L80.22271373155382,49.90547651052477L80.34857459852432,46.27020263671877L80.72756122504342,47.364028930664084L80.85061404079862,47.36132548749449L80.9768760579427,47.42254199087622L81.23331130642363,47.51932525634768L81.35315492078995,47.44055615365507L81.59976199001737,47.522384762764L81.72492084418403,47.66111755371096L81.97854804144967,47.763347268104575L82.2219459092882,47.81641387939455L82.4778797200521,47.770653158426306L82.59962879774307,47.722953870892546L82.72147816297745,47.634109497070334L82.96948925781251,47.56904223561289L83.10457657877605,47.53840760886671L83.4674169108073,47.527105897665045L83.5937792154948,47.55258420109751L83.72044238281251,47.531853407621405L83.84199088541666,47.55354689061644L84.09020255533856,46.54028320312502L84.2108484700521,47.377532958984396L84.33670933702258,47.00841405987742L84.47821506076389,46.337722778320334L85.60233813476562,46.432237789034865L85.73331366644966,46.432237789034865L85.97580894639758,46.297210693359396L86.35559787326389,46.24177032709124L87.23381589084202,46.01673835515978L87.3556652560764,46.01011821627619L87.8576044108073,45.83807373046877L87.97925320095487,45.108856201171896L88.10240630425349,44.91979980468752L88.3626524793837,44.48767089843752L88.61056328667536,44.49537241458895L89.11139927842883,44.55149853229525L90.24234190538195,44.741543993353865L90.36298782009548,44.70887848734858L90.48202913411458,44.74547387659552L90.60357763671877,44.74834875762465L90.85670339626735,44.97814142704012L90.98166167534723,44.96134051680567L91.35402932400174,44.93470171093943L91.73341710069445,43.67742919921877L92.60250895182293,44.36163769662382L92.73047585720487,44.482264012098334L92.85754017469617,44.409099608659766L93.00777091471355,44.48767089843752L93.27242974175348,44.198283791542075L93.41152856445314,44.03392763435843L93.53538368055557,44.065670013427756L93.78780742730034,43.95050333440306L93.9164763454861,44.049858167767546L94.05336884223092,44.20408630371096L94.30860064019097,43.96224023401739L94.56262898763022,43.96325567364695L94.69621199544272,43.91294525563719L95.19965546332466,43.66438673436644L96.08820309787326,42.191986083984396L96.46257649739584,42.062946125865004L96.59325116644968,42.07315327227118L96.83865478515628,42.11995580792429L97.08135064019099,41.991351038217566L97.46334589301216,42.11414010822775L98.84560910373264,42.09744469821455L99.2339224717882,41.19268798828127L99.35627327473959,42.11096191406252L99.47782177734375,41.17467382550242L99.72182137044273,41.26830527186396L99.97966064453125,41.50905677676203L100.10431806098093,41.66532897949221L100.3530311686198,41.716641649603865L100.97240703667536,41.736436128616354L101.10298141818579,41.66532897949221L101.8331750217014,41.53396801650526L102.0823895670573,41.39073827862742L102.2054423828125,41.32664689421656L102.33661848958334,41.3090283572674L102.4605738932292,41.26470507681372L102.58533159722224,41.23318688571455L102.70818383789063,41.25788712501528L102.83173809136287,41.21788935363295L102.96562196180555,41.08465576171877L103.09047995334204,41.40875244140627L103.21453564453127,41.22868993878367L103.46204530164933,40.94420859217646L103.8433385416667,40.90910339355471L103.96749452039931,40.7845603823662L104.08783957248266,40.83617636561396L104.3421687825521,40.74705505371096L104.85303352864585,40.64915084838869L105.11388142903647,40.56249560415747L105.36750862630211,40.517486572265646L105.4907620171441,40.45189180970194L105.87355957031252,40.36894226074221L106.00323136393231,40.365170627832434L106.1325020073785,40.36790044605734L106.40568527560765,40.370867639780066L106.68057343207467,40.40224076807501L107.01202376302085,39.78826904296877L107.28751364474829,39.275115966796896L107.41086732313371,39.37774130702021L107.78403727213545,39.673484802246115L108.03014290364584,39.64242817461493L108.15470003255209,39.57711035013201L108.29008821614585,39.585708618164084L108.41434448242191,39.69685310125353L108.53950333658854,39.772826448082945L108.66536420355907,39.734239742159865L108.91477932400176,39.89630126953127L109.03382063802084,39.82127742469313L109.66182123480904,39.807048082351706L109.78617778862849,39.75225390493872L110.0283722059462,39.763331428170225L110.1511241590712,39.79027354717257L110.28781608072919,39.79404518008234L110.65887999131947,41.24670410156252L110.91210603841147,40.36443212628367L111.15550390625002,39.95031738281252L111.39860091145835,39.664794221520445L111.64671229383683,39.39215527474882L111.89011016167535,39.51818847656252L112.01236067708334,39.50468444824221L112.1440382215712,39.48078864812853L112.51299609375002,39.51481246948244L113.00731339518231,39.39665222167971L113.1264549967448,39.30469559133055L113.38329139539931,39.28098441660406L113.50463932291669,39.326877012848875L113.74934092881946,39.33535659313204L114.25047778320315,39.27690947055819L114.37774267578126,38.05975341796877L114.63568223741322,37.87969091534617L114.88559879557293,37.98412294685843L115.76110904947919,38.12276342511179L115.8919842936198,38.23010990023615L116.13478043619793,38.29020546376707L116.25923727756077,38.289321899414084L116.37968261718751,38.39020648598673L116.50484147135417,38.42285880446436L116.63431268988717,38.381001591682455L116.75796723090279,38.283915013074896L117.00718177625868,38.32983398437502L117.12893085394965,38.35801573097708L117.63438007269967,38.3018236756325L117.75643001302086,38.295098036527655L118.01527216254341,38.324427098035834L118.26418584526913,37.654632568359396L118.64547908528647,37.93010683357718L118.89890570746529,38.02116671204569L119.01915047200522,37.97197723388674L119.15052715386285,38.05375309288504L119.52189192708333,37.78516271710398L119.64775279405384,37.897691890597365L119.78203781467016,37.82053166627886L119.90890155707466,37.847275972366354L120.0326563856337,37.8234329223633L120.2817706434462,37.864696696400664L120.41425048828125,37.68164062500002L120.53780474175348,37.641128540039084L120.78090174696182,37.58587279915812L120.90586002604168,37.58299791812899L121.03683555772572,37.52858617901804L121.16028952365453,37.58873449265959L121.27973198784724,37.60684096813204L121.40097962782119,37.539597764611266L121.65330308702259,37.549396097660086L121.7760550401476,37.569995015859625L122.14992700195315,37.77165868878367L122.65296931966147,37.627611324191115L123.03747176106774,37.438568115234396L123.16222946506076,37.20040136575701L123.28628515625002,37.22700060904028L123.5381071777344,37.176189064979575L123.66747810872398,37.145066499710104L123.79273725043403,37.18536758422854L123.91268115234375,37.198673799634L124.15447441948785,37.10736335814001L124.28264189995662,37.11717487871649L124.404992702908,37.13119322061541L124.89760511610247,37.100426718592665L125.39202270507815,37.05951900780203L125.52289794921877,37.082056492567084L125.76860243055556,36.196197509765646L125.88774403211808,35.95312500000002L126.01260202365452,36.128677368164084L126.14357755533857,35.86669394373896L126.27334963650175,35.944117918610594L126.39800705295139,36.192333564162276L126.7804034559462,36.45007060468199L126.89964534505208,36.33123779296877L127.02139442274309,36.26371765136721L127.65330623372395,36.39478848874571L127.9037242296007,36.34545394778254L128.03991471354166,36.344741821289084L128.16617673068575,36.341524064540884L128.2931407606337,36.419620603323004L128.5416532931858,36.495528012514136L128.92254538302953,36.467280328273795L129.04619992404517,36.462414130568526L129.4199715983073,36.22320556640627L129.546133327908,35.548004150390646L129.6731976453993,35.44896581768992L129.9184006890191,35.5101955085993L130.1749362250434,35.67531654238703L130.54399438476565,35.720853075385115L130.67547135416666,35.81071288883688L130.91666289605038,35.766139045357725L131.29615096028647,35.88898086547854L131.4194043511285,35.86734013259413L131.53944854058162,35.89610213041308L131.78856279839408,35.872100830078146L131.92224609375003,35.87595158815386L132.04539919704862,35.79843530058863L132.16564396158856,35.81220307946207L132.28789447699654,35.86309374868872L132.4118498806424,35.87967047095301L132.5430259874132,35.8949416279793L133.03644070095487,35.90989628434183L133.1669147949219,36.65533447265627L133.65330938042538,34.84038779139521L133.78328203667533,34.737762451171896L134.03139341905384,34.71075439453127L134.27719818793406,34.94842001795771L134.53774522569447,35.10686816275122L134.66380666775171,35.11379161477091L134.78695977105033,35.077288538217566L134.9067030978733,35.078053414821646L135.0365754665799,35.14288330078127L135.15772281901044,35.13652691245081L135.3947022840712,35.2679670006037L135.63960446506078,35.24320082366469L135.89112562391495,35.29318155348303L136.25597170681425,35.342318281531355L136.38293573676216,35.28492616117003L136.5021776258681,35.31070777773859L136.62162009006076,35.29748068749907L136.74677894422743,35.32472611963751L137.25293017578124,34.42716979980471L137.50224500868057,34.809779539704344L137.63893693033853,34.78019991517069L137.89176182725697,34.716754719615004L138.2713501790365,34.75126647949221L138.52257047526044,34.622002333402655L138.64612472873267,34.62072314321997L138.76646978081598,34.471057891845724L139.14074289279515,34.48332229256632L139.5214344075521,34.492223873734495L139.64669354926215,34.58158256113531L139.8973121202257,34.56815765798094L140.15194219292536,34.590721517801306L140.39554063585072,34.565467402339L140.51829258897573,34.52709169685843L141.0274524468316,34.26512145996096L141.27195347764757,34.63872411847117L141.39901779513892,34.463817939162276L141.5211680230035,34.521697998046896L141.64111192491322,34.482689291238806L142.0132789984809,34.47217883169653L142.2649004448785,34.37892982363703L142.76683959960937,34.578707680106184L143.01525184461804,34.58381125330927L143.14121299913197,34.53583502769472L143.26356380208335,34.54133422672751L143.39774853515627,34.51112160086634L143.51969818793404,34.58470800518992L144.02935948350697,34.517834052443526L144.27506396484378,34.47126889228823L144.40122569444446,34.60272216796877L144.77810628255207,33.643936157226584L144.90266341145835,33.53320048749449L145.0272205403646,33.39635351300242L145.15288083224826,33.36805307865145L145.28766729058162,33.46838378906252L145.53277004665802,33.44676943123343L145.65933292643228,33.389812499284766L145.7820848795573,33.436865597963354L145.9150661621094,33.53901618719103L146.1725042860243,33.580003023147604L146.55299522569445,33.621425047516844L146.80120689561636,33.82488222420218L146.92756920030385,33.77960944175722L147.1836032986111,33.757243394851706L147.30685668945316,33.77222442626955L147.43482359483505,33.76224146783354L147.68303526475697,33.780479818582556L147.8143116590712,33.78282719850542L148.0575089518229,33.80326786637308L148.1866793077257,33.46838378906252L149.06429560004344,33.23206329345705L149.19547170681423,33.18030224740507L149.31902596028647,33.21990439295771L149.44207877604168,33.27195556461813L149.5661344672309,33.351344481110594L149.68808412000868,33.43098396062853L149.81825735134552,33.47994925081732L150.06857505967884,33.45150375366213L150.1942353515625,33.54464726150038L150.3191936306424,33.64243277907374L150.69436933051216,33.75646533071997L150.82043077256947,33.77528393268587L150.95030314127607,33.7760356217623L151.08719563802083,33.74745824933054L151.32939005533856,33.67197284102442L152.08946934678818,32.33404541015627L152.21121842447917,32.58611181378367L152.34560373263892,32.563613891601584L152.5909070638021,32.64012792706492L153.0887344292535,32.469085693359396L153.4618040907118,32.6539748311043L153.8400887044271,32.84382247924807L154.33570974392362,32.97953532636168L154.69975352647572,32.9117778092623L154.8219037543403,32.86070251464846L154.95207698567714,32.86556871235373L155.1964777289497,32.89621652662756L155.31932996961805,32.86455327272417L155.44228249782984,32.941265121102354L155.69420480685764,31.25372314453127L155.81595388454863,31.496795654296896L155.93980900065105,31.451773434877417L156.06376440429688,31.928924560546896L156.1904275716146,32.1611964851618L156.43502888997398,32.28773081302645L156.5557750922309,32.30028533935549L156.8039867621528,32.61492656171324L157.04828721788195,32.68964709341528L157.17775843641496,32.62905040383341L157.43228822157118,32.57891142368319L157.67909586588544,32.59459139406683L157.80194810655382,32.60711954534056L157.9274078233507,32.72637435793879L158.05697932942712,32.720255345106146L158.42683978949657,32.79200868308546L158.54608167860243,32.7819202244282L158.6775586480035,32.740247637033484L159.0382929416233,32.72951298952105L159.16154633246532,32.715890273451826L160.14967949761285,32.27230140566828L160.52395260959204,32.03154990077021L160.64690513780383,31.95593261718752L160.88919984266494,32.101351484656355L161.1336005859375,32.15758310258391L161.26898876953126,32.12473297119143L161.63604117838543,32.28286461532118L161.76099945746532,32.298927024006865L162.02004218207466,32.314395993948004L162.14259356011283,32.303516283631346L162.26434263780382,32.3137893676758L162.38920062934028,32.282192051410696L162.7657803548177,32.2433679699898L163.77397102864586,31.982940673828146L163.8991298828125,31.9096180200577L164.0257930501302,32.00994873046877L164.2677868923611,32.08017231523993L164.51900718858508,32.13598193228247L164.6424611545139,32.184459283947966L164.7666171332465,32.12954641878607L165.01563110351566,32.020076751709006L165.25642149522568,31.952925860881827L165.3795745985243,31.92750030755999L165.50112310112846,31.87761189043524L165.87228729926218,31.824413403868697L165.99443752712676,31.82313421368601L166.11668804253475,31.832774296402953L166.73626448567708,31.948719039559386L166.98748478190103,31.280731201171896L167.10562350802954,31.00164355337622L167.35543977864583,31.242922559380553L167.48079920789934,31.181692868471167L167.73282180447052,31.152442932128928L168.47906141493058,31.33473412692549L168.60432055664063,31.318526655435583L168.86045494249132,31.37128995358946L169.10676114908856,31.393022999167464L169.60318448893233,31.354700043797514L169.84868839518234,31.44169816374781L170.10612651909724,31.473783418536208L170.35313473849826,31.38969974219801L170.5997418077257,32.11798095703127L170.8559764811198,31.41577148437502L170.978026421441,31.29423522949221L171.09847176106774,31.31853984296324L171.21871652560768,31.343741208314917L171.35029378255206,31.53150522708895L171.84130159505207,31.430501952767393L172.09673396809896,31.428233698010466L172.22319656032988,31.361742183566115L172.9725450846354,31.321243286132834L173.22908062065972,31.24144555628302L173.46806583658855,31.258220091462157L173.5925226779514,31.28830084204676L173.71346945529515,31.276563942432425L174.45790388997395,29.52520751953127L174.83508534071183,30.108584180474303L175.08239442274305,30.281419917941115L175.53459095594616,30.367850974202177L175.92811927625868,30.248187348246596L176.0548827311198,30.30842797458174L176.31542976888022,30.315193176269553L176.43998689778644,30.40535630285742L176.56995955403647,30.44348144531252L176.6910066189236,30.457697600126288L176.94132432725698,30.543798968195937L177.06477829318575,30.578521728515646L177.31619916449654,30.616778746247313L177.43935226779516,30.700598672032378L177.5612016330295,30.73848643898966L177.93748049587677,30.83277726173403L178.05732411024306,30.821581050753615L178.30804296875002,29.95733642578127L179.30971495225694,30.475883200764677L179.43527495659725,30.61043554544451L179.5571243218316,30.596522703766844L179.68428892686632,30.588900312781355L180.05354766167537,30.676425933837912L180.17489558919272,30.634120345115683L180.2966446668837,30.680553629994414L180.6760324435764,30.6081013530493L180.80139187282987,30.627618893981L180.9252469889323,30.60552978515627L181.30403304036463,30.68447032570841L182.7836754557292,30.943130493164084L183.16547013346354,30.77248388528826L183.41378209092886,30.713548824191115L183.54455704752604,30.68654076755049L183.79006095377605,30.612281799316428L183.90910226779516,30.595995202660582L184.03355910915798,30.59952946007254L184.29490844726564,30.59741945564749L184.66376603190105,30.624308824539206L184.79333753797744,30.60552978515627L184.913482014974,30.583928614854834L185.0378385687934,30.551500484347365L185.1625962727865,30.55951850116255L185.2856490885417,30.561153754591963L185.419432671441,30.54034383594992L185.54318750000002,30.555100679397604L185.787688530816,30.33544921875002L186.03900911458337,30.456985473632834L186.1601564670139,30.41106650233271L186.40696411132814,30.32772132754328L186.6547746310764,30.257418617606184L186.90719837782123,30.139020994305632L187.02924831814238,30.11487463116648L187.1490919325087,30.12769290804865L187.2748525119358,30.084648817777655L187.4057277560764,30.126571968197844L187.52868028428819,30.10588073730471L188.0265076497396,30.005945652723334L188.64628466796876,29.946535840630553L188.76853518337677,29.90746119618418L189.01383851453994,29.938029885292075L189.13247867838544,29.948026031255743L189.261348171658,29.939322263002417L189.64183911132815,29.59722460806372L189.76358818901912,29.45768737792971L189.89516544596356,29.22271201014521L190.14417941623267,29.201097652316115L190.5175499403212,29.20111083984377L190.88329861111114,29.44209972023966L191.13943299696183,29.503593161702177L191.38483661566843,29.5283857136965L191.51099834526912,29.57922363281252L191.7599120279948,29.66295124590399L191.88146053059896,29.694970563054106L192.24369913736984,29.77052190899851L192.3721674804688,29.754235312342665L192.49481914605033,29.772420912981055L192.73841758897572,29.831936225295088L192.8598658040365,29.8586145937443L192.98081258138023,29.854697898030302L193.23724782986113,30.38946533203127L193.36030064561635,29.84930419921877L193.48174886067707,29.862808227539084L193.60640627712675,29.92492148280146L193.73527577039934,29.876312255859396L193.85511938476566,29.81071749329569L194.10373220486116,29.831303223967574L194.47559841579863,29.966330319643042L194.5978489312066,29.99056899547579L194.8378370225695,29.996938571333907L195.33506266276044,29.965868756175063L195.46122439236115,29.95733642578127L195.7189633789063,29.92540942132475L196.21247837999135,29.957323238253615L196.4566785481771,29.926464423537276L196.7014804416233,29.91591440141203L196.9583168402778,29.120086669921896L197.0780601671007,29.43517626821997L197.1992075195313,29.660247802734396L197.32426608615452,29.730471387505553L197.58120277235244,29.926464423537276L197.95336984592015,29.692649558186552L198.08254020182292,29.647970214486143L198.32764295789931,29.6415478885174L198.45280181206599,29.7489734888077L198.5759549153646,29.802475288510344L198.8288800998264,29.86519517004492L199.31407123480903,29.831290036439917L199.5649906684028,29.825817212462447L199.6876423339844,29.806537047028563L199.9408683810764,29.718404799699805L200.07304736328126,29.677246525883696L200.44561558702262,29.71785092353823L200.5735824924045,29.03906250000002L201.19626784939237,29.399161130189917L201.32794539388024,29.401732698082945L201.44768872070316,29.376663208007834L201.57013981119795,29.447176918387434L201.81323681640626,29.559574216604254L202.0714772406684,29.52934840321543L202.19292545572918,29.51747962832453L202.31688085937503,29.489179193973563L202.43762706163196,29.518455505371115L202.56960546875004,29.54109849035742L202.6984749620226,29.58221720159056L203.0701405978733,29.754129812121413L203.44321025933164,29.817786008119604L203.68961675347225,29.776588171720526L203.9484589029948,29.75670138001444L204.0739186197917,29.761765390634558L204.20439271375872,29.71425072848799L204.3326604817709,29.25512695312502L204.46544118923612,29.09307861328127L204.95815388997397,28.89501513540747L205.45848844401044,29.033655613660834L205.70148516167538,29.030055418610594L205.83286184353298,29.0889113545418L206.19500016276044,29.18423080444338L206.3152449273004,29.30278667807581L206.45063311089413,29.339144691824934L206.80194037543404,29.388874858617804L207.1679899088542,29.439673215150854L207.28372173394098,29.49496851861479L207.39915269639755,29.47949954867365L207.64234998914935,29.567644983530066L207.75998727756078,29.55687077343466L207.87792542860242,29.60621850192549L208.24668272569448,29.21911181509497L208.48366219075524,29.16869589686396L208.60069775390627,29.09307861328127L208.71833504231773,29.13936683535578L208.842892171224,29.207862854003928L208.96083032226565,29.09307861328127L209.07816674804687,29.136294141411803L209.31454448784723,29.01655139029028L209.4438151312934,29.04320338368418L209.89179958767363,28.998550415039084L210.5876948513455,28.997904226183913L211.14027921549481,29.01529857516291L212.18397167968752,28.372854977846167L212.31504749891494,28.741973876953146L212.43689686414933,28.67175029218199L212.55603846571185,28.741973876953146L213.0426336263021,28.79058310389521L213.39725037977433,28.6692578494549L213.52301095920143,28.67251516878607L213.77112234157988,28.70146179199221L213.90229844835073,28.6641279011965L214.02906190321184,28.64594230055811L214.16033829752607,28.601249769330046L214.41226060655382,28.524617046117804L214.6678935546875,28.48715128004553L214.79967138671876,28.510150328278563L214.92452937825527,28.51402746140959L215.1828700900608,28.58492361009123L215.3103355577257,28.60885897278788L215.44080965169272,28.631145894527457L215.69303282335073,28.71496582031252L215.93753385416667,28.156790524721167L216.69711170789932,28.264835938811324L216.95324609375004,28.30737890303137L217.47133154296876,28.387255758047125L217.58596020507812,28.31997299194338L217.70841129557292,28.38769094645979L218.1827713758681,28.483458772301695L218.7983363172743,28.53213393688204L218.91747791883682,28.526911675930045L219.40788400607644,28.17480468750002L219.89478002929687,27.96954081952574L220.2554140353733,28.114036560058615L220.62487334526912,28.214077144861243L220.74210948350694,28.296340942382834L220.86044878472222,28.374239668250105L221.22138365342883,28.677829742431662L221.34192928059898,28.746734574437163L221.70918226453992,28.785189405083678L221.82762185329864,28.835855886340163L221.9451588541667,28.889278560876868L222.0614924045139,28.970948919653914L222.17983170572916,28.96253527700903L223.0219462076823,29.14709472656252L223.1446981608073,28.904022216796896L223.2577222222222,28.98504638671877L223.37365462239583,28.98504638671877L223.61855680338542,28.958038330078146L223.73970415581599,28.8847156763077L223.86235582139759,28.748725891113303L223.9795919596354,28.696964845061324L224.10775944010416,28.639335349202177L224.22298982747398,28.695316404104254L224.34333487955732,28.633941650390646L224.46067130533856,28.59445819258692L224.58041463216145,28.60306964814665L224.94325496419273,28.52114872634413L225.18605110677083,28.43635292351248L225.79459592013893,28.532661437988303L225.91153119574653,28.555080235004446L226.03608832465278,28.567450135946295L226.27617670355903,28.59920570254328L227.11648602973094,28.33685302734377L227.36289252387152,28.414013251662276L227.9579988064236,28.566421508789084L228.07202574327258,28.573687836527846L228.55160077582468,28.51161414384844L228.7907865668403,28.53585281968119L228.91133219401044,28.542116895318053L229.15081884765627,28.587284177541754L229.26895757378475,28.56934913992884L229.50453301323785,28.505389630794546L229.62999273003476,28.47188012301924L230.34744981553823,28.363861083984396L230.46518739149306,28.210806638002417L230.58262410481774,27.985748291015646L231.18114016384547,27.910724446177504L231.30278895399303,27.899317234754584L232.38408924696182,28.11225624382498L232.50463487413194,28.10728454589846L232.86386485460068,28.195931106805823L232.98491191948784,28.208564758300803L233.10595898437504,28.211545139551184L233.22479972330729,28.18518327176573L233.35336835394963,28.210819825530074L233.47230938042537,28.253890290856383L233.59175184461807,28.305189773440382L233.83374568684897,28.60693359375002L234.0723297526042,28.76898193359377L234.19247422960072,28.80949401855471L234.3148250325521,28.423270896077177L234.55421139865453,28.2365223169327L234.67505788845486,28.22882080078127L234.90632096354165,28.223413914442084L235.15122314453126,28.381862059235594L235.2693618706597,28.29945319890978L235.50072523328996,28.318838864564917L235.6188639594184,28.350357055664084L236.10114675564236,28.42597433924677L236.21938576931427,28.470600932836554L236.46539111328127,28.557612240314505L236.58663875325522,28.534903317689917L236.7016685655382,28.539954140782378L236.81659809027778,28.573687836527846L237.06320515950523,28.601131081581137L237.18214618598088,28.592031687498114L237.2968751356337,28.62853476405146L237.4232374403212,27.79669189453127L237.9011075846354,27.883109763264677L238.13377468532988,28.04361516237261L238.26204245334202,28.24907684326174L238.37937887912327,28.22282047569754L238.6246822102865,28.218996092677138L238.87008582899307,28.241283014416716L239.1091713324653,28.25042197108271L239.35728271484376,28.17480468750002L239.48214070638022,28.22282047569754L239.60058029513888,28.28567223250868L239.83565429687502,28.203091934323332L239.95589906141495,28.201812744140646L240.0803559027778,28.170109927654288L240.1980934787327,28.132037535309813L240.31693421766494,28.14024017751219L240.43828214518228,28.141558930277846L240.68318432617187,28.13235403597357L240.80784174262155,28.115197062492392L241.17639846462674,27.20251464843752L241.30035386827257,27.41857910156252L241.5317172309028,27.623842969536803L241.6504576822917,27.63464355468752L242.01680807834202,27.562626466155074L242.13574910481773,27.629236668348334L242.25609415690107,27.624818846583388L242.37292914496527,27.625636473298094L242.49818828667537,27.655413910746596L242.7374743652344,27.670645505189917L243.2181525607639,27.60621124505999L243.4565360514323,27.61405782401564L243.57327075195312,27.614994138479254L243.69672471788198,27.632296174764654L244.05996620008682,27.62216815352442L244.1814144151476,27.622642904520056L244.42591544596357,27.625333160161993L244.54425474717883,27.625623285770438L244.90228127712675,27.04046630859377L245.0319530707465,26.97294616699221L245.15199726019966,27.029665723443053L245.27264317491318,27.139491453766844L245.5136341417101,27.24302673339846L245.75913804796008,27.191714063286803L245.995415500217,27.247523680329344L246.11144818793403,27.268992975354216L246.35504663085936,27.342948630452177L246.47047759331596,27.35105895996096L246.59132408311635,27.37727576494219L246.71106740993923,27.409572020173094L246.95877764214413,27.445587158203146L247.31590158420138,27.491374254226706L247.44246446397574,27.517604246735594L247.56361181640628,27.520136252045653L247.68295399305555,27.555689826607725L247.8041013454861,27.570618107914946L248.16122528754343,27.620229586958907L248.28437839084202,26.71636962890627L248.6515310872396,27.553619384765646L248.7712744140625,27.76427695155146L248.8850004882813,27.859701901674292L249.11846988932294,27.951988220214865L249.2369094780816,28.08477343618872L249.3630712076823,28.17480468750002L249.83311892361112,28.19023409485819L250.1932514919705,28.02229093015196L250.3134962565104,28.018756672740004L250.43654907226562,28.018440172076247L250.8081144205729,27.953821286559126L250.92866004774308,27.956392854452154L251.05040912543404,27.931732177734396L251.17496625434026,27.90472412109377L251.29210210503473,27.856932520866415L251.5281789822049,27.819836005568526L251.64681914605032,27.787381500005743L251.77177742513024,27.78047123551371L252.1318097059462,26.73437060415747L252.2474412434896,26.783889770507834L252.4938477376302,26.73437060415747L252.61128445095488,26.901562079787276L252.7289217393663,26.97294616699221L253.10409743923614,27.05027782917025L253.34268150499133,27.032144978642485L253.4570093044705,27.06746117770674L253.58517678493925,27.080068454146407L253.70321522352432,27.057346343994162L253.82075222439238,27.16121131181719L254.19261843532988,27.118787035346053L254.54683403862848,27.21190416812899L254.66778081597226,27.22277069091799L255.03603667534722,27.222520127892516L255.150264187283,27.243013545870802L255.62903691948785,27.79669189453127L255.98886862521704,27.36456298828127L256.11603323025173,27.41857910156252L256.36334231228295,27.29704284667971L256.59881746419273,27.20251464843752L256.8458256835938,27.29704284667971L256.96426527235246,27.2648389041424L257.084409749349,27.333690986037276L257.21227636718754,27.38976435363295L257.6868370225694,27.404362946748755L257.80828523763023,27.426676243543646L257.93444696723094,27.413435965776465L258.1788477105035,27.413884341716788L258.29778873697916,27.407316952943823L258.41422257486977,27.377526327967665L258.89349674479166,27.37946489453318L259.1384992133247,26.44628906250002L259.38019219292534,27.130484372377417L259.6139624565972,27.15929912030699L259.7399236111111,27.09448242187502L259.97650192599826,27.067474365234396L260.4583835720486,27.22051562368872L260.6936581488715,27.171642646193526L260.8091893988715,27.177300095558188L261.1721300184462,27.223522379994414L261.52704763454864,27.261673897504828L262.0141442328559,27.32999847829344L262.2573415256076,27.344557508826277L262.3739759385851,27.3606990426779L262.7379194335938,27.85070800781252L263.22511631944445,28.045158103108427L263.346765109592,27.877716064453146L263.4728265516493,27.943297639489195L263.59236930338545,27.843955993652365L263.95169957139757,27.644455075264L264.07665785047743,27.67515563964846L264.19509743923606,27.65956798195841L264.4312746039497,27.731862008571646L264.55031591796876,27.698787689209006L264.6792856987847,27.65689091384413L264.92077810329863,27.620427399873755L265.05135248480906,27.640037253499052L265.4211126573351,27.528958708047888L265.5412571343316,27.542357236146948L265.78465500217015,27.549452126026175L266.03136235894095,27.597982227802298L266.1512059733073,27.584359511733076L266.2699464246962,27.59322153031828L266.7632608506945,26.97294616699221L267.1333218858507,27.08675453066828L267.25266406250006,27.11473846435549L267.36849617513025,27.130497559905074L267.4868354763455,27.09448242187502L267.8559939236111,27.069544807076475L268.21381987847224,27.037090301513693L268.33376378038196,27.04682269692423L268.46002579752604,27.022465333342574L268.57455417209206,27.01203399896624L268.6928934733073,27.072868064045927L268.93197897677953,27.003633543849013L269.29632362196185,27.05559240281584L269.6608688422309,27.107973262667677L270.1331228841146,26.527313232421896L270.26510129123267,26.62633837759497L270.38123426649304,26.54081726074221L270.50238161892366,26.66235351562502L270.61771229383686,26.806387692689917L270.8667262641059,26.831153869628928L270.98316010199653,26.776386067271254L271.47015641276045,26.944896295666716L271.8299881184896,26.97294616699221L271.94592051866323,26.98645019531252L272.3063539496528,26.975649610161803L272.42810302734375,27.032751604914687L272.54383485243056,27.04782494902613L272.67049801974827,27.061592727899573L272.7870321451823,27.098979368805907L273.03514352756076,27.131869062781355L273.1521790907118,27.1565033644438L273.27894254557293,27.161989375948927L273.39888644748265,27.195063695311568L273.5189306369358,27.184500485658667" style="fill: none;" fill="none"></path></g></g></g></g></g></g><g transform="translate(41, 177)" clip-path="url(#clip_1)"><clipPath id="clip_1"><rect width="288" height="23"></rect></clipPath><g><g><line x1="0" y1="0" x2="0" y2="5" style="visibility: inherit;" fill="rgb(0, 0, 0)" stroke="rgb(204, 204, 204)" stroke-width="1px"></line><line x1="36.10351562500001" y1="0" x2="36.10351562500001" y2="5" style="visibility: inherit;" fill="rgb(0, 0, 0)" stroke="rgb(204, 204, 204)" stroke-width="1px"></line><line x1="72.20703125000001" y1="0" x2="72.20703125000001" y2="5" style="visibility: inherit;" fill="rgb(0, 0, 0)" stroke="rgb(204, 204, 204)" stroke-width="1px"></line><line x1="108.31054687500003" y1="0" x2="108.31054687500003" y2="5" style="visibility: inherit;" fill="rgb(0, 0, 0)" stroke="rgb(204, 204, 204)" stroke-width="1px"></line><line x1="144.41406250000003" y1="0" x2="144.41406250000003" y2="5" style="visibility: inherit;" fill="rgb(0, 0, 0)" stroke="rgb(204, 204, 204)" stroke-width="1px"></line><line x1="180.517578125" y1="0" x2="180.517578125" y2="5" style="visibility: inherit;" fill="rgb(0, 0, 0)" stroke="rgb(204, 204, 204)" stroke-width="1px"></line><line x1="216.62109375" y1="0" x2="216.62109375" y2="5" style="visibility: inherit;" fill="rgb(0, 0, 0)" stroke="rgb(204, 204, 204)" stroke-width="1px"></line><line x1="252.724609375" y1="0" x2="252.724609375" y2="5" style="visibility: inherit;" fill="rgb(0, 0, 0)" stroke="rgb(204, 204, 204)" stroke-width="1px"></line><line x1="288.828125" y1="0" x2="288.828125" y2="5" style="visibility: inherit;" fill="rgb(0, 0, 0)" stroke="rgb(204, 204, 204)" stroke-width="1px"></line></g><g transform="translate(0, 8)"><text x="0" y="0" dx="0em" dy="0.95em" style="text-anchor: middle; visibility: hidden; font-family: Roboto, sans-serif; font-size: 12px; font-weight: 200;" fill="rgb(33, 33, 33)" stroke="none" stroke-width="1px">-0.1</text><text x="36.10351562500001" y="0" dx="0em" dy="0.95em" style="text-anchor: middle; visibility: inherit; font-family: Roboto, sans-serif; font-size: 12px; font-weight: 200;" fill="rgb(33, 33, 33)" stroke="none" stroke-width="1px">0</text><text x="72.20703125000001" y="0" dx="0em" dy="0.95em" style="text-anchor: middle; visibility: inherit; font-family: Roboto, sans-serif; font-size: 12px; font-weight: 200;" fill="rgb(33, 33, 33)" stroke="none" stroke-width="1px">0.1</text><text x="108.31054687500003" y="0" dx="0em" dy="0.95em" style="text-anchor: middle; visibility: inherit; font-family: Roboto, sans-serif; font-size: 12px; font-weight: 200;" fill="rgb(33, 33, 33)" stroke="none" stroke-width="1px">0.2</text><text x="144.41406250000003" y="0" dx="0em" dy="0.95em" style="text-anchor: middle; visibility: inherit; font-family: Roboto, sans-serif; font-size: 12px; font-weight: 200;" fill="rgb(33, 33, 33)" stroke="none" stroke-width="1px">0.3</text><text x="180.517578125" y="0" dx="0em" dy="0.95em" style="text-anchor: middle; visibility: inherit; font-family: Roboto, sans-serif; font-size: 12px; font-weight: 200;" fill="rgb(33, 33, 33)" stroke="none" stroke-width="1px">0.4</text><text x="216.62109375" y="0" dx="0em" dy="0.95em" style="text-anchor: middle; visibility: inherit; font-family: Roboto, sans-serif; font-size: 12px; font-weight: 200;" fill="rgb(33, 33, 33)" stroke="none" stroke-width="1px">0.5</text><text x="252.724609375" y="0" dx="0em" dy="0.95em" style="text-anchor: middle; visibility: inherit; font-family: Roboto, sans-serif; font-size: 12px; font-weight: 200;" fill="rgb(33, 33, 33)" stroke="none" stroke-width="1px">0.6</text><text x="288.828125" y="0" dx="0em" dy="0.95em" style="text-anchor: middle; visibility: hidden; font-family: Roboto, sans-serif; font-size: 12px; font-weight: 200;" fill="rgb(33, 33, 33)" stroke="none" stroke-width="1px">0.7</text></g><line x1="0" y1="0" x2="288.828125" y2="0" fill="rgb(0, 0, 0)" stroke="rgb(204, 204, 204)" stroke-width="1px"></line></g></g></g></g></svg>