<svg viewBox="0 0 330 200" xmlns="http://www.w3.org/2000/svg"><g><g><g><g><g><line x1="51.5625" y1="177" x2="46.5625" y2="177" style="visibility: inherit;" fill="rgb(0, 0, 0)" stroke="rgb(204, 204, 204)" stroke-width="1px"></line><line x1="51.5625" y1="164.35714285714283" x2="46.5625" y2="164.35714285714283" style="visibility: inherit;" fill="rgb(0, 0, 0)" stroke="rgb(204, 204, 204)" stroke-width="1px"></line><line x1="51.5625" y1="151.7142857142857" x2="46.5625" y2="151.7142857142857" style="visibility: inherit;" fill="rgb(0, 0, 0)" stroke="rgb(204, 204, 204)" stroke-width="1px"></line><line x1="51.5625" y1="139.07142857142856" x2="46.5625" y2="139.07142857142856" style="visibility: inherit;" fill="rgb(0, 0, 0)" stroke="rgb(204, 204, 204)" stroke-width="1px"></line><line x1="51.5625" y1="126.42857142857144" x2="46.5625" y2="126.42857142857144" style="visibility: inherit;" fill="rgb(0, 0, 0)" stroke="rgb(204, 204, 204)" stroke-width="1px"></line><line x1="51.5625" y1="113.78571428571432" x2="46.5625" y2="113.78571428571432" style="visibility: inherit;" fill="rgb(0, 0, 0)" stroke="rgb(204, 204, 204)" stroke-width="1px"></line><line x1="51.5625" y1="101.14285714285715" x2="46.5625" y2="101.14285714285715" style="visibility: inherit;" fill="rgb(0, 0, 0)" stroke="rgb(204, 204, 204)" stroke-width="1px"></line><line x1="51.5625" y1="88.5" x2="46.5625" y2="88.5" style="visibility: inherit;" fill="rgb(0, 0, 0)" stroke="rgb(204, 204, 204)" stroke-width="1px"></line><line x1="51.5625" y1="75.85714285714285" x2="46.5625" y2="75.85714285714285" style="visibility: inherit;" fill="rgb(0, 0, 0)" stroke="rgb(204, 204, 204)" stroke-width="1px"></line><line x1="51.5625" y1="63.21428571428569" x2="46.5625" y2="63.21428571428569" style="visibility: inherit;" fill="rgb(0, 0, 0)" stroke="rgb(204, 204, 204)" stroke-width="1px"></line><line x1="51.5625" y1="50.571428571428605" x2="46.5625" y2="50.571428571428605" style="visibility: inherit;" fill="rgb(0, 0, 0)" stroke="rgb(204, 204, 204)" stroke-width="1px"></line><line x1="51.5625" y1="37.92857142857145" x2="46.5625" y2="37.92857142857145" style="visibility: inherit;" fill="rgb(0, 0, 0)" stroke="rgb(204, 204, 204)" stroke-width="1px"></line><line x1="51.5625" y1="25.285714285714313" x2="46.5625" y2="25.285714285714313" style="visibility: inherit;" fill="rgb(0, 0, 0)" stroke="rgb(204, 204, 204)" stroke-width="1px"></line><line x1="51.5625" y1="12.642857142857157" x2="46.5625" y2="12.642857142857157" style="visibility: inherit;" fill="rgb(0, 0, 0)" stroke="rgb(204, 204, 204)" stroke-width="1px"></line><line x1="51.5625" y1="0" x2="46.5625" y2="0" style="visibility: inherit;" fill="rgb(0, 0, 0)" stroke="rgb(204, 204, 204)" stroke-width="1px"></line></g><g transform="translate(41.5625, 0)"><text x="0" y="177" dx="0em" dy="0.3em" style="text-anchor: end; visibility: hidden; font-family: Roboto, sans-serif; font-size: 12px; font-weight: 200;" fill="rgb(33, 33, 33)" stroke="none" stroke-width="1px">0.74</text><text x="0" y="164.35714285714283" dx="0em" dy="0.3em" style="text-anchor: end; visibility: inherit; font-family: Roboto, sans-serif; font-size: 12px; font-weight: 200;" fill="rgb(33, 33, 33)" stroke="none" stroke-width="1px">0.76</text><text x="0" y="151.7142857142857" dx="0em" dy="0.3em" style="text-anchor: end; visibility: hidden; font-family: Roboto, sans-serif; font-size: 12px; font-weight: 200;" fill="rgb(33, 33, 33)" stroke="none" stroke-width="1px">0.78</text><text x="0" y="139.07142857142856" dx="0em" dy="0.3em" style="text-anchor: end; visibility: inherit; font-family: Roboto, sans-serif; font-size: 12px; font-weight: 200;" fill="rgb(33, 33, 33)" stroke="none" stroke-width="1px">0.8</text><text x="0" y="126.42857142857144" dx="0em" dy="0.3em" style="text-anchor: end; visibility: hidden; font-family: Roboto, sans-serif; font-size: 12px; font-weight: 200;" fill="rgb(33, 33, 33)" stroke="none" stroke-width="1px">0.82</text><text x="0" y="113.78571428571432" dx="0em" dy="0.3em" style="text-anchor: end; visibility: inherit; font-family: Roboto, sans-serif; font-size: 12px; font-weight: 200;" fill="rgb(33, 33, 33)" stroke="none" stroke-width="1px">0.84</text><text x="0" y="101.14285714285715" dx="0em" dy="0.3em" style="text-anchor: end; visibility: hidden; font-family: Roboto, sans-serif; font-size: 12px; font-weight: 200;" fill="rgb(33, 33, 33)" stroke="none" stroke-width="1px">0.86</text><text x="0" y="88.5" dx="0em" dy="0.3em" style="text-anchor: end; visibility: inherit; font-family: Roboto, sans-serif; font-size: 12px; font-weight: 200;" fill="rgb(33, 33, 33)" stroke="none" stroke-width="1px">0.88</text><text x="0" y="75.85714285714285" dx="0em" dy="0.3em" style="text-anchor: end; visibility: hidden; font-family: Roboto, sans-serif; font-size: 12px; font-weight: 200;" fill="rgb(33, 33, 33)" stroke="none" stroke-width="1px">0.9</text><text x="0" y="63.21428571428569" dx="0em" dy="0.3em" style="text-anchor: end; visibility: inherit; font-family: Roboto, sans-serif; font-size: 12px; font-weight: 200;" fill="rgb(33, 33, 33)" stroke="none" stroke-width="1px">0.92</text><text x="0" y="50.571428571428605" dx="0em" dy="0.3em" style="text-anchor: end; visibility: hidden; font-family: Roboto, sans-serif; font-size: 12px; font-weight: 200;" fill="rgb(33, 33, 33)" stroke="none" stroke-width="1px">0.94</text><text x="0" y="37.92857142857145" dx="0em" dy="0.3em" style="text-anchor: end; visibility: inherit; font-family: Roboto, sans-serif; font-size: 12px; font-weight: 200;" fill="rgb(33, 33, 33)" stroke="none" stroke-width="1px">0.96</text><text x="0" y="25.285714285714313" dx="0em" dy="0.3em" style="text-anchor: end; visibility: hidden; font-family: Roboto, sans-serif; font-size: 12px; font-weight: 200;" fill="rgb(33, 33, 33)" stroke="none" stroke-width="1px">0.98</text><text x="0" y="12.642857142857157" dx="0em" dy="0.3em" style="text-anchor: end; visibility: inherit; font-family: Roboto, sans-serif; font-size: 12px; font-weight: 200;" fill="rgb(33, 33, 33)" stroke="none" stroke-width="1px">1</text><text x="0" y="0" dx="0em" dy="0.3em" style="text-anchor: end; visibility: hidden; font-family: Roboto, sans-serif; font-size: 12px; font-weight: 200;" fill="rgb(33, 33, 33)" stroke="none" stroke-width="1px">1.02</text></g><line x1="51.5625" y1="0" x2="51.5625" y2="177" fill="rgb(0, 0, 0)" stroke="rgb(204, 204, 204)" stroke-width="1px"></line></g></g><g transform="translate(51, 0)" clip-path="url(#clip_0)"><clipPath id="clip_0"><rect width="278" height="177"></rect></clipPath><g><g><g><line x1="0" y1="0" x2="0" y2="177" fill="rgb(0, 0, 0)" stroke="rgb(66, 66, 66)" stroke-width="1px" opacity="0.25"></line><line x1="34.8046875" y1="0" x2="34.8046875" y2="177" fill="rgb(0, 0, 0)" stroke="rgb(66, 66, 66)" stroke-width="1px" opacity="0.25"></line><line x1="69.609375" y1="0" x2="69.609375" y2="177" fill="rgb(0, 0, 0)" stroke="rgb(66, 66, 66)" stroke-width="1px" opacity="0.25"></line><line x1="104.4140625" y1="0" x2="104.4140625" y2="177" fill="rgb(0, 0, 0)" stroke="rgb(66, 66, 66)" stroke-width="1px" opacity="0.25"></line><line x1="139.21875" y1="0" x2="139.21875" y2="177" fill="rgb(0, 0, 0)" stroke="rgb(66, 66, 66)" stroke-width="1px" opacity="0.25"></line><line x1="174.0234375" y1="0" x2="174.0234375" y2="177" fill="rgb(0, 0, 0)" stroke="rgb(66, 66, 66)" stroke-width="1px" opacity="0.25"></line><line x1="208.828125" y1="0" x2="208.828125" y2="177" fill="rgb(0, 0, 0)" stroke="rgb(66, 66, 66)" stroke-width="1px" opacity="0.25"></line><line x1="243.6328125" y1="0" x2="243.6328125" y2="177" fill="rgb(0, 0, 0)" stroke="rgb(66, 66, 66)" stroke-width="1px" opacity="0.25"></line><line x1="278.4375" y1="0" x2="278.4375" y2="177" fill="rgb(0, 0, 0)" stroke="rgb(66, 66, 66)" stroke-width="1px" opacity="0.25"></line></g><g><line x1="0" y1="177" x2="278.4375" y2="177" fill="rgb(0, 0, 0)" stroke="rgb(66, 66, 66)" stroke-width="1px" opacity="0.25"></line><line x1="0" y1="164.35714285714283" x2="278.4375" y2="164.35714285714283" fill="rgb(0, 0, 0)" stroke="rgb(66, 66, 66)" stroke-width="1px" opacity="0.25"></line><line x1="0" y1="151.7142857142857" x2="278.4375" y2="151.7142857142857" fill="rgb(0, 0, 0)" stroke="rgb(66, 66, 66)" stroke-width="1px" opacity="0.25"></line><line x1="0" y1="139.07142857142856" x2="278.4375" y2="139.07142857142856" fill="rgb(0, 0, 0)" stroke="rgb(66, 66, 66)" stroke-width="1px" opacity="0.25"></line><line x1="0" y1="126.42857142857144" x2="278.4375" y2="126.42857142857144" fill="rgb(0, 0, 0)" stroke="rgb(66, 66, 66)" stroke-width="1px" opacity="0.25"></line><line x1="0" y1="113.78571428571432" x2="278.4375" y2="113.78571428571432" fill="rgb(0, 0, 0)" stroke="rgb(66, 66, 66)" stroke-width="1px" opacity="0.25"></line><line x1="0" y1="101.14285714285715" x2="278.4375" y2="101.14285714285715" fill="rgb(0, 0, 0)" stroke="rgb(66, 66, 66)" stroke-width="1px" opacity="0.25"></line><line x1="0" y1="88.5" x2="278.4375" y2="88.5" fill="rgb(0, 0, 0)" stroke="rgb(66, 66, 66)" stroke-width="1px" opacity="0.25"></line><line x1="0" y1="75.85714285714285" x2="278.4375" y2="75.85714285714285" fill="rgb(0, 0, 0)" stroke="rgb(66, 66, 66)" stroke-width="1px" opacity="0.25"></line><line x1="0" y1="63.21428571428569" x2="278.4375" y2="63.21428571428569" fill="rgb(0, 0, 0)" stroke="rgb(66, 66, 66)" stroke-width="1px" opacity="0.25"></line><line x1="0" y1="50.571428571428605" x2="278.4375" y2="50.571428571428605" fill="rgb(0, 0, 0)" stroke="rgb(66, 66, 66)" stroke-width="1px" opacity="0.25"></line><line x1="0" y1="37.92857142857145" x2="278.4375" y2="37.92857142857145" fill="rgb(0, 0, 0)" stroke="rgb(66, 66, 66)" stroke-width="1px" opacity="0.25"></line><line x1="0" y1="25.285714285714313" x2="278.4375" y2="25.285714285714313" fill="rgb(0, 0, 0)" stroke="rgb(66, 66, 66)" stroke-width="1px" opacity="0.25"></line><line x1="0" y1="12.642857142857157" x2="278.4375" y2="12.642857142857157" fill="rgb(0, 0, 0)" stroke="rgb(66, 66, 66)" stroke-width="1px" opacity="0.25"></line><line x1="0" y1="0" x2="278.4375" y2="0" fill="rgb(0, 0, 0)" stroke="rgb(66, 66, 66)" stroke-width="1px" opacity="0.25"></line></g></g></g><g><g><line x1="0" y1="644.7857142857142" x2="278.4375" y2="644.7857142857142" fill="rgb(0, 0, 0)" stroke="rgb(153, 153, 153)" stroke-width="1.5px"></line></g></g><g><g><line x1="34.8046875" y1="0" x2="34.8046875" y2="177" fill="rgb(0, 0, 0)" stroke="rgb(153, 153, 153)" stroke-width="1.5px"></line></g></g><g><g><g><g><g><path stroke="rgb(51, 187, 238)" stroke-width="2px" d="M35.539646484375,178.67214207560326L35.5912927734375,171.29987423905126L35.671362890625,166.64849632207412L35.6955134765625,164.20258891634742L35.7439693359375,162.6614819566159L35.793488671875004,161.66218910308254L35.81860605468751,161.0554630144735L35.865824414062494,160.57654929732468L35.9126173828125,160.11702916357564L35.936110546875,159.8821950770581L36.008639648437494,159.71483020259052L36.0343951171875,159.7444788565846L36.061581445312505,159.65435615607518L36.0890384765625,159.6467178504958L36.1159927734375,159.62130610139351L36.1982478515625,162.62436121822432L36.2238873046875,163.40760379024977L36.282533203125,163.64605156359116L36.3316078125,163.1872263257455L36.357711328125006,162.51506949802632L36.3830994140625,162.11509114327114L36.4099763671875,161.67875315116592L36.4820607421875,161.14772886475052L36.5059599609375,160.89045513971442L36.5329916015625,160.70046197371664L36.5574708984375,160.378630638239L36.6047666015625,160.0465880458362L36.675207421874994,160.04291468665681L36.823475390625,160.09688200326502L36.8519958984375,160.13884784188983L36.885195703125,160.16148026828634L36.9210638671875,160.17047800022678L36.9462392578125,160.08436273317844L36.970834570312505,160.04601674375147L37.095164648437496,161.02720547038007L37.3010923828125,160.6519330418262L37.3903083984375,160.19082587559416L37.416837304687505,159.4654691348686L37.5905900390625,157.7697233754475L37.669403320312504,156.14952301286127L37.7199087890625,154.28286641931112L37.746166992187504,152.6533214659928L37.7697375,129.1205364063725L37.867325976562505,118.66778177505853L37.890819140625,112.06277844003418L37.915453125,106.60054293772197L37.9859326171875,99.85295271575784L38.010798632812495,94.57815443950221L38.081007421875,88.59161177051172L38.175946875,81.8180104965862L38.223783984375004,76.37172147652312L38.274908203125,72.0208074358068L38.2990974609375,68.91249389604788L38.323035351562496,66.5500722289873L38.349022851562495,64.65770244705298L38.39908359375,62.6368021494604L38.448235546875,60.5268017316307L38.50229882812501,47.05263237826405L38.5742865234375,38.227338355529895L38.598572460937504,32.94450546777586L38.623883203125,29.74187459463255L38.674504687500004,27.501353830440234L38.6991193359375,25.940976918799848L38.7274658203125,24.887449597243062L38.8022185546875,23.91675285138953L38.8504037109375,23.20169088284275L38.875289062499995,22.755427022730164L38.9213859375,22.373200966603708L38.944782421875,22.097294520974987L39.01876171875,21.766929165081066L39.136053515625,21.288531506818636L39.1595080078125,20.963181260086373L39.1832912109375,20.730202032838612L39.2311283203125,19.717641308988913L39.2571158203125,18.801441370214793L39.305745703125,18.05109012904853L39.3523259765625,17.575152401823388L39.377752734374994,17.216086254195698L39.40114921875001,16.984128245262955L39.425125781249996,16.88695759942196L39.47184140625,16.878541745109587L39.49829296875,16.8253238457903L39.66551015625,16.737884918359825L39.76157109375,16.613666339989667L39.8567232421875,16.46576732481655L39.8807771484375,16.35865580575464L39.9039802734375,16.275157711129257L40.00160742187499,15.748227997213261L40.02546796875,15.478369694533358L40.0728796875,15.434765675329844L40.146975,15.360600663137948L40.1705455078125,15.31061564431769L40.2486626953125,15.28345806753916L40.272929296875,15.294307221254195L40.324285546875,15.302474574102922L40.3497703125,15.295347960589398L40.37382421875,15.273513741372826L40.4205205078125,15.264527718471712L40.4439169921875,15.241788854065168L40.466443359375,15.220805734314112L40.49030390625,15.201493991223625L40.513777734375,15.188912228997582L40.53686484375,15.18784389953883L40.607518359375,15.172990514914872L40.675696875,15.025194978591774L40.770558984375,14.788350131778923L40.794226171875,14.660651539622306L40.842430664062505,14.625192542076999L40.888856249999996,14.573050793103326L40.911479296875,14.530537505885812L41.027011523437494,14.570273884669938L41.098187109375,14.650573401770634L41.1207134765625,14.677788710922176L41.144090625,14.686913738447547L41.167255078124995,14.68302937819159L41.2150728515625,14.687480919118615L41.3102056640625,14.674356953407255L41.356321875,14.662217350749849L41.4038689453125,14.379201225182047L41.451164648437505,14.471755528635986L41.570660742187506,14.480988585038792L41.6171830078125,14.430402301174059L41.711213671875,14.447932559843705L41.828060742187496,14.469784453100031L41.8749890625,14.482609231310509L41.898462890625005,14.474072135624077L41.9764833984375,14.456244637281365L42.027936328125,14.44301613296565L42.0552966796875,14.425433295861733L42.08018203125,14.416149596254414L42.1288505859375,14.324159623824048L42.1552634765625,14.310110726654289L42.182411132812504,14.337702178180113L42.2965125,14.307957523425998L42.324046875,14.300404537875647L42.3736822265625,14.254712588796796L42.445921289062504,14.231698285721684L42.5400099609375,14.220346351885846L42.5658234375,14.219669275877182L42.589819335937506,14.215525308147614L42.6153041015625,14.203785050960024L42.66459140625,14.212837216118487L42.736308398437494,14.230657255480653L42.7589701171875,14.233436762504052L42.78184453125,14.221133223132185L42.853890234375,13.77502089370073L42.877325390625,13.877749701399011L42.923402929687505,13.97025333646445L43.064729296875,14.075144692509992L43.1112708984375,14.150423032023909L43.1826205078125,14.185281156969847L43.2056109375,14.189496854059145L43.2520751953125,14.208740521651144L43.275084960937505,14.219201577073447L43.392802148437504,14.190557637092326L43.4164306640625,14.169060835492463L43.462933593749995,14.141603723999653L43.508759765625,14.12324552458162L43.533509765625,14.115486040329461L43.556674218750004,14.020296088483398L43.626902343750004,13.978615292599029L43.651729687499994,13.97520421750475L43.6746814453125,13.946405730630604L43.7218611328125,13.949714253110507L43.7448708984375,13.941405559296225L43.791895898437495,13.983187083942894L43.8159111328125,13.976922433018844L43.8631294921875,13.963608336710974L43.91044453125,13.925311172506536L43.955709960937504,13.90619116778963L43.978275000000004,13.884967930223773L44.003276367187496,13.869641696533458L44.0497599609375,13.878396065392348L44.0724796875,13.886090263256666L44.142050390625,13.901648662065153L44.1653115234375,13.905708690287572L44.1882052734375,13.90764734903517L44.211543750000004,13.92113899871005L44.259999609375,13.903687863511724L44.2828546875,13.831484481499926L44.3059998046875,13.849895153185606L44.3291642578125,13.830075205750681L44.539171875,13.787301815383076L44.561292187499994,13.75723691479027L44.608413867187494,13.732039030849606L44.677501171875,13.747982579913927L44.8422626953125,13.74992255050201L44.86502109375,13.746082808075442L44.9588583984375,13.798654149130984L44.982080859374996,13.799330603317857L45.00439453125,13.83060282627638L45.051071484375,13.787633459158734L45.09828984375,13.74420315901862L45.19090898437501,13.707730599950862L45.4002978515625,13.713910123363345L45.423017578125,13.71761783741083L45.448308984375004,13.711417519599316L45.471570117187504,13.70805904395678L45.5194845703125,13.709178822288438L45.5420689453125,13.705268965393014L45.6124517578125,13.701792691742355L45.6837240234375,13.525149275759688L45.847828125,13.576916199862891L45.8700451171875,13.59221160697763L45.893170898437496,13.605307430893015L45.917766210937494,13.626729239403264L45.9638630859375,13.660893369202368L45.987394921874994,13.685792713454088L46.0105787109375,13.720038860494256L46.0583771484375,13.735010108452258L46.0810775390625,13.746524862537077L46.10406796875,13.752619856138324L46.1522337890625,13.749253551855727L46.199181445312504,13.743963262427307L46.221843164062506,13.748008318195987L46.316260546875,13.742341977541063L46.4809060546875,13.765543300363952L46.552216992187496,13.837760502029663L46.5749947265625,13.859824992716648L46.620685546875,13.882332635138924L46.667961914062495,13.871572169704248L46.7381900390625,13.841257768980155L46.997020898437505,13.816060899562535L47.065721484375,13.655442901344687L47.088228515625,13.68253750419965L47.1131525390625,13.698794265912637L47.1584373046875,13.634472096160996L47.204282812500004,13.608207248736397L47.229071484375,13.600179999353495L47.274491601562495,13.624677639771773L47.3915900390625,13.610559592160618L47.4143291015625,13.601591405408L47.555848828125,13.60251036371119L47.6042466796875,13.596761868338271L47.627875195312505,13.600411428858862L47.650865624999994,13.604394668932516L47.67383671875,13.608472616516684L47.697697265624996,13.599223931968409L47.7207650390625,13.601979095798017L47.743407421875,13.599005255820893L47.767035937500005,13.401744113313915L47.789968359374996,13.345120128702652L47.812862109375,13.372878438828709L47.860602539062505,13.377189899017862L47.9288970703125,13.422986651464317L47.95366640625,13.440170895629961L47.97702421875,13.473118775318062L48.0219029296875,13.516549695611916L48.1177705078125,13.518177410838126L48.1633453125,13.528151701700716L48.211105078124994,13.538250784847058L48.233998828125,13.535779788273627L48.30403359375,13.525857172629394L48.3278748046875,13.523309753243288L48.35152265625,13.515391002495726L48.398102929687504,13.510308179923232L48.445069921875,13.494613531289637L48.4914375,13.369975429041633L48.5385978515625,13.356925268585721L48.5616462890625,13.379961522758578L48.6290900390625,13.401499862873955L48.676598437500004,13.443736856991075L48.699221484375,13.460096463194786L48.721747851562505,13.452142975366082L48.7446609375,13.470324716521333L48.7704357421875,13.48326840833861L48.793194140625,13.476324878294314L48.838981640625,13.469762398099364L48.8617787109375,13.46481512215045L48.98125546875,13.4715377054761L49.0046712890625,13.47187874772765L49.0518123046875,13.489294980602867L49.0749380859375,13.493670921875896L49.098025195312495,13.492860193718919L49.169104101562496,13.399789776945637L49.214717578125,13.446825314063L49.2611625,13.372168849152063L49.305557812500005,13.36264218702417L49.351693359375,13.36281913067744L49.3981576171875,13.35543478116044L49.420490625,13.363634055080206L49.444621875,13.360234173413247L49.5150046875,13.343363927597037L49.60882265625,13.334779069045533L49.631523046874996,13.343147253695179L49.676691796875,13.32874105231436L49.69977890625,13.31159702794495L49.7459724609375,13.300526897393933L49.837740820312504,13.29466853499271L49.861272656249994,13.404340183495615L49.9064994140625,13.42898301484874L49.9534083984375,13.484928871409272L50.11496015625001,13.431036701927344L50.137351171875,13.386433231652488L50.1824619140625,13.360620651478909L50.206689843750006,13.33202093301907L50.2291388671875,13.317815108138252L50.252109960937496,13.30847775436003L50.2756998046875,13.302151912004552L50.29890292968749,13.288454457253664L50.3477841796875,13.288359501439652L50.3706005859375,13.287820241225464L50.463587109375,13.279056667396805L50.486229492187505,13.273708094338522L50.53199765625,13.264168937228405L50.579332031250004,13.108243270819168L50.647355859375,13.11963044819939L50.6948255859375,13.14056964135514L50.718434765625,13.134399332246137L50.741231835937505,13.122980559169074L50.8106671875,13.136701838467102L50.833328906249996,13.143352102727109L50.8562419921875,13.15480263407167L50.87973515625,13.147550994690816L50.90398242187499,13.146304731859095L50.9498859375,13.136981313318243L50.97316640625,13.134280982548116L50.9956541015625,13.13525307523678L51.043143164062506,13.129099388150063L51.0665203125,13.13857963209437L51.0886212890625,13.143484062531655L51.111186328125,13.143246642696289L51.1356462890625,13.14489769455636L51.1583466796875,13.142994605318034L51.2031673828125,13.147293548899686L51.22638984375,13.147160052216423L51.2975267578125,13.068904290258391L51.392137500000004,13.074851658311559L51.4607607421875,13.093416182021597L51.4843119140625,13.087162431201165L51.50931328125,13.089483979160953L51.5555068359375,13.087199471653108L51.57762714843749,13.078187536837758L51.59980546875,13.073820306700842L51.6238787109375,13.07210425622948L51.6688927734375,13.066101044087548L51.692579296874996,13.057299463040673L51.7158404296875,13.053194088306595L51.807608789062506,13.05204208050165L51.900537304687504,13.050145159004394L51.9240884765625,13.047725931990827L51.9709974609375,12.94751111723023L51.99379453125,12.90795477151812L52.0159728515625,12.894514771393018L52.038731250000005,12.89261499853121L52.062437109375,12.88531090760084L52.0875931640625,12.885329319414922L52.1560810546875,12.893283026017704L52.1782400390625,12.91095641989242L52.202429296875,12.927182110864036L52.31771015625,12.929653081640764L52.36473515625,12.944895907250203L52.3879576171875,12.947545803278725L52.4107740234375,12.949135740895839L52.43618144531249,12.95289299505941L52.481582226562494,12.957483423885263L52.551152929687504,12.96424668958835L52.575690234375,12.970173510072417L52.64551230468751,13.024445065864933L52.667961328125,13.026141648893963L52.69273066406251,12.996293248264916L52.738479492187494,12.966040682001049L52.783802929687496,12.977866276538489L52.854669140625,12.985850849411566L52.877910937500005,12.983331934948605L52.926463476562496,12.984849949766835L52.994351953125,12.986951404011906L53.016936328125006,12.998204654657567L53.041454296874996,13.00696110924881L53.087473828125006,13.012561625587631L53.110348242187506,13.017534581630029L53.1333,13.013570412113058L53.157431249999995,13.01827549668689L53.181059765625,13.017285468006015L53.2038955078125,13.010738224026683L53.2271953125,13.003659942461773L53.3228115234375,13.00131197750532L53.3471748046875,12.919662744538906L53.44120546875,12.981795080658204L53.46402187499999,13.04169674405835L53.5116462890625,13.059642418644884L53.5581298828125,13.047260060561914L53.604284765625,13.029536838409975L53.629808203125,13.00782538188732L53.653552734375005,12.994105220805475L53.6768138671875,12.977056319951677L53.70015234375,12.959125463287977L53.723162109375004,12.941554649288848L53.77078652343751,12.935789813766146L53.8177921875,12.92737240205363L53.864933203125,12.920920309229496L53.9356447265625,12.918902843137001L53.95863515625,12.920510726534953L53.9808134765625,12.919681952812436L54.0056021484375,12.921776979729737L54.0289599609375,12.921315849419656L54.123860742187496,12.856231892464324L54.1693775390625,12.863481043960704L54.19321875,12.85459779282147L54.2410751953125,12.852206776872842L54.31110996093751,12.84563279938265L54.358734375,12.843888846074684L54.3819375,12.854010426082374L54.4045798828125,12.858289870325713L54.4765869140625,12.86634354837696L54.5470470703125,12.86672967445491L54.57059824218751,12.871121073110999L54.6191314453125,12.878593851022062L54.66613710937501,12.889467816884679L54.71325878906249,12.895133123171968L54.737022656250005,12.89710051822737L54.833392968750005,12.91886856986501L54.879915234375,12.90106305040116L54.9027123046875,12.877146996685767L54.925548046875,12.852880343658823L54.949273242187495,12.844318792993867L55.020796875,12.825466833832074L55.0676091796875,12.818556524707255L55.1614078125,12.827160794543692L55.21011503906251,12.83369485932183L55.2338015625,12.836726082038162L55.257043359375,12.837746028278447L55.28028515625,12.834936774562058L55.3035849609375,12.84041016591719L55.399993945312495,12.86058930759076L55.447347656249995,12.880488737507473L55.471130859375,12.970634202325897L55.542364453124996,13.055587831663427L55.5672498046875,13.112724236479119L55.5903369140625,13.171708202601726L55.612940625,13.198266706610541L55.635699023437496,13.207600509457393L55.6829947265625,13.191588317268966L55.706178515625005,13.168507116555967L55.730019726562496,13.143445229754949L55.752778125,13.118898006301539L55.801117968750006,13.093092148997984L55.8719841796875,13.067329898773814L55.9196279296875,13.048782899302607L55.942599023437495,13.033389476389203L55.99014609375,13.024786423968699L56.014199999999995,13.016052656454002L56.0381765625,13.007526817626182L56.0847955078125,13.0079877545957L56.1080373046875,13.00523495328153L56.1541728515625,13.0001921939527L56.17940624999999,12.918990874407324L56.3443611328125,12.87027008268016L56.368415039062505,12.847895122025253L56.392120898437504,12.846135455810739L56.41776035156251,12.854604818915085L56.44140820312499,12.862504799831177L56.4651140625,12.87435851758531L56.48835585937499,12.874341947573207L56.537701171875,12.866630489414433L56.560788281250005,12.860647183103161L56.583798046875,12.855836411041857L56.66118046875,12.847072078335302L56.685505078125004,12.843953626056763L56.711550585937495,12.8493922128764L56.73523710937501,12.854222796826777L56.786748046875005,12.859894295869951L56.935016015625,12.834812135557703L56.959553320312494,12.799175224765929L56.983839257812505,12.813813868118473L57.034093359375,12.817442614748806L57.1298642578125,12.815505354098192L57.2029154296875,12.827168810320082L57.273704296875,12.822893431839415L57.3680830078125,12.828044792362588L57.438291796875006,12.83179875292434L57.461533593750005,12.841104572625175L57.485162109375004,12.843296985905415L57.5330185546875,12.845426292723188L57.556086328125005,12.843764942079005L57.5797341796875,12.844290349170471L57.626217773437496,12.763717066645137L57.65156718749999,12.74623944757638L57.6740548828125,12.725459068832937L57.696658593749994,12.707851473665858L57.719745703125,12.694197267228933L57.767853515625,12.700111630094243L57.7907859375,12.708076185645849L57.836302734374996,12.712854918976733L57.8845072265625,12.71572215897538L57.909334570312495,12.743546272004414L57.956726953125,12.76910275840701L58.005762890625,12.787601656886169L58.0293333984375,12.79485777362797L58.0520337890625,12.799030586150991L58.075681640625,12.801383559062995L58.146760546875,12.80238841338532L58.1693642578125,12.808025193678581L58.19196796874999,12.813577552120279L58.26372363281249,12.818039326698624L58.287062109375,12.82033960494126L58.477018359375,12.811064249540328L58.546821093750005,12.805514107759922L58.5710103515625,12.807790605878193L58.6184994140625,12.808282360058785L58.665505078125,12.8038299026108L58.688766210937494,12.812748381019581L58.7612759765625,12.822771620720307L58.78420839843751,12.827971705691139L58.8308080078125,12.832493402470305L58.855248632812504,12.837150638900832L58.878857812499994,12.846877852441455L58.902466992187506,12.854176112203143L58.973101171874994,12.857831637971618L59.1627673828125,12.84385327666072L59.186801953125,12.825172452572005L59.21120390625,12.82169561719058L59.2583642578125,12.82423645423664L59.304422460937495,12.82369616641966L59.329346484374994,12.82258827780027L59.35258828124999,12.821230257460334L59.399825976562504,12.81547200631776L59.448494531250006,12.818452569128551L59.47175566406249,12.81644289884992L59.4950361328125,12.81183094668239L59.56713984375,12.805974126045188L59.59049765625,12.799882813972244L59.6146095703125,12.79387687894057L59.7331388671875,12.79313689535554L59.779409765625,12.763891344802559L59.8023615234375,12.75662275031283L59.8502953125,12.772849208223455L59.87357578125,12.782585082969806L59.920175390625005,12.796143195429273L60.06316464843751,12.800962341665507L60.0859037109375,12.807666908832555L60.133528125,12.81074014714156L60.181171875,12.8053196463207L60.2746224609375,12.804750065739976L60.3226142578125,12.801725597479734L60.3701806640625,12.802201778470755L60.418501171875,12.804461848348819L60.4658548828125,12.739819966152153L60.5117390625,12.762767537727058L60.5368177734375,12.776536080671944L60.56069765624999,12.797140732325396L60.584326171875,12.797159997430999L60.607916015624994,12.788339680829445L60.70260410156251,12.78065112870012L60.7500931640625,12.773008633926553L60.77459179687501,12.765032058522138L60.9152994140625,12.76555126726239L60.961918359375,12.766978080559856L61.009948828125005,12.766191379378789L61.0348921875,12.763775140307162L61.05747656250001,12.76051682164268L61.2003111328125,12.74431930057489L61.272608203124996,12.716077963374325L61.3212767578125,12.713240047781476L61.392723046875005,12.703609710371632L61.460940234375,12.698298723191254L61.485438867187504,12.693755699466953L61.5324638671875,12.692687745852087L61.5557443359375,12.690916614169687L61.5791794921875,12.688844147328219L61.602015234375,12.693192178949795L61.6504130859375,12.693630707656935L61.673306835937495,12.692959394350103L61.7198677734375,12.693491036897136L61.7442697265625,12.6979396025144L61.7675115234375,12.69964416843331L61.836328125,12.706725634976516L61.8616388671875,12.712029517114969L61.9079291015625,12.746093268304714L62.0961837890625,12.760352220345236L62.119676953125,12.763858652409583L62.141893945312496,12.777190749481504L62.1653484375,12.785174936264415L62.2355572265625,12.782263932182738L62.259398437499996,12.78096947353914L62.2829302734375,12.777163434857007L62.3546666015625,12.77635681474529L62.377308984375,12.776264700642932L62.40055078125,12.773888427313842L62.4719390625,12.771332303803003L62.75385703125001,12.735375414647894L62.8252259765625,12.720809510138013L62.8711875,12.718113622963806L62.895106054687496,12.714461443535123L62.94280781250001,12.708969486098798L62.9655275390625,12.704317880220863L62.989020703125,12.707163642801039L63.0349435546875,12.709217743933184L63.1057130859375,12.709515774081412L63.128548828125,12.711141452347466L63.151558593749996,12.711001571253966L63.1769853515625,12.709847568925067L63.200091796875,12.710481456023562L63.223604296874996,12.709882143370997L63.247039453125005,12.71074334405399L63.2700298828125,12.712390423977176L63.3194912109375,12.715443461975577L63.366342187499995,12.717275284774686L63.39024140625,12.724538605667279L63.438387890625,12.735950041566538L63.4840787109375,12.73987303983143L63.530736328125,12.745949489454535L63.556124414062495,12.76129081232726L63.579153515625,12.766139954059154L63.601757226562505,12.769727654806367L63.6260044921875,12.768353553572876L63.649458984374995,12.772171102567807L63.743779687499995,12.766745044353145L63.863469140625,12.761635619822393L63.8867302734375,12.759233109351817L63.9344513671875,12.756766743777316L63.957519140625,12.755904854299981L63.981186328125,12.755945364640095L64.05292265625,12.710710075926922L64.07628046875,12.683568902698994L64.0993482421875,12.667284198762282L64.1464119140625,12.675146984809539L64.215615234375,12.674574573915121L64.28642343749999,12.690372661230056L64.3314568359375,12.700168014282836L64.3786171875,12.709918591380495L64.4017236328125,12.71396036241764L64.4482072265625,12.713295775703152L64.4705015625,12.711570735178736L64.543011328125,12.707235061084935L64.5669298828125,12.708657736496466L64.59024902343751,12.713188778027034L64.6380861328125,12.71370696975924L64.6617533203125,12.715163315772118L64.68511113281251,12.715042407008054L64.732039453125,12.68616830134767L64.757021484375,12.66884383795145L64.7800505859375,12.673882335136927L64.8034083984375,12.673815784111511L64.826940234375,12.671711063451825L64.8502787109375,12.668971227958469L64.8995080078125,12.665383108299372L64.969059375,12.661512090043514L64.9956462890625,12.658782549665142L65.0417818359375,12.660626332739477L65.1378814453125,12.67300605479789L65.16063984375,12.67946931458148L65.20673671875,12.681659266911659L65.300283984375,12.68512845711531L65.3482951171875,12.685853539821402L65.3940052734375,12.689212452719765L65.4446654296875,12.732403029667624L65.469628125,12.737729761231874L65.492947265625,12.730647064328398L65.5166724609375,12.72021814751291L65.563098046875,12.742174570878625L65.6336935546875,12.745657476003023L65.65656796875,12.75504180580426L65.70434707031251,12.75289553023266L65.72892304687501,12.748548258473374L65.752358203125,12.751531407144157L65.79874511718751,12.773426624225312L65.89381992187501,12.791748336775573L65.9407095703125,12.804655439748508L65.9650921875,12.81452477741744L66.01095703125,12.819451663646989L66.03421816406251,12.81969493255258L66.105741796875,12.814791954735934L66.13025976562501,12.807750730877286L66.25128339843751,12.772659646115596L66.274621875,12.747189057426201L66.29761230468749,12.728606054433422L66.3220916015625,12.721736547328574L66.367473046875,12.712626189746384L66.414807421875,12.703708610816141L66.4390546875,12.697001632041873L66.4623158203125,12.691786799423179L66.4856736328125,12.68764811202L66.507851953125,12.684260611967314L66.5306103515625,12.681414253086093L66.60310078124999,12.680686082668942L66.674527734375,12.680987681967402L66.721475390625,12.68234421544042L66.7676302734375,12.684182994816446L66.7911427734375,12.686808479920137L66.8153513671875,12.687735698194594L66.8388638671875,12.669784276059643L66.86204765625,12.659013422778632L66.9551888671875,12.67312345395423L67.048330078125,12.67336045540192L67.094504296875,12.671437866226004L67.1170306640625,12.66950059679122L67.188399609375,12.666559802829216L67.210597265625,12.66434318264661L67.2335876953125,12.662606281112257L67.30578808593751,12.663523430014877L67.375416796875,12.665535650993789L67.4007662109375,12.666351125616504L67.4248974609375,12.671196062381872L67.47159375,12.675278598335051L67.49574433593749,12.677215690260802L67.5197208984375,12.677865515770238L67.5899103515625,12.746167410642121L67.63873359374999,12.791263056194069L67.6617626953125,12.803912127594256L67.6842310546875,12.801207763132098L67.70671875000001,12.79188362830332L67.7299025390625,12.780290706254872L67.754169140625,12.768527157228698L67.8005173828125,12.75426486984753L67.82428125,12.742934348745907L67.89390996093749,12.73762811064266L68.0120138671875,12.732048005612228L68.105928515625,12.728473870691296L68.293564453125,12.714799722701882L68.31725097656249,12.701455865987178L68.3401833984375,12.690359902621685L68.365030078125,12.691931341860112L68.45904140625,12.684645188145439L68.52880546875,12.6821724998992L68.55216328125,12.684079965491698L68.5997296875,12.683024011661052L68.623590234375,12.681486151751923L68.64667734375,12.67974957695684L68.66982246093751,12.677984201991167L68.71796894531249,12.678628052011982L68.764510546875,12.680416007821103L68.78752031249999,12.680825637058698L68.810143359375,12.680453484733954L68.8589279296875,12.681420838693185L68.8813189453125,12.681413464121812L68.9044447265625,12.680896609732873L68.95303593749999,12.72741352387547L68.99903613281249,12.734736057756573L69.14310820312501,12.725414549322426L69.19055859375,12.72043957412931L69.28453125,12.709964073304455L69.3093005859375,12.702412770154533L69.331981640625,12.696751628751159L69.4248328125,12.692827442802866L69.54202792968749,12.69182936264999L69.5666619140625,12.69053722739007L69.659455078125,12.671465193576866L69.75439453124999,12.660021973289005L69.8258021484375,12.65315604111627L69.8957208984375,12.64903648181264L69.919484765625,12.646564746230448L69.9435966796875,12.64508170488115L70.01289667968751,12.644191880071562L70.037511328125,12.643657985185783L70.1074494140625,12.643337648254342L70.13053652343751,12.643145446095444L70.1543970703125,12.643030124800093L70.1778515625,12.645643651934815L70.20035859375001,12.647091196534143L70.36537148437499,12.645397575063358L70.39081757812501,12.644381402180901L70.413324609375,12.643771698451387L70.43664375000002,12.643405876213723L70.4832240234375,12.6431863828711L70.50764531250002,12.643054686865492L70.5312544921875,12.642975669262178L70.55505703125,12.642928258700197L70.5779314453125,12.642899812362973L70.600341796875,12.64288274456063L70.62395097656251,12.64287250387926L70.64792753906251,12.642866359470387L70.671033984375,12.642862672825116L70.739328515625,12.642860460837959L70.7863921875,12.642859133645661L70.903606640625,12.642858337330237L70.92692578125,12.642857859541028L70.95003222656251,12.642857572867463L70.9977919921875,12.642857400863349L71.16152871093749,12.642857297660857L71.2084376953125,12.642857235739385L71.32632890625,12.642857198586478L71.35044082031251,12.642857176294719L71.44495488281251,12.642857162919713L71.4929853515625,12.642857154894699L71.516671875,12.645946799416336L71.56269140625,12.647514228385955L71.5875380859375,12.64833411408626L71.633886328125,12.651086764533307L71.6562580078125,12.652527354358972L71.799092578125,12.64865926975827L71.82148359374999,12.646338418997809L71.8460595703125,12.644945908541548L71.9633900390625,12.644110402267811L71.98740527343749,12.643609098503557L72.2003326171875,12.643308316244982L72.22372910156251,12.64312784688986L72.292275,12.643019565276754L72.316290234375,12.64295459630892L72.339261328125,12.64291561492825L72.3629478515625,12.6428922260998L72.3855322265625,12.642878192802732L72.40883203125001,12.642869772824529L72.4328279296875,12.642864720837592L72.4800849609375,12.64286168964539L72.527051953125,12.642859870930133L72.551569921875,12.64285877970093L72.5749083984375,12.642858124963428L72.62036718750001,12.642857732120923L72.64428574218749,12.642857496415393L72.6915814453125,12.642857354992083L72.73847109375001,12.642857270138093L72.76150019531251,12.64285721922571L72.8107875,12.642857188678313L72.8342033203125,12.642857170349874L72.9294908203125,12.642857159352792L72.9542021484375,12.642857152754573L73.002329296875,12.642857148795594L73.02512636718748,12.642857146420228L73.04894824218749,12.642857144994963L73.0728474609375,12.642857144139873L73.1187123046875,12.642857143626767L73.1422634765625,12.642857143318954L73.166762109375,12.642857143134234L73.19052597656251,12.642857143023424L73.28484667968749,12.642857142956885L73.332355078125,12.642857142917014L73.3546880859375,12.642857142893078L73.377137109375,12.642857142878695L73.42654042968749,12.642857142870067L73.47430019531251,12.64285714286488L73.52176992187499,12.642857142861795L73.5674607421875,12.642857142859967L73.590141796875,12.642857142858848L73.6140603515625,12.642857142858139L73.660679296875,12.642857142857707L73.68345703125,12.64285714285751L73.7069115234375,12.642857142857373L73.730752734375,12.642857142857295L73.7561408203125,12.642857142857215L73.779866015625,12.642857142857215L73.8261369140625,12.642857142857215L73.849359375,12.642857142857215L73.9206896484375,12.642857142857215L73.9436220703125,12.642857142857215L73.9916912109375,12.642857142857215L74.0145076171875,12.642857142857215L74.0837109375,12.642857142857215L74.1092537109375,12.642857142857215L74.131934765625,12.642857142857215L74.1549251953125,12.642857142857215L74.17762558593749,12.642857142857215L74.22610078125,12.642857142857215L74.31875859375,12.642857142857215L74.3661703125,12.642857142857215L74.38974082031251,12.642857142857215L74.41275058593749,12.642857142857215L74.4831720703125,12.642857142857215L74.5064138671875,12.642857142857215L74.55187265625,12.642857142857215L74.575269140625,12.642857142857215L74.64808828125,12.642857142857215L74.6715234375,12.642857142857215L74.6942431640625,12.642857142857215L74.71918652343749,12.642857142857215L74.76565078124999,12.642857142857215L74.8125017578125,12.642857142857215L74.8606095703125,12.642857142857215L74.88375468749999,12.642857142857215L74.9296775390625,12.642857142857215L74.9543115234375,12.642857142857215L74.97844277343751,12.642857142857215L75.00261269531251,12.642857142857215L75.048999609375,12.642857142857215L75.12034921875,12.642857142857215L75.14405507812499,12.642857142857215L75.167876953125,12.642857142857215L75.19196953125001,12.642857142857215L75.21526933593749,12.642857142857215L75.2846853515625,12.642857142857215L75.30900996093749,12.642857142857215L75.37848398437501,12.642857142857215L75.40108769531248,12.642857142857215L75.42444550781251,12.642857142857215L75.47203125,12.642857142857215L75.495891796875,12.642857142857215L75.5198296875,12.642857142857215L75.61442109375001,12.642857142857215L75.6854806640625,12.642857142857215L75.70849042968752,12.642857142857215L75.73107480468751,12.642857142857215L75.80203769531249,12.642857142857215L75.8257435546875,12.642857142857215L75.84944941406249,12.642857142857215L75.873329296875,12.642857142857215L75.8966291015625,12.642857142857215L75.94390546875,12.642857142857215L75.96716660156248,12.642857142857215L75.9906791015625,12.642857142857215L76.061506640625,12.642857142857215L76.08496113281251,12.642857142857215L76.1307099609375,12.642857142857215L76.1553052734375,12.642857142857215L76.1777349609375,12.642857142857215L76.24751835937501,12.642857142857215L76.29570351562501,12.642857142857215L76.3180365234375,12.642857142857215L76.34102695312501,12.642857142857215L76.36467480468751,12.642857142857215L76.3895794921875,12.642857142857215L76.45706191406249,12.642857142857215L76.526651953125,12.642857142857215L76.55028046875,12.642857142857215L76.619541796875,12.642857142857215L76.643441015625,12.642857142857215L76.73781972656249,12.642857142857215L76.80947871093748,12.642857142857215L76.8319470703125,12.642857142857215L76.88044160156251,12.642857142857215L76.9267125,12.642857142857215L76.9732927734375,12.642857142857215L76.99808144531251,12.642857142857215L77.02169062499999,12.642857142857215L77.0450677734375,12.642857142857215L77.14027792968749,12.642857142857215L77.16295898437501,12.642857142857215L77.18658749999999,12.642857142857215L77.2340765625,12.642857142857215L77.25681562499999,12.642857142857215L77.28019277343749,12.642857142857215L77.3742234375,12.642857142857215L77.4206296875,12.642857142857215L77.4682734375,12.642857142857215L77.5151630859375,12.642857142857215L77.53832753906251,12.642857142857215L77.587112109375,12.642857142857215L77.680466015625,12.642857142857215L77.72857382812501,12.642857142857215L77.75204765624999,12.642857142857215L77.82210175781249,12.642857142857215L77.89236855468751,12.642857142857215L77.98529707031251,12.642857142857215L78.0318580078125,12.642857142857215L78.056047265625,12.642857142857215L269.9153015625,12.642857142857215L270.1277068359375,12.642857142857215L270.170071875,12.642857142857215L270.2091111328125,12.642857142857215L270.23635546875,12.642857142857215L270.3182625,12.642857142857215L270.3449267578125,12.642857142857215L270.37367929687497,12.642857142857215L270.428129296875,12.642857142857215L270.4528986328125,12.642857142857215L270.4778806640625,12.642857142857215L270.5291208984375,12.642857142857215L270.553580859375,12.642857142857215L270.6259939453125,12.642857142857215L270.6524068359375,12.642857142857215L270.7067021484375,12.642857142857215L270.7632791015625,12.642857142857215L270.79135488281247,12.642857142857215L270.8161048828125,12.642857142857215L270.91752187500003,12.642857142857215L270.9904376953125,12.642857142857215L271.015864453125,12.642857142857215L271.040227734375,12.642857142857215L271.064823046875,12.642857142857215L271.1385703125,12.642857142857215L271.2177123046875,12.642857142857215L271.2449953125,12.642857142857215L271.2705380859375,12.642857142857215L271.294301953125,12.642857142857215L271.319748046875,12.642857142857215L271.368590625,12.642857142857215L271.4439814453125,12.642857142857215L271.51763203125,12.642857142857215L271.6174248046875,12.642857142857215L271.6411306640625,12.642857142857215L271.6650298828125,12.642857142857215L271.69065,12.642857142857215L271.7154580078125,12.642857142857215L271.7627537109375,12.642857142857215L271.7870203125,12.642857142857215L271.88406738281253,12.642857142857215L271.9574859375,12.642857142857215L271.98138515625,12.642857142857215L272.055441796875,12.642857142857215L272.0792830078125,12.642857142857215L272.1032982421875,12.642857142857215L272.1280095703125,12.642857142857215L272.1521408203125,12.642857142857215L272.2017568359375,12.642857142857215L272.22548203125,12.642857142857215L272.249806640625,12.642857142857215L272.2775150390625,12.642857142857215L272.30421796875,12.642857142857215" style="fill: none;" fill="none"></path></g></g></g></g><g opacity="0.2"><g><g><g><path stroke="rgb(51, 187, 238)" stroke-width="2px" d="M35.2835806640625,201.77332985401154L35.515399218750005,161.3800833565848L35.539646484375,160.86305691514696L35.5912927734375,160.25013830832074L35.671362890625,159.67470995868953L35.6955134765625,160.53476283379962L35.7439693359375,160.35021280390876L35.793488671875004,160.16340205499102L35.81860605468751,160.1454293387277L35.865824414062494,159.85820498636792L35.9126173828125,159.42776408365796L35.936110546875,159.52994858367103L36.008639648437494,159.46378487348557L36.0343951171875,159.78895162684577L36.061581445312505,159.5191724896431L36.0890384765625,159.63526041167123L36.1159927734375,159.58318851675304L36.1982478515625,167.12894112723214L36.2238873046875,164.58246721540178L36.282533203125,164.00372314453125L36.3316078125,162.49898856026786L36.357711328125006,161.50683433668954L36.3830994140625,161.51512363978793L36.4099763671875,161.02424618176053L36.4820607421875,160.35119244882037L36.5059599609375,160.5045445561409L36.5329916015625,160.41547222648347L36.5574708984375,159.8958836368152L36.6047666015625,159.54852415834154L36.675207421874994,160.03740464789527L36.823475390625,160.17783297811235L36.8519958984375,160.20179659979684L36.885195703125,160.19542890787125L36.9210638671875,160.18397459813525L36.9462392578125,159.95518983261925L36.970834570312505,159.9884977596147L37.095164648437496,162.49898856026786L37.3010923828125,160.08902439900805L37.3903083984375,159.49916512625558L37.416837304687505,158.377434023789L37.5905900390625,155.22610473632812L37.669403320312504,153.71922246898922L37.7199087890625,151.4828815289906L37.746166992187504,150.20900403601783L37.7697375,93.82135881696428L37.867325976562505,102.9886498280934L37.890819140625,102.1552734375L37.915453125,98.40718968425477L37.9859326171875,89.7315673828125L38.010798632812495,86.66595702511924L38.081007421875,79.61179776702609L38.175946875,71.65760858569827L38.223783984375004,68.20228794642857L38.274908203125,65.49443637473243L38.2990974609375,64.25002358640944L38.323035351562496,63.00643972839629L38.349022851562495,61.81914777415141L38.39908359375,59.605451703071594L38.448235546875,57.3618011048862L38.50229882812501,26.841378348214295L38.5742865234375,24.989397321428587L38.598572460937504,25.020256136144926L38.623883203125,24.93792828491756L38.674504687500004,24.140572684151795L38.6991193359375,23.600411551339295L38.7274658203125,23.307158614907948L38.8022185546875,22.460707732609354L38.8504037109375,22.129097930022652L38.875289062499995,22.0860312325614L38.9213859375,21.799861882414152L38.944782421875,21.68343485253199L39.01876171875,21.271381131240304L39.136053515625,20.570935019424997L39.1595080078125,20.475155889987946L39.1832912109375,20.38073319196701L39.2311283203125,18.198800223214295L39.2571158203125,17.427141462053587L39.305745703125,16.92556326729911L39.3523259765625,16.861245810985565L39.377752734374994,16.67748703275409L39.40114921875001,16.63619123186385L39.425125781249996,16.74120163066047L39.47184140625,16.865917963641042L39.49829296875,16.74549699681147L39.66551015625,16.60672652721405L39.76157109375,16.427338472434457L39.8567232421875,16.243918802056996L39.8807771484375,16.197988527161744L39.9039802734375,16.14991056919098L40.00160742187499,14.957833426339294L40.02546796875,15.073582240513407L40.0728796875,15.36935964652472L40.146975,15.249353144850067L40.1705455078125,15.23563811608725L40.2486626953125,15.242721702371327L40.272929296875,15.310580951826925L40.324285546875,15.314725603376118L40.3497703125,15.284658040319172L40.37382421875,15.240762412548065L40.4205205078125,15.251048684120178L40.4439169921875,15.207680557455353L40.466443359375,15.1893310546875L40.49030390625,15.172526376588012L40.513777734375,15.170039585658488L40.53686484375,15.18624140535083L40.607518359375,15.150710437979034L40.675696875,14.803501674107157L40.770558984375,14.433082861559743L40.794226171875,14.469103651387359L40.842430664062505,14.57200404575893L40.888856249999996,14.494838169642863L40.911479296875,14.46676757505962L41.027011523437494,14.629878452845988L41.098187109375,14.77102267742157L41.1207134765625,14.718611674649383L41.144090625,14.700601279735585L41.167255078124995,14.6772028378078L41.2150728515625,14.694158230509094L41.3102056640625,14.654671004840312L41.356321875,14.644007946763722L41.4038689453125,13.954677036830363L41.451164648437505,14.610586983816976L41.570660742187506,14.494838169642863L41.6171830078125,14.354522875377116L41.711213671875,14.474227947848195L41.828060742187496,14.502562292984567L41.8749890625,14.501846398626057L41.898462890625005,14.46126649209433L41.9764833984375,14.429503389767252L42.027936328125,14.423173376492105L42.0552966796875,14.399059040205831L42.08018203125,14.402224046843404L42.1288505859375,14.186174665178589L42.1552634765625,14.28903738089972L42.182411132812504,14.37908935546877L42.2965125,14.263340541294657L42.324046875,14.28907505955016L42.3736822265625,14.186174665178589L42.445921289062504,14.197176831109191L42.5400099609375,14.20331845113211L42.5658234375,14.218653661864156L42.589819335937506,14.209309356553222L42.6153041015625,14.186174665178589L42.66459140625,14.226415463856302L42.736308398437494,14.257387314523987L42.7589701171875,14.237606023039154L42.78184453125,14.202677914074503L42.853890234375,13.105852399553589L42.877325390625,14.03184291294643L42.923402929687505,14.10900878906252L43.064729296875,14.232481726578317L43.1112708984375,14.263340541294657L43.1826205078125,14.237568344388691L43.2056109375,14.195820399693094L43.2520751953125,14.237606023039154L43.275084960937505,14.234893160206939L43.392802148437504,14.147591727120544L43.4164306640625,14.13681563309261L43.462933593749995,14.100418056760518L43.508759765625,14.09570822545462L43.533509765625,14.103846813951222L43.556674218750004,13.877511160714294L43.626902343750004,13.916094098772339L43.651729687499994,13.970087604863311L43.6746814453125,13.903208000319356L43.7218611328125,13.954677036830363L43.7448708984375,13.928942518574859L43.791895898437495,14.045859370912842L43.8159111328125,13.967525456632904L43.8631294921875,13.943637192249318L43.91044453125,13.867865426199788L43.955709960937504,13.877511160714294L43.978275000000004,13.853133073874888L44.003276367187496,13.846652345997954L44.0497599609375,13.891527618680684L44.0724796875,13.897631560053162L44.142050390625,13.924986260277892L44.1653115234375,13.911798732621337L44.1882052734375,13.910555337156586L44.211543750000004,13.941376473222462L44.259999609375,13.877511160714294L44.2828546875,13.723179408482157L44.3059998046875,13.877511160714294L44.3291642578125,13.800345284598226L44.539171875,13.723141729831715L44.561292187499994,13.712139563901092L44.608413867187494,13.694242204938618L44.677501171875,13.771897903510508L44.8422626953125,13.752832506384186L44.86502109375,13.740323194435678L44.9588583984375,13.877511160714294L44.982080859374996,13.800345284598226L45.00439453125,13.877511160714294L45.051071484375,13.723179408482157L45.09828984375,13.67905770880836L45.19090898437501,13.653021761349283L45.4002978515625,13.723179408482157L45.423017578125,13.723179408482157L45.448308984375004,13.70211704288211L45.471570117187504,13.703021330492849L45.5194845703125,13.710858489785878L45.5420689453125,13.699404180049916L45.6124517578125,13.696578281266357L45.6837240234375,13.260184151785726L45.847828125,13.654566586017628L45.8700451171875,13.61515471764975L45.893170898437496,13.624951166766042L45.917766210937494,13.658861952168609L45.9638630859375,13.712139563901092L45.987394921874994,13.723141729831715L46.0105787109375,13.771408081054707L46.0583771484375,13.7574669803892L46.0810775390625,13.763796993664347L46.10406796875,13.76176234654018L46.1522337890625,13.744204095431742L46.199181445312504,13.736027828284678L46.221843164062506,13.754075901848937L46.316260546875,13.733842466558746L46.4809060546875,13.800345284598226L46.552216992187496,13.94608630452838L46.5749947265625,13.892921728747243L46.620685546875,13.916094098772339L46.667961914062495,13.855431471552185L46.7381900390625,13.795786167894093L46.997020898437505,13.778265595436116L47.065721484375,13.414515904017863L47.088228515625,13.723179408482157L47.1131525390625,13.723179408482157L47.1584373046875,13.53798884153368L47.204282812500004,13.568809977599559L47.229071484375,13.588139125279032L47.274491601562495,13.661424100399037L47.3915900390625,13.589382520743785L47.4143291015625,13.588139125279032L47.555848828125,13.603888801165995L47.6042466796875,13.588139125279032L47.627875195312505,13.605885769639698L47.650865624999994,13.610369529042927L47.67383671875,13.614589537893025L47.697697265624996,13.585350905145935L47.7207650390625,13.606111841542388L47.743407421875,13.594544495855061L47.767035937500005,13.105852399553589L47.789968359374996,13.260184151785726L47.812862109375,13.414515904017863L47.860602539062505,13.383657089301524L47.9288970703125,13.49168178013393L47.95366640625,13.465947261878428L47.97702421875,13.52254059485027L48.0219029296875,13.581696076052541L48.1177705078125,13.520618983677469L48.1633453125,13.543113137994496L48.211105078124994,13.553399409566609L48.233998828125,13.532073293413452L48.30403359375,13.510973249162964L48.3278748046875,13.519488624164042L48.35152265625,13.503512876374389L48.398102929687504,13.502683946064554L48.445069921875,13.471071558339263L48.4914375,13.183018275669657L48.5385978515625,13.337350027901794L48.5616462890625,13.414515904017863L48.6290900390625,13.433807373046895L48.676598437500004,13.50709234816688L48.699221484375,13.484635872500295L48.721747851562505,13.440212743622924L48.7446609375,13.49759732825416L48.7704357421875,13.502683946064554L48.793194140625,13.465909583227987L48.838981640625,13.459918677806874L48.8617787109375,13.457394208226887L48.98125546875,13.481621580464507L49.0046712890625,13.472390311104919L49.0518123046875,13.51541932991573L49.0749380859375,13.500234833785472L49.098025195312495,13.49164410148349L49.169104101562496,13.260184151785726L49.214717578125,13.517378619738993L49.2611625,13.260184151785726L49.305557812500005,13.348352193832417L49.351693359375,13.363084546157298L49.3981576171875,13.34435825688499L49.420490625,13.375932965959839L49.444621875,13.355134350912923L49.5150046875,13.318058558872782L49.60882265625,13.321901781218404L49.631523046874996,13.355699530669627L49.676691796875,13.307131750243062L49.69977890625,13.285880991390787L49.7459724609375,13.283921701567525L49.837740820312504,13.285880991390787L49.861272656249994,13.56884765625002L49.9064994140625,13.465947261878428L49.9534083984375,13.56884765625002L50.11496015625001,13.350198447704335L50.137351171875,13.319528026240224L50.1824619140625,13.321901781218404L50.206689843750006,13.289121355329243L50.2291388671875,13.296506370816914L50.252109960937496,13.29447172369277L50.2756998046875,13.292663148471293L50.29890292968749,13.26790827512743L50.3477841796875,13.288217067718525L50.3706005859375,13.287011350904194L50.463587109375,13.265911306653706L50.486229492187505,13.265685234751038L50.53199765625,13.249860201563171L50.579332031250004,12.874354771205363L50.647355859375,13.136711214269928L50.6948255859375,13.171978431088592L50.718434765625,13.125143868582601L50.741231835937505,13.105852399553589L50.8106671875,13.157283757414154L50.833328906249996,13.153327499117188L50.8562419921875,13.171978431088592L50.87973515625,13.136673535619465L50.90398242187499,13.144435337611613L50.9498859375,13.12299618550711L50.97316640625,13.130230486392994L50.9956541015625,13.136711214269928L51.043143164062506,13.119868857519979L51.0665203125,13.152799998010925L51.0886212890625,13.150840708187662L51.111186328125,13.142890512943287L51.1356462890625,13.147374272346516L51.1583466796875,13.140139971460632L51.2031673828125,13.153741964272104L51.22638984375,13.146959807191578L51.2975267578125,12.95152064732143L51.392137500000004,13.08377271039146L51.4607607421875,13.121262967586537L51.4843119140625,13.077781804970346L51.50931328125,13.092966301100606L51.5555068359375,13.08377271039146L51.57762714843749,13.064669634614674L51.59980546875,13.067269461495544L51.6238787109375,13.06953018052238L51.6688927734375,13.057096225874776L51.692579296874996,13.044097091470448L51.7158404296875,13.047036026205353L51.807608789062506,13.05031406879427L51.900537304687504,13.047299776758484L51.9240884765625,13.044097091470448L51.9709974609375,12.797188895089294L51.99379453125,12.848620252949859L52.0159728515625,12.874354771205363L52.038731250000005,12.889765339238311L52.062437109375,12.874354771205363L52.0875931640625,12.885356937135986L52.1560810546875,12.905213585921702L52.1782400390625,12.9374665107046L52.202429296875,12.95152064732143L52.31771015625,12.933359537805847L52.36473515625,12.967760145664235L52.3879576171875,12.95152064732143L52.4107740234375,12.95152064732143L52.43618144531249,12.958528876304646L52.481582226562494,12.964369067123972L52.551152929687504,12.974391588142954L52.575690234375,12.979063740798411L52.64551230468751,13.105852399553589L52.667961328125,13.02868652343752L52.69273066406251,12.95152064732143L52.738479492187494,12.920661832605091L52.783802929687496,12.995604668344788L52.854669140625,12.99782770872118L52.877910937500005,12.979553563254232L52.926463476562496,12.98712697199413L52.994351953125,12.990103585379476L53.016936328125006,13.015084530626027L53.041454296874996,13.020095791135518L53.087473828125006,13.020962400095815L53.110348242187506,13.024994015693684L53.1333,13.007624157837473L53.157431249999995,13.025333123547698L53.181059765625,13.015800424984537L53.2038955078125,13.000917358057851L53.2271953125,12.99304252011436L53.3228115234375,12.99779003007072L53.3471748046875,12.797188895089294L53.44120546875,13.07499358483725L53.46402187499999,13.13154923915865L53.5116462890625,13.086560930524556L53.5581298828125,13.02868652343752L53.604284765625,13.002952005181996L53.629808203125,12.97525819710323L53.653552734375005,12.973524979182658L53.6768138671875,12.95148296867099L53.70015234375,12.932229178292419L53.723162109375004,12.915198428290243L53.77078652343751,12.927142560482045L53.8177921875,12.914746284484883L53.864933203125,12.911242169993276L53.9356447265625,12.91587664399829L53.95863515625,12.922922551631947L53.9808134765625,12.918438792228718L54.0056021484375,12.924919520105652L54.0289599609375,12.92062415395465L54.123860742187496,12.75860595703127L54.1693775390625,12.874354771205363L54.19321875,12.84127291611263L54.2410751953125,12.848620252949859L54.31110996093751,12.835771833147339L54.358734375,12.84127291611263L54.3819375,12.869192796094085L54.4045798828125,12.864709036690856L54.4765869140625,12.878424065453673L54.5470470703125,12.867308863571726L54.57059824218751,12.877708171095184L54.6191314453125,12.889803017888752L54.66613710937501,12.905778765678425L54.71325878906249,12.903631082602915L54.737022656250005,12.900051610810424L54.833392968750005,12.95152064732143L54.879915234375,12.874354771205363L54.9027123046875,12.84127291611263L54.925548046875,12.816480364118306L54.949273242187495,12.831476466996337L55.020796875,12.797188895089294L55.0676091796875,12.808191061019917L55.1614078125,12.84006719929832L55.21011503906251,12.843495956489024L55.2338015625,12.84127291611263L55.257043359375,12.839275947638926L55.28028515625,12.830722893987385L55.3035849609375,12.848620252949859L55.399993945312495,12.890858020101277L55.447347656249995,12.910337882382537L55.471130859375,13.105852399553589L55.542364453124996,13.183018275669657L55.5672498046875,13.198428843702606L55.5903369140625,13.260184151785726L55.612940625,13.238104462623616L55.635699023437496,13.22160121372768L55.6829947265625,13.167570028986267L55.706178515625005,13.133885315486369L55.730019726562496,13.105852399553589L55.752778125,13.082077171121327L55.801117968750006,13.054383363042561L55.8719841796875,13.02868652343752L55.9196279296875,13.020962400095815L55.942599023437495,13.010299342019225L55.99014609375,13.011881845338012L56.014199999999995,13.002952005181996L56.0381765625,12.99473805938449L56.0847955078125,13.008679160049997L56.1080373046875,13.001105751310078L56.1541728515625,12.992628054959441L56.17940624999999,12.797188895089294L56.3443611328125,12.797188895089294L56.368415039062505,12.814332681042815L56.392120898437504,12.843495956489024L56.41776035156251,12.867308863571726L56.44140820312499,12.874354771205363L56.4651140625,12.89213909421649L56.48835585937499,12.874317092554922L56.537701171875,12.855063302176351L56.560788281250005,12.851672223636088L56.583798046875,12.848620252949859L56.66118046875,12.833925579275421L56.685505078125004,12.839275947638926L56.711550585937495,12.857550093105875L56.73523710937501,12.8614686727524L56.786748046875005,12.868401544434692L56.935016015625,12.797188895089294L56.959553320312494,12.745719858578287L56.983839257812505,12.835771833147339L57.034093359375,12.822885734694356L57.1298642578125,12.812599463122243L57.2029154296875,12.844663994652892L57.273704296875,12.816480364118306L57.3680830078125,12.835771833147339L57.438291796875006,12.837429693767008L57.461533593750005,12.855063302176351L57.485162109375004,12.846585605825714L57.5330185546875,12.848620252949859L57.556086328125005,12.84127291611263L57.5797341796875,12.84507845980781L57.626217773437496,12.642857142857157L57.65156718749999,12.720023018973226L57.6740548828125,12.694288500717722L57.696658593749994,12.68144008091518L57.719745703125,12.673715957573496L57.767853515625,12.708983174392161L57.7907859375,12.720023018973226L57.836302734374996,12.720023018973226L57.8845072265625,12.720023018973226L57.909334570312495,12.785282441547952L57.956726953125,12.807437488010965L58.005762890625,12.815350004604898L58.0293333984375,12.805741948740835L58.0520337890625,12.805289804935475L58.075681640625,12.804913018431L58.146760546875,12.803895694868917L58.1693642578125,12.816480364118306L58.19196796874999,12.821906089782734L58.26372363281249,12.824731988566274L58.287062109375,12.823790022305094L58.477018359375,12.797151216438852L58.546821093750005,12.797188895089294L58.5710103515625,12.811205353055684L58.6184994140625,12.809019991329752L58.665505078125,12.797151216438852L58.688766210937494,12.826126098632832L58.7612759765625,12.837806480271484L58.78420839843751,12.835771833147339L58.8308080078125,12.839275947638926L58.855248632812504,12.84413649354663L58.878857812499994,12.8614686727524L58.902466992187506,12.865123501845774L58.973101171874994,12.863314926624318L59.1627673828125,12.822885734694356L59.186801953125,12.797151216438852L59.21120390625,12.816480364118306L59.2583642578125,12.828047709805633L59.304422460937495,12.822885734694356L59.329346484374994,12.820926444871093L59.35258828124999,12.81919322695052L59.399825976562504,12.8068346296038L59.448494531250006,12.822923413344798L59.47175566406249,12.813428393432078L59.4950361328125,12.804913018431L59.56713984375,12.797188895089294L59.59049765625,12.790745845862803L59.6146095703125,12.784867976393036L59.7331388671875,12.792026919978017L59.779409765625,12.720023018973226L59.8023615234375,12.745719858578287L59.8502953125,12.797188895089294L59.87357578125,12.797188895089294L59.920175390625005,12.816480364118306L60.06316464843751,12.808191061019917L60.0859037109375,12.817723759583078L60.133528125,12.815350004604898L60.181171875,12.797188895089294L60.2746224609375,12.803895694868917L60.3226142578125,12.797188895089294L60.3701806640625,12.802916049957295L60.418501171875,12.807851953165883L60.4658548828125,12.642857142857157L60.5117390625,12.797188895089294L60.5368177734375,12.797188895089294L60.56069765624999,12.828047709805633L60.584326171875,12.797188895089294L60.607916015624994,12.775109205927185L60.70260410156251,12.769118300506053L60.7500931640625,12.761544891766153L60.77459179687501,12.753067195415516L60.9152994140625,12.766330080372954L60.961918359375,12.769118300506053L61.009948828125005,12.765011327607299L61.0348921875,12.760150781699595L61.05747656250001,12.755629343645925L61.2003111328125,12.720023018973226L61.272608203124996,12.673715957573496L61.3212767578125,12.708983174392161L61.392723046875005,12.689164204256887L61.460940234375,12.690332242420755L61.485438867187504,12.686941163880492L61.5324638671875,12.691085815429707L61.5557443359375,12.688259916646148L61.5791794921875,12.685735447066183L61.602015234375,12.699714226382131L61.6504130859375,12.694288500717722L61.673306835937495,12.691952424389983L61.7198677734375,12.694288500717722L61.7442697265625,12.704612450940276L61.7675115234375,12.702201017311655L61.836328125,12.717347834791473L61.8616388671875,12.719985340322784L61.9079291015625,12.797188895089294L62.0961837890625,12.781740648405904L62.119676953125,12.769118300506053L62.141893945312496,12.797188895089294L62.1653484375,12.797151216438852L62.2355572265625,12.777897426060282L62.259398437499996,12.779027785573689L62.2829302734375,12.771454376833791L62.3546666015625,12.775146884577627L62.377308984375,12.776126529489247L62.40055078125,12.770324017320362L62.4719390625,12.767498118536825L62.75385703125001,12.68144008091518L62.8252259765625,12.69896065337318L62.8711875,12.714069792202555L62.895106054687496,12.708983174392161L62.94280781250001,12.700731549944214L62.9655275390625,12.697340471403951L62.989020703125,12.711432286671243L63.0349435546875,12.71229889563152L63.1057130859375,12.709962819303803L63.128548828125,12.713579969746734L63.151558593749996,12.710791749613637L63.1769853515625,12.708116565431885L63.200091796875,12.711432286671243L63.223604296874996,12.708983174392161L63.247039453125005,12.712035145078389L63.2700298828125,12.714861043861948L63.3194912109375,12.720023018973226L63.366342187499995,12.720023018973226L63.39024140625,12.735433587006174L63.438387890625,12.753067195415516L63.4840787109375,12.745757537228728L63.530736328125,12.755064163889221L63.556124414062495,12.784302796636311L63.579153515625,12.773413666657053L63.601757226562505,12.775109205927185L63.6260044921875,12.766292401722513L63.649458984374995,12.777897426060282L63.743779687499995,12.75860595703127L63.863469140625,12.753971483026234L63.8867302734375,12.755629343645925L63.9344513671875,12.753067195415516L63.957519140625,12.754612020083842L63.981186328125,12.7560061301504L64.05292265625,12.642857142857157L64.07628046875,12.642857142857157L64.0993482421875,12.642857142857157L64.1464119140625,12.686941163880492L64.215615234375,12.673715957573496L64.28642343749999,12.714069792202555L64.3314568359375,12.714861043861948L64.3786171875,12.724544457026896L64.4017236328125,12.720023018973226L64.4482072265625,12.71229889563152L64.4705015625,12.708983174392161L64.543011328125,12.700731549944214L64.5669298828125,12.710791749613637L64.59024902343751,12.719985340322784L64.6380861328125,12.714484257357473L64.6617533203125,12.717347834791473L64.68511113281251,12.714861043861948L64.732039453125,12.642857142857157L64.757021484375,12.642857142857157L64.7800505859375,12.68144008091518L64.8034083984375,12.673715957573496L64.826940234375,12.66855398246222L64.8502787109375,12.664861474718384L64.8995080078125,12.660000928810678L64.969059375,12.655705562659678L64.9956462890625,12.654688239097615L65.0417818359375,12.663392007350941L65.1378814453125,12.691575637885508L65.16063984375,12.689164204256887L65.20673671875,12.68494419540679L65.300283984375,12.690332242420755L65.3482951171875,12.686941163880492L65.3940052734375,12.69425082206728L65.4446654296875,12.797188895089294L65.469628125,12.745719858578287L65.492947265625,12.720023018973226L65.5166724609375,12.704574772289835L65.563098046875,12.775109205927185L65.6336935546875,12.750881833689565L65.65656796875,12.769118300506053L65.70434707031251,12.749676116875253L65.72892304687501,12.742027350834451L65.752358203125,12.7560061301504L65.79874511718751,12.806269449847097L65.89381992187501,12.819230905600962L65.9407095703125,12.824016094207783L65.9650921875,12.829328783920847L66.01095703125,12.826841992991323L66.03421816406251,12.820059835910817L66.105741796875,12.807437488010965L66.13025976562501,12.797188895089294L66.25128339843751,12.720023018973226L66.274621875,12.708983174392161L66.29761230468749,12.700731549944214L66.3220916015625,12.711432286671243L66.367473046875,12.69896065337318L66.414807421875,12.690332242420755L66.4390546875,12.686941163880492L66.4623158203125,12.683964550495167L66.4856736328125,12.68144008091518L66.507851953125,12.679179361888346L66.5306103515625,12.6771447147642L66.60310078124999,12.679593827043263L66.674527734375,12.68144008091518L66.721475390625,12.684379015650086L66.7676302734375,12.686941163880492L66.7911427734375,12.690746707575673L66.8153513671875,12.689126525606445L66.8388638671875,12.642857142857157L66.86204765625,12.642857142857157L66.9551888671875,12.694288500717722L67.048330078125,12.673715957573496L67.094504296875,12.66855398246222L67.1170306640625,12.666594692638956L67.188399609375,12.662148611886169L67.210597265625,12.661018252372761L67.2335876953125,12.660000928810678L67.30578808593751,12.664899153368825L67.375416796875,12.66855398246222L67.4007662109375,12.667574337550578L67.4248974609375,12.678463467529856L67.47159375,12.68140240226474L67.49574433593749,12.680121328149525L67.5197208984375,12.678840254034332L67.5899103515625,12.848620252949859L67.63873359374999,12.858906524521972L67.6617626953125,12.822885734694356L67.6842310546875,12.797151216438852L67.70671875000001,12.777897426060282L67.7299025390625,12.76290132318225L67.754169140625,12.750881833689565L67.8005173828125,12.732871438775746L67.82428125,12.725938567093454L67.89390996093749,12.729668753487731L68.0120138671875,12.72367784806662L68.105928515625,12.723112668309895L68.293564453125,12.694288500717722L68.31725097656249,12.68144008091518L68.3401833984375,12.673715957573496L68.365030078125,12.694288500717722L68.45904140625,12.673715957573496L68.52880546875,12.678463467529856L68.55216328125,12.686941163880492L68.5997296875,12.68144008091518L68.623590234375,12.679179361888346L68.64667734375,12.6771447147642L68.66982246093751,12.675336139542724L68.71796894531249,12.679593827043263L68.764510546875,12.683097941534871L68.78752031249999,12.68144008091518L68.810143359375,12.679895256246857L68.8589279296875,12.682871869632182L68.8813189453125,12.68140240226474L68.9044447265625,12.680121328149525L68.95303593749999,12.797188895089294L68.99903613281249,12.745719858578287L69.14310820312501,12.711432286671243L69.19055859375,12.712977111339589L69.28453125,12.69425082206728L69.3093005859375,12.691085815429707L69.331981640625,12.688259916646148L69.4248328125,12.686941163880492L69.54202792968749,12.690332242420755L69.5666619140625,12.688599024500183L69.659455078125,12.642857142857157L69.75439453124999,12.642857142857157L69.8258021484375,12.642857142857157L69.8957208984375,12.642857142857157L69.919484765625,12.642857142857157L69.9435966796875,12.642857142857157L70.01289667968751,12.642857142857157L70.037511328125,12.642857142857157L70.1074494140625,12.642857142857157L70.13053652343751,12.642857142857157L70.1543970703125,12.642857142857157L70.1778515625,12.64956394263678L70.20035859375001,12.649262513433186L70.36537148437499,12.642857142857157L70.39081757812501,12.642857142857157L70.413324609375,12.642857142857157L70.43664375000002,12.642857142857157L70.4832240234375,12.642857142857157L70.50764531250002,12.642857142857157L70.5312544921875,12.642857142857157L70.55505703125,12.642857142857157L70.5779314453125,12.642857142857157L70.600341796875,12.642857142857157L70.62395097656251,12.642857142857157L70.64792753906251,12.642857142857157L70.671033984375,12.642857142857157L70.739328515625,12.642857142857157L70.7863921875,12.642857142857157L70.903606640625,12.642857142857157L70.92692578125,12.642857142857157L70.95003222656251,12.642857142857157L70.9977919921875,12.642857142857157L71.16152871093749,12.642857142857157L71.2084376953125,12.642857142857157L71.32632890625,12.642857142857157L71.35044082031251,12.642857142857157L71.44495488281251,12.642857142857157L71.4929853515625,12.642857142857157L71.516671875,12.650581266198841L71.56269140625,12.649865371840352L71.5875380859375,12.64956394263678L71.633886328125,12.655215740203877L71.6562580078125,12.654688239097615L71.799092578125,12.642857142857157L71.82148359374999,12.642857142857157L71.8460595703125,12.642857142857157L71.9633900390625,12.642857142857157L71.98740527343749,12.642857142857157L72.2003326171875,12.642857142857157L72.22372910156251,12.642857142857157L72.292275,12.642857142857157L72.316290234375,12.642857142857157L72.339261328125,12.642857142857157L72.3629478515625,12.642857142857157L72.3855322265625,12.642857142857157L72.40883203125001,12.642857142857157L72.4328279296875,12.642857142857157L72.4800849609375,12.642857142857157L72.527051953125,12.642857142857157L72.551569921875,12.642857142857157L72.5749083984375,12.642857142857157L72.62036718750001,12.642857142857157L72.64428574218749,12.642857142857157L72.6915814453125,12.642857142857157L72.73847109375001,12.642857142857157L72.76150019531251,12.642857142857157L72.8107875,12.642857142857157L72.8342033203125,12.642857142857157L72.9294908203125,12.642857142857157L72.9542021484375,12.642857142857157L73.002329296875,12.642857142857157L73.02512636718748,12.642857142857157L73.04894824218749,12.642857142857157L73.0728474609375,12.642857142857157L73.1187123046875,12.642857142857157L73.1422634765625,12.642857142857157L73.166762109375,12.642857142857157L73.19052597656251,12.642857142857157L73.28484667968749,12.642857142857157L73.332355078125,12.642857142857157L73.3546880859375,12.642857142857157L73.377137109375,12.642857142857157L73.42654042968749,12.642857142857157L73.47430019531251,12.642857142857157L73.52176992187499,12.642857142857157L73.5674607421875,12.642857142857157L73.590141796875,12.642857142857157L73.6140603515625,12.642857142857157L73.660679296875,12.642857142857157L73.68345703125,12.642857142857157L73.7069115234375,12.642857142857157L73.730752734375,12.642857142857157L73.7561408203125,12.642857142857157L73.779866015625,12.642857142857157L73.8261369140625,12.642857142857157L73.849359375,12.642857142857157L73.9206896484375,12.642857142857157L73.9436220703125,12.642857142857157L73.9916912109375,12.642857142857157L74.0145076171875,12.642857142857157L74.0837109375,12.642857142857157L74.1092537109375,12.642857142857157L74.131934765625,12.642857142857157L74.1549251953125,12.642857142857157L74.17762558593749,12.642857142857157L74.22610078125,12.642857142857157L74.31875859375,12.642857142857157L74.3661703125,12.642857142857157L74.38974082031251,12.642857142857157L74.41275058593749,12.642857142857157L74.4831720703125,12.642857142857157L74.5064138671875,12.642857142857157L74.55187265625,12.642857142857157L74.575269140625,12.642857142857157L74.64808828125,12.642857142857157L74.6715234375,12.642857142857157L74.6942431640625,12.642857142857157L74.71918652343749,12.642857142857157L74.76565078124999,12.642857142857157L74.8125017578125,12.642857142857157L74.8606095703125,12.642857142857157L74.88375468749999,12.642857142857157L74.9296775390625,12.642857142857157L74.9543115234375,12.642857142857157L74.97844277343751,12.642857142857157L75.00261269531251,12.642857142857157L75.048999609375,12.642857142857157L75.12034921875,12.642857142857157L75.14405507812499,12.642857142857157L75.167876953125,12.642857142857157L75.19196953125001,12.642857142857157L75.21526933593749,12.642857142857157L75.2846853515625,12.642857142857157L75.30900996093749,12.642857142857157L75.37848398437501,12.642857142857157L75.40108769531248,12.642857142857157L75.42444550781251,12.642857142857157L75.47203125,12.642857142857157L75.495891796875,12.642857142857157L75.5198296875,12.642857142857157L75.61442109375001,12.642857142857157L75.6854806640625,12.642857142857157L75.70849042968752,12.642857142857157L75.73107480468751,12.642857142857157L75.80203769531249,12.642857142857157L75.8257435546875,12.642857142857157L75.84944941406249,12.642857142857157L75.873329296875,12.642857142857157L75.8966291015625,12.642857142857157L75.94390546875,12.642857142857157L75.96716660156248,12.642857142857157L75.9906791015625,12.642857142857157L76.061506640625,12.642857142857157L76.08496113281251,12.642857142857157L76.1307099609375,12.642857142857157L76.1553052734375,12.642857142857157L76.1777349609375,12.642857142857157L76.24751835937501,12.642857142857157L76.29570351562501,12.642857142857157L76.3180365234375,12.642857142857157L76.34102695312501,12.642857142857157L76.36467480468751,12.642857142857157L76.3895794921875,12.642857142857157L76.45706191406249,12.642857142857157L76.526651953125,12.642857142857157L76.55028046875,12.642857142857157L76.619541796875,12.642857142857157L76.643441015625,12.642857142857157L76.73781972656249,12.642857142857157L76.80947871093748,12.642857142857157L76.8319470703125,12.642857142857157L76.88044160156251,12.642857142857157L76.9267125,12.642857142857157L76.9732927734375,12.642857142857157L76.99808144531251,12.642857142857157L77.02169062499999,12.642857142857157L77.0450677734375,12.642857142857157L77.14027792968749,12.642857142857157L77.16295898437501,12.642857142857157L77.18658749999999,12.642857142857157L77.2340765625,12.642857142857157L77.25681562499999,12.642857142857157L77.28019277343749,12.642857142857157L77.3742234375,12.642857142857157L77.4206296875,12.642857142857157L77.4682734375,12.642857142857157L77.5151630859375,12.642857142857157L77.53832753906251,12.642857142857157L77.587112109375,12.642857142857157L77.680466015625,12.642857142857157L77.72857382812501,12.642857142857157L77.75204765624999,12.642857142857157L77.82210175781249,12.642857142857157L77.89236855468751,12.642857142857157L77.98529707031251,12.642857142857157L78.0318580078125,12.642857142857157L78.056047265625,12.642857142857157L269.9153015625,12.642857142857157L270.1277068359375,12.642857142857157L270.170071875,12.642857142857157L270.2091111328125,12.642857142857157L270.23635546875,12.642857142857157L270.3182625,12.642857142857157L270.3449267578125,12.642857142857157L270.37367929687497,12.642857142857157L270.428129296875,12.642857142857157L270.4528986328125,12.642857142857157L270.4778806640625,12.642857142857157L270.5291208984375,12.642857142857157L270.553580859375,12.642857142857157L270.6259939453125,12.642857142857157L270.6524068359375,12.642857142857157L270.7067021484375,12.642857142857157L270.7632791015625,12.642857142857157L270.79135488281247,12.642857142857157L270.8161048828125,12.642857142857157L270.91752187500003,12.642857142857157L270.9904376953125,12.642857142857157L271.015864453125,12.642857142857157L271.040227734375,12.642857142857157L271.064823046875,12.642857142857157L271.1385703125,12.642857142857157L271.2177123046875,12.642857142857157L271.2449953125,12.642857142857157L271.2705380859375,12.642857142857157L271.294301953125,12.642857142857157L271.319748046875,12.642857142857157L271.368590625,12.642857142857157L271.4439814453125,12.642857142857157L271.51763203125,12.642857142857157L271.6174248046875,12.642857142857157L271.6411306640625,12.642857142857157L271.6650298828125,12.642857142857157L271.69065,12.642857142857157L271.7154580078125,12.642857142857157L271.7627537109375,12.642857142857157L271.7870203125,12.642857142857157L271.88406738281253,12.642857142857157L271.9574859375,12.642857142857157L271.98138515625,12.642857142857157L272.055441796875,12.642857142857157L272.0792830078125,12.642857142857157L272.1032982421875,12.642857142857157L272.1280095703125,12.642857142857157L272.1521408203125,12.642857142857157L272.2017568359375,12.642857142857157L272.22548203125,12.642857142857157L272.249806640625,12.642857142857157L272.2775150390625,12.642857142857157L272.30421796875,12.642857142857157" style="fill: none;" fill="none"></path></g></g></g></g></g></g><g transform="translate(51, 177)" clip-path="url(#clip_1)"><clipPath id="clip_1"><rect width="278" height="23"></rect></clipPath><g><g><line x1="0" y1="0" x2="0" y2="5" style="visibility: inherit;" fill="rgb(0, 0, 0)" stroke="rgb(204, 204, 204)" stroke-width="1px"></line><line x1="34.8046875" y1="0" x2="34.8046875" y2="5" style="visibility: inherit;" fill="rgb(0, 0, 0)" stroke="rgb(204, 204, 204)" stroke-width="1px"></line><line x1="69.609375" y1="0" x2="69.609375" y2="5" style="visibility: inherit;" fill="rgb(0, 0, 0)" stroke="rgb(204, 204, 204)" stroke-width="1px"></line><line x1="104.4140625" y1="0" x2="104.4140625" y2="5" style="visibility: inherit;" fill="rgb(0, 0, 0)" stroke="rgb(204, 204, 204)" stroke-width="1px"></line><line x1="139.21875" y1="0" x2="139.21875" y2="5" style="visibility: inherit;" fill="rgb(0, 0, 0)" stroke="rgb(204, 204, 204)" stroke-width="1px"></line><line x1="174.0234375" y1="0" x2="174.0234375" y2="5" style="visibility: inherit;" fill="rgb(0, 0, 0)" stroke="rgb(204, 204, 204)" stroke-width="1px"></line><line x1="208.828125" y1="0" x2="208.828125" y2="5" style="visibility: inherit;" fill="rgb(0, 0, 0)" stroke="rgb(204, 204, 204)" stroke-width="1px"></line><line x1="243.6328125" y1="0" x2="243.6328125" y2="5" style="visibility: inherit;" fill="rgb(0, 0, 0)" stroke="rgb(204, 204, 204)" stroke-width="1px"></line><line x1="278.4375" y1="0" x2="278.4375" y2="5" style="visibility: inherit;" fill="rgb(0, 0, 0)" stroke="rgb(204, 204, 204)" stroke-width="1px"></line></g><g transform="translate(0, 8)"><text x="0" y="0" dx="0em" dy="0.95em" style="text-anchor: middle; visibility: hidden; font-family: Roboto, sans-serif; font-size: 12px; font-weight: 200;" fill="rgb(33, 33, 33)" stroke="none" stroke-width="1px">-0.5</text><text x="34.8046875" y="0" dx="0em" dy="0.95em" style="text-anchor: middle; visibility: inherit; font-family: Roboto, sans-serif; font-size: 12px; font-weight: 200;" fill="rgb(33, 33, 33)" stroke="none" stroke-width="1px">0</text><text x="69.609375" y="0" dx="0em" dy="0.95em" style="text-anchor: middle; visibility: inherit; font-family: Roboto, sans-serif; font-size: 12px; font-weight: 200;" fill="rgb(33, 33, 33)" stroke="none" stroke-width="1px">0.5</text><text x="104.4140625" y="0" dx="0em" dy="0.95em" style="text-anchor: middle; visibility: inherit; font-family: Roboto, sans-serif; font-size: 12px; font-weight: 200;" fill="rgb(33, 33, 33)" stroke="none" stroke-width="1px">1</text><text x="139.21875" y="0" dx="0em" dy="0.95em" style="text-anchor: middle; visibility: inherit; font-family: Roboto, sans-serif; font-size: 12px; font-weight: 200;" fill="rgb(33, 33, 33)" stroke="none" stroke-width="1px">1.5</text><text x="174.0234375" y="0" dx="0em" dy="0.95em" style="text-anchor: middle; visibility: inherit; font-family: Roboto, sans-serif; font-size: 12px; font-weight: 200;" fill="rgb(33, 33, 33)" stroke="none" stroke-width="1px">2</text><text x="208.828125" y="0" dx="0em" dy="0.95em" style="text-anchor: middle; visibility: inherit; font-family: Roboto, sans-serif; font-size: 12px; font-weight: 200;" fill="rgb(33, 33, 33)" stroke="none" stroke-width="1px">2.5</text><text x="243.6328125" y="0" dx="0em" dy="0.95em" style="text-anchor: middle; visibility: inherit; font-family: Roboto, sans-serif; font-size: 12px; font-weight: 200;" fill="rgb(33, 33, 33)" stroke="none" stroke-width="1px">3</text><text x="278.4375" y="0" dx="0em" dy="0.95em" style="text-anchor: middle; visibility: hidden; font-family: Roboto, sans-serif; font-size: 12px; font-weight: 200;" fill="rgb(33, 33, 33)" stroke="none" stroke-width="1px">3.5</text></g><line x1="0" y1="0" x2="278.4375" y2="0" fill="rgb(0, 0, 0)" stroke="rgb(204, 204, 204)" stroke-width="1px"></line></g></g></g></g></svg>