<svg viewBox="0 0 330 200" xmlns="http://www.w3.org/2000/svg"><g><g><g><g><g><line x1="51.5625" y1="177" x2="46.5625" y2="177" style="visibility: inherit;" fill="rgb(0, 0, 0)" stroke="rgb(204, 204, 204)" stroke-width="1px"></line><line x1="51.5625" y1="160.9090909090909" x2="46.5625" y2="160.9090909090909" style="visibility: inherit;" fill="rgb(0, 0, 0)" stroke="rgb(204, 204, 204)" stroke-width="1px"></line><line x1="51.5625" y1="144.8181818181818" x2="46.5625" y2="144.8181818181818" style="visibility: inherit;" fill="rgb(0, 0, 0)" stroke="rgb(204, 204, 204)" stroke-width="1px"></line><line x1="51.5625" y1="128.72727272727272" x2="46.5625" y2="128.72727272727272" style="visibility: inherit;" fill="rgb(0, 0, 0)" stroke="rgb(204, 204, 204)" stroke-width="1px"></line><line x1="51.5625" y1="112.63636363636365" x2="46.5625" y2="112.63636363636365" style="visibility: inherit;" fill="rgb(0, 0, 0)" stroke="rgb(204, 204, 204)" stroke-width="1px"></line><line x1="51.5625" y1="96.54545454545453" x2="46.5625" y2="96.54545454545453" style="visibility: inherit;" fill="rgb(0, 0, 0)" stroke="rgb(204, 204, 204)" stroke-width="1px"></line><line x1="51.5625" y1="80.45454545454544" x2="46.5625" y2="80.45454545454544" style="visibility: inherit;" fill="rgb(0, 0, 0)" stroke="rgb(204, 204, 204)" stroke-width="1px"></line><line x1="51.5625" y1="64.36363636363639" x2="46.5625" y2="64.36363636363639" style="visibility: inherit;" fill="rgb(0, 0, 0)" stroke="rgb(204, 204, 204)" stroke-width="1px"></line><line x1="51.5625" y1="48.272727272727266" x2="46.5625" y2="48.272727272727266" style="visibility: inherit;" fill="rgb(0, 0, 0)" stroke="rgb(204, 204, 204)" stroke-width="1px"></line><line x1="51.5625" y1="32.181818181818215" x2="46.5625" y2="32.181818181818215" style="visibility: inherit;" fill="rgb(0, 0, 0)" stroke="rgb(204, 204, 204)" stroke-width="1px"></line><line x1="51.5625" y1="16.090909090909097" x2="46.5625" y2="16.090909090909097" style="visibility: inherit;" fill="rgb(0, 0, 0)" stroke="rgb(204, 204, 204)" stroke-width="1px"></line><line x1="51.5625" y1="0" x2="46.5625" y2="0" style="visibility: inherit;" fill="rgb(0, 0, 0)" stroke="rgb(204, 204, 204)" stroke-width="1px"></line></g><g transform="translate(41.5625, 0)"><text x="0" y="177" dx="0em" dy="0.3em" style="text-anchor: end; visibility: hidden; font-family: Roboto, sans-serif; font-size: 12px; font-weight: 200;" fill="rgb(33, 33, 33)" stroke="none" stroke-width="1px">0.5</text><text x="0" y="160.9090909090909" dx="0em" dy="0.3em" style="text-anchor: end; visibility: inherit; font-family: Roboto, sans-serif; font-size: 12px; font-weight: 200;" fill="rgb(33, 33, 33)" stroke="none" stroke-width="1px">0.55</text><text x="0" y="144.8181818181818" dx="0em" dy="0.3em" style="text-anchor: end; visibility: hidden; font-family: Roboto, sans-serif; font-size: 12px; font-weight: 200;" fill="rgb(33, 33, 33)" stroke="none" stroke-width="1px">0.6</text><text x="0" y="128.72727272727272" dx="0em" dy="0.3em" style="text-anchor: end; visibility: inherit; font-family: Roboto, sans-serif; font-size: 12px; font-weight: 200;" fill="rgb(33, 33, 33)" stroke="none" stroke-width="1px">0.65</text><text x="0" y="112.63636363636365" dx="0em" dy="0.3em" style="text-anchor: end; visibility: hidden; font-family: Roboto, sans-serif; font-size: 12px; font-weight: 200;" fill="rgb(33, 33, 33)" stroke="none" stroke-width="1px">0.7</text><text x="0" y="96.54545454545453" dx="0em" dy="0.3em" style="text-anchor: end; visibility: inherit; font-family: Roboto, sans-serif; font-size: 12px; font-weight: 200;" fill="rgb(33, 33, 33)" stroke="none" stroke-width="1px">0.75</text><text x="0" y="80.45454545454544" dx="0em" dy="0.3em" style="text-anchor: end; visibility: hidden; font-family: Roboto, sans-serif; font-size: 12px; font-weight: 200;" fill="rgb(33, 33, 33)" stroke="none" stroke-width="1px">0.8</text><text x="0" y="64.36363636363639" dx="0em" dy="0.3em" style="text-anchor: end; visibility: inherit; font-family: Roboto, sans-serif; font-size: 12px; font-weight: 200;" fill="rgb(33, 33, 33)" stroke="none" stroke-width="1px">0.85</text><text x="0" y="48.272727272727266" dx="0em" dy="0.3em" style="text-anchor: end; visibility: hidden; font-family: Roboto, sans-serif; font-size: 12px; font-weight: 200;" fill="rgb(33, 33, 33)" stroke="none" stroke-width="1px">0.9</text><text x="0" y="32.181818181818215" dx="0em" dy="0.3em" style="text-anchor: end; visibility: inherit; font-family: Roboto, sans-serif; font-size: 12px; font-weight: 200;" fill="rgb(33, 33, 33)" stroke="none" stroke-width="1px">0.95</text><text x="0" y="16.090909090909097" dx="0em" dy="0.3em" style="text-anchor: end; visibility: hidden; font-family: Roboto, sans-serif; font-size: 12px; font-weight: 200;" fill="rgb(33, 33, 33)" stroke="none" stroke-width="1px">1</text><text x="0" y="0" dx="0em" dy="0.3em" style="text-anchor: end; visibility: hidden; font-family: Roboto, sans-serif; font-size: 12px; font-weight: 200;" fill="rgb(33, 33, 33)" stroke="none" stroke-width="1px">1.05</text></g><line x1="51.5625" y1="0" x2="51.5625" y2="177" fill="rgb(0, 0, 0)" stroke="rgb(204, 204, 204)" stroke-width="1px"></line></g></g><g transform="translate(51, 0)" clip-path="url(#clip_0)"><clipPath id="clip_0"><rect width="278" height="177"></rect></clipPath><g><g><g><line x1="0" y1="0" x2="0" y2="177" fill="rgb(0, 0, 0)" stroke="rgb(66, 66, 66)" stroke-width="1px" opacity="0.25"></line><line x1="19.888392857142858" y1="0" x2="19.888392857142858" y2="177" fill="rgb(0, 0, 0)" stroke="rgb(66, 66, 66)" stroke-width="1px" opacity="0.25"></line><line x1="39.776785714285715" y1="0" x2="39.776785714285715" y2="177" fill="rgb(0, 0, 0)" stroke="rgb(66, 66, 66)" stroke-width="1px" opacity="0.25"></line><line x1="59.66517857142858" y1="0" x2="59.66517857142858" y2="177" fill="rgb(0, 0, 0)" stroke="rgb(66, 66, 66)" stroke-width="1px" opacity="0.25"></line><line x1="79.55357142857143" y1="0" x2="79.55357142857143" y2="177" fill="rgb(0, 0, 0)" stroke="rgb(66, 66, 66)" stroke-width="1px" opacity="0.25"></line><line x1="99.44196428571428" y1="0" x2="99.44196428571428" y2="177" fill="rgb(0, 0, 0)" stroke="rgb(66, 66, 66)" stroke-width="1px" opacity="0.25"></line><line x1="119.33035714285712" y1="0" x2="119.33035714285712" y2="177" fill="rgb(0, 0, 0)" stroke="rgb(66, 66, 66)" stroke-width="1px" opacity="0.25"></line><line x1="139.21874999999997" y1="0" x2="139.21874999999997" y2="177" fill="rgb(0, 0, 0)" stroke="rgb(66, 66, 66)" stroke-width="1px" opacity="0.25"></line><line x1="159.1071428571428" y1="0" x2="159.1071428571428" y2="177" fill="rgb(0, 0, 0)" stroke="rgb(66, 66, 66)" stroke-width="1px" opacity="0.25"></line><line x1="178.9955357142857" y1="0" x2="178.9955357142857" y2="177" fill="rgb(0, 0, 0)" stroke="rgb(66, 66, 66)" stroke-width="1px" opacity="0.25"></line><line x1="198.88392857142856" y1="0" x2="198.88392857142856" y2="177" fill="rgb(0, 0, 0)" stroke="rgb(66, 66, 66)" stroke-width="1px" opacity="0.25"></line><line x1="218.77232142857142" y1="0" x2="218.77232142857142" y2="177" fill="rgb(0, 0, 0)" stroke="rgb(66, 66, 66)" stroke-width="1px" opacity="0.25"></line><line x1="238.6607142857143" y1="0" x2="238.6607142857143" y2="177" fill="rgb(0, 0, 0)" stroke="rgb(66, 66, 66)" stroke-width="1px" opacity="0.25"></line><line x1="258.5491071428571" y1="0" x2="258.5491071428571" y2="177" fill="rgb(0, 0, 0)" stroke="rgb(66, 66, 66)" stroke-width="1px" opacity="0.25"></line><line x1="278.4375" y1="0" x2="278.4375" y2="177" fill="rgb(0, 0, 0)" stroke="rgb(66, 66, 66)" stroke-width="1px" opacity="0.25"></line></g><g><line x1="0" y1="177" x2="278.4375" y2="177" fill="rgb(0, 0, 0)" stroke="rgb(66, 66, 66)" stroke-width="1px" opacity="0.25"></line><line x1="0" y1="160.9090909090909" x2="278.4375" y2="160.9090909090909" fill="rgb(0, 0, 0)" stroke="rgb(66, 66, 66)" stroke-width="1px" opacity="0.25"></line><line x1="0" y1="144.8181818181818" x2="278.4375" y2="144.8181818181818" fill="rgb(0, 0, 0)" stroke="rgb(66, 66, 66)" stroke-width="1px" opacity="0.25"></line><line x1="0" y1="128.72727272727272" x2="278.4375" y2="128.72727272727272" fill="rgb(0, 0, 0)" stroke="rgb(66, 66, 66)" stroke-width="1px" opacity="0.25"></line><line x1="0" y1="112.63636363636365" x2="278.4375" y2="112.63636363636365" fill="rgb(0, 0, 0)" stroke="rgb(66, 66, 66)" stroke-width="1px" opacity="0.25"></line><line x1="0" y1="96.54545454545453" x2="278.4375" y2="96.54545454545453" fill="rgb(0, 0, 0)" stroke="rgb(66, 66, 66)" stroke-width="1px" opacity="0.25"></line><line x1="0" y1="80.45454545454544" x2="278.4375" y2="80.45454545454544" fill="rgb(0, 0, 0)" stroke="rgb(66, 66, 66)" stroke-width="1px" opacity="0.25"></line><line x1="0" y1="64.36363636363639" x2="278.4375" y2="64.36363636363639" fill="rgb(0, 0, 0)" stroke="rgb(66, 66, 66)" stroke-width="1px" opacity="0.25"></line><line x1="0" y1="48.272727272727266" x2="278.4375" y2="48.272727272727266" fill="rgb(0, 0, 0)" stroke="rgb(66, 66, 66)" stroke-width="1px" opacity="0.25"></line><line x1="0" y1="32.181818181818215" x2="278.4375" y2="32.181818181818215" fill="rgb(0, 0, 0)" stroke="rgb(66, 66, 66)" stroke-width="1px" opacity="0.25"></line><line x1="0" y1="16.090909090909097" x2="278.4375" y2="16.090909090909097" fill="rgb(0, 0, 0)" stroke="rgb(66, 66, 66)" stroke-width="1px" opacity="0.25"></line><line x1="0" y1="0" x2="278.4375" y2="0" fill="rgb(0, 0, 0)" stroke="rgb(66, 66, 66)" stroke-width="1px" opacity="0.25"></line></g></g></g><g><g><line x1="0" y1="337.90909090909093" x2="278.4375" y2="337.90909090909093" fill="rgb(0, 0, 0)" stroke="rgb(153, 153, 153)" stroke-width="1.5px"></line></g></g><g><g><line x1="19.888392857142858" y1="0" x2="19.888392857142858" y2="177" fill="rgb(0, 0, 0)" stroke="rgb(153, 153, 153)" stroke-width="1.5px"></line></g></g><g><g><g><g><g><path stroke="rgb(0, 153, 136)" stroke-width="2px" d="M28.2575390625,178.22537849726314L28.397973214285713,176.86311238822276L28.53962276785714,175.8109207439292L28.936727678571422,174.88540208765602L29.07804575892857,174.31458428085278L29.214612723214284,173.7477809448382L29.3511796875,173.31386129213578L29.61580580357143,172.7954367775316L30.02163950892857,172.06676999298682L30.700165178571428,170.84702682658406L30.835074776785714,169.82459111738768L30.970205357142852,169.0235464621451L31.12301450892857,168.3676128286384L31.25969196428571,167.79458718126185L31.391839285714287,167.3618370245101L32.09124776785714,158.35065584965272L33.16853571428571,152.04754053756926L33.443879464285715,147.82955261753096L33.576358258928565,145.23158499736246L33.70740066964286,143.37689740469403L34.66436383928571,140.88451024679273L35.064231026785706,138.7509205409973L35.341453125,136.9843071155111L35.48122433035714,135.66457066089427L35.61502901785714,124.6367750669906L36.160412946428565,118.78064305110007L36.29642745535713,115.00925941020544L36.432662946428565,112.728467333454L36.847888392857136,110.84053968892961L36.987659598214286,109.59949767512144L37.39515066964285,108.11775201187494L37.96274330357142,106.020493061914L38.241622767857145,104.39426033861601L38.504922991071425,102.92325279324639L38.63994308035714,101.76861115006061L38.78612276785714,100.77800095773935L38.91661272321428,99.99889820037603L39.05030691964285,99.27024101636711L39.181791294642856,98.59935796133007L39.4476328125,97.72902863815949L39.720214285714285,89.30442712607751L40.10682254464286,82.85899682962378L40.24825111607142,78.90531287050152L40.383160714285715,76.32882337571L40.644361607142855,74.50401011207376L40.77783482142857,73.02282254375403L40.91837946428571,71.8093611398888L41.31570535714285,70.54700815891717L41.59723660714286,69.53608125685044L41.72827901785714,68.73716943947959L41.99754575892857,67.92325237467793L42.13389174107142,67.25598143329623L42.54315066964285,66.27789198414541L43.07825892857143,64.99919471828322L43.21073772321428,64.06543946405436L43.339459821428576,63.36624827468505L43.47171763392856,62.76754431254497L43.75203348214285,58.27071834889063L43.88152901785713,55.085495640016184L44.149690848214284,53.31578602037336L44.428017857142855,51.92920371297088L44.5585078125,51.09426195861747L44.693085937499994,50.42606179164775L44.827111607142854,49.982366147212645L45.0952734375,49.37107480050744L45.22786272321429,48.93644992291811L46.16206473214286,48.01362466247444L46.69275334821428,47.04626889323499L47.242667410714276,46.13401695394973L47.37370982142857,45.51150359638664L47.50342633928571,45.09944771918899L48.05334040178571,42.33764902847774L48.18604017857143,40.74866541140485L48.322165178571424,39.80470504275524L48.46237834821429,39.12413538208178L48.85672098214285,38.672151021424355L48.98942075892857,38.36708524307865L49.403430803571425,38.13061279128564L49.53513616071429,37.97301554180071L49.80882254464285,37.87453642025089L49.941522321428565,37.79996535121284L50.075547991071424,37.746698291912764L50.342825892857135,37.66410562287493L50.48436495535714,37.65196231809416L50.61584933035714,37.63725679239293L50.74965401785715,37.60800096139434L50.887767857142855,37.56517344615478L51.02278794642857,37.51747918178701L51.450498883928574,37.45585448121522L51.58198325892857,37.40073362281672L51.8566640625,36.41941744641729L52.38315401785714,35.57292330921721L52.52679241071428,35.18130725257581L52.799484375,35.075976290465945L53.10013058035714,34.908282621328254L53.24575781249999,34.85251360480712L53.93732142857142,34.749061429929746L54.36304352678572,34.681197203763645L54.50391964285714,34.63841470009908L54.643580357142845,34.6078806786077L54.790091517857135,34.586567895800975L55.07084933035714,34.547585480272886L55.635790178571426,34.452732099265475L55.907929687499994,34.36776084817954L56.195979910714286,34.22250309981682L56.344148437499996,33.90487458563694L56.481599330357135,34.13333668320035L57.04775558035713,33.71650325281797L57.19028906249999,33.363826288557696L57.46353348214285,32.99444548821143L57.74031361607143,32.67808931843398L58.019745535714286,32.42090892983326L58.72909821428571,32.1822772471045L59.01283928571427,32.02266322118196L59.152499999999996,31.912239865803528L59.572587053571425,31.793059268852886L59.86306808035714,31.674240775101225L60.00040848214285,31.570363537784154L60.14117410714285,31.47342545007971L60.42369977678571,31.16594447459331L60.57043191964285,30.813837137775568L60.70622544642857,30.416631473006266L61.271939732142854,29.989742733235587L61.40751227678572,29.765911738934815L61.681088169642855,29.65287431421551L62.11111941964285,29.528112430881034L62.67108816964286,29.44702503326894L62.80831808035714,29.40756454125156L62.95074107142857,29.349729192585396L63.08896540178571,29.276641248336553L63.368728794642855,29.2220543138213L63.78748995535714,29.11887404177564L63.91963727678571,29.04900157093662L64.06493303571428,28.981719671615817L64.475296875,28.005260496151283L64.60821763392856,27.529381439736248L64.89582589285715,27.41670556838723L65.74671763392857,27.449666692847277L66.02316629464285,27.481489574604495L66.170671875,27.482245447019338L66.30944866071428,27.471473746926982L66.44546316964285,27.516042142984265L66.5836875,27.55405444062013L66.87008035714285,27.642770684696806L67.00819419642856,27.704732013090815L67.7156685267857,27.77988121703474L67.85422433035714,27.834768832676676L68.13509263392858,27.927019381007504L68.42115401785715,27.982569201333447L68.56015178571428,27.99764563706651L68.70102790178571,27.38338851860354L69.12884933035714,27.19554269923029L69.2687310267857,26.92727033590501L69.40640290178571,26.783064189416418L69.68450892857142,26.78427832188851L69.83676562500001,26.809014815357134L70.109015625,26.784487865238567L70.245140625,26.760249820652913L70.53064955357142,26.73747414027219L70.80643526785714,26.733353624788315L71.08343638392857,26.703382203282082L71.22928459821429,26.668028259402664L71.36607254464285,26.61704564882345L71.64230022321428,26.577877955395135L71.7847232142857,26.520594250307273L72.21000334821429,26.510446878054136L72.34745424107142,26.489903006204813L72.4899877232143,26.487720049822222L72.63892968749998,26.49260217988724L72.91957700892856,26.1032317624778L73.06023214285713,25.885323290441253L73.19326339285713,25.85409368864796L73.33988504464284,25.66512844330239L74.5972734375,25.430266750415804L74.73792857142857,25.306444606898424L75.0269732142857,25.271719658315185L75.43590066964286,25.25160592704148L76.42678459821428,25.22687766172696L76.56302008928571,25.242532184666047L77.12111049107143,24.50464573125421L77.26010825892855,23.951917410343462L77.39700669642858,23.782651012862036L77.68185267857142,23.70414009543806L77.95111941964285,23.693847367643265L78.22734709821428,23.69416287185218L78.51970647321428,23.744186642525523L79.79455245535713,23.841345082106233L79.93321875,23.91834629417565L80.06613950892857,24.09011913930941L80.20613169642857,24.261378189407285L80.48821540178572,24.4690814031963L80.6266607142857,24.641320376785487L81.03370982142857,24.854829010156646L81.45976339285713,26.283387462912195L82.28811495535714,26.233051831440513L82.42423995535712,26.06622958422141L82.56334821428571,25.9228312723446L82.70974888392855,25.812791943976457L82.84731026785714,25.750343845363126L83.11900781249999,25.666853871498986L83.25877901785715,25.544919991065104L83.40418526785713,25.473731557849295L83.67621428571428,25.334771605164146L83.81620647321428,25.244781728773415L83.95641964285714,25.19111773090366L84.24248102678571,25.120916234300854L84.52246540178572,25.095583298819164L84.65671205357143,25.07268777593625L85.22971874999999,24.94459589511219L86.2170669642857,24.11112387076872L86.35330245535712,23.64171628413117L86.62190625,23.46732901163136L86.76024107142857,23.386098515391133L87.03823660714284,23.369831267562613L87.31137053571427,23.342860955500512L87.73267299107142,23.30383701126914L88.7120658482143,23.292975252873514L89.1321529017857,23.3453848668703L89.27269754464284,23.350635889424268L89.6754375,23.33808039729093L89.82095424107143,23.314833323601825L89.95475892857142,23.12803351688838L90.23507477678571,23.217086927399322L90.3750669642857,23.216042495822826L90.52489285714286,23.09569034942798L90.65825558035712,23.000476176986357L90.93050558035713,22.898561870506786L91.64184709821427,22.892933257599566L91.77985044642855,22.90632103410522L92.61361607142857,22.824352420351037L92.88476116071428,22.761720932981774L93.02221205357142,22.716968025515055L93.16032589285713,22.683487030768692L93.30285937499998,22.65960042595577L93.44572433035714,22.62825799103047L93.58129687499999,22.60988220370363L93.7186372767857,22.588774746527502L93.86150223214285,22.69239837064379L94.01121763392855,22.550293425795374L94.14723214285713,22.292178896386325L94.42235491071426,22.250444779640308L94.84487276785714,22.049414595056927L94.98088727678572,21.98816049971273L95.12021651785713,22.00204047596401L95.40881919642858,21.981557310383675L95.54328683035713,21.979940197054532L95.95784933035715,21.96568073755089L96.23849665178572,21.937920185209077L96.51339843749999,21.946752707258582L96.65084933035712,21.93753539004396L97.06762165178573,21.908810296526365L97.20684040178571,21.899746712098295L97.34937388392856,21.88492479630753L97.634109375,21.874995826478887L97.77244419642855,21.879411993609626L97.91099999999997,21.900115659023108L98.19661941964286,22.043496242004778L98.47848214285713,22.058812588952875L98.61493861607141,21.978430791092574L99.03469419642857,21.929419092553275L99.16993526785714,21.92663649290213L99.30153013392858,21.927414538244477L99.43599776785713,21.878445879956853L99.570796875,21.83930495542553L99.71531919642857,21.82931675628368L99.85409598214285,21.83714244759679L99.98977901785715,21.855902000970513L100.26666964285714,21.905122467158893L100.41284933035713,21.924281197844063L100.9653046875,21.943710052893334L101.11137388392858,21.95418576344485L101.24727790178571,21.938442743578275L101.52206919642856,21.938357678562202L101.66802790178572,21.930833387516195L101.81840625,21.919374980144354L101.95707254464284,21.934221472184177L102.23827232142855,22.11110106512869L102.54024441964285,21.829617171642248L102.82166517857141,21.514070018894458L103.09524107142856,21.387589168138774L103.37655133928571,21.283771871841054L103.65101116071428,21.192271360076372L103.78713616071428,21.165706494260153L103.92337165178569,21.183412554420773L104.34644196428572,21.1892023621979L104.90718415178573,21.150245976062322L105.04618191964283,21.12739389092972L105.32130468749999,21.12826085224137L105.46560602678571,21.124683784072094L105.74227566964285,21.098360728831164L106.31274107142858,21.095211576750167L106.45494308035713,20.94771643468645L106.73592187499999,20.764936678993692L107.02607142857143,20.661552802392993L107.5894654017857,20.638630449357937L107.98800669642856,20.650197090637498L108.12821986607142,20.68311698443507L108.40941964285712,20.721406268680624L108.54355580357144,20.762717695867455L108.6789073660714,20.807376957491844L108.813375,20.84136187499837L108.96121205357143,20.873146849397557L109.09932589285715,20.88204377633663L109.23688727678571,20.90811368506909L109.38030468749999,20.91688085225461L109.51963392857141,20.91996976619397L110.07595647321428,20.935687761816023L110.21108705357143,20.965359256182936L110.49759040178571,20.98922362006051L110.77713281249999,21.088402779990876L111.20163950892855,20.95619911026079L111.50029687499998,20.9002173937355L111.63686383928571,20.846433703286777L111.78867857142858,20.76702215379028L112.2602544642857,20.674850294352147L112.40113058035713,20.59879240789013L112.53736607142858,20.55333414911029L112.68420870535714,20.517826340213034L112.82121763392855,20.501109955406264L113.10230691964284,20.4969727914256L113.24152566964284,20.48291232330118L113.38604799107142,20.481335474993788L113.65597767857143,20.482246169903423L113.79243415178568,20.496580506673936L113.92745424107142,20.496871527673225L114.06998772321427,20.50072138434408L114.20578125,20.523325704543907L114.33881249999997,20.533581344273987L114.61868638392856,20.52728953837593L114.7661919642857,20.537816448467265L115.17357254464287,20.477088163009046L115.72470200892856,20.410719819871886L116.1443470982143,20.36416981805951L116.2816875,20.331950753431705L116.41847544642856,20.353568745987697L116.55714174107142,20.35284369461687L116.69282477678571,20.336173138836546L116.84320312499999,20.32048530253574L116.97943861607142,20.308064885356682L117.11854687499998,20.32383802921151L117.39554799107141,20.33106147446216L117.5312310267857,20.33208858922275L117.67464843749998,20.331208673123154L118.2246729910714,20.367379454972518L118.7749185267857,20.37555487753174L118.91181696428569,20.368206759915303L119.19500558035713,20.35437576049464L119.33477678571428,20.30416863658907L119.47244866071428,20.284525329680744L119.60890513392854,20.253879742347472L119.75773660714285,20.238638214726684L119.90004910714285,20.299077407720603L120.3210200892857,20.325466102807745L120.46786272321428,20.35158079596752L120.6068604910714,20.391541517353268L121.31300892857142,20.446017105055855L121.58570089285713,20.47383793838472L121.72458816964286,20.475890844043928L121.86933147321427,20.468367987261313L122.00843973214283,20.463040962395155L122.2883136160714,20.478059840221206L122.70541741071428,20.491291175766897L122.84408370535711,20.49669029904092L123.26859040178572,20.211472986242768L123.40670424107142,20.1031977122002L123.5439341517857,19.954423172011715L123.82038281249999,19.82954157320382L124.10511830357142,19.775259966311115L124.5176919642857,19.762901008195755L124.65381696428571,19.75976702412354L124.93799999999999,19.742725292793345L125.35167857142856,19.739451759482794L125.50238839285714,19.755280731357217L125.64127566964285,19.76487786014556L125.9180558035714,19.797529102908747L126.05495424107141,19.829388565205385L126.20179687499999,19.855371347893982L126.34057366071427,19.86357216564778L126.47548325892855,19.87611936320371L126.61823772321428,19.87935861819689L126.7572354910714,19.879752277033333L126.90949218749998,19.88554353853055L127.32504910714283,19.904494218793698L127.46736160714283,20.01329312218535L128.02710937499998,19.858579566493013L128.16467075892857,19.81289276830491L128.4502901785714,19.761910021778434L128.73016406249997,19.764320843070287L129.01467857142856,19.79038149655652L129.1564386160714,19.836033660687526L129.29952455357142,19.85098744217337L129.4426104910714,19.8533764972587L129.5767466517857,19.89226826341206L129.73099218749996,19.919071403104518L130.00401562499997,19.96745553648164L130.28223214285714,20.010657573500897L130.56343191964282,20.0387271638543L130.9789888392857,20.04910079541068L131.13312388392856,20.047675249210734L131.2701328125,20.059909621669444L131.40813616071426,20.07511480709258L131.54812834821425,20.07061112613233L131.83573660714285,19.8772565904521L132.12080357142855,19.8319558718849L132.39681026785712,19.927861589786886L132.53525558035713,19.96893931326934L132.8216484375,19.978631770542716L133.2336696428571,20.021107612699087L133.51951004464286,20.06753970737609L133.6601651785714,20.0775905268349L133.7947433035714,20.068045349481622L134.21438839285713,20.03202625226929L134.63767968749997,20.02409529535958L134.78595870535713,20.00989924687625L135.06030803571426,19.99859641194523L135.3385245535714,19.990602417535147L135.63055245535713,19.97609232779047L135.76899776785712,19.95986698544716L136.33239174107143,19.630101654336475L136.6054151785714,19.550095793738265L136.74706473214283,19.531271720391914L136.89401785714284,19.553652947007848L137.03014285714283,19.596759854308694L137.30327678571427,19.602943411960997L137.44824107142855,19.638556813459118L137.6336450892857,19.66274075117252L137.78148214285713,19.69987036123707L138.3696261160714,19.745603703738983L138.65811830357143,19.809535276678442L138.8015357142857,19.87550075106509L138.94340624999998,19.908750022421938L139.0861607142857,19.92429543054525L139.2411796875,19.933507584268764L139.82004241071428,19.925185574731177L140.11781584821424,19.918849638919973L140.26167522321427,19.487637908352L140.6825357142857,19.252481537624853L140.82153348214285,19.16952409165617L140.9625200892857,19.18469939664963L141.09930803571424,19.23570543115552L141.23686941964283,19.301672726022847L141.52270982142858,19.362468238344206L141.66226004464284,19.39665139547125L141.80313616071425,19.425739416828243L141.9373828125,19.431099986101035L142.23526674107143,19.4757337963426L142.645078125,19.530803487269857L142.92959263392854,19.59265645315738L143.06991629464287,19.6391213068504L143.34658593749995,19.684632183316232L143.49309709821426,19.73602345061474L143.63286830357143,19.746272240548738L143.9089854910714,19.767038090617206L144.04765178571424,19.781530877649693L144.33426562499997,19.791799462258783L144.4777935267857,19.379980245537077L145.17355580357142,19.588588289367713L145.44945200892857,19.745180672484267L145.59552120535713,19.78501257066584L145.73407700892855,19.78446634921768L145.8755055803571,19.766990034930654L146.0161607142857,19.72651149254928L146.153390625,19.698595159509384L146.28951562499998,19.701180672962266L146.57690290178567,19.69095431997054L146.7173370535714,19.665176285164147L146.85710825892855,19.62875520215373L147.2705658482143,19.59942162756775L147.40591741071427,19.583110503701278L147.54314732142853,19.562206024247224L147.67728348214283,19.544714417105126L147.95914620535711,19.523032592995474L148.7908125,19.234433902388222L148.92638504464284,19.024606647488167L149.06030022321426,18.82538188622018L149.34337834821426,18.86821762452444L149.89760156249997,19.01125065902643L150.31006473214285,19.129219274422L150.72584263392855,19.22795992047705L151.14548772321427,19.317910627052076L151.292109375,19.38635184498125L151.70578794642853,19.431851421403056L151.84080803571428,19.469118060885698L151.99074441964285,19.48305337236182L152.2694029017857,19.531121006155264L152.4098370535714,19.554682738996984L152.54817187499995,19.582331479765717L152.83876339285712,19.662857694677644L152.97422544642856,19.585463196352073L153.11145535714283,19.62282820037629L153.24956919642855,19.742153951475775L153.3886774553571,19.903313335421245L153.66855133928567,19.918294248963925L153.80600223214284,19.954789582048818L154.07548995535714,19.96175562331378L154.35359598214285,20.0266957027708L154.49071540178568,20.069687940711006L154.76815848214284,20.041167933202715L155.05521428571427,19.99176902462277L155.18935044642853,19.953912171332156L155.32901116071426,19.937083053517863L155.46590959821427,19.92442288654577L155.8809140625,19.90773458547639L156.01958035714284,19.894759925896313L156.1548214285714,19.884258978997494L156.29845982142854,19.88269249351367L156.5759029017857,19.893576299747004L156.70915513392856,19.87995028667024L157.83141294642854,19.85489464342381L158.24608593749997,19.78239240968101L158.3934810267857,19.705752490846997L158.66716741071428,19.661962944148634L158.9424006696428,19.633111174359367L159.0943258928571,19.624577730894032L159.51375,19.618736426938668L159.64987499999995,19.610842835361332L159.93969308035713,19.584247034571412L160.07670200892858,19.56699286046898L160.21315848214283,19.55281932981232L160.35447656249997,19.539558110532763L160.7705859375,19.524949110468626L161.87715401785715,19.4293819647553L162.02178683035714,19.36456075254759L162.15890625,19.378985918858124L162.43358705357142,19.446567687678524L162.71025669642853,19.474019376048723L162.8450558035714,19.45281721915452L162.97808705357141,19.46391979316261L163.2504475446428,19.485742678454372L163.53440959821427,19.512363456179862L163.67407031249996,19.55140786211014L163.80942187499997,19.584586562483707L164.2313872767857,19.63278318749026L164.3679542410714,19.683959790992613L164.50308482142853,19.72258402424545L165.20735491071426,19.742812230745454L165.49374776785712,19.727718588447303L165.62766294642856,19.697708140941824L165.89980245535713,19.631517044113753L166.03460156249997,19.582372584422817L166.31790066964282,19.529315240994602L167.14978794642855,19.473902494580678L167.28613392857142,19.428086893102417L167.55937834821427,19.424267945492797L167.84787053571426,19.460501421356742L168.4149107142857,19.48454332988423L168.5522511160714,19.504661650576697L168.69213281249998,19.504379526176432L168.83168303571426,19.512128522687767L168.97487946428572,19.52179589475443L169.25409040178567,19.527918573215736L169.52578794642855,19.535927280293087L169.66345982142852,19.477877390903156L169.80510937499997,19.317337229996472L169.94686941964284,19.331009582316078L170.08796651785713,19.235500521659127L170.22939508928567,19.182384403141636L170.36828236607138,19.175949876282154L170.93388616071425,19.170462538573368L171.21729575892854,19.115962246737972L171.35485714285713,19.07997813747705L172.19536272321426,19.077024765551194L172.47081696428566,19.05967707336716L172.7540055803571,19.063792961244427L172.88858370535712,19.071403232024533L173.02835491071426,19.079491183696614L173.31110156249997,19.08728261540815L173.85858482142856,19.020125251063078L174.28485937499997,18.960971229267784L174.56616964285712,19.02514775248658L174.98835602678568,19.05512924854059L175.39816741071428,19.099949729716297L175.54147433035712,19.106286738950075L175.8205747767857,19.096347061125716L175.95692075892856,19.062538868763845L176.09459263392856,19.02448387971611L176.23889397321426,18.994024179383857L176.37347209821425,18.97831105546798L176.5121383928571,18.975688904482194L176.64958928571428,18.970309933182257L176.93344084821425,18.96565542013662L177.0696763392857,18.969775854080048L177.20878459821427,18.978624164181447L177.62467299107138,18.985275880330942L177.76367075892855,18.991392259932407L178.03978794642853,18.789739475277614L179.16624441964285,18.76931445175427L179.30678906249994,18.752202591090946L179.44600781249997,18.74312474991435L179.5841216517857,18.736266260429502L179.7280915178571,18.71073654001011L180.00697098214286,18.70384337997199L180.13889732142852,18.701326432798872L180.2740279017857,18.709982649452087L180.41424107142856,18.72427625307344L180.69068973214286,18.746947244805586L180.82780915178571,18.767347890465228L180.96338169642854,18.79400536264163L181.2490011160714,18.81148068541664L181.38943526785712,18.829254985277316L181.66267968749997,18.86193266590449L183.0571875,18.86527305834953L183.48257812499995,18.918347073646054L183.62279129464284,18.963281183002675L183.76234151785712,18.984402690916795L183.9026651785714,19.00553095885216L184.1872901785714,18.99857336934538L184.32286272321426,18.998327260243578L184.46086607142857,18.999921307526115L184.74328124999997,18.986560396778764L185.15143526785712,18.974722824135164L185.28844419642857,18.970919560195455L185.43506584821426,18.960366384485404L185.57351116071425,18.95243087569631L185.71582366071425,18.957835955379988L185.85758370535711,18.95929125398638L185.9935982142857,18.966087791027125L186.1417667410714,18.969398438915135L186.4205357142857,18.713688069030923L186.6954375,18.678115185168583L186.8385234375,18.66776649609147L187.1027075892857,18.714537575572358L187.37948772321425,18.78949603070055L187.6592511160714,18.835737106432507L187.80277901785712,18.88491172408677L187.93581026785714,18.920454943706666L188.07646540178567,18.929005757777837L188.22529687499997,18.952389702683075L188.36363169642857,18.94508217033143L188.92360044642854,18.959948564020273L189.61505357142858,18.965101083241954L189.76123325892854,18.961317816720964L190.0355825892857,18.962500591322087L190.1709341517857,18.959343193427404L190.30960044642853,18.951732560884558L190.7263727678571,18.6559472069853L190.86349218749996,18.509903551463907L190.99685491071426,18.397133778147865L191.27938058035713,18.363592603897093L191.54842633928567,18.42877346006556L191.68245200892855,18.45530634739332L192.09756696428568,18.493469362801697L192.3776618303571,18.512975819479884L192.6699107142857,18.542434421630663L192.80139508928568,18.546551845397282L193.07773325892853,18.566830737004675L193.22313950892857,18.58812863657204L193.63427678571426,18.621109709589373L193.7717276785714,18.629795893752352L193.91912276785712,18.625961439824174L194.19170424107142,18.616494425165495L194.32959709821426,18.619530452831572L194.4678214285714,18.622134689254352L194.7575290178571,18.63104004650716L194.8978526785714,18.631142777141378L195.03872879464285,18.61287423162574L195.17187053571425,18.66004948078398L195.32026004464282,18.653788921424923L195.4542857142857,18.6432959171361L195.73007142857142,18.61405093916164L196.15214732142854,18.547620904406067L196.29136607142857,18.490836811692137L196.56593638392857,18.427594585794566L197.13739620535713,18.409283800524044L197.27672544642854,18.394905976794906L197.55759375,18.38613350043354L197.6948236607143,18.38490587762609L198.1099386160714,18.391995502172698L198.38926004464284,18.403154745928088L198.6626149553571,18.423170174660886L198.95397991071428,18.464520002523823L199.09330915178572,18.5102764886248L199.2316439732143,18.516783790902192L199.3675479910714,18.495544592265354L199.65106808035713,18.525898872557825L200.05911160714285,18.59215048693416L200.19943526785713,18.6344718245868L200.48339732142858,18.73392961886932L200.62504687499998,18.796880556855122L200.76227678571428,18.816543445308046L201.04944308035712,18.833650716787552L201.59814174107143,18.864953741978844L201.88000446428572,18.885362178686734L202.01270424107142,18.90420580000439L202.2918046875,18.90543766075824L202.44240401785711,18.919166731725507L202.5783080357143,18.936089719793692L202.85122098214288,18.946166785200973L202.98613058035716,18.746890412029686L203.5462098214286,18.77817839540285L203.6833292410714,18.787521383832594L203.8185703125,18.826795174770904L203.96928013392858,18.816691451453416L204.108609375,18.812370930206534L204.3794229910714,18.806602101705813L204.6590758928571,18.825123214342703L204.79829464285714,18.831394380862235L204.93530357142853,18.854016683962247L205.07695312499996,18.87230880299101L205.21639285714286,18.88559357016076L205.3651138392857,18.87990694727501L205.77956584821428,18.916646439566428L206.19567522321427,18.943930618658715L206.47256584821426,18.961912402220488L206.76172098214283,18.98866845129767L206.89839843749996,19.005389609416632L207.03507589285715,19.007649815260464L207.17562053571424,18.972345570974475L207.31019866071426,18.872594132357417L207.87281919642857,18.82321656387878L208.4245011160714,18.864823772181246L208.7024966517857,18.89712323981853L208.85254352678567,18.9181141965073L208.99330915178567,18.954532638665217L209.26975781249996,19.003330378653708L209.40941852678571,19.0400055472495L209.55283593749996,19.08080119690497L209.96618303571427,19.10003810298073L210.39444642857143,19.14956032627708L210.53200781249998,19.184460434768805L210.6690167410714,19.213809826590612L210.9493325892857,19.246442693190012L211.0975011160714,19.269505838636842L211.25174665178568,19.29182978006531L211.52974218749998,19.20570866349375L211.6677455357143,19.091180879914464L211.9475089285714,19.0350321633968L212.08263950892854,18.957347423038076L212.21522879464283,18.95114124537669L212.34892299107142,18.97772487506696L212.49289285714283,18.97534486898495L212.62360379464283,18.956100755244933L212.89607477678567,18.94927302416969L213.03440959821427,18.9518209812776L213.45714843749997,18.93295560368136L214.15412611607144,18.93650615376268L214.70348772321427,18.954802954079014L215.82187834821423,18.909209897447404L215.9661796875,19.007564290741158L216.1027466517857,19.08542885716233L216.2373247767857,19.108055182852667L216.37565959821424,19.09992478729058L216.80005580357138,19.077990041455617L216.9394955357143,19.071688626521883L217.21528124999998,19.032521085167733L217.35593638392857,19.01644777593143L217.6353683035714,18.981552791979354L217.7733716517857,18.965933012759205L217.91303236607138,18.966520366113336L218.0487154017857,18.960903383788747L218.33157254464282,18.954771006783055L218.60691629464284,18.946081279163067L218.74613504464284,18.94456570489242L218.88844754464284,18.944554071303568L219.16125,18.97057303664034L219.2992533482143,18.988256056550625L219.43692522321427,19.013812372569546L219.7187879464286,19.10175333263264L219.98860714285715,19.08118182759912L220.82193080357143,18.985037221559477L221.10743973214286,18.921634264129647L221.68354017857143,18.859968112854563L221.82165401785716,18.818917213593416L221.95700558035716,18.794401765187175L222.52128348214285,18.79949584676544L223.21130022321427,18.803933389517887L223.34598883928572,18.81053970525836L223.89590290178572,18.25695592542778L224.3088080357143,18.254795004120314L224.44747433035712,18.29435580974814L224.87187053571427,18.3911598281784L225.29096316964285,18.445313794634316L225.42973995535712,18.47256569079042L225.56708035714286,18.48206506866015L225.9949017857143,18.513606495031354L226.13776674107143,18.559455007317645L226.55453906250003,18.59814330177052L226.70204464285715,18.644328472073532L226.8396060267857,18.684354327354214L226.97937723214287,18.723707654506942L227.11749107142856,18.741741566373054L228.0995357142857,18.529952610278364L228.23577120535714,18.654299691167036L228.37266964285715,18.68699941544709L228.51221986607143,18.803525998700074L228.79209375000002,18.839390313603268L228.92987611607143,18.86240508750113L229.06544866071428,18.845914288296154L229.20057924107144,18.85434999266931L229.3362622767857,18.85836792219571L229.47956919642857,18.845632684511408L229.61978236607143,18.885608587216648L229.75833816964285,18.91362231910579L229.89667299107145,18.93388329275298L230.32758816964287,18.944720165082693L230.6042578125,18.954437167949983L231.30952232142857,18.9508912772798L231.44852008928572,18.958408381286L231.58972767857142,18.94763453890899L231.8861752232143,18.940817287288038L232.4512265625,18.916532275781943L232.86490513392854,18.798248796829576L233.15218191964286,18.79282695601524L233.71270312500002,18.786305262853666L233.85932477678574,18.79763031527722L233.99622321428572,18.807647898944147L234.13367410714284,18.811932081887463L234.55829129464286,18.829034767584517L234.83297209821427,18.835398625373937L234.97296428571428,18.853281078633444L235.12190625000002,18.860266251827614L235.27261607142856,18.848198812556213L235.40951450892857,18.83704524987781L235.67248325892857,18.833529628023385L235.80849776785715,18.829187486591874L236.21654129464284,18.819753460139154L236.62889397321428,18.48247707608348L236.76568191964287,18.311538802468267L236.9024698660714,18.263974062730934L237.58475223214282,18.316620516421075L237.72772767857143,18.3157373387195L237.86495758928572,18.334343254047933L238.95152678571426,18.386410198117467L239.08809374999998,18.411036459779584L239.21979910714288,18.42581221677687L239.4972421875,18.441506412569L239.63038392857143,18.450639038539872L239.76352566964286,18.453348753767987L239.900203125,18.453608834586113L240.03146651785715,18.452521898652037L240.17665178571428,18.454064141693696L240.31498660714286,18.459217169112108L240.5796127232143,18.140445074194545L240.8527466517857,18.20060227178944L240.986109375,18.275981036369107L241.11891964285715,18.219068735457824L241.38884933035712,18.17144801756422L241.5330401785714,18.17599114718628L241.79413058035715,18.187356533987128L242.06262388392855,18.197321590846816L242.20924553571427,18.1887914672617L242.47033593749998,18.177220615941625L242.6084497767857,18.171597817008177L243.15085044642856,18.18629344826987L243.28487611607144,18.19369136950462L243.42575223214286,18.202549622422964L243.56762276785716,18.205071695589567L243.70871986607145,18.20925505418014L243.8408671875,18.201660066324322L244.0330111607143,18.196228380867407L244.33255245535713,18.18692324782256L244.47265513392855,18.176467975959604L244.62016071428573,18.170877687001212L244.77109151785712,17.99886894174619L245.36398660714286,17.952234831414582L245.66187053571429,17.91706500468369L245.80285714285714,17.929078669003434L245.96063839285716,17.95505439786313L246.24791517857142,17.986507068455325L246.54292633928569,17.9994476401904L246.8419151785714,17.99656988818584L247.13537946428568,18.003352309373586L247.28178013392858,18.01533236049431L247.44188169642857,18.02463806833517L247.73114732142858,18.048804877466832L247.8782109375,18.065614458698352L248.02030245535715,18.06961572194975L248.17874665178573,18.066438395475114L248.32581026785712,18.06317392401491L248.46745982142858,18.063578446094848L248.76976339285713,18.07703362341528L248.9243404017857,18.076942930868462L249.36453683035714,17.895366752839294L249.50143526785712,17.812608119122466L249.78108816964286,17.758763621015714L249.92008593749998,17.741119534719907L250.34415066964283,17.758469541530076L250.47519308035714,17.76399200809344L250.61176004464286,17.777586964138965L250.74689062500002,17.789081581129512L250.88058482142858,17.798794248138382L251.16001674107142,17.802849444626656L251.71954352678569,17.81609345791923L251.99698660714284,17.836876365542427L252.13255915178573,17.85988845949826L252.26724776785716,17.879227763837036L252.68424107142857,17.895189464670974L252.82412276785712,17.904459575436768L253.09836160714286,17.913796631631218L253.24564620535716,17.921086868887933L253.38652232142857,17.911849564514547L253.65976674107145,17.780596954617824L253.79677566964284,17.811841837543433L253.94527566964283,17.85887049933782L254.07941183035712,17.890233521193597L254.35519754464283,17.91297977890938L254.63507142857142,17.941551019381436L254.91052566964285,17.939841833219795L255.04687165178572,17.932770199752092L255.32862388392857,17.950279447107903L255.46585379464287,17.97257800207157L255.60617745535714,17.98895717770505L255.74815848214288,17.994472601314637L256.03156808035715,17.98730856078878L256.4474564732143,17.988473129748293L256.58601227678565,17.97978043324674L256.74003683035716,17.975984272868082L256.8785926339286,17.9689571484987L257.02035267857144,17.95919348042501L257.2953649553571,17.94446558825225L257.44287053571423,17.931109607107306L257.5849620535714,17.886435650628016L257.8607477678571,17.83867701461387L257.99808816964287,17.870260541154718L258.1443783482143,17.85621018787144L258.27884598214285,17.836255515369025L258.5602667410714,17.837380084789615L258.70103236607144,17.816225871571923L258.84776450892855,17.792361829303562L259.41005357142853,17.767263199516425L259.83500223214287,17.74375633120054L259.97079575892855,17.726882349856716L260.10415848214285,17.724200522113296L260.5208203125,17.712286931129626L260.65374107142856,17.70868358397355L260.7868828125,17.700598217803005L260.9259910714286,17.692816010135708L261.0715078125,17.692688949606715L261.34629910714284,17.697362141431494L261.4823136160714,17.692002257587287L261.62175334821427,17.69163291506874L262.03465848214285,17.637985997515386L262.17078348214284,17.6319925928274L262.44645870535714,17.638869844706253L262.5791584821428,17.63027478733636L262.71417857142853,17.59986675450412L263.1358125,17.613402437817676L263.406515625,17.642623892056296L263.54584486607143,17.648240994155472L263.67942857142856,17.64547306072391L263.82384040178573,17.64827016455935L263.9607388392857,17.66866224792495L264.3739754464285,17.70225074272583L264.7969352678571,17.74638883536163L264.9318448660714,17.77036270386312L265.3465178571428,17.794644863903365L265.4785546875,17.81802246930911L266.03653459821425,17.865724703176404L266.45452232142856,17.93520340190909L266.60235937500005,17.98840740893776L266.88355915178573,18.105451228033125L267.02023660714286,18.14119621081337L267.1565825892857,18.12876803853028L267.4412075892857,18.107170269140905L267.58086830357144,18.076679388920965L267.71986607142856,18.05233873901831L267.86030022321427,18.045069491732555L268.4284453125,18.030902177342096L268.5674430803571,18.03587512605471L268.7058883928571,18.033096665016032L269.00465625,18.02961114821558L269.1431015625,18.031962356543L269.2812154017857,18.041229970743984L269.8457142857143,18.029450139262345L269.98515401785716,18.02295769612567" style="fill: none;" fill="none"></path></g></g></g></g><g opacity="0.2"><g><g><g><path stroke="rgb(0, 153, 136)" stroke-width="2px" d="M27.86430133928571,178.70887340198865L28.126828125000003,175.75597975470802L28.2575390625,175.3163699236783L28.397973214285713,174.81971324573863L28.53962276785714,174.23263328725642L28.936727678571422,173.4971241084012L29.07804575892857,173.45835757255554L29.214612723214284,172.8975759419528L29.3511796875,172.66298181360418L29.61580580357143,172.01780000599948L30.02163950892857,170.97376981648532L30.700165178571428,169.01741207729685L30.835074776785714,168.29093755375254L30.970205357142852,167.82197947935626L31.12301450892857,167.3837123784152L31.25969196428571,166.93504871021617L31.391839285714287,166.71271178939125L32.09124776785714,144.83388408747587L33.16853571428571,142.59286756948993L33.443879464285715,141.50257073749196L33.576358258928565,141.33463356711647L33.70740066964286,140.59486601569435L34.66436383928571,137.1459295099432L35.064231026785706,135.55053598230535L35.341453125,134.33438697728246L35.48122433035714,133.68496597896922L35.61502901785714,108.09508167613636L36.160412946428565,109.99644502726468L36.29642745535713,109.35218394886365L36.432662946428565,109.30727921832691L36.847888392857136,108.00864822214301L36.987659598214286,107.73793465440924L37.39515066964285,105.89513351700522L37.96274330357142,102.8746046369726L38.241622767857145,101.95491125366904L38.504922991071425,100.716741475192L38.63994308035714,100.03664868528193L38.78612276785714,99.29208566925742L38.91661272321428,98.83024406433105L39.05030691964285,98.17725524035367L39.181791294642856,97.59303337877448L39.4476328125,96.42353465340354L39.720214285714285,76.66752485795456L40.10682254464286,73.19085138494319L40.24825111607142,72.97478693181819L40.383160714285715,72.46408913352273L40.644361607142855,71.76679021661933L40.77783482142857,70.80104119127448L40.91837946428571,69.98916903409092L41.31570535714285,68.65347868745978L41.59723660714286,68.01969090375034L41.72827901785714,67.53880171342331L41.99754575892857,66.70237677747554L42.13389174107142,66.2550750212236L42.54315066964285,64.81075781041926L43.07825892857143,63.08114881948992L43.21073772321428,62.664806582710966L43.339459821428576,62.3174614906311L43.47171763392856,61.869488369334846L43.75203348214285,51.52547940340909L43.88152901785713,50.30766157670456L44.149690848214284,50.66122159090909L44.428017857142855,49.84933025186713L44.5585078125,49.841849327087424L44.693085937499994,49.423761541193194L44.827111607142854,49.31682268056004L45.0952734375,48.454137780449614L45.22786272321429,48.28451260653409L46.16206473214286,46.629386771808974L46.69275334821428,45.59523523937574L47.242667410714276,44.76563904502176L47.37370982142857,44.57773356004196L47.50342633928571,44.48136390339246L48.05334040178571,38.194950992410845L48.18604017857143,38.36518998579546L48.322165178571424,38.388764489780776L48.46237834821429,38.10328089107167L48.85672098214285,37.994174480438254L48.98942075892857,37.90948657556015L49.403430803571425,37.77590411359615L49.53513616071429,37.736619667573414L49.80882254464285,37.726817737926154L49.941522321428565,37.688108747655704L50.075547991071424,37.66679770296271L50.342825892857135,37.540216619318194L50.48436495535714,37.63374736092309L50.61584933035714,37.61519850384107L50.74965401785715,37.56411721489648L50.887767857142855,37.50093217329546L51.02278794642857,37.44593778523533L51.450498883928574,37.363417430357515L51.58198325892857,37.318052335218965L51.8566640625,34.947443181818194L52.38315401785714,34.30318210341714L52.52679241071428,34.593883167613654L52.799484375,34.917979847301154L53.10013058035714,34.6567421176217L53.24575781249999,34.76886008002542L53.93732142857142,34.593883167613654L54.36304352678572,34.57940086451444L54.50391964285714,34.57424094460229L54.643580357142845,34.562079646370634L54.790091517857135,34.55459872159092L55.07084933035714,34.48911185698076L55.635790178571426,34.310452027754366L55.907929687499994,34.24030397155069L56.195979910714286,34.004616477272734L56.344148437499996,33.42843181436713L56.481599330357135,34.47602982954546L57.04775558035713,33.09125310724433L57.19028906249999,32.83481084216727L57.46353348214285,32.440374287691995L57.74031361607143,32.20355506376787L58.019745535714286,32.03513834693216L58.72909821428571,31.824329723011385L59.01283928571427,31.783242182298146L59.152499999999996,31.746604832735944L59.572587053571425,31.61428837342697L59.86306808035714,31.496013034473787L60.00040848214285,31.414547681808493L60.14117410714285,31.32801831852308L60.42369977678571,30.704723011363654L60.57043191964285,30.285676132548957L60.70622544642857,29.820822975852288L61.271939732142854,29.349409623579557L61.40751227678572,29.430165247483693L61.681088169642855,29.483318177136514L62.11111941964285,29.340969605879362L62.67108816964286,29.325393936850823L62.80831808035714,29.348373803225446L62.95074107142857,29.262976169586203L63.08896540178571,29.167009331963282L63.368728794642855,29.14017391204836L63.78748995535714,28.964103633707232L63.91963727678571,28.944192864678126L64.06493303571428,28.880796822634625L64.475296875,26.540571732954557L64.60821763392856,26.815562855113654L64.89582589285715,27.247691761363654L65.74671763392857,27.499108379537418L66.02316629464285,27.52922389724038L66.170671875,27.48337925564161L66.30944866071428,27.45531619678846L66.44546316964285,27.58289473707027L66.5836875,27.611072887073885L66.87008035714285,27.77584505081179L67.00819419642856,27.797674005681827L67.7156685267857,27.89260502295061L67.85422433035714,27.91710025613959L68.13509263392858,28.0653952035037L68.42115401785715,28.065893931822355L68.56015178571428,28.020260290666066L68.70102790178571,26.462002840909097L69.12884933035714,26.91377397017046L69.2687310267857,26.52486179091714L69.40640290178571,26.566754969683576L69.68450892857142,26.786099520596597L69.83676562500001,26.84611955556004L70.109015625,26.74769744006071L70.245140625,26.72389275377448L70.53064955357142,26.703310619701057L70.80643526785714,26.72717285156252L71.08343638392857,26.65842507102273L71.22928459821429,26.614997343583546L71.36607254464285,26.540571732954557L71.64230022321428,26.519126415252707L71.7847232142857,26.43466869267552L72.21000334821429,26.49522581967442L72.34745424107142,26.45908719843085L72.4899877232143,26.48444561524826L72.63892968749998,26.499925374984763L72.91957700892856,25.519176136363654L73.06023214285713,25.558460582386385L73.19326339285713,25.807249285958033L73.33988504464284,25.381680575284097L74.5972734375,25.077974211085944L74.73792857142857,25.12071139162238L75.0269732142857,25.219632235440347L75.43590066964286,25.221435330130852L76.42678459821428,25.18978526375512L76.56302008928571,25.266013969074617L77.12111049107143,23.397816051136385L77.26010825892855,23.122824928977288L77.39700669642858,23.52875141663986L77.68185267857142,23.586373719302106L77.95111941964285,23.678408275951057L78.22734709821428,23.69463612816552L78.51970647321428,23.81922229853544L79.79455245535713,23.987082741477288L79.93321875,24.033848112279728L80.06613950892857,24.34777840701017L80.20613169642857,24.518266764554117L80.48821540178572,24.780636223879743L80.6266607142857,24.89967883716932L81.03370982142857,25.175091960213404L81.45976339285713,28.42622514204546L82.28811495535714,26.15754838423296L82.42423995535712,25.81599621339279L82.56334821428571,25.707733804529376L82.70974888392855,25.64773295142434L82.84731026785714,25.656671697443194L83.11900781249999,25.541618910702798L83.25877901785715,25.36201917041434L83.40418526785713,25.366948908025577L83.67621428571428,25.126331676136385L83.81620647321428,25.10979691418736L83.95641964285714,25.110621734098967L84.24248102678571,25.015613989396535L84.52246540178572,25.057583895596597L84.65671205357143,25.03834449161185L85.22971874999999,24.752458073876124L86.2170669642857,22.860915834253497L86.35330245535712,22.937604904174826L86.62190625,23.205748102881707L86.76024107142857,23.264252771030794L87.03823660714284,23.34543039581994L87.31137053571427,23.302405487407356L87.73267299107142,23.24530109492216L88.7120658482143,23.276682615280173L89.1321529017857,23.42399928786538L89.27269754464284,23.35851242325524L89.6754375,23.319247159090924L89.82095424107143,23.279962713068194L89.95475892857142,22.847833806818194L90.23507477678571,23.35066704316574L90.3750669642857,23.214475848458033L90.52489285714286,22.91516212983566L90.65825558035712,22.857654918323885L90.93050558035713,22.745690410787418L91.64184709821427,22.88449033823881L91.77985044642855,22.926402698863654L92.61361607142857,22.701399499719805L92.88476116071428,22.66777370192788L93.02221205357142,22.649838664314967L93.16032589285713,22.633265538649137L93.30285937499998,22.623770518736418L93.44572433035714,22.581244338642488L93.58129687499999,22.582318522713404L93.7186372767857,22.557113560763288L93.86150223214285,22.847833806818194L94.01121763392855,22.33713600852273L94.14723214285713,21.90500710227273L94.42235491071426,22.18784360452133L94.84487276785714,21.747869318181827L94.98088727678572,21.896279356696404L95.12021651785713,22.022860440340924L95.40881919642858,21.95083256201311L95.54328683035713,21.977514527060784L95.95784933035715,21.94429154829546L96.23849665178572,21.896279356696404L96.51339843749999,21.96000149033288L96.65084933035712,21.92370941422204L97.06762165178573,21.86572265625002L97.20684040178571,21.88615133545617L97.34937388392856,21.862691922621305L97.634109375,21.860102371736012L97.77244419642855,21.886036244305703L97.91099999999997,21.931171157143336L98.19661941964286,22.258567116477288L98.47848214285713,22.08178710937502L98.61493861607141,21.857858094302106L99.03469419642857,21.855901544744327L99.16993526785714,21.922462593425422L99.30153013392858,21.928581606258064L99.43599776785713,21.804992892525416L99.570796875,21.780593568628497L99.71531919642857,21.814334457570865L99.85409598214285,21.84888098456643L99.98977901785715,21.88404133103112L100.26666964285714,21.978953166441496L100.41284933035713,21.953019293871808L100.9653046875,21.972853335467267L101.11137388392858,21.9698993292722L101.24727790178571,21.914828213778424L101.52206919642856,21.938230081038053L101.66802790178572,21.919546950947176L101.81840625,21.90218736908654L101.95707254464284,21.95649121024392L102.23827232142855,22.37642045454546L102.54024441964285,21.40739133141259L102.82166517857141,21.04074928977273L103.09524107142856,21.19786789200524L103.37655133928571,21.12804592739454L103.65101116071428,21.055020592429436L103.78713616071428,21.125859195535845L103.92337165178569,21.209971644661646L104.34644196428572,21.197887073863654L104.90718415178573,21.091811396858912L105.04618191964283,21.093115763230763L105.32130468749999,21.129561294208894L105.46560602678571,21.119318181818194L105.74227566964285,21.05887614596976L106.31274107142858,21.09048784862867L106.45494308035713,20.726473721590924L106.73592187499999,20.490767045454557L107.02607142857143,20.506476987491975L107.5894654017857,20.604246919805362L107.98800669642856,20.667547052556827L108.12821986607142,20.73249682513151L108.40941964285712,20.778840195048957L108.54355580357144,20.82468483664773L108.6789073660714,20.874365849928434L108.813375,20.89233925125817L108.96121205357143,20.92082431099633L109.09932589285715,20.89538916674528L109.23688727678571,20.947218548167854L109.38030468749999,20.9300316030329L109.51963392857141,20.92460313710301L110.07595647321428,20.959264755249045L110.21108705357143,21.00986649773339L110.49759040178571,21.02502016587692L110.77713281249999,21.237171519886385L111.20163950892855,20.75789360566574L111.50029687499998,20.816244818947535L111.63686383928571,20.765758167613654L111.78867857142858,20.64790482954546L112.2602544642857,20.53659250519494L112.40113058035713,20.48470557819715L112.53736607142858,20.485146760940573L112.68420870535714,20.46456462686713L112.82121763392855,20.476035378196038L113.10230691964284,20.490767045454557L113.24152566964284,20.461821621114566L113.38604799107142,20.478970202532697L113.65597767857143,20.483612212267804L113.79243415178568,20.518082011829744L113.92745424107142,20.49730805917221L114.06998772321427,20.506496169350367L114.20578125,20.557232184843595L114.33881249999997,20.548964803869083L114.61868638392856,20.51785182952883L114.7661919642857,20.55360681360419L115.17357254464287,20.385995734821687L115.72470200892856,20.31116730516608L116.1443470982143,20.294344815340924L116.2816875,20.283622156489997L116.41847544642856,20.385995734821687L116.55714174107142,20.35175611756066L116.69282477678571,20.31116730516608L116.84320312499999,20.296953548084627L116.97943861607142,20.289434259588077L117.11854687499998,20.347497744993742L117.39554799107141,20.341896642338167L117.5312310267857,20.333629261363654L117.67464843749998,20.32988879897378L118.2246729910714,20.421635627746603L118.7749185267857,20.387818011370587L118.91181696428569,20.357184583490557L119.19500558035713,20.333629261363654L119.33477678571428,20.228857950730763L119.47244866071428,20.255060369318194L119.60890513392854,20.207911361347566L119.75773660714285,20.21577592329546L119.90004910714285,20.38973619721154L120.3210200892857,20.36504914543847L120.46786272321428,20.390752835707243L120.6068604910714,20.451482599431827L121.31300892857142,20.527730486609734L121.58570089285713,20.515569188378077L121.72458816964286,20.478970202532697L121.86933147321427,20.457083702087424L122.00843973214283,20.455050425095997L122.2883136160714,20.50058815696023L122.70541741071428,20.511138179085474L122.84408370535711,20.504788983951936L123.26859040178572,19.78364701704546L123.40670424107142,19.940784801136385L123.5439341517857,19.731261361729036L123.82038281249999,19.642219174991975L124.10511830357142,19.693837555972028L124.5176919642857,19.74436257102273L124.65381696428571,19.755066048015266L124.93799999999999,19.717162695798013L125.35167857142856,19.734541459517057L125.50238839285714,19.779024189168766L125.64127566964285,19.779273553328093L125.9180558035714,19.846505967053506L126.05495424107141,19.877177758650358L126.20179687499999,19.8943455219269L126.34057366071427,19.875873392278507L126.47548325892855,19.89494015953759L126.61823772321428,19.884217500686667L126.7572354910714,19.88034276528793L126.90949218749998,19.89423043077643L127.32504910714283,19.93292023918847L127.46736160714283,20.17649147727273L128.02710937499998,19.626509232954557L128.16467075892857,19.74436257102273L128.4502901785714,19.685435901988654L128.73016406249997,19.767937075008064L129.01467857142856,19.829472476785845L129.1564386160714,19.904511906883936L129.29952455357142,19.873418114402092L129.4426104910714,19.85696007988671L129.5767466517857,19.950605912642057L129.73099218749996,19.95927611264317L130.00401562499997,20.040031736547306L130.28223214285714,20.075460629029713L130.56343191964282,20.080831549384392L130.9789888392857,20.064661242745142L131.13312388392856,20.045536929910845L131.2701328125,20.07826118035751L131.40813616071426,20.097922585227288L131.54812834821425,20.063855604691945L131.83573660714285,19.587224786931827L132.12080357142855,19.764004794034097L132.39681026785712,20.07172016663986L132.53525558035713,20.030555898493L132.8216484375,19.99317045645281L133.2336696428571,20.084821375933576L133.51951004464286,20.13718784939161L133.6601651785714,20.09266675602308L133.7947433035714,20.05372758345171L134.21438839285713,19.97799760645087L134.63767968749997,20.012198859995074L134.78595870535713,19.98860517415135L135.06030803571426,19.981642159548688L135.3385245535714,19.978611425919972L135.63055245535713,19.9543271931735L135.76899776785712,19.935528971932154L136.33239174107143,19.13545365767046L136.6054151785714,19.430087002840924L136.74706473214283,19.50303561037238L136.89401785714284,19.587224786931827L137.03014285714283,19.66142021525992L137.30327678571427,19.61221874843946L137.44824107142855,19.691976915706306L137.6336450892857,19.699016657742593L137.78148214285713,19.7555647763339L138.3696261160714,19.814203717491846L138.65811830357143,19.905432636087603L138.8015357142857,19.97444896264511L138.94340624999998,19.958623929457243L139.0861607142857,19.947613542730167L139.2411796875,19.947325814854036L139.82004241071428,19.912702560424826L140.11781584821424,19.909345735203157L140.26167522321427,18.84082031250002L140.6825357142857,18.899746981534097L140.82153348214285,19.045087922703157L140.9625200892857,19.20746235413986L141.09930803571424,19.31221448291434L141.23686941964283,19.400623668323885L141.52270982142858,19.453661506826236L141.66226004464284,19.447926131161783L141.80313616071425,19.469371448863654L141.9373828125,19.43914084001022L142.23526674107143,19.542684511704884L142.645078125,19.613408023660845L142.92959263392854,19.685435901988654L143.06991629464287,19.708818587389874L143.34658593749995,19.752898498014982L143.49309709821426,19.81311035156252L143.63286830357143,19.76164542544974L143.9089854910714,19.798186865719888L144.04765178571424,19.803270058198414L144.33426562499997,19.807202339172385L144.4777935267857,18.762251420454557L145.17355580357142,19.901500355113654L145.44945200892857,19.980069247159097L145.59552120535713,19.844760417938254L145.73407700892855,19.78364701704546L145.8755055803571,19.740775563500147L146.0161607142857,19.665793678977288L146.153390625,19.656720659949578L146.28951562499998,19.70505894314161L146.57690290178567,19.67561479048296L146.7173370535714,19.626509232954557L146.85710825892855,19.57412357763811L147.2705658482143,19.555421265688825L147.40591741071427,19.558643817901633L147.54314732142853,19.5308493050662L147.67728348214283,19.518477006392057L147.95914620535711,19.490509856830965L148.7908125,18.801535866477288L148.92638504464284,18.70986576513811L149.06030022321426,18.526544744318194L149.34337834821426,18.932471231980763L149.89760156249997,19.225800210779376L150.31006473214285,19.306172197515323L150.72584263392855,19.376070889559674L151.14548772321427,19.45283668691463L151.292109375,19.48901367187502L151.70578794642853,19.500100786035723L151.84080803571428,19.52501802010971L151.99074441964285,19.503956339576042L152.2694029017857,19.603222456845376L152.4098370535714,19.590025338259625L152.54817187499995,19.623804590918816L152.83876339285712,19.78364701704546L152.97422544642856,19.469371448863654L153.11145535714283,19.67887570641259L153.24956919642855,19.92114257812502L153.3886774553571,20.145052411339503L153.66855133928567,19.940765619277975L153.80600223214284,20.009532581676154L154.07548995535714,19.972204685211203L154.35359598214285,20.124105821956306L154.49071540178568,20.134176297621305L154.76815848214284,19.998387921940218L155.05521428571427,19.917670661752886L155.18935044642853,19.897126891396265L155.32901116071426,19.911839376796394L155.46590959821427,19.905432636087603L155.8809140625,19.882702133872307L156.01958035714284,19.875297936526227L156.1548214285714,19.86850755864925L156.29845982142854,19.88034276528793L156.5759029017857,19.909902009097028L156.70915513392856,19.859511267055183L157.83141294642854,19.817311178554206L158.24608593749997,19.673639059066794L158.3934810267857,19.590792612595997L158.66716741071428,19.596278624101124L158.9424006696428,19.58983351967553L159.0943258928571,19.611777565696038L159.51375,19.609974471005533L159.64987499999995,19.59900244799528L159.93969308035713,19.544353333386514L160.07670200892858,19.541111599315315L160.21315848214283,19.53155903382736L160.35447656249997,19.519666281613443L160.7705859375,19.50303561037238L161.87715401785715,19.286031246185324L162.02178683035714,19.267328934236012L162.15890625,19.400623668323885L162.43358705357142,19.547940340909097L162.71025669642853,19.515196908604036L162.8450558035714,19.421013983813214L162.97808705357141,19.480573654174826L163.2504475446428,19.518477006392057L163.53440959821427,19.552294622768073L163.67407031249996,19.609974471005533L163.80942187499997,19.63435461304406L164.2313872767857,19.70507812500002L164.3679542410714,19.760724696246076L164.50308482142853,19.780520374124713L165.20735491071426,19.77315454049545L165.49374776785712,19.70507812500002L165.62766294642856,19.652692469683576L165.89980245535713,19.532230398871697L166.03460156249997,19.508655894886385L166.31790066964282,19.449729225852288L167.14978794642855,19.39078337495978L167.28613392857142,19.359363490884967L167.55937834821427,19.41853952407839L167.84787053571426,19.514851635152652L168.4149107142857,19.52060619267552L168.5522511160714,19.53483913161538L168.69213281249998,19.503956339576042L168.83168303571426,19.52375201745468L168.97487946428572,19.536296952854524L169.25409040178567,19.537102590907722L169.52578794642855,19.547940340909097L169.66345982142852,19.390802556818194L169.80510937499997,19.076526988636385L169.94686941964284,19.35151811079546L170.08796651785713,19.092236930673785L170.22939508928567,19.10271022536538L170.36828236607138,19.166298085993L170.93388616071425,19.16223153201017L171.21729575892854,19.034211808984942L171.35485714285713,19.02600197358566L172.19536272321426,19.072594707662418L172.47081696428566,19.03365553509107L172.7540055803571,19.069966793060324L172.88858370535712,19.08281863819471L173.02835491071426,19.09162311120468L173.31110156249997,19.09896976297553L173.85858482142856,18.91938920454546L174.28485937499997,18.872240196574836L174.56616964285712,19.12141253731469L174.98835602678568,19.100101492621697L175.39816741071428,19.16718045147984L175.54147433035712,19.115792252800684L175.8205747767857,19.08143754438921L175.95692075892856,19.011826580221012L176.09459263392856,18.96740139614454L176.23889397321426,18.948334628885455L176.37347209821425,18.954741369594245L176.5121383928571,18.971755678003497L176.64958928571428,18.962241476232364L176.93344084821425,18.958673650568194L177.0696763392857,18.97595650499518L177.20878459821427,18.991896629333517L177.62467299107138,18.995253454555183L177.76367075892855,19.000566829334627L178.03978794642853,18.48726029829546L179.16624441964285,18.738676916469245L179.30678906249994,18.726534800095997L179.44600781249997,18.72950798814948L179.5841216517857,18.72597852620213L179.7280915178571,18.672441959381125L180.00697098214286,18.693503639914788L180.13889732142852,18.697551012039206L180.2740279017857,18.722966974431827L180.41424107142856,18.745716658505533L180.69068973214286,18.780953732403848L180.82780915178571,18.797948858954705L180.96338169642854,18.833991570906218L181.2490011160714,18.83769366957925L181.38943526785712,18.855916435068316L181.66267968749997,18.910949186845265L183.0571875,18.870283647017057L183.48257812499995,18.997958096590924L183.62279129464284,19.03068234703759L183.76234151785712,19.01608495278793L183.9026651785714,19.03722336075524L184.1872901785714,18.98813698508523L184.32286272321426,18.997958096590924L184.46086607142857,19.00231237844988L184.74328124999997,18.966519030657697L185.15143526785712,18.956966465169742L185.28844419642857,18.965214664285845L185.43506584821426,18.944536620920367L185.57351116071425,18.940527612512774L185.71582366071425,18.965943574905417L185.85758370535711,18.96147420189599L185.9935982142857,18.976282596588156L186.1417667410714,18.9743644107472L186.4205357142857,18.330122514204557L186.6954375,18.62475585937502L186.8385234375,18.65224346247587L187.1027075892857,18.784694194793722L187.37948772321425,18.90193371339279L187.6592511160714,18.905098720030363L187.80277901785712,18.958673650568194L187.93581026785714,18.973769773136507L188.07646540178567,18.941831978884625L188.22529687499997,18.987465620040915L188.36363169642857,18.93412087180398L188.92360044642854,18.982248154553506L189.61505357142858,18.97282986207443L189.76123325892854,18.95564291693948L190.0355825892857,18.964274753223787L190.1709341517857,18.954607096585367L190.30960044642853,18.94031661207027L190.7263727678571,18.212269176136385L190.86349218749996,18.290838068181827L190.99685491071426,18.227979118173785L191.27938058035713,18.31328084252099L191.54842633928567,18.526544744318194L191.68245200892855,18.495105678384967L192.09756696428568,18.550713885914217L192.3776618303571,18.5422355044972L192.6699107142857,18.58662232485685L192.80139508928568,18.55272798104721L193.07773325892853,18.59724907441574L193.22313950892857,18.62007548592309L193.63427678571426,18.67058131911538L193.7717276785714,18.642825169996794L193.91912276785712,18.62020975893195L194.19170424107142,18.602293903177447L194.32959709821426,18.62408449433068L194.4678214285714,18.62604104388846L194.7575290178571,18.644398082386385L194.8978526785714,18.631296873092673L195.03872879464285,18.585471413352288L195.17187053571425,18.73081235452133L195.32026004464282,18.644398082386385L195.4542857142857,18.627556410702798L195.73007142857142,18.57018347219988L196.15214732142854,18.44797585227273L196.29136607142857,18.405660672621305L196.56593638392857,18.332731246948264L197.13739620535713,18.381817622618254L197.27672544642854,18.373339241201236L197.55759375,18.37297478589146L197.6948236607143,18.383064443414874L198.1099386160714,18.402629938992593L198.38926004464284,18.41989361156119L198.6626149553571,18.45319331776014L198.95397991071428,18.526544744318194L199.09330915178572,18.578911217776227L199.2316439732143,18.526544744318194L199.3675479910714,18.46368579431015L199.65106808035713,18.5714302929965L200.05911160714285,18.6915279084986L200.19943526785713,18.697953831065803L200.48339732142858,18.883116310293033L200.62504687499998,18.8913069638339L200.76227678571428,18.84603777798741L201.04944308035712,18.859311624006803L201.59814174107143,18.911908279765754L201.88000446428572,18.91597483374856L202.01270424107142,18.932471231980763L202.2918046875,18.90728545188906L202.44240401785711,18.9397603381764L202.5783080357143,18.96147420189599L202.85122098214288,18.961282383311897L202.98613058035716,18.44797585227273L203.5462098214286,18.825110370462603L203.6833292410714,18.801535866477288L203.8185703125,18.885705861178327L203.96928013392858,18.801535866477288L204.108609375,18.805890148336246L204.3794229910714,18.797948858954705L204.6590758928571,18.852904883298013L204.79829464285714,18.84080113064161L204.93530357142853,18.887950138612233L205.07695312499996,18.899746981534097L205.21639285714286,18.905520720915373L205.3651138392857,18.871377012946404L205.77956584821428,18.971755678003497L206.19567522321427,18.98485688729721L206.47256584821426,18.988885077563214L206.76172098214283,19.02880252491346L206.89839843749996,19.030471346595085L207.03507589285715,19.011040124026227L207.17562053571424,18.91938920454546L207.31019866071426,18.722966974431827L207.87281919642857,18.749150211160845L208.4245011160714,18.927234584634967L208.7024966517857,18.94557244127448L208.85254352678567,18.949600631540484L208.99330915178567,19.009160301902092L209.26975781249996,19.076526988636385L209.40941852678571,19.09501830014317L209.55283593749996,19.14199467138811L209.96618303571427,19.1288934620944L210.39444642857143,19.223843661221597L210.53200781249998,19.23681059750645L210.6690167410714,19.257833914323292L210.9493325892857,19.29539199308916L211.0975011160714,19.304100556807096L211.25174665178568,19.325315692208033L211.52974218749998,19.076526988636385L211.6677455357143,18.91938920454546L211.9475089285714,18.95080908862028L212.08263950892854,18.84082031250002L212.21522879464283,18.941831978884625L212.34892299107142,19.017600319602288L212.49289285714283,18.971774859861906L212.62360379464283,18.927234584634967L212.89607477678567,18.939031427556827L213.03440959821427,18.95564291693948L213.45714843749997,18.904657537286944L214.15412611607144,18.941831978884625L214.70348772321427,18.982248154553506L215.82187834821423,18.84082031250002L215.9661796875,19.155095880681827L216.1027466517857,19.20222570679406L216.2373247767857,19.14199467138811L216.37565959821424,19.087729193947535L216.80005580357138,19.045087922703157L216.9394955357143,19.062236504121266L217.21528124999998,18.973769773136507L217.35593638392857,18.992337812076936L217.6353683035714,18.929210316051154L217.7733716517857,18.942503343928962L217.91303236607138,18.96740139614454L218.0487154017857,18.952477910301905L218.33157254464282,18.94557244127448L218.60691629464284,18.933046687733064L218.74613504464284,18.942292343486457L218.88844754464284,18.944536620920367L219.16125,19.009601484645515L219.2992533482143,19.01478058641608L219.43692522321427,19.052146846597857L219.7187879464286,19.233664772727288L219.98860714285715,19.050324570048957L220.82193080357143,18.84082031250002L221.10743973214286,18.826529827984903L221.68354017857143,18.767468885941945L221.82165401785716,18.75734086470171L221.95700558035716,18.757628592577863L222.52128348214285,18.807136969132863L223.21130022321427,18.81058970364659L223.34598883928572,18.820449178869083L223.89590290178572,17.426580255681827L224.3088080357143,18.251553622159097L224.44747433035712,18.35369701818987L224.87187053571427,18.536365855823885L225.29096316964285,18.526544744318194L225.42973995535712,18.51344353502448L225.56708035714286,18.49631413546476L225.9949017857143,18.560918634588077L226.13776674107143,18.628227775747135L226.55453906250003,18.656175743449836L226.70204464285715,18.713606227527986L226.8396060267857,18.74439311027529L226.97937723214287,18.782737645235944L227.11749107142856,18.76879243417221L228.0995357142857,18.212269176136385L228.23577120535714,18.84082031250002L228.37266964285715,18.73604900186713L228.51221986607143,18.978315873579557L228.79209375000002,18.893186785958033L228.92987611607143,18.896927248347907L229.06544866071428,18.821178089488654L229.20057924107144,18.867003549229036L229.3362622767857,18.864394816485333L229.47956919642857,18.826529827984903L229.61978236607143,18.94557244127448L229.75833816964285,18.95564291693948L229.89667299107145,18.964274753223787L230.32758816964287,18.960975473577335L230.6042578125,18.969012672250933L231.30952232142857,18.94557244127448L231.44852008928572,18.96968403729527L231.58972767857142,18.931473775343473L231.8861752232143,18.930591409856632L232.4512265625,18.88010475852273L232.86490513392854,18.62082357840105L233.15218191964286,18.784694194793722L233.71270312500002,18.776522723111245L233.85932477678574,18.81461789391259L233.99622321428572,18.8226742744446L234.13367410714284,18.818358356302447L234.55829129464286,18.85468879613011L234.83297209821427,18.844944412058062L234.97296428571428,18.88010475852273L235.12190625000002,18.87074401161889L235.27261607142856,18.830097653649073L235.40951450892857,18.820314905860222L235.67248325892857,18.828256195241764L235.80849776785715,18.8226742744446L236.21654129464284,18.805602420460115L236.62889397321428,17.97656250000002L236.76568191964287,18.05513139204546L236.9024698660714,18.19262695312502L237.58475223214282,18.395590196956306L237.72772767857143,18.31441257216714L237.86495758928572,18.362252127040534L238.95152678571426,18.46451061422176L239.08809374999998,18.44797585227273L239.21979910714288,18.44797585227273L239.4972421875,18.465047706257234L239.63038392857143,18.464337977496076L239.76352566964286,18.457413326610236L239.900203125,18.453998955813336L240.03146651785715,18.450891494750998L240.17665178571428,18.456377506256125L240.31498660714286,18.466946710239778L240.5796127232143,17.662286931818194L240.8527466517857,18.290838068181827L240.986109375,18.389049183238654L241.11891964285715,18.133700284090924L241.38884933035712,18.100016940723787L241.5330401785714,18.182805841619327L241.79413058035715,18.20440461418847L242.06262388392855,18.212269176136385L242.20924553571427,18.175996281883936L242.47033593749998,18.15986433896153L242.6084497767857,18.16316361860796L243.15085044642856,18.208336895162418L243.28487611607144,18.204788251356657L243.42575223214286,18.21583700180056L243.56762276785716,18.208854805339485L243.70871986607145,18.215530092065997L243.8408671875,18.190267584540642L244.0330111607143,18.18808085268195L244.33255245535713,18.17296554825524L244.47265513392855,18.160785068165193L244.62016071428573,18.162492253563624L244.77109151785712,17.740855823863654L245.36398660714286,17.88228366591714L245.66187053571429,17.864310264587424L245.80285714285714,17.94709916548296L245.96063839285716,17.994017991152692L246.24791517857142,18.03368607434361L246.54292633928569,18.018858497793033L246.8419151785714,17.992253260179005L247.13537946428568,18.013525941155176L247.28178013392858,18.033302437175422L247.44188169642857,18.038596630096457L247.73114732142858,18.08505509116433L247.8782109375,18.09082883054561L248.02030245535715,18.075617616826847L248.17874665178573,18.06167240576311L248.32581026785712,18.058277216824624L248.46745982142858,18.06418522921476L248.76976339285713,18.09721638939599L248.9243404017857,18.07680689204825L249.36453683035714,17.62300248579546L249.50143526785712,17.68847016854721L249.78108816964286,17.677996873855612L249.92008593749998,17.714653405276227L250.34415066964283,17.784494551745343L250.47519308035714,17.77227570793847L250.61176004464286,17.797979398207243L250.74689062500002,17.80632350661538L250.88058482142858,17.81336324865169L251.16001674107142,17.808932239359088L251.71954352678569,17.835959477858122L251.99698660714284,17.868050726977277L252.13255915178573,17.894406600431974L252.26724776785716,17.90823672034524L252.68424107142857,17.919132015921868L252.82412276785712,17.918364741585474L253.09836160714286,17.92780221592298L253.24564620535716,17.93202222477308L253.38652232142857,17.897993607954557L253.65976674107145,17.58371803977273L253.79677566964284,17.858709161931827L253.94527566964283,17.929413492029376L254.07941183035712,17.937278053977288L254.35519754464283,17.94709916548296L254.63507142857142,17.984407880089503L254.91052566964285,17.937278053977288L255.04687165178572,17.922162749550562L255.32862388392857,17.97654331814161L255.46585379464287,18.006025834517057L255.60617745535714,18.013525941155176L255.74815848214288,18.002745736729036L256.03156808035715,17.97656250000002L256.4474564732143,17.990219983187604L256.58601227678565,17.966741388494327L256.74003683035716,17.97029003230009L256.8785926339286,17.9584164619446L257.02035267857144,17.944547978314493L257.2953649553571,17.922373749993067L257.44287053571423,17.91107563538986L257.5849620535714,17.819424715909097L257.8607477678571,17.767039060592673L257.99808816964287,17.917635830965924L258.1443783482143,17.835134657946515L258.27884598214285,17.80632350661538L258.5602667410714,17.83906693892046L258.70103236607144,17.784494551745343L258.84776450892855,17.75656576590105L259.41005357142853,17.72961525483566L259.83500223214287,17.708496028726763L259.97079575892855,17.701571377840924L260.10415848214285,17.720177780498176L260.5208203125,17.694416544654167L260.65374107142856,17.703278563239373L260.7868828125,17.68847016854721L260.9259910714286,17.681142698634773L261.0715078125,17.692498358813214L261.34629910714284,17.704371929168722L261.4823136160714,17.683962431820962L261.62175334821427,17.691078901290915L262.03465848214285,17.557515621185324L262.17078348214284,17.62300248579546L262.44645870535714,17.64918572252448L262.5791584821428,17.617382201281476L262.71417857142853,17.554254705255694L263.1358125,17.633705962787996L263.406515625,17.686456073414217L263.54584486607143,17.656666647304206L263.67942857142856,17.641321160576563L263.82384040178573,17.65246582031252L263.9607388392857,17.69925037297337L264.3739754464285,17.752633484927106L264.7969352678571,17.812595974315315L264.9318448660714,17.80632350661538L265.3465178571428,17.831068103963688L265.4785546875,17.85308887741784L266.03653459821425,17.937278053977288L266.45452232142856,18.039421450008064L266.60235937500005,18.068213419480763L266.88355915178573,18.281016956676154L267.02023660714286,18.194813684983693L267.1565825892857,18.110125780105612L267.4412075892857,18.074773615056827L267.58086830357144,18.030943068591046L267.71986607142856,18.01582776416434L267.86030022321427,18.034165620803854L268.4284453125,18.009651205756462L268.5674430803571,18.0433345491236L268.7058883928571,18.028928973458033L269.00465625,18.024382873014982L269.1431015625,18.035489169034097L269.2812154017857,18.05513139204546L269.8457142857143,18.011780392039924L269.98515401785716,18.013219031420636" style="fill: none;" fill="none"></path></g></g></g></g></g></g><g transform="translate(51, 177)" clip-path="url(#clip_1)"><clipPath id="clip_1"><rect width="278" height="23"></rect></clipPath><g><g><line x1="0" y1="0" x2="0" y2="5" style="visibility: inherit;" fill="rgb(0, 0, 0)" stroke="rgb(204, 204, 204)" stroke-width="1px"></line><line x1="19.888392857142858" y1="0" x2="19.888392857142858" y2="5" style="visibility: inherit;" fill="rgb(0, 0, 0)" stroke="rgb(204, 204, 204)" stroke-width="1px"></line><line x1="39.776785714285715" y1="0" x2="39.776785714285715" y2="5" style="visibility: inherit;" fill="rgb(0, 0, 0)" stroke="rgb(204, 204, 204)" stroke-width="1px"></line><line x1="59.66517857142858" y1="0" x2="59.66517857142858" y2="5" style="visibility: inherit;" fill="rgb(0, 0, 0)" stroke="rgb(204, 204, 204)" stroke-width="1px"></line><line x1="79.55357142857143" y1="0" x2="79.55357142857143" y2="5" style="visibility: inherit;" fill="rgb(0, 0, 0)" stroke="rgb(204, 204, 204)" stroke-width="1px"></line><line x1="99.44196428571428" y1="0" x2="99.44196428571428" y2="5" style="visibility: inherit;" fill="rgb(0, 0, 0)" stroke="rgb(204, 204, 204)" stroke-width="1px"></line><line x1="119.33035714285712" y1="0" x2="119.33035714285712" y2="5" style="visibility: inherit;" fill="rgb(0, 0, 0)" stroke="rgb(204, 204, 204)" stroke-width="1px"></line><line x1="139.21874999999997" y1="0" x2="139.21874999999997" y2="5" style="visibility: inherit;" fill="rgb(0, 0, 0)" stroke="rgb(204, 204, 204)" stroke-width="1px"></line><line x1="159.1071428571428" y1="0" x2="159.1071428571428" y2="5" style="visibility: inherit;" fill="rgb(0, 0, 0)" stroke="rgb(204, 204, 204)" stroke-width="1px"></line><line x1="178.9955357142857" y1="0" x2="178.9955357142857" y2="5" style="visibility: inherit;" fill="rgb(0, 0, 0)" stroke="rgb(204, 204, 204)" stroke-width="1px"></line><line x1="198.88392857142856" y1="0" x2="198.88392857142856" y2="5" style="visibility: inherit;" fill="rgb(0, 0, 0)" stroke="rgb(204, 204, 204)" stroke-width="1px"></line><line x1="218.77232142857142" y1="0" x2="218.77232142857142" y2="5" style="visibility: inherit;" fill="rgb(0, 0, 0)" stroke="rgb(204, 204, 204)" stroke-width="1px"></line><line x1="238.6607142857143" y1="0" x2="238.6607142857143" y2="5" style="visibility: inherit;" fill="rgb(0, 0, 0)" stroke="rgb(204, 204, 204)" stroke-width="1px"></line><line x1="258.5491071428571" y1="0" x2="258.5491071428571" y2="5" style="visibility: inherit;" fill="rgb(0, 0, 0)" stroke="rgb(204, 204, 204)" stroke-width="1px"></line><line x1="278.4375" y1="0" x2="278.4375" y2="5" style="visibility: inherit;" fill="rgb(0, 0, 0)" stroke="rgb(204, 204, 204)" stroke-width="1px"></line></g><g transform="translate(0, 8)"><text x="0" y="0" dx="0em" dy="0.95em" style="text-anchor: middle; visibility: hidden; font-family: Roboto, sans-serif; font-size: 12px; font-weight: 200;" fill="rgb(33, 33, 33)" stroke="none" stroke-width="1px">-0.05</text><text x="19.888392857142858" y="0" dx="0em" dy="0.95em" style="text-anchor: middle; visibility: inherit; font-family: Roboto, sans-serif; font-size: 12px; font-weight: 200;" fill="rgb(33, 33, 33)" stroke="none" stroke-width="1px">0</text><text x="39.776785714285715" y="0" dx="0em" dy="0.95em" style="text-anchor: middle; visibility: hidden; font-family: Roboto, sans-serif; font-size: 12px; font-weight: 200;" fill="rgb(33, 33, 33)" stroke="none" stroke-width="1px">0.05</text><text x="59.66517857142858" y="0" dx="0em" dy="0.95em" style="text-anchor: middle; visibility: inherit; font-family: Roboto, sans-serif; font-size: 12px; font-weight: 200;" fill="rgb(33, 33, 33)" stroke="none" stroke-width="1px">0.1</text><text x="79.55357142857143" y="0" dx="0em" dy="0.95em" style="text-anchor: middle; visibility: hidden; font-family: Roboto, sans-serif; font-size: 12px; font-weight: 200;" fill="rgb(33, 33, 33)" stroke="none" stroke-width="1px">0.15</text><text x="99.44196428571428" y="0" dx="0em" dy="0.95em" style="text-anchor: middle; visibility: inherit; font-family: Roboto, sans-serif; font-size: 12px; font-weight: 200;" fill="rgb(33, 33, 33)" stroke="none" stroke-width="1px">0.2</text><text x="119.33035714285712" y="0" dx="0em" dy="0.95em" style="text-anchor: middle; visibility: hidden; font-family: Roboto, sans-serif; font-size: 12px; font-weight: 200;" fill="rgb(33, 33, 33)" stroke="none" stroke-width="1px">0.25</text><text x="139.21874999999997" y="0" dx="0em" dy="0.95em" style="text-anchor: middle; visibility: inherit; font-family: Roboto, sans-serif; font-size: 12px; font-weight: 200;" fill="rgb(33, 33, 33)" stroke="none" stroke-width="1px">0.3</text><text x="159.1071428571428" y="0" dx="0em" dy="0.95em" style="text-anchor: middle; visibility: hidden; font-family: Roboto, sans-serif; font-size: 12px; font-weight: 200;" fill="rgb(33, 33, 33)" stroke="none" stroke-width="1px">0.35</text><text x="178.9955357142857" y="0" dx="0em" dy="0.95em" style="text-anchor: middle; visibility: inherit; font-family: Roboto, sans-serif; font-size: 12px; font-weight: 200;" fill="rgb(33, 33, 33)" stroke="none" stroke-width="1px">0.4</text><text x="198.88392857142856" y="0" dx="0em" dy="0.95em" style="text-anchor: middle; visibility: hidden; font-family: Roboto, sans-serif; font-size: 12px; font-weight: 200;" fill="rgb(33, 33, 33)" stroke="none" stroke-width="1px">0.45</text><text x="218.77232142857142" y="0" dx="0em" dy="0.95em" style="text-anchor: middle; visibility: inherit; font-family: Roboto, sans-serif; font-size: 12px; font-weight: 200;" fill="rgb(33, 33, 33)" stroke="none" stroke-width="1px">0.5</text><text x="238.6607142857143" y="0" dx="0em" dy="0.95em" style="text-anchor: middle; visibility: hidden; font-family: Roboto, sans-serif; font-size: 12px; font-weight: 200;" fill="rgb(33, 33, 33)" stroke="none" stroke-width="1px">0.55</text><text x="258.5491071428571" y="0" dx="0em" dy="0.95em" style="text-anchor: middle; visibility: inherit; font-family: Roboto, sans-serif; font-size: 12px; font-weight: 200;" fill="rgb(33, 33, 33)" stroke="none" stroke-width="1px">0.6</text><text x="278.4375" y="0" dx="0em" dy="0.95em" style="text-anchor: middle; visibility: hidden; font-family: Roboto, sans-serif; font-size: 12px; font-weight: 200;" fill="rgb(33, 33, 33)" stroke="none" stroke-width="1px">0.65</text></g><line x1="0" y1="0" x2="278.4375" y2="0" fill="rgb(0, 0, 0)" stroke="rgb(204, 204, 204)" stroke-width="1px"></line></g></g></g></g></svg>