<svg viewBox="0 0 330 200" xmlns="http://www.w3.org/2000/svg"><g><g><g><g><g><line x1="61.953125" y1="177" x2="56.953125" y2="177" style="visibility: inherit;" fill="rgb(0, 0, 0)" stroke="rgb(204, 204, 204)" stroke-width="1px"></line><line x1="61.953125" y1="162.25" x2="56.953125" y2="162.25" style="visibility: inherit;" fill="rgb(0, 0, 0)" stroke="rgb(204, 204, 204)" stroke-width="1px"></line><line x1="61.953125" y1="147.5" x2="56.953125" y2="147.5" style="visibility: inherit;" fill="rgb(0, 0, 0)" stroke="rgb(204, 204, 204)" stroke-width="1px"></line><line x1="61.953125" y1="132.75" x2="56.953125" y2="132.75" style="visibility: inherit;" fill="rgb(0, 0, 0)" stroke="rgb(204, 204, 204)" stroke-width="1px"></line><line x1="61.953125" y1="118.00000000000001" x2="56.953125" y2="118.00000000000001" style="visibility: inherit;" fill="rgb(0, 0, 0)" stroke="rgb(204, 204, 204)" stroke-width="1px"></line><line x1="61.953125" y1="103.25" x2="56.953125" y2="103.25" style="visibility: inherit;" fill="rgb(0, 0, 0)" stroke="rgb(204, 204, 204)" stroke-width="1px"></line><line x1="61.953125" y1="88.50000000000001" x2="56.953125" y2="88.50000000000001" style="visibility: inherit;" fill="rgb(0, 0, 0)" stroke="rgb(204, 204, 204)" stroke-width="1px"></line><line x1="61.953125" y1="73.75000000000001" x2="56.953125" y2="73.75000000000001" style="visibility: inherit;" fill="rgb(0, 0, 0)" stroke="rgb(204, 204, 204)" stroke-width="1px"></line><line x1="61.953125" y1="59.00000000000003" x2="56.953125" y2="59.00000000000003" style="visibility: inherit;" fill="rgb(0, 0, 0)" stroke="rgb(204, 204, 204)" stroke-width="1px"></line><line x1="61.953125" y1="44.25000000000002" x2="56.953125" y2="44.25000000000002" style="visibility: inherit;" fill="rgb(0, 0, 0)" stroke="rgb(204, 204, 204)" stroke-width="1px"></line><line x1="61.953125" y1="29.500000000000014" x2="56.953125" y2="29.500000000000014" style="visibility: inherit;" fill="rgb(0, 0, 0)" stroke="rgb(204, 204, 204)" stroke-width="1px"></line><line x1="61.953125" y1="14.750000000000007" x2="56.953125" y2="14.750000000000007" style="visibility: inherit;" fill="rgb(0, 0, 0)" stroke="rgb(204, 204, 204)" stroke-width="1px"></line><line x1="61.953125" y1="0" x2="56.953125" y2="0" style="visibility: inherit;" fill="rgb(0, 0, 0)" stroke="rgb(204, 204, 204)" stroke-width="1px"></line></g><g transform="translate(51.953125, 0)"><text x="0" y="177" dx="0em" dy="0.3em" style="text-anchor: end; visibility: hidden; font-family: Roboto, sans-serif; font-size: 12px; font-weight: 200;" fill="rgb(33, 33, 33)" stroke="none" stroke-width="1px">-0.05</text><text x="0" y="162.25" dx="0em" dy="0.3em" style="text-anchor: end; visibility: inherit; font-family: Roboto, sans-serif; font-size: 12px; font-weight: 200;" fill="rgb(33, 33, 33)" stroke="none" stroke-width="1px">0</text><text x="0" y="147.5" dx="0em" dy="0.3em" style="text-anchor: end; visibility: hidden; font-family: Roboto, sans-serif; font-size: 12px; font-weight: 200;" fill="rgb(33, 33, 33)" stroke="none" stroke-width="1px">0.05</text><text x="0" y="132.75" dx="0em" dy="0.3em" style="text-anchor: end; visibility: inherit; font-family: Roboto, sans-serif; font-size: 12px; font-weight: 200;" fill="rgb(33, 33, 33)" stroke="none" stroke-width="1px">0.1</text><text x="0" y="118.00000000000001" dx="0em" dy="0.3em" style="text-anchor: end; visibility: hidden; font-family: Roboto, sans-serif; font-size: 12px; font-weight: 200;" fill="rgb(33, 33, 33)" stroke="none" stroke-width="1px">0.15</text><text x="0" y="103.25" dx="0em" dy="0.3em" style="text-anchor: end; visibility: inherit; font-family: Roboto, sans-serif; font-size: 12px; font-weight: 200;" fill="rgb(33, 33, 33)" stroke="none" stroke-width="1px">0.2</text><text x="0" y="88.50000000000001" dx="0em" dy="0.3em" style="text-anchor: end; visibility: hidden; font-family: Roboto, sans-serif; font-size: 12px; font-weight: 200;" fill="rgb(33, 33, 33)" stroke="none" stroke-width="1px">0.25</text><text x="0" y="73.75000000000001" dx="0em" dy="0.3em" style="text-anchor: end; visibility: inherit; font-family: Roboto, sans-serif; font-size: 12px; font-weight: 200;" fill="rgb(33, 33, 33)" stroke="none" stroke-width="1px">0.3</text><text x="0" y="59.00000000000003" dx="0em" dy="0.3em" style="text-anchor: end; visibility: hidden; font-family: Roboto, sans-serif; font-size: 12px; font-weight: 200;" fill="rgb(33, 33, 33)" stroke="none" stroke-width="1px">0.35</text><text x="0" y="44.25000000000002" dx="0em" dy="0.3em" style="text-anchor: end; visibility: inherit; font-family: Roboto, sans-serif; font-size: 12px; font-weight: 200;" fill="rgb(33, 33, 33)" stroke="none" stroke-width="1px">0.4</text><text x="0" y="29.500000000000014" dx="0em" dy="0.3em" style="text-anchor: end; visibility: hidden; font-family: Roboto, sans-serif; font-size: 12px; font-weight: 200;" fill="rgb(33, 33, 33)" stroke="none" stroke-width="1px">0.45</text><text x="0" y="14.750000000000007" dx="0em" dy="0.3em" style="text-anchor: end; visibility: inherit; font-family: Roboto, sans-serif; font-size: 12px; font-weight: 200;" fill="rgb(33, 33, 33)" stroke="none" stroke-width="1px">0.5</text><text x="0" y="0" dx="0em" dy="0.3em" style="text-anchor: end; visibility: hidden; font-family: Roboto, sans-serif; font-size: 12px; font-weight: 200;" fill="rgb(33, 33, 33)" stroke="none" stroke-width="1px">0.55</text></g><line x1="61.953125" y1="0" x2="61.953125" y2="177" fill="rgb(0, 0, 0)" stroke="rgb(204, 204, 204)" stroke-width="1px"></line></g></g><g transform="translate(61, 0)" clip-path="url(#clip_0)"><clipPath id="clip_0"><rect width="268" height="177"></rect></clipPath><g><g><g><line x1="0" y1="0" x2="0" y2="177" fill="rgb(0, 0, 0)" stroke="rgb(66, 66, 66)" stroke-width="1px" opacity="0.25"></line><line x1="33.505859375" y1="0" x2="33.505859375" y2="177" fill="rgb(0, 0, 0)" stroke="rgb(66, 66, 66)" stroke-width="1px" opacity="0.25"></line><line x1="67.01171875" y1="0" x2="67.01171875" y2="177" fill="rgb(0, 0, 0)" stroke="rgb(66, 66, 66)" stroke-width="1px" opacity="0.25"></line><line x1="100.517578125" y1="0" x2="100.517578125" y2="177" fill="rgb(0, 0, 0)" stroke="rgb(66, 66, 66)" stroke-width="1px" opacity="0.25"></line><line x1="134.0234375" y1="0" x2="134.0234375" y2="177" fill="rgb(0, 0, 0)" stroke="rgb(66, 66, 66)" stroke-width="1px" opacity="0.25"></line><line x1="167.529296875" y1="0" x2="167.529296875" y2="177" fill="rgb(0, 0, 0)" stroke="rgb(66, 66, 66)" stroke-width="1px" opacity="0.25"></line><line x1="201.03515625" y1="0" x2="201.03515625" y2="177" fill="rgb(0, 0, 0)" stroke="rgb(66, 66, 66)" stroke-width="1px" opacity="0.25"></line><line x1="234.541015625" y1="0" x2="234.541015625" y2="177" fill="rgb(0, 0, 0)" stroke="rgb(66, 66, 66)" stroke-width="1px" opacity="0.25"></line><line x1="268.046875" y1="0" x2="268.046875" y2="177" fill="rgb(0, 0, 0)" stroke="rgb(66, 66, 66)" stroke-width="1px" opacity="0.25"></line></g><g><line x1="0" y1="177" x2="268.046875" y2="177" fill="rgb(0, 0, 0)" stroke="rgb(66, 66, 66)" stroke-width="1px" opacity="0.25"></line><line x1="0" y1="162.25" x2="268.046875" y2="162.25" fill="rgb(0, 0, 0)" stroke="rgb(66, 66, 66)" stroke-width="1px" opacity="0.25"></line><line x1="0" y1="147.5" x2="268.046875" y2="147.5" fill="rgb(0, 0, 0)" stroke="rgb(66, 66, 66)" stroke-width="1px" opacity="0.25"></line><line x1="0" y1="132.75" x2="268.046875" y2="132.75" fill="rgb(0, 0, 0)" stroke="rgb(66, 66, 66)" stroke-width="1px" opacity="0.25"></line><line x1="0" y1="118.00000000000001" x2="268.046875" y2="118.00000000000001" fill="rgb(0, 0, 0)" stroke="rgb(66, 66, 66)" stroke-width="1px" opacity="0.25"></line><line x1="0" y1="103.25" x2="268.046875" y2="103.25" fill="rgb(0, 0, 0)" stroke="rgb(66, 66, 66)" stroke-width="1px" opacity="0.25"></line><line x1="0" y1="88.50000000000001" x2="268.046875" y2="88.50000000000001" fill="rgb(0, 0, 0)" stroke="rgb(66, 66, 66)" stroke-width="1px" opacity="0.25"></line><line x1="0" y1="73.75000000000001" x2="268.046875" y2="73.75000000000001" fill="rgb(0, 0, 0)" stroke="rgb(66, 66, 66)" stroke-width="1px" opacity="0.25"></line><line x1="0" y1="59.00000000000003" x2="268.046875" y2="59.00000000000003" fill="rgb(0, 0, 0)" stroke="rgb(66, 66, 66)" stroke-width="1px" opacity="0.25"></line><line x1="0" y1="44.25000000000002" x2="268.046875" y2="44.25000000000002" fill="rgb(0, 0, 0)" stroke="rgb(66, 66, 66)" stroke-width="1px" opacity="0.25"></line><line x1="0" y1="29.500000000000014" x2="268.046875" y2="29.500000000000014" fill="rgb(0, 0, 0)" stroke="rgb(66, 66, 66)" stroke-width="1px" opacity="0.25"></line><line x1="0" y1="14.750000000000007" x2="268.046875" y2="14.750000000000007" fill="rgb(0, 0, 0)" stroke="rgb(66, 66, 66)" stroke-width="1px" opacity="0.25"></line><line x1="0" y1="0" x2="268.046875" y2="0" fill="rgb(0, 0, 0)" stroke="rgb(66, 66, 66)" stroke-width="1px" opacity="0.25"></line></g></g></g><g><g><line x1="0" y1="162.25" x2="268.046875" y2="162.25" fill="rgb(0, 0, 0)" stroke="rgb(153, 153, 153)" stroke-width="1.5px"></line></g></g><g><g><line x1="33.505859375" y1="0" x2="33.505859375" y2="177" fill="rgb(0, 0, 0)" stroke="rgb(153, 153, 153)" stroke-width="1.5px"></line></g></g><g><g><g><g><g><path stroke="rgb(51, 187, 238)" stroke-width="2px" d="M34.213372824435766,-1.247133724986169L34.263091796874996,0.5153495331535507L34.340173887803815,1.1240808849309403L34.36344184570313,-0.4385985521679441L34.410089447699654,-0.1803729056863994L34.45776083984375,2.6603933273573754L34.48194090169271,2.3155576572459036L34.52737856987847,2.239761775115243L34.57242533637153,2.1204974840464974L34.59506040581597,2.0145676705383964L34.664882893880204,2.210098988846918L34.68967722981771,0.6677955213429039L34.71584902886285,3.0103685417784822L34.74228142903646,2.3047638084202706L34.76822985568576,2.8450410432859305L34.84741537000868,1.2746264671952914L34.872098019748265,1.4494920482783513L34.92855539279514,1.1759116948677688L34.97578004014757,1.2052298271763506L35.00092804904514,2.929589299295547L35.02536871202257,2.614667160985657L35.051242681206595,3.4895148330387435L35.12063703884549,4.493535103034981L35.14364439561632,3.554040415213906L35.1696672797309,3.62795177911927L35.19323306749132,5.216646006161209L35.23876380750868,5.124763280301188L35.30657594401041,4.148898046514859L35.44931090494792,4.944250203337436L35.4767670952691,4.542250786406643L35.50872796223958,4.608577247978551L35.54325761176215,4.821105120514858L35.56749351671007,6.40524933224964L35.591152376302084,5.8691463081996895L35.71086136610243,6.9098229175420505L35.9090857530382,11.790783009929356L35.99497243923611,13.970159794111535L36.02052996419271,14.280886140598058L36.187780045572914,21.713143960934573L36.26365220269098,30.458990225987044L36.31229154188368,38.275266605502466L36.33755123697916,46.796156917747915L36.36024214952257,49.98230629845803L36.45417024197049,60.74119876435252L36.476823925781254,68.5479991114797L36.50053862847222,73.65102069834882L36.568369379340275,84.70097983634534L36.592326068793405,92.53966256234706L36.65991483289931,101.43348868640477L36.75129275716146,110.85445225210327L36.79734469943577,119.20605661851971L36.846561083984376,124.55021794964559L36.86984765625,128.7949345131498L36.89289224175348,131.749776006924L36.91792856445312,133.67141687344724L36.966121158854165,135.99461160583027L37.013420263671875,138.3177814273997L37.065484646267365,140.20510961347603L37.13478593207466,142.48185160001387L37.158146961805556,143.88262790435712L37.18253178168403,145.54411970671512L37.23126419270834,146.88696056363878L37.25494166666667,148.41104861353577L37.282248942057294,149.1937360629722L37.35419346788194,150.01697736175564L37.40058046874999,150.66598021204297L37.42453715820312,149.8390821797551L37.46891380750868,150.90498842793116L37.49143719075521,151.14508548079377L37.56267437065972,151.79708112149504L37.67558911675347,153.05284776386063L37.698168343098956,153.45574348179366L37.72106401367187,153.80494387750545L37.76711595594618,154.09425700935554L37.7921150499132,154.8485123916437L37.8389301812066,154.80408484959423L37.88379080403646,154.8573163887788L37.90826869574652,155.60209766870315L37.93077346462674,155.65246187803493L37.95385527886285,155.35578181390372L37.99884620225695,155.43666912045722L38.024012825520835,156.21339172528172L38.18526908094618,156.30043728295558L38.27774525282118,156.96336539622303L38.36936516384549,157.03735175601338L38.392521435546875,157.4085047915381L38.414858675130205,157.57642287610778L38.50884261067708,158.09140968567914L38.531812738715274,157.6786440968322L38.57743655056424,157.36989044456524L38.648766802300344,157.69816629474667L38.671476329210066,157.30705269134228L38.746659754774306,157.21871531430594L38.770039398871525,156.5887009675724L38.81947915581597,157.27466143148675L38.844012890624995,157.73606986017546L38.86715054796007,158.0683915493579L38.91212285698784,158.04581044891128L38.93464624023438,158.07041495459467L38.95633197699652,158.09778856101445L38.97930210503472,158.3844882468898L39.00189994574652,158.1965532821726L39.02382766927083,157.97989623493322L39.092142393663195,158.24630172436756L39.15777664930555,158.2887663510312L39.24909873046875,158.38447904203053L39.271882714843755,158.28128971301743L39.318288330078126,158.5418665544285L39.36298142361111,158.94190652138553L39.38476023220486,158.96925315501727L39.495720469835064,159.02740592430496L39.564500553385415,158.1909191678194L39.58618629014757,158.92260169339792L39.60869105902778,159.15258180709253L39.63099106987847,159.11340818918686L39.67702439778646,158.78096837992635L39.76860708007813,159.04365096096794L39.81300234375,159.0068507461524L39.85877507052952,159.58185955956733L39.90430581054688,158.92770434178505L40.019342594401046,159.17108071599958L40.06412875976562,159.50082528519366L40.15465042317708,158.83358405934413L40.26713703884548,158.62173722852253L40.31231410590277,159.17760008786013L40.33491194661459,159.64245447941954L40.41002091471355,159.45350879984102L40.45953512912327,159.4285740952611L40.4858930718316,159.73384183054685L40.50984976128472,159.5533074928404L40.556683506944445,159.3882378816206L40.582110731336805,159.26300271776907L40.608245301649305,159.325485009641L40.718088677300344,159.27609791975652L40.744614149305555,159.21889691946765L40.79239722764757,159.4364005119971L40.86194050021702,159.40276926965245L40.95251800672743,159.5185920683189L40.97736818576389,159.34480619356893L41.000468614366326,159.3328143934957L41.02498373480903,159.46960755396196L41.07245036892361,158.82381456543987L41.14149105360243,159.42782891754052L41.16330709092882,159.66921800521013L41.185327886284725,160.16952335381953L41.25468501519097,160.449991868515L41.27724562717014,159.76963090096663L41.321603662109375,159.70969395865353L41.457656065538195,159.6128769578299L41.5024608452691,159.45360281388528L41.57114785698785,159.29967714366654L41.59328033854166,159.78188155117536L41.63801066080729,159.60390668078009L41.66016175672743,159.90896582954372L41.77348601888021,159.9359178076133L41.79623277452257,159.9571539941397L41.84100032552083,160.38568795799267L41.88511637369792,159.93704191269904L41.908942762586804,159.59172818316478L41.9312427734375,159.76502330640528L41.99885015190973,159.83054961585745L42.02275099826389,159.95240844494847L42.04484625108507,160.1946579606488L42.09026530490451,160.1645775063279L42.11241640082465,160.38755240170318L42.15768653971354,159.93976154478287L42.18080558268229,160.35686951440957L42.22626186523437,160.19569315910272L42.27181121961806,160.49914462991018L42.31538745117188,160.291263231836L42.33711041666667,160.5054361604987L42.36117879231771,160.47976865296593L42.405927728949656,160.11354584500214L42.427799609375,160.1460013177545L42.494774099392366,160.54030133722281L42.51716718207465,160.58465648405584L42.53920659179687,160.5686538567414L42.56167413194444,160.01743832157672L42.608321733940976,159.9903225374691L42.63032391493055,160.19780106827452L42.65260531141493,159.96845539054175L42.67490532226562,160.23170069018545L42.87679673936632,160.3093331890377L42.89837078993055,160.3532055636613L42.94373400065104,160.3154644186642L43.01024313151042,160.42233735302665L43.1688561469184,160.5621204324712L43.19076525607639,160.62314766895173L43.28110077582465,160.40420467072067L43.3034566297743,160.4760969717478L43.32493760850695,160.2947377172366L43.36987268880208,160.37366519315572L43.415328971354164,160.6858794346811L43.50449178602431,160.44439771468114L43.70606675889757,160.92789107863408L43.727938639322915,160.6669181754324L43.752286230468755,160.7910210140874L43.77467931315105,160.65035194111346L43.820805712890625,160.43231265274423L43.84254729275174,160.57037095481297L43.91030358615451,160.9094702594229L43.97891614040799,160.91310764265796L44.13689626736112,160.51357297882583L44.15828417426216,160.62853985822287L44.180546956380205,160.59475469300054L44.20422443033854,160.4489021198237L44.2486010796441,160.52923780136013L44.271254763454856,160.41464522564533L44.293573388671874,160.42541783502176L44.33958810221354,160.48158859916313L44.36144136827257,160.39482519042662L44.38357384982639,160.08792267896038L44.42994223632813,160.18046923932314L44.47513791775174,160.2206617293172L44.496953955078126,160.00808934516687L44.58784790581598,159.94539668088842L44.74634923502604,160.13007197168133L44.814999018012145,159.96186230450368L44.83692674153646,160.51879390363095L44.88091248914931,159.98482187373457L44.92642461480035,160.3288946544857L44.99403199327257,160.33136661288032L45.24320390082465,160.8069439347797L45.309340744357634,160.8657018980362L45.331007866753474,160.60280678665507L45.35500178493923,160.58330072534602L45.39859663085938,160.8683430007325L45.44273129340278,161.088789779766L45.46659491102431,161.07906081345592L45.51032005750868,160.76587271618493L45.623048659939236,160.89922168612196L45.644939154730906,160.55224878682026L45.78117770182292,160.79621308753016L45.82776946072049,160.6698086199708L45.85051621636285,160.65485209524914L45.87264869791667,160.75235328965059L45.894762565104166,160.49195645443453L45.917714078776044,160.93548450109347L45.93993963216146,160.62387857336245L45.96173705512153,160.92910418239424L45.98448381076389,161.176719854394L46.006560449218746,160.97669473968114L46.02859985894097,160.90506009419062L46.07455872938368,160.78922063430724L46.14030467122396,161.06006501303213L46.16414967447917,161.19148907716482L46.186635828993055,160.99774198848255L46.22983977322049,160.93126428886947L46.3221298014323,161.07281980690925L46.36600386284722,160.20123695524077L46.411981347656244,160.59763364570762L46.43400214301215,160.789982272401L46.501441992187495,160.7985526381594L46.52439350585937,160.7333163743414L46.54715887586805,160.9842758275686L46.5920008843316,160.68346616537085L46.63721518012153,160.77796850803173L46.68185243055556,160.89669591141597L46.727252870008684,161.03887295508596L46.74944119466146,160.92849088704116L46.81436810438368,161.0951578903677L46.860103602430556,161.1958165895779L46.88188241102431,161.26341093539978L46.903568147786466,161.38945192698634L46.925626171875,161.1478489231929L46.95043912217882,161.01713943153558L46.97234823133681,161.2585242499482L47.016427050781246,160.85102153552003L47.03837338867188,161.02852123145718L47.15339155815972,161.06909082872096L47.17593355577257,161.2265853229645L47.221054779730906,161.19904502321307L47.24357816297743,161.320512742521L47.265803716362846,161.3801321336644L47.33423012695312,161.35092247308896L47.37814141710069,161.22194745186928L47.422853124999996,161.48869383063294L47.46559171006945,161.07988325604128L47.51000558810764,161.2075306324561L47.55473591037326,161.43702706778197L47.57623550347222,161.267251018005L47.59946623263889,161.27821710549586L47.66722252604167,160.7499388795289L47.75753943142361,160.8810805620964L47.77909486762153,161.02459985343907L47.82287585720486,161.134684183077L47.84510141059028,161.3487714549905L47.88957113172743,161.29715906264667L47.977914914279516,161.13091803469382L48.000568598090275,161.13517622288316L48.04410760091146,160.97071464217453L48.08926605360244,160.98318190209864L48.24478908420139,161.22098913223473L48.2663445203993,161.45773760495516L48.309771837022566,161.36881167489548L48.332872265625,161.50248667556687L48.35470691731771,161.4250742492595L48.376820784505206,161.2943657723639L48.39953031141493,161.39968737196617L48.42186755099826,161.58216515968817L48.46862683919271,161.19403716666596L48.490889621310764,161.34008249338325L48.58040610894097,161.09097935823118L48.60220353190105,161.3130360392221L48.646263736979165,161.45386293170904L48.69183170572917,161.5293534419346L48.757317046440974,161.3168946077769L48.80301531575521,161.47409022459954L48.82574345703125,161.65725780674373L48.84768979492188,161.64663173002262L48.914533984375005,161.67183276726905L48.93635002170139,161.64664821147014L48.95840804578993,161.5305450284315L48.98102450086805,161.6417227237721L49.004366916232634,161.56206404860615L49.048557421875,161.54807710373132L49.070969118923614,161.48162904421974L49.09261762695313,161.3686154489956L49.13833451063368,161.52818606676112L49.16083927951389,161.28971395682663L49.182115500217016,160.89954680992733L49.203838465711804,161.23685124291L49.227385639105904,161.3238024565832L49.24923890516493,161.51706124069952L49.2923870062934,161.59398708895318L49.31474286024305,161.64245012676813L49.38322511393229,161.78902068169975L49.474305208333334,161.6929063876767L49.54036759440105,161.37149687403732L49.563039892578125,161.63772304280053L49.58710826822917,160.8363513163385L49.63157798936632,161.20507507617216L49.65287282443576,161.53803206764408L49.67422350260417,161.5727701990023L49.69739838867187,161.64150497193984L49.74073263346354,161.7348985101147L49.76353523220486,161.81629727084496L49.78592831488716,161.78419186716337L49.87427209743924,161.8869493428975L49.96373274197049,161.89566869395136L49.986405040147574,161.86219230088014L50.031265662977425,161.76437269316193L50.05350983072917,161.77914144691348L50.07486050889757,161.75620869641912L50.09676961805556,161.81860039710128L50.11959083116319,161.89082947977016L50.14380812174479,161.85170027058462L50.20974020724826,161.70789275059784L50.23107227105035,161.5450505469311L50.25435884331597,161.6149121053148L50.365039865451386,161.52694598709814L50.410607834201386,161.48536640098482L50.43296368815104,161.72786728741698L50.454928640407985,161.6768534637919L50.47938791775173,161.6519566603709L50.52309444986979,161.69131499524727L50.59006893988716,161.49536679580174L50.613690570746535,161.61902235995413L50.68090704752605,161.66229733379964L50.702518326822926,161.74508977875544L50.72636333007813,161.76347635276687L50.77040492078993,161.80970402267806L50.814036995442706,161.73787062850434L50.88225864800347,161.24183369028918L50.90463311631945,161.48300172051367L50.95137379014757,161.5421637422663L51.016728830295136,161.72308175970485L51.03847041015626,161.51189828341822L51.0620734266493,161.05183431312813L51.10637561848959,161.27258534585536L51.12839641384549,161.4950240551239L51.15049166666667,161.73378896096125L51.17372239583333,161.71513763528702L51.19646915147569,161.84290396990673L51.21845271809896,161.88910277971317L51.24088302951389,161.91228227293828L51.33293107096354,161.81126220389137L51.35638517252604,161.8979460684388L51.446906835937504,161.88457089418313L51.46887178819444,161.75176698269928L51.51471897243923,161.62670355079314L51.55946790907118,161.75395407480332L51.6039004014757,161.84290737970258L51.62847136501736,161.91498422905053L51.65132980685764,161.89397933708426L51.67372288953993,161.86259488986013L51.6961904296875,161.90508020831916L51.71834152560764,161.95392436103256L51.764188709852434,161.63816757688662L51.809440234374996,161.59968929580816L51.8548220594618,161.70408775050993L51.92289479709201,161.35276145608458L51.94502727864583,161.5486207193005L51.96637795681424,161.70686874500993L51.990241574435764,161.67337812935685L52.01272772894965,161.77457876551375L52.104087038845485,161.7670738575129L52.14790525716146,161.6975906889375L52.17085677083333,161.83458546851492L52.216927327473954,161.9476609666117L52.28434856228299,161.96892218258603L52.33019574652778,162.00995109636463L52.35253298611111,161.89436369893778L52.37433040907118,161.9546770286049L52.44365030924479,161.42192842663738L52.51148106011285,161.5982953829682L52.534153358289934,161.72052107470057L52.580875417751734,161.7690999973916L52.62612694227431,161.67077337058504L52.671490152994785,161.80818819355085L52.694367209201395,161.88670024629414L52.787141210937506,161.80648520903503L52.83192737630208,161.93303085619303L52.85387371419271,161.9673107820807L52.87585728081598,162.0140195082554L52.89869710828993,161.86371811835042L52.967551649305555,161.9768079537355L53.01261703016493,161.94439379904884L53.10291532118056,161.68878339065145L53.14980490993924,161.67591360353995L53.17260750868056,161.75986859371778L53.19498197699652,161.80203471462363L53.217356445312504,161.93059120734435L53.23978675672743,161.80105133375466L53.33259798719618,161.6105554207545L53.377886740451395,161.67071974247733L53.401061626519095,161.49815134360293L53.469655566406246,161.73576992762736L53.49361225585937,161.61234165307226L53.51583780924479,161.4756975887237L53.537598003472226,161.59921042919453L53.55950711263021,161.6620843929908L53.60503785264757,161.66083181068592L53.62735647786459,161.78669233376428L53.65030799153645,161.78557352729118L53.67221710069444,161.9006850478452L53.71875301649306,161.74360214609067L53.78697466905382,161.88364619056622L53.83284046766493,161.9211593623809L53.85495433485243,161.9427316790675L53.90072706163195,161.9582068820714L53.92386471896702,162.00800298300555L53.94696514756944,161.99593894818508L53.99184438476563,161.88497440627788L54.014218853081594,161.93608796402262L54.05863273111979,161.87100695515838L54.082924479166664,161.9238319537128L54.24172363823785,161.96134100410106L54.26487990993924,161.91335901658763L54.28770112304688,161.87585132975371L54.31238377278646,161.80582143679968L54.33514914279513,161.87520203634216L54.35797035590277,161.905011994785L54.380344824218746,162.00712488883957L54.427848687065975,161.86730569375962L54.45007424045139,161.936707818345L54.47222533637153,161.99925073374052L54.54672003038194,162.05374693879898L54.57013690321181,161.70687470544152L54.595210454644096,161.57749494475888L54.61801305338542,161.70154151735053L54.66760172526042,161.713373665764L54.810336686197914,161.87140104246103L54.83395831705729,161.98440304851212L54.85733796115451,161.71319324794817L54.90571669921875,161.69054149496353L54.99791365559896,161.86550328215574L55.06823873155382,161.8255905953384L55.136385926649304,161.90451568577396L55.22724264865452,161.85582395677244L55.29483141276042,161.99016348436302L55.31720588107639,161.84917896981807L55.33995263671875,161.93682763383066L55.38602319335937,161.9765247738862L55.40823013237848,162.0247547101567L55.43099550238715,161.8215785031037L55.475744439019095,161.9665062840577L55.500147873263884,161.94942770429043L55.5217963812934,162.03737730163994L55.54355657552083,162.09110296348663L55.56550291341146,162.1351908245057L55.61209467230903,162.03291066865967L55.63387348090278,162.03267030311974L55.67798952907986,162.0878209373727L55.72439514431424,162.11122499987295L55.7482959906684,161.45947679220026L55.79391980251736,161.45425937545082L55.84112583550347,161.65940115691106L55.86381674804688,161.8584285407156L55.8856700141059,161.71302675013337L55.90843538411458,161.8249881439371L55.97686179470486,161.91883018861492L55.998621988932285,161.8933442533964L56.02038218315972,161.89992049789157L56.08916226671007,162.01844275599382L56.111927636718754,161.86685821970573L56.294795171440974,161.8201616262884L56.36199303385417,161.84209674745932L56.38527960611979,161.8665171252199L56.430735888671876,161.99827086786883L56.47624801432291,162.00129486667637L56.498641097005205,161.8530250633174L56.568444970703126,161.80121277639876L56.59052160915799,161.86294158665973L56.63538223198785,161.7836982598149L56.65891079101563,161.8351843048591L56.68163893229166,161.6519538092663L56.70436707356772,161.55280472281873L56.77236535373264,161.35118114188046L56.954953672960066,161.65919114814818L56.978091330295136,161.84061488418735L57.00158266059027,161.89316919030836L57.046983100043406,161.61600038579238L57.091322520616316,161.80917353049875L57.11531643880208,161.84185666548288L57.13769090711805,161.9446858078477L57.18316580403646,162.01994838945583L57.23001816406251,161.9856016654038L57.252411246744785,162.06748053993226L57.2748229437934,162.11541938508168L57.34423591579861,162.15593300425684L57.3667220703125,162.11744625582128L57.38993418511285,162.14365592657683L57.50404025065104,162.09438130841926L57.548584429253474,162.10977213932404L57.57067968207465,162.11330214268415L57.61682469618056,161.9483184507203L57.63923639322917,162.01907456112613L57.684097016059035,161.9932110508283L57.82175025499132,161.99081395084502L57.843640749782985,161.9877365155099L57.88948793402777,161.93675395816285L57.93535373263889,162.03927957346892L58.02531696506076,162.04330551104385L58.071517822265626,162.1025124230776L58.117309163411456,161.90051886353902L58.16382646484375,161.80696642328957L58.20941304796007,161.91339784609136L58.25358493923611,161.7705068034864L58.27770915798611,161.88686566809L58.30071651475694,161.94452703167568L58.3234632703993,162.02632434660129L58.34617279730902,162.09672665010896L58.437327349175355,161.9953189876214L58.4830442328559,162.07884798118684L58.50662863498265,162.07523330415873L58.64208537868924,161.7054492379909L58.686964615885415,161.83328692049147L58.73320270182292,161.93507612264187L58.757215234374996,162.0261126992666L58.77895681423612,162.0716372911041L58.91646113823785,162.04735110841685L58.98606025390625,162.09764272064152L59.03261478407118,161.9475194995079L59.10169269748265,162.04825966327923L59.16736418185764,162.09240836461544L59.19094858398438,162.14513280829183L59.23621872287327,162.16063093061422L59.25863041992187,162.1670881081555L59.28119103190104,162.17079295151566L59.30317459852431,162.08509616979592L59.34946852756077,162.12450317770663L59.371805767144096,162.12138463614946L59.41662916124132,162.1550119711841L59.440120491536454,161.99385408536403L59.46249495985243,162.06617648816453L59.528743489583334,162.10490106082486L59.553109695095486,162.04836166101393L59.59737465820313,161.98719456024958L59.77890195855035,162.07425403880458L59.80151841362847,162.1130826276627L59.82290632052951,161.927589746689L59.845485546875,161.97380183722836L59.9130743109809,162.02648433093174L59.93602582465277,162.06376107100513L59.95867950846355,162.1185468230536L60.02773880750868,161.97234258508217L60.049536230468746,162.02900061862582L60.07161286892361,162.08802512241223L60.14063493923611,161.76073591941787L60.412032400173615,161.92900161034785L60.48073802625868,161.98410957099992L60.524984375,162.00942436707558L60.54801034613715,162.06733258525495L60.59393198784723,162.12900012517932L60.61580386827257,162.15745975028142L60.638420323350694,162.06885666803853L60.682629443359374,162.1214954116445L60.75075802408854,162.16546228030379L60.77274159071181,162.03032582466858L60.79489268663194,162.08245814998062L60.81937057834202,162.1175543556626L60.84161474609375,161.8683331640074L60.864249815538194,162.00793022826636L60.88681042751737,161.99249782418653L60.90894290907118,161.96019363048006L60.95655845811632,162.0550533716319L61.00166106770833,162.05311217112842L61.02466842447917,162.08617727922035L61.07101819661458,161.96560150458146L61.11500394422743,162.01642415506942L61.15992041015625,162.02954783452034L61.18436107313368,161.95067254834797L61.20653078342014,162.04934367924363L61.228290977647575,162.04417234816808L61.25163339301215,162.08591042669994L61.274212619357634,161.99498841968295L61.365013498263885,162.0338045391166L61.48023642578125,162.04625420728172L61.50262950846354,162.07656859749613L61.548569764539934,161.88112084960747L61.57077670355903,161.98922405385707L61.59356068793403,162.03730788334263L61.662619986979166,162.09851896414273L61.68510614149305,162.13489941083066L61.70731308051215,162.17565806657026L61.75262044813368,162.04454483425215L61.81924126519097,162.11872453533957L61.88710924479166,161.91767812695116L61.93075993381076,162.02236806775463L61.97616037326389,162.1037185808035L61.99840454101563,162.15352765153466L62.04315347764757,162.17684268992718L62.064615842013886,162.1893758562718L62.13441971571181,162.1780070902206L62.15744568684896,162.12257842723565L62.17989461263021,162.03859653074838L62.22594655490451,162.0768574360949L62.248730539279514,162.07873797481628L62.271216693793406,162.13536201158095L62.31639376085069,162.15699604923526L62.34044352213542,162.17097890594508L62.36261323242188,162.08997616013605L62.385099386935764,162.14374680688428L62.407734456380204,162.16649661569005L62.430220610894104,162.18358805590427L62.47761278754341,162.17724785714574L62.54456866319445,162.18791388311337L62.57016341688368,162.1892730436082L62.61457729492187,162.15641638938968L62.707090695529516,162.0508886817359L62.7289998046875,162.10334957111635L62.77337645399305,162.1429488971539L62.86343275824653,162.12493300660634L62.90965222981771,162.15209721916798L62.95365659179687,161.97238154194397L63.00242623155383,162.07327400686455L63.02645737847223,162.13774485184183L63.04890630425348,162.16535842981233L63.07174613172743,162.18780887931575L63.116439225260415,162.19979268369747L63.184400276692706,162.2049104158537L63.20642107204861,162.0752872606788L63.25241717122396,162.0791179466882L63.27607603081598,162.11696175590194L63.298636642795145,161.97431765112304L63.34329250759549,161.86337040492643L63.434819346788196,161.97962432473338L63.47995918511285,161.81604871951455L63.50343190104167,161.88072895674375L63.54758517795138,161.99920683435926L63.56997826063368,162.0870714445034L63.63883280164931,162.09057180572643L63.66243581814237,162.09457139047348L63.778943136935766,162.12471399051893L63.80141067708333,162.14967209664857L63.82354315863715,162.17938357774696L63.84710894639757,162.05698771321158L63.8907968641493,162.119127685713L63.93636483289931,162.1415852941832L63.95970724826389,162.16985969954794L63.98210033094618,162.16895099118818L64.00458648546007,162.17408147888912L64.02593716362847,162.18766579228122L64.04784627278646,162.20037470849186L64.11740815972222,162.1624640034397L64.18639300130208,162.19084383717546L64.2315886827257,162.15237974275067L64.27602117513021,162.12964272629753L64.29865624457466,162.08070920195135L64.3219614312066,162.11557902321695L64.34459650065105,162.133742840726L64.36691512586806,162.16808081202507L64.45658052842882,162.12050563167773L64.54624593098958,162.15480038403157L64.59069703776042,162.17613405872703L64.61238277452257,162.18904536674768L64.68108840060763,162.19836576016618L64.70245769314236,162.2125508754787L64.72459017469617,162.21530936179923L64.79409621853299,162.2208957895218L64.8611265516493,162.13332402850318L64.8855299858941,162.16282028609777L64.90876071506077,162.04901597112166L64.95371440972222,162.06893475408887L64.9769637532552,162.1016753782103L65.00004556749131,162.12175043879148L65.06761571723091,162.05973696762925L65.11461699218749,162.10372221580425L65.13678670247396,162.1512358638164L65.15841659613716,162.18376379779085L65.18006510416667,162.18316127319014L65.20238372938368,162.18520519094827L65.22574475911458,162.1990718778696L65.27036339518229,162.20276287549686L65.29324045138888,162.2101344498948L65.3602707845052,162.17221079397405L65.47396733398438,162.19604494006072L65.56437731119792,162.17150405655016L65.74501112196181,162.19687676835946L65.76781372070312,162.20775004385334L65.789890359158,162.2114737423965L65.81380981987847,162.18884464676572L65.90431286892361,162.18845648568356L65.97147350260417,162.20508547097862L65.99395965711805,162.1713318287611L66.03975099826388,162.17620016649033L66.06272112630208,162.19227195543945L66.0849466796875,162.19714481501265L66.10722807617188,162.2105410375215L66.1535778483073,162.17509462858374L66.19838262803819,162.19013371590606L66.22053372395833,162.20929968294166L66.24231253255209,162.19646325633593L66.28927657877604,162.2047999513096L66.31083201497395,162.21600213550602L66.33309479709202,162.21639512798137L66.37987269965278,162.192430599643L66.42415627712673,162.19054731579493L66.56285192057292,162.20998885577902L66.60853157552083,162.20057258526964L66.69899739583335,162.2088467066204L66.72284239908855,162.22228180103838L66.74467705078125,162.22281945858816L66.83406323784722,162.08104153678966L66.94688491210937,162.09835312566196L66.97059961480035,162.13091455988038L67.05992995876737,162.1709948848855L67.15132649739583,162.19795368228975L67.22006935221354,162.19523301168448L67.28737890082465,162.20189853656237L67.31025595703126,162.19586364542772L67.3334680718316,162.20237531327933L67.40018196072049,162.2172706338141L67.42387804904514,162.21924044359304L67.49120621202256,162.22922867688902L67.51315254991319,162.23331866800174L67.53640189344617,162.23698173014844L67.55898111979167,162.15600160766445L67.58064824218751,162.16830183467835L67.73950324435764,162.19791252603366L67.76399975043402,162.2047435057134L67.78566687282986,162.19690178745412L67.80811579861113,162.2142079228279L67.85295780707465,162.22297474705212L67.87646775173612,162.23025080631862L67.89919589301216,162.23317242176643L67.92211017795138,162.23441016523333L67.9441309733073,162.23050371242368L67.96570502387152,162.233944230359L67.98843316514758,162.2282191493287L68.01151497938369,162.23048824731674L68.0334613172743,162.21605619076934L68.09950508897569,162.22487721492138L68.14481245659722,162.23204860286054L68.25765274522568,162.23180705115576L68.28010167100695,162.23550422646923L68.3023458387587,162.23826422094643L68.34832332356771,162.23487263432776L68.50594977756076,162.22769102131085L68.55110823025174,162.2201500308697L68.66460002170139,162.22958866412543L68.68781213650175,162.225928894572L68.77879915907118,162.22952179168814L68.82503724500867,162.23588610360736L68.84783984375001,162.20772801757434L68.89214203559028,162.2199346112505L68.91606149631076,162.2138460130134L68.96068013237847,162.22581294719808L68.98221695421007,162.23319198502722L69.11972127821181,162.23674685272505L69.14127671440971,162.23598047049012L69.16493557400175,162.22332794889803L69.27788754882813,162.23088065056623L69.30070876193575,162.22896492836048L69.5059879937066,162.23547929580377L69.52851137695313,162.23802623707127L69.59449930555556,162.22996364656407L69.61761834852432,162.23566939570028L69.6397322157118,162.22860042361904L69.66253481445312,162.23554731973107L69.68427639431424,162.23932094169055L69.70670670572918,162.24171457672225L69.7298071343316,162.24060862589525L69.77530064561633,162.24123683984237L69.82051494140624,162.24242433023971L69.8441179578993,162.24120469842293L69.86658549804689,162.2429762060326L69.91034787326389,162.2408414765278L69.93337384440105,162.24186151940506L69.9789045844184,162.24395358700536L70.02404442274306,162.24017592579514L70.04621413302952,162.23655975088676L70.09366215277778,162.24007381841864L70.11620415039062,162.2420446491043L70.20793574761284,162.24089233244766L70.2317249077691,162.2401559546111L70.2780560655382,162.24052614906608L70.3000024034288,162.2351094532014L70.32293530273436,162.23740019174022L70.3459426595052,162.22916482336072L70.39009593641492,162.23295376023728L70.41276823459201,162.23691604156065L70.43635263671875,162.23810248431178L70.45922969292535,162.2400411527774L70.55003057183158,162.2417204004448L70.59576606987847,162.2427088151102L70.61726566297743,162.24167621264866L70.63887694227431,162.2411657376106L70.68643664822048,162.24335401145802L70.73241413302952,162.24190569700295L70.77811240234374,162.24118572953887L70.8220981499566,162.24285927457692L70.84393280164932,162.2436825530312L70.86695877278646,162.24502477508756L70.91183800998265,162.2423209126853L70.93376573350695,162.2420207011274L70.95634495985243,162.2432980509919L70.9792964735243,162.24463274386665L71.00373713650174,162.24265989659332L71.0265769639757,162.23806472120955L71.07112114257812,162.24109189001638L71.09347699652778,162.23911654754093L71.16214539388021,162.24002872088252L71.18422203233506,162.23980339159598L71.23049734700521,162.2410218409364L71.25246229926216,162.2418384448794L71.31908311631945,162.24428413503617L71.34367269422742,162.2411650572446L71.36550734592014,162.24177705255153L71.38763982747396,162.2433046522542L71.40949309353299,162.2440656068692L71.45615930989582,162.2405201929881L71.54535935329861,162.24208503814663L71.59100177951389,162.24203076214079L71.6136926920573,162.24436575671513L71.63584378797742,162.24235101364025L71.70363731011285,162.23537072186994L71.72601177842883,162.23777270016402L71.76977415364583,162.24037922779135L71.79229753689236,162.24365718216728L71.86239924045138,162.2401285097731L71.88495985243055,162.24013400418627L71.90683173285589,162.24280917153004L71.93054643554687,162.24448320864244L71.9755745876736,162.2444005667354L72.02067719726563,162.24429612199125L72.0669897406684,162.24048166298198L72.08927113715278,162.24019020515604L72.13348025716145,162.24222923946743L72.15689712999132,162.2420605329923L72.1804256890191,162.24309222655575L72.20369364691841,162.2446081022168L72.24834951171876,162.2433024587726L72.3170365234375,162.24139250797978L72.33955990668404,162.2433275817245L72.3627906358507,162.24345359661712L72.38570492078992,162.2449779578494L72.40841444769964,162.2424359928738L72.47524002278645,162.24114890242282L72.4986568956163,162.24111941826158L72.5655383138021,162.24303936708228L72.5872985080295,162.2441215774872L72.6097846625434,162.24478489444348L72.65559461805556,162.24214402621175L72.67856474609376,162.2436548292202L72.70160933159723,162.24502214686112L72.79265219726562,162.24508399789508L72.8610786078559,162.24272050927726L72.88322970377605,162.242721792241L72.90497128363715,162.2441804653097L72.9732860080295,162.24563039970042L72.99610722113715,162.2418066639267L73.01892843424478,162.24260349459135L73.0419171766493,162.24487695484274L73.06434748806423,162.24466416655557L73.10985961371527,162.24337684520506L73.13225269639756,162.24403337553505L73.15488776584202,162.2447772126737L73.22307218967013,162.24543414707585L73.24535358615451,162.24634267699506L73.28969300672742,162.24574511273906L73.31337048068576,162.24189959118397L73.33496314561631,162.24353841065587L73.4021423936632,162.24274743961846L73.44852939453125,162.2421944901558L73.4700289876302,162.23422477276048L73.49216146918403,162.23251753283293L73.51492683919273,162.23665435920753L73.53890214301214,162.23953408732373L73.603866281467,162.24004228823313L73.67085938585069,162.24226502816944L73.69360614149305,162.2437159849988L73.76028280164931,162.2447443958156L73.78329015842014,162.2419681992514L73.87414688042534,162.24409053552787L73.94313172200519,162.24473557349427L73.9647616156684,162.24518502442882L74.01144644639757,162.24620891349988L74.05599062499999,162.24551484372452L74.10083263346355,162.24519294016287L74.12469625108507,162.2461022450736L74.1474243923611,162.24570100968205L74.16992916124133,162.24646273411656L74.26158630099826,162.2462890778428L74.28342095269097,162.24409241794913L74.30616770833333,162.2447075555918L74.35188459201389,162.24435476613533L74.37377508680555,162.23898721645907L74.39627985568576,162.24190899766614L74.48680151909723,162.24230750940126L74.53147599826389,162.24105206667815L74.577341796875,162.2432773978788L74.62248163519966,162.24533906646076L74.64478164605035,162.24541763442028L74.69174569227431,162.24370153062904L74.78161585286458,162.24515883548852L74.82792839626737,162.2440895409205L74.85052623697915,162.24339391248756L74.91796608615451,162.24408875249318L74.98561069335938,162.24528701579305L75.07507133789063,162.24442135645748L75.11989473198786,162.24155089426375L75.14316268988715,162.24347442380093L259.84270473090277,162.2419180240092L260.0471835449219,162.24389220612431L260.08796762152775,162.24288396695937L260.1255314127604,162.2446230536997L260.1517776692708,162.24381536407287L260.23060951063366,162.24478874523876L260.2562787217882,162.24548673121973L260.2839582845052,162.2459011455322L260.3363949544271,162.2460560945249L260.36023995768227,162.24636914667167L260.38427110460066,162.24318145382136L260.43361778971354,162.2434121792496L260.45714634874133,162.2444047249973L260.5268385362413,162.24094922296024L260.552284375,162.24309418309042L260.6045721299913,162.24363322126118L260.659037765842,162.24382169995363L260.68606582573784,162.2447358672284L260.70989221462673,162.2454163738007L260.80752456597224,162.24671360221316L260.8777007269965,162.247219602219L260.9021786187066,162.24717713983952L260.9256327202691,162.24505617156498L260.94931019422745,162.2453426993652L261.02030538736983,162.246268854088L261.0965126030816,162.2461602635293L261.122758859592,162.24606225145155L261.1473484375,162.24674240336776L261.1702254937066,162.24558526516427L261.194721999783,162.24472395396216L261.2417418891059,162.2447196097961L261.31433791775174,162.24494687903186L261.38522142469617,162.24024069134194L261.48129016927084,162.24210758398735L261.5041299967448,162.24276050719135L261.52711873914933,162.24343996750633L261.55178277452256,162.24315113296032L261.5756650065104,162.2448802465348L261.6212143608941,162.24413509975076L261.6445567762587,162.24574120917725L261.7380008951823,162.24553013001974L261.8086610297309,162.2450533090207L261.83166838650175,162.24632995991263L261.9029614095052,162.24607703503327L261.9259315375434,162.24712288115393L261.94905058051216,162.24629638384116L261.9728211263021,162.24579520293003L261.99605185546875,162.24652489876595L262.04381631944443,162.24655043281317L262.0666561469184,162.24635155486646L262.0900916341146,162.2453797943812L262.11676602105035,162.24564833427908L262.1424538465712,162.24550973967035" style="fill: none;" fill="none"></path></g></g></g></g><g opacity="0.2"><g><g><g><path stroke="rgb(51, 187, 238)" stroke-width="2px" d="M33.8702169813368,-6.940106987953159L33.96688138563368,2.074851751327534L34.190030409071184,0.8274523019790715L34.213372824435766,1.2252936363220281L34.263091796874996,3.1570026874542303L34.340173887803815,2.036748588085181L34.36344184570313,-2.781956434249878L34.410089447699654,0.20690000057221114L34.45776083984375,6.921109914779683L34.48194090169271,1.7983356714248853L34.52737856987847,2.1260721087455945L34.57242533637153,1.9416049718857007L34.59506040581597,1.8556750416755872L34.664882893880204,2.503393650054951L34.68967722981771,-1.645648717880236L34.71584902886285,6.524218082427998L34.74228142903646,1.2463585138321118L34.76822985568576,3.6554560661316113L34.84741537000868,-1.0809939503669477L34.872098019748265,1.7117903232574594L34.92855539279514,0.7655412554741102L34.97578004014757,1.2492070198059277L35.00092804904514,5.516128301620497L35.02536871202257,2.1422839760780468L35.051242681206595,4.801786303520216L35.12063703884549,5.999565482139607L35.14364439561632,2.144798398017903L35.1696672797309,3.7388188242912426L35.19323306749132,7.599687337875386L35.23876380750868,4.986939191818251L35.30657594401041,2.68510019779206L35.44931090494792,6.137278437614447L35.4767670952691,3.9392516613006787L35.50872796223958,4.708066940307623L35.54325761176215,5.139896929264088L35.56749351671007,8.78146564960481L35.591152376302084,5.064991772174855L35.71086136610243,8.4708378314972L35.9090857530382,19.112223148345954L35.99497243923611,17.239224970340736L36.02052996419271,14.74697566032411L36.187780045572914,32.86153069138529L36.26365220269098,43.57775962352756L36.31229154188368,49.999681174755125L36.33755123697916,59.577492386102705L36.36024214952257,54.76153036952021L36.45417024197049,76.87953746318819L36.476823925781254,80.25819963216784L36.50053862847222,81.30555307865146L36.568369379340275,101.27591854333878L36.592326068793405,104.29768665134908L36.65991483289931,114.7742278724909L36.75129275716146,124.9858976006508L36.79734469943577,131.73346316814423L36.846561083984376,132.56645994633436L36.86984765625,135.16200935840607L36.89289224175348,136.1820382475853L36.91792856445312,136.55387817323208L36.966121158854165,139.47940370440483L37.013420263671875,141.8025361597538L37.065484646267365,143.03610189259052L37.13478593207466,145.89696457982063L37.158146961805556,145.98379236087203L37.18253178168403,148.0363574102521L37.23126419270834,148.9012218490243L37.25494166666667,150.6971806883812L37.282248942057294,150.36776723712683L37.35419346788194,151.2518393099308L37.40058046874999,151.63948448747396L37.42453715820312,148.59873513132334L37.46891380750868,152.50384780019522L37.49143719075521,151.50523106008768L37.56267437065972,152.77507458254695L37.67558911675347,154.936497727409L37.698168343098956,154.06008705869317L37.72106401367187,154.32874447107315L37.76711595594618,154.52822670713067L37.7921150499132,155.97989546507597L37.8389301812066,154.73744353652L37.88379080403646,154.93716369755566L37.90826869574652,156.71926958858967L37.93077346462674,155.72800819203258L37.95385527886285,154.91076171770692L37.99884620225695,155.55800008028746L38.024012825520835,157.37847563251853L38.18526908094618,156.4310056194663L38.27774525282118,157.9577575661242L38.36936516384549,157.14833129569888L38.392521435546875,157.96523434482515L38.414858675130205,157.82830000296235L38.50884261067708,158.86388990003616L38.531812738715274,157.05949571356177L38.57743655056424,156.90675996616483L38.648766802300344,158.19058007001877L38.671476329210066,156.7203822862357L38.746659754774306,157.0862092487514L38.770039398871525,155.6436794474721L38.81947915581597,158.30360212735832L38.844012890624995,158.42818250320852L38.86715054796007,158.56687408313155L38.91212285698784,158.01193879824132L38.93464624023438,158.10732171311975L38.95633197699652,158.13884897064418L38.97930210503472,158.81453777570277L39.00189994574652,157.91465083509684L39.02382766927083,157.65491066407412L39.092142393663195,158.64590995851904L39.15777664930555,158.35246329102665L39.24909873046875,158.52804807852954L39.271882714843755,158.1265057194978L39.318288330078126,158.93273181654513L39.36298142361111,159.54196647182107L39.38476023220486,159.01027310546488L39.495720469835064,159.11463507823646L39.564500553385415,156.93618903309107L39.58618629014757,160.02012548176572L39.60869105902778,159.49755197763443L39.63099106987847,159.0546477623284L39.67702439778646,158.28230866603553L39.76860708007813,159.43767483253032L39.81300234375,158.9516504239291L39.85877507052952,160.44437277968973L39.90430581054688,157.94647151511163L40.019342594401046,159.53614527732134L40.06412875976562,159.9954421389848L40.15465042317708,157.83272222056985L40.26713703884548,158.30396698229015L40.31231410590277,160.01139437686652L40.33491194661459,160.33973606675863L40.41002091471355,159.17009028047323L40.45953512912327,159.39117203839123L40.4858930718316,160.1917434334755L40.50984976128472,159.28250598628074L40.556683506944445,159.14063346479088L40.582110731336805,159.07514997199178L40.608245301649305,159.4192084474489L40.718088677300344,159.20201728492975L40.744614149305555,159.13309541903436L40.79239722764757,159.7626559007913L40.86194050021702,159.3523224061355L40.95251800672743,159.69232626631856L40.97736818576389,159.08412738144398L41.000468614366326,159.31482669338584L41.02498373480903,159.6747972946614L41.07245036892361,157.85512508265674L41.14149105360243,160.3338504456915L41.16330709092882,160.0313016367145L41.185327886284725,160.91998137673363L41.25468501519097,160.8706946405582L41.27724562717014,158.7490894496441L41.321603662109375,159.61978854518384L41.457656065538195,159.46765145659447L41.5024608452691,159.21469159796834L41.57114785698785,159.06878863833845L41.59328033854166,160.50518816243857L41.63801066080729,159.33694437518716L41.66016175672743,160.3665545526892L41.77348601888021,159.97634577471763L41.79623277452257,159.98900827392936L41.84100032552083,161.0284889037721L41.88511637369792,159.26407284475863L41.908942762586804,159.07375758886337L41.9312427734375,160.02496599126607L41.99885015190973,159.9288390800357L42.02275099826389,160.13519668858498L42.04484625108507,160.55803223419935L42.09026530490451,160.11945682484657L42.11241640082465,160.72201474476606L42.15768653971354,159.2680752594024L42.18080558268229,160.98253146884963L42.22626186523437,159.95392862614244L42.27181121961806,160.95432183612138L42.31538745117188,159.97944113472477L42.33711041666667,160.82669555349275L42.36117879231771,160.44126739166677L42.405927728949656,159.5642116330564L42.427799609375,160.19468452688307L42.494774099392366,161.1317513664253L42.51716718207465,160.6511892043054L42.53920659179687,160.5446499157697L42.56167413194444,159.1906150188297L42.608321733940976,159.94964886130765L42.63032391493055,160.50901886448264L42.65260531141493,159.6244368739426L42.67490532226562,160.62656863965094L42.87679673936632,160.42578193731606L42.89837078993055,160.41901412559673L42.94373400065104,160.2588527011685L43.01024313151042,160.5826467545703L43.1688561469184,160.77179505163804L43.19076525607639,160.71468852367252L43.28110077582465,160.07579017337412L43.3034566297743,160.5839354232885L43.32493760850695,160.02269883546978L43.36987268880208,160.4920564070344L43.415328971354164,161.15420079696923L43.50449178602431,160.08217513468117L43.70606675889757,161.65313112456352L43.727938639322915,160.27545882062986L43.752286230468755,160.97717527206987L43.77467931315105,160.43934833165258L43.820805712890625,160.10525372019038L43.84254729275174,160.77745840791613L43.91030358615451,161.4181192163378L43.97891614040799,160.91856371751055L44.13689626736112,159.91427098307759L44.15828417426216,160.80099017731845L44.180546956380205,160.54407694516703L44.20422443033854,160.23012326005846L44.2486010796441,160.64974132366478L44.271254763454856,160.24275636207312L44.293573388671874,160.44157674908638L44.33958810221354,160.56584474537522L44.36144136827257,160.26468007732183L44.38357384982639,159.62756891176105L44.42994223632813,160.3192890798673L44.47513791775174,160.28095046430826L44.496953955078126,159.68923076894134L44.58784790581598,159.8513576844707L44.74634923502604,160.40708490787074L44.814999018012145,159.70954780373722L44.83692674153646,161.35419130232185L44.88091248914931,159.18386382889003L44.92642461480035,160.84500382561237L44.99403199327257,160.3350745504722L45.24320390082465,161.52030991762877L45.309340744357634,160.95383884292096L45.331007866753474,160.20846411958337L45.35500178493923,160.55404163338244L45.39859663085938,161.2959064138122L45.44273129340278,161.41945994831622L45.46659491102431,161.06446736399084L45.51032005750868,160.29609057027847L45.623048659939236,161.0992451410275L45.644939154730906,160.0317894378677L45.78117770182292,161.162159538595L45.82776946072049,160.4802019186318L45.85051621636285,160.63241730816662L45.87264869791667,160.89860508125275L45.894762565104166,160.10136120161042L45.917714078776044,161.60077657108195L45.93993963216146,160.15646968176588L45.96173705512153,161.38694259594195L45.98448381076389,161.5481433623936L46.006560449218746,160.6766570676118L46.02859985894097,160.79760812595487L46.07455872938368,160.6154614444822L46.14030467122396,161.46633158111945L46.16414967447917,161.38862517336383L46.186635828993055,160.7071213554591L46.22983977322049,160.8315477394499L46.3221298014323,161.2851530839689L46.36600386284722,158.89386267773807L46.411981347656244,161.19222868140787L46.43400214301215,161.0785052124411L46.501441992187495,160.81140818679705L46.52439350585937,160.63546197861433L46.54715887586805,161.36071500740945L46.5920008843316,160.2322516720742L46.63721518012153,160.91972202202305L46.68185243055556,161.07478701649234L46.727252870008684,161.25213852059096L46.74944119466146,160.76291778497398L46.81436810438368,161.34515839535743L46.860103602430556,161.34680463839322L46.88188241102431,161.3648024541326L46.903568147786466,161.57851341436617L46.925626171875,160.78544441750273L46.95043912217882,160.82107519404963L46.97234823133681,161.6206014775671L47.016427050781246,160.2397674638778L47.03837338867188,161.29477077536285L47.15339155815972,161.12994522461668L47.17593355577257,161.46282706432976L47.221054779730906,161.1577345735859L47.24357816297743,161.50271432148293L47.265803716362846,161.46956122037955L47.33423012695312,161.30710798222572L47.37814141710069,161.02848492003977L47.422853124999996,161.88881339877844L47.46559171006945,160.46666739415377L47.51000558810764,161.39900169707835L47.55473591037326,161.78127172077075L47.57623550347222,161.01258694333956L47.59946623263889,161.29466623673216L47.66722252604167,159.95752154057845L47.75753943142361,161.07779308594763L47.77909486762153,161.23987879045308L47.82287585720486,161.29981067753397L47.84510141059028,161.66990236286074L47.88957113172743,161.21974047413096L47.977914914279516,160.8815564927645L48.000568598090275,161.14156350516714L48.04410760091146,160.7240222711116L48.08926605360244,161.00188279198483L48.24478908420139,161.5776999774389L48.2663445203993,161.8128603140358L48.309771837022566,161.23542277980596L48.332872265625,161.70299917657394L48.35470691731771,161.30895560979843L48.376820784505206,161.09830305702053L48.39953031141493,161.55766977136955L48.42186755099826,161.85588184127118L48.46862683919271,160.61184517713264L48.490889621310764,161.55915048345923L48.58040610894097,160.71732465550303L48.60220353190105,161.64612106070854L48.646263736979165,161.66510327043943L48.69183170572917,161.64258920727298L48.757317046440974,160.99820635654032L48.80301531575521,161.7098836498335L48.82574345703125,161.93200917996L48.84768979492188,161.63069261494093L48.914533984375005,161.70963432313874L48.93635002170139,161.60887137777172L48.95840804578993,161.35639025387354L48.98102450086805,161.808489266783L49.004366916232634,161.4425760358572L49.048557421875,161.5270966864191L49.070969118923614,161.38195695495233L49.09261762695313,161.19909505615942L49.13833451063368,161.7675419934094L49.16083927951389,160.9320057919249L49.182115500217016,160.31429608957842L49.203838465711804,161.742807892384L49.227385639105904,161.45422927709296L49.24923890516493,161.80694941687398L49.2923870062934,161.70937586133368L49.31474286024305,161.7151446834905L49.38322511393229,162.0088765140972L49.474305208333334,161.54873494664207L49.54036759440105,160.88938260357827L49.563039892578125,162.03706229594536L49.58710826822917,159.6342937266454L49.63157798936632,161.7581607159227L49.65287282443576,162.0374675548519L49.67422350260417,161.62487739603966L49.69739838867187,161.74460713134613L49.74073263346354,161.87498881737702L49.76353523220486,161.9383954119403L49.78592831488716,161.736033761641L49.87427209743924,162.04108555649873L49.96373274197049,161.90874772053212L49.986405040147574,161.81197771127336L50.031265662977425,161.6176432815846L50.05350983072917,161.80129457754083L50.07486050889757,161.72180957067758L50.09676961805556,161.91218794812448L50.11959083116319,161.9991731037735L50.14380812174479,161.79300645680632L50.20974020724826,161.49218147061765L50.23107227105035,161.30078724143095L50.25435884331597,161.71970444289036L50.365039865451386,161.39499680977315L50.410607834201386,161.4229970218148L50.43296368815104,162.09161861706525L50.454928640407985,161.60033272835426L50.47938791775173,161.61461145523936L50.52309444986979,161.75035249756183L50.59006893988716,161.20144449663348L50.613690570746535,161.80450570618268L50.68090704752605,161.7272097945679L50.702518326822926,161.86927844618913L50.72636333007813,161.79105621378403L50.77040492078993,161.8790455275448L50.814036995442706,161.63012053724378L50.88225864800347,160.49777828296646L50.90463311631945,161.84475376585033L50.95137379014757,161.63090677489527L51.016728830295136,161.99445878586266L51.03847041015626,161.19512306898832L51.0620734266493,160.36173835769296L51.10637561848959,161.60371189494617L51.12839641384549,161.82868211902678L51.15049166666667,162.0919363197172L51.17372239583333,161.68716064677574L51.19646915147569,162.03455347183626L51.21845271809896,161.95840099442285L51.24088302951389,161.94705151277594L51.33293107096354,161.65973210032098L51.35638517252604,162.02797186526004L51.446906835937504,161.86450813279953L51.46887178819444,161.5525611154735L51.51471897243923,161.43910840293393L51.55946790907118,161.94482986081857L51.6039004014757,161.97633733705152L51.62847136501736,162.02309950307244L51.65132980685764,161.86247199913487L51.67372288953993,161.81551821902394L51.6961904296875,161.96880818600766L51.71834152560764,162.0271905901027L51.764188709852434,161.16453240066767L51.809440234374996,161.5419718741905L51.8548220594618,161.8606854325626L51.92289479709201,160.82577201444656L51.94502727864583,161.84240961412434L51.96637795681424,161.94424078357406L51.990241574435764,161.62314220587723L52.01272772894965,161.9263797197491L52.104087038845485,161.75581649551168L52.14790525716146,161.5933659360744L52.17085677083333,162.04007763788104L52.216927327473954,162.1172742137569L52.28434856228299,162.00081400654744L52.33019574652778,162.0714944670326L52.35253298611111,161.72098260279745L52.37433040907118,162.04514702310553L52.44365030924479,160.6228055236861L52.51148106011285,161.8628458174644L52.534153358289934,161.90385961229913L52.580875417751734,161.84196838142816L52.62612694227431,161.52328343037516L52.671490152994785,162.0143104279996L52.694367209201395,162.0044683254091L52.787141210937506,161.6861626531463L52.83192737630208,162.12284932693L52.85387371419271,162.0187306709122L52.87585728081598,162.0840825975174L52.89869710828993,161.63826603349298L52.967551649305555,162.1464427068131L53.01261703016493,161.89577256701887L53.10291532118056,161.30536777805537L53.14980490993924,161.6566089228727L53.17260750868056,161.8858010789845L53.19498197699652,161.86528389598243L53.217356445312504,162.1234259464254L53.23978675672743,161.60674152337015L53.33259798719618,161.32481155125424L53.377886740451395,161.76096622506157L53.401061626519095,161.2392987452913L53.469655566406246,162.09219780366402L53.49361225585937,161.42719924123958L53.51583780924479,161.27073149220087L53.537598003472226,161.78447968990076L53.55950711263021,161.75639533868525L53.60503785264757,161.6589529372286L53.62735647786459,161.97548311838182L53.65030799153645,161.78389531758148L53.67221710069444,162.07335232867626L53.71875301649306,161.50797779345885L53.78697466905382,162.09371225727955L53.83284046766493,161.9774291201029L53.85495433485243,161.97509015409742L53.90072706163195,161.98141968657728L53.92386471896702,162.08269713440677L53.94696514756944,161.97784289595438L53.99184438476563,161.7185275934171L54.014218853081594,162.0127583006397L54.05863273111979,161.77338544186205L54.082924479166664,162.00306945154443L54.24172363823785,162.0176045796834L54.26487990993924,161.84138603531756L54.28770112304688,161.81958979950286L54.31238377278646,161.70077659736853L54.33514914279513,161.9792729356559L54.35797035590277,161.94972693244927L54.380344824218746,162.16029422992142L54.427848687065975,161.6575769011397L54.45007424045139,162.04081100522308L54.47222533637153,162.09306510683382L54.54672003038194,162.13549124638666L54.57013690321181,161.18656635540538L54.595210454644096,161.38342530373484L54.61801305338542,161.88761137623806L54.66760172526042,161.73112188838422L54.810336686197914,162.10844210750656L54.83395831705729,162.15390605758876L54.85733796115451,161.3063785471022L54.90571669921875,161.65656386548653L54.99791365559896,162.12794596294407L55.06823873155382,161.76572156511247L55.136385926649304,162.0229033214273L55.22724264865452,161.78278636327013L55.29483141276042,162.19167277574888L55.31720588107639,161.63770219800062L55.33995263671875,162.06830062984955L55.38602319335937,162.03607048396952L55.40823013237848,162.09709961456247L55.43099550238715,161.51681419252418L55.475744439019095,162.18389795548865L55.500147873263884,161.92380983463954L55.5217963812934,162.1693016976642L55.54355657552083,162.17169145625667L55.56550291341146,162.2013226160343L55.61209467230903,161.8794904348906L55.63387348090278,162.03230975480983L55.67798952907986,162.17054688875214L55.72439514431424,162.1463310936233L55.7482959906684,160.48185448069125L55.79391980251736,161.44643325032666L55.84112583550347,161.96711382910144L55.86381674804688,162.15696961642243L55.8856700141059,161.49492406425998L55.90843538411458,161.9929302346427L55.97686179470486,162.05959325563163L55.998621988932285,161.85511535056867L56.02038218315972,161.90978486463428L56.08916226671007,162.19622614314721L56.111927636718754,161.63948141527362L56.294795171440974,161.75011673616245L56.36199303385417,161.87499942921568L56.38527960611979,161.9031476918608L56.430735888671876,162.19590148184216L56.47624801432291,162.00583086488768L56.498641097005205,161.63062035827897L56.568444970703126,161.72349434602074L56.59052160915799,161.95553480205126L56.63538223198785,161.66483326954767L56.65891079101563,161.91241337242536L56.68163893229166,161.3771080658771L56.70436707356772,161.4040810931474L56.77236535373264,161.04874577047303L56.954953672960066,162.12120615754975L56.978091330295136,162.1127504882461L57.00158266059027,161.97200064948993L57.046983100043406,161.20024717901833L57.091322520616316,162.0989332475583L57.11531643880208,161.89088136795908L57.13769090711805,162.0989295213949L57.18316580403646,162.13284226186806L57.23001816406251,161.93408157932572L57.252411246744785,162.19029885172495L57.2748229437934,162.18732765280583L57.34423591579861,162.21670343301957L57.3667220703125,162.05971613316797L57.38993418511285,162.18297043271014L57.50404025065104,162.02046938118292L57.548584429253474,162.13285838568117L57.57067968207465,162.11859714772436L57.61682469618056,161.70084291277453L57.63923639322917,162.12520872673485L57.684097016059035,161.95441578538157L57.82175025499132,161.98721830087015L57.843640749782985,161.98312036250718L57.88948793402777,161.86028012214229L57.93535373263889,162.193067996428L58.02531696506076,162.04934441740625L58.071517822265626,162.1913227911282L58.117309163411456,161.59752852423117L58.16382646484375,161.66663776291534L58.20941304796007,162.07304498029407L58.25358493923611,161.55617023957893L58.27770915798611,162.0614039649954L58.30071651475694,162.03101907705422L58.3234632703993,162.14902031898964L58.34617279730902,162.2023301053705L58.437327349175355,161.84320749389008L58.4830442328559,162.20414147153497L58.50662863498265,162.06981128861662L58.64208537868924,161.15077313873917L58.686964615885415,162.02504344424233L58.73320270182292,162.08775992586743L58.757215234374996,162.16266756420373L58.77895681423612,162.13992417886038L58.91646113823785,162.01092183438595L58.98606025390625,162.17308013897855L59.03261478407118,161.72233466780744L59.10169269748265,162.1993699089362L59.16736418185764,162.15863141661976L59.19094858398438,162.22421947380644L59.23621872287327,162.18387811409775L59.25863041992187,162.17677387446747L59.28119103190104,162.17635021655587L59.30317459852431,161.95655099721625L59.34946852756077,162.18361368957267L59.371805767144096,162.11670682381373L59.41662916124132,162.2054529737361L59.440120491536454,161.75211725663394L59.46249495985243,162.17466009236523L59.528743489583334,162.16298791981535L59.553109695095486,161.96355256129755L59.59737465820313,161.89544390910305L59.77890195855035,162.2048432566371L59.80151841362847,162.17132551094983L59.82290632052951,161.64935042522848L59.845485546875,162.0431199730374L59.9130743109809,162.10550807148684L59.93602582465277,162.1196761811152L59.95867950846355,162.20072545112635L60.02773880750868,161.75303622812498L60.049536230468746,162.11398766894126L60.07161286892361,162.1765618780919L60.14063493923611,161.26980211492628L60.412032400173615,162.18140014674282L60.48073802625868,162.066771511978L60.524984375,162.0473965611891L60.54801034613715,162.15419491252396L60.59393198784723,162.22150143506587L60.61580386827257,162.20014918793458L60.638420323350694,161.9359520446742L60.682629443359374,162.20045352705347L60.75075802408854,162.2314125832927L60.77274159071181,161.8276211412158L60.79489268663194,162.1606566379487L60.81937057834202,162.1701986641856L60.84161474609375,161.49450137652457L60.864249815538194,162.21732582465484L60.88681042751737,161.96934921806678L60.90894290907118,161.91173733992036L60.95655845811632,162.1973429833597L61.00166106770833,162.0502003703732L61.02466842447917,162.13577494135825L61.07101819661458,161.78473784262314L61.11500394422743,162.09265813080128L61.15992041015625,162.04923335369676L61.18436107313368,161.8323596190894L61.20653078342014,162.19735037558712L61.228290977647575,162.03641535155475L61.25163339301215,162.14851754449774L61.274212619357634,161.85860540915746L61.365013498263885,162.0920287182671L61.48023642578125,162.06492870952934L61.50262950846354,162.12204018281773L61.548569764539934,161.58794922777452L61.57077670355903,162.1513788602315L61.59356068793403,162.10943362757098L61.662619986979166,162.19033558534284L61.68510614149305,162.18947008086252L61.70731308051215,162.2367960501797L61.75262044813368,161.84787498577498L61.81924126519097,162.2299940869707L61.88710924479166,161.61610851436853L61.93075993381076,162.17940297895984L61.97616037326389,162.22574435037677L61.99840454101563,162.22824125763145L62.04315347764757,162.21181524751591L62.064615842013886,162.2081756057887L62.13441971571181,162.16095394114382L62.15744568684896,162.03943543275818L62.17989461263021,161.91262368601747L62.22594655490451,162.13424879411468L62.248730539279514,162.08155878289836L62.271216693793406,162.220298066728L62.31639376085069,162.18944710571668L62.34044352213542,162.19195319100982L62.36261323242188,161.9684720414225L62.385099386935764,162.22440277700662L62.407734456380204,162.2006213288987L62.430220610894104,162.2092252162256L62.47761278754341,162.16773755900795L62.54456866319445,162.20391292206477L62.57016341688368,162.19131178435055L62.61457729492187,162.10713140806183L62.707090695529516,161.89259712025523L62.7289998046875,162.18204090518702L62.77337645399305,162.2023478862102L62.86343275824653,162.097909170785L62.90965222981771,162.1928435380105L62.95365659179687,161.70280802610796L63.00242623155383,162.22461270424537L63.02645737847223,162.23445111930778L63.04890630425348,162.20677879676805L63.07174613172743,162.22148455357092L63.116439225260415,162.21776839027007L63.184400276692706,162.21258701408806L63.20642107204861,161.88085252791643L63.25241717122396,162.08486397570232L63.27607603081598,162.1737274697225L63.298636642795145,161.76035149395466L63.34329250759549,161.69694953563157L63.434819346788196,162.15400520444382L63.47995918511285,161.57068531168625L63.50343190104167,161.97774931258755L63.54758517795138,162.17692365078256L63.56997826063368,162.21886835971964L63.63883280164931,162.0958223475609L63.66243581814237,162.10057076759404L63.778943136935766,162.16992789058713L63.80141067708333,162.1871092558431L63.82354315863715,162.22395079939452L63.84710894639757,161.87339391640853L63.8907968641493,162.21233764446515L63.93636483289931,162.17527170688845L63.95970724826389,162.21227130759507L63.98210033094618,162.16758792864857L64.00458648546007,162.1817772104405L64.02593716362847,162.20804226236942L64.04784627278646,162.21943808280776L64.11740815972222,162.10559794586152L64.18639300130208,162.23341358777907L64.2315886827257,162.0946836011135L64.27602117513021,162.09553720161784L64.29865624457466,162.00730891543208L64.3219614312066,162.16788375511533L64.34459650065105,162.16098856698954L64.36691512586806,162.21958776897372L64.45658052842882,162.04914286115672L64.54624593098958,162.2062425125623L64.59069703776042,162.2081345707702L64.61238277452257,162.20841232877865L64.68108840060763,162.21234635029396L64.70245769314236,162.2338285484475L64.72459017469617,162.21944709128002L64.79409621853299,162.22927543110563L64.8611265516493,162.00196638697525L64.8855299858941,162.20706467248965L64.90876071506077,161.87830949865747L64.95371440972222,162.0988129285397L64.9769637532552,162.15078631439246L65.00004556749131,162.15186302966322L65.06761571723091,161.9667167608859L65.11461699218749,162.16970008806675L65.13678670247396,162.22250633583462L65.15841659613716,162.23255569875255L65.18006510416667,162.18225748628902L65.20238372938368,162.18827106758545L65.22574475911458,162.21987190825166L65.27036339518229,162.20829937193776L65.29324045138888,162.22119181149174L65.3602707845052,162.11532531009289L65.47396733398438,162.2317961591907L65.56437731119792,162.1346927312843L65.74501112196181,162.23493583607342L65.76781372070312,162.22405995709414L65.789890359158,162.21705929021118L65.81380981987847,162.15490100331954L65.90431286892361,162.18787424406037L65.97147350260417,162.23002894892124L65.99395965711805,162.1207013654348L66.03975099826388,162.18350267308415L66.06272112630208,162.21637963886315L66.0849466796875,162.20445410437242L66.10722807617188,162.23063537128473L66.1535778483073,162.1219250151771L66.19838262803819,162.21269234688953L66.22053372395833,162.23804863349505L66.24231253255209,162.17720861642738L66.28927657877604,162.21730499377009L66.31083201497395,162.23280541180065L66.33309479709202,162.2169846166944L66.37987269965278,162.15648380713537L66.42415627712673,162.18772239002283L66.56285192057292,162.23915116575517L66.60853157552083,162.18644817950553L66.69899739583335,162.2212578886465L66.72284239908855,162.2424344426654L66.74467705078125,162.22362594491278L66.83406323784722,161.8683746540919L66.94688491210937,162.1243205089704L66.97059961480035,162.17975671120803L67.05992995876737,162.2311153723931L67.15132649739583,162.23839187839621L67.22006935221354,162.19115200577653L67.28737890082465,162.21189682387921L67.31025595703126,162.18681130872574L67.3334680718316,162.21214281505672L67.40018196072049,162.23961361461625L67.42387804904514,162.22219515826146L67.49120621202256,162.244211026833L67.51315254991319,162.2394536546708L67.53640189344617,162.24247632336846L67.55898111979167,162.03453142393846L67.58064824218751,162.18675217519922L67.73950324435764,162.24232856306662L67.76399975043402,162.21498997523304L67.78566687282986,162.18513921006524L67.80811579861113,162.24016712588855L67.85295780707465,162.23612498338844L67.87646775173612,162.2411648952184L67.89919589301216,162.23755484493813L67.92211017795138,162.23626678043365L67.9441309733073,162.2246440332092L67.96570502387152,162.23910500726197L67.98843316514758,162.21963152778335L68.01151497938369,162.23389189429872L68.0334613172743,162.19440810594824L68.09950508897569,162.2381087511494L68.14481245659722,162.24280568476934L68.25765274522568,162.23144472359854L68.28010167100695,162.2410499894395L68.3023458387587,162.24240421266222L68.34832332356771,162.22978525439976L68.50594977756076,162.21691860178544L68.55110823025174,162.20883854520798L68.66460002170139,162.24374661400907L68.68781213650175,162.22043924024183L68.77879915907118,162.23491113736236L68.82503724500867,162.24543257148616L68.84783984375001,162.1654908885248L68.89214203559028,162.2382445017647L68.91606149631076,162.2047131156578L68.96068013237847,162.2437633484751L68.98221695421007,162.24426054177093L69.11972127821181,162.24207915427178L69.14127671440971,162.23483089713773L69.16493557400175,162.20434916650993L69.27788754882813,162.2422097030685L69.30070876193575,162.22609134505183L69.5059879937066,162.2452508469687L69.52851137695313,162.24184664897257L69.59449930555556,162.2178697608033L69.61761834852432,162.24422801940455L69.6397322157118,162.21799696549715L69.66253481445312,162.24596766389914L69.68427639431424,162.2449813746298L69.70670670572918,162.24530502926973L69.7298071343316,162.23894969965477L69.77530064561633,162.24217916076304L69.82051494140624,162.24420556583573L69.8441179578993,162.23937525069778L69.86658549804689,162.24563346744708L69.91034787326389,162.23763938227057L69.93337384440105,162.24339158372095L69.9789045844184,162.24709168840582L70.02404442274306,162.23450943397984L70.04621413302952,162.23113548852416L70.09366215277778,162.24534491971644L70.11620415039062,162.24500089513276L70.20793574761284,162.2391638574627L70.2317249077691,162.2390513878563L70.2780560655382,162.24108144074853L70.3000024034288,162.2269844094044L70.32293530273436,162.2408362995484L70.3459426595052,162.21681177079154L70.39009593641492,162.23863716555206L70.41276823459201,162.24285946354576L70.43635263671875,162.23988214843848L70.45922969292535,162.2429491554758L70.55003057183158,162.24423927194584L70.59576606987847,162.24419143710838L70.61726566297743,162.2401273089563L70.63887694227431,162.24040002505353L70.68643664822048,162.24663642222913L70.73241413302952,162.23973322532038L70.77811240234374,162.2401057783427L70.8220981499566,162.245369592134L70.84393280164932,162.2449174707126L70.86695877278646,162.2470381081721L70.91183800998265,162.23826511908192L70.93376573350695,162.24157038379053L70.95634495985243,162.24521407578868L70.9792964735243,162.2466347831787L71.00373713650174,162.23970062568333L71.0265769639757,162.23117195813393L71.07112114257812,162.2456326432266L71.09347699652778,162.23615353382775L71.16214539388021,162.24139698089493L71.18422203233506,162.2394653976662L71.23049734700521,162.242849514947L71.25246229926216,162.24306335079382L71.31908311631945,162.2479526702714L71.34367269422742,162.2364864405572L71.36550734592014,162.24269504551194L71.38763982747396,162.2455960518082L71.40949309353299,162.2452070387917L71.45615930989582,162.23520207216643L71.54535935329861,162.2444323058844L71.59100177951389,162.24194934813204L71.6136926920573,162.24786824857665L71.63584378797742,162.2393288990279L71.70363731011285,162.22490028421453L71.72601177842883,162.2413756676051L71.76977415364583,162.24428901923238L71.79229753689236,162.24857411373114L71.86239924045138,162.2348355011818L71.88495985243055,162.24014224580606L71.90683173285589,162.24682192254568L71.93054643554687,162.24699426431107L71.9755745876736,162.24427660387482L72.02067719726563,162.24413945487504L72.0669897406684,162.23475997446803L72.08927113715278,162.2397530184171L72.13348025716145,162.24528779093453L72.15689712999132,162.24180747327955L72.1804256890191,162.24463976690095L72.20369364691841,162.2468819157084L72.24834951171876,162.24134399360628L72.3170365234375,162.23852758179055L72.33955990668404,162.2462301923415L72.3627906358507,162.24364261895607L72.38570492078992,162.24726449969785L72.40841444769964,162.23862304541035L72.47524002278645,162.23921826674632L72.4986568956163,162.2410751920197L72.5655383138021,162.2459192903134L72.5872985080295,162.24574489309452L72.6097846625434,162.24577986987788L72.65559461805556,162.23818272386416L72.67856474609376,162.24592103373288L72.70160933159723,162.24707312332248L72.79265219726562,162.245176774446L72.8610786078559,162.23917527635058L72.88322970377605,162.24272371668667L72.90497128363715,162.24636847491274L72.9732860080295,162.24780530128646L72.99610722113715,162.2360710602661L73.01892843424478,162.24379874058832L73.0419171766493,162.24828714521982L73.06434748806423,162.24434498412484L73.10985961371527,162.24144586317925L73.13225269639756,162.2450181710301L73.15488776584202,162.24589296838167L73.22307218967013,162.2464195486791L73.24535358615451,162.24770547187381L73.28969300672742,162.24484876635506L73.31337048068576,162.23613130885133L73.33496314561631,162.24599663986373L73.4021423936632,162.2415609830623L73.44852939453125,162.24136506596187L73.4700289876302,162.22227019666752L73.49216146918403,162.22995667294163L73.51492683919273,162.24285959876943L73.53890214301214,162.243853679498L73.603866281467,162.24080458959725L73.67085938585069,162.24559913807389L73.69360614149305,162.24589242024285L73.76028280164931,162.24628701204074L73.78329015842014,162.23780390440515L73.87414688042534,162.24727403994257L73.94313172200519,162.24570313044387L73.9647616156684,162.24585920083064L74.01144644639757,162.24774474710648L74.05599062499999,162.2444737390615L74.10083263346355,162.24471008482033L74.12469625108507,162.24746620243968L74.1474243923611,162.24509915659473L74.16992916124133,162.24760532076834L74.26158630099826,162.24602859343213L74.28342095269097,162.24079742810864L74.30616770833333,162.24563026205578L74.35188459201389,162.24382558195066L74.37377508680555,162.23093589194468L74.39627985568576,162.2462916694767L74.48680151909723,162.24290527700396L74.53147599826389,162.23916890259352L74.577341796875,162.2466153946798L74.62248163519966,162.24843156933366L74.64478164605035,162.24553548635959L74.69174569227431,162.24112737494215L74.78161585286458,162.24734479277777L74.82792839626737,162.24248559906846L74.85052623697915,162.24235046983813L74.91796608615451,162.2451310125016L74.98561069335938,162.2470844107429L75.07507133789063,162.24312286745408L75.11989473198786,162.23724520097312L75.14316268988715,162.24635971810676L259.84270473090277,162.2395834243216L260.0471835449219,162.246853479297L260.08796762152775,162.24137160821192L260.1255314127604,162.24723168381024L260.1517776692708,162.24260382963257L260.23060951063366,162.24624881698765L260.2562787217882,162.24653371019122L260.2839582845052,162.2465227670009L260.3363949544271,162.2462885180139L260.36023995768227,162.24683872489186L260.38427110460066,162.23839991454588L260.43361778971354,162.24375826739197L260.45714634874133,162.24589354361888L260.5268385362413,162.2357659699046L260.552284375,162.2463116232857L260.6045721299913,162.24444177851728L260.659037765842,162.24410441799228L260.68606582573784,162.24610711814057L260.70989221462673,162.24643713365913L260.80752456597224,162.2486594448319L260.8777007269965,162.2479786022277L260.9021786187066,162.2471134462703L260.9256327202691,162.2418747191532L260.94931019422745,162.2457724910655L261.02030538736983,162.24765808617212L261.0965126030816,162.2459973776913L261.122758859592,162.24591523333493L261.1473484375,162.24776263124204L261.1702254937066,162.243849557859L261.194721999783,162.24343198715906L261.2417418891059,162.24471309354703L261.31433791775174,162.2452877828855L261.38522142469617,162.233181409807L261.48129016927084,162.24490792295546L261.5041299967448,162.2437398919974L261.52711873914933,162.24445915797878L261.55178277452256,162.2427178811413L261.5756650065104,162.24747391689652L261.6212143608941,162.24301737957467L261.6445567762587,162.248150373317L261.7380008951823,162.2452135112835L261.8086610297309,162.24433807752212L261.83166838650175,162.24824493625056L261.9029614095052,162.24569764771422L261.9259315375434,162.24869165033488L261.94905058051216,162.24505663787204L261.9728211263021,162.24504343156332L261.99605185546875,162.24761944251986L262.04381631944443,162.24658873388398L262.0666561469184,162.2460532379464L262.0900916341146,162.24392215365333L262.11676602105035,162.2460511441259L262.1424538465712,162.24530184775722" style="fill: none;" fill="none"></path></g></g></g></g></g></g><g transform="translate(61, 177)" clip-path="url(#clip_1)"><clipPath id="clip_1"><rect width="268" height="23"></rect></clipPath><g><g><line x1="0" y1="0" x2="0" y2="5" style="visibility: inherit;" fill="rgb(0, 0, 0)" stroke="rgb(204, 204, 204)" stroke-width="1px"></line><line x1="33.505859375" y1="0" x2="33.505859375" y2="5" style="visibility: inherit;" fill="rgb(0, 0, 0)" stroke="rgb(204, 204, 204)" stroke-width="1px"></line><line x1="67.01171875" y1="0" x2="67.01171875" y2="5" style="visibility: inherit;" fill="rgb(0, 0, 0)" stroke="rgb(204, 204, 204)" stroke-width="1px"></line><line x1="100.517578125" y1="0" x2="100.517578125" y2="5" style="visibility: inherit;" fill="rgb(0, 0, 0)" stroke="rgb(204, 204, 204)" stroke-width="1px"></line><line x1="134.0234375" y1="0" x2="134.0234375" y2="5" style="visibility: inherit;" fill="rgb(0, 0, 0)" stroke="rgb(204, 204, 204)" stroke-width="1px"></line><line x1="167.529296875" y1="0" x2="167.529296875" y2="5" style="visibility: inherit;" fill="rgb(0, 0, 0)" stroke="rgb(204, 204, 204)" stroke-width="1px"></line><line x1="201.03515625" y1="0" x2="201.03515625" y2="5" style="visibility: inherit;" fill="rgb(0, 0, 0)" stroke="rgb(204, 204, 204)" stroke-width="1px"></line><line x1="234.541015625" y1="0" x2="234.541015625" y2="5" style="visibility: inherit;" fill="rgb(0, 0, 0)" stroke="rgb(204, 204, 204)" stroke-width="1px"></line><line x1="268.046875" y1="0" x2="268.046875" y2="5" style="visibility: inherit;" fill="rgb(0, 0, 0)" stroke="rgb(204, 204, 204)" stroke-width="1px"></line></g><g transform="translate(0, 8)"><text x="0" y="0" dx="0em" dy="0.95em" style="text-anchor: middle; visibility: hidden; font-family: Roboto, sans-serif; font-size: 12px; font-weight: 200;" fill="rgb(33, 33, 33)" stroke="none" stroke-width="1px">-0.5</text><text x="33.505859375" y="0" dx="0em" dy="0.95em" style="text-anchor: middle; visibility: inherit; font-family: Roboto, sans-serif; font-size: 12px; font-weight: 200;" fill="rgb(33, 33, 33)" stroke="none" stroke-width="1px">0</text><text x="67.01171875" y="0" dx="0em" dy="0.95em" style="text-anchor: middle; visibility: inherit; font-family: Roboto, sans-serif; font-size: 12px; font-weight: 200;" fill="rgb(33, 33, 33)" stroke="none" stroke-width="1px">0.5</text><text x="100.517578125" y="0" dx="0em" dy="0.95em" style="text-anchor: middle; visibility: inherit; font-family: Roboto, sans-serif; font-size: 12px; font-weight: 200;" fill="rgb(33, 33, 33)" stroke="none" stroke-width="1px">1</text><text x="134.0234375" y="0" dx="0em" dy="0.95em" style="text-anchor: middle; visibility: inherit; font-family: Roboto, sans-serif; font-size: 12px; font-weight: 200;" fill="rgb(33, 33, 33)" stroke="none" stroke-width="1px">1.5</text><text x="167.529296875" y="0" dx="0em" dy="0.95em" style="text-anchor: middle; visibility: inherit; font-family: Roboto, sans-serif; font-size: 12px; font-weight: 200;" fill="rgb(33, 33, 33)" stroke="none" stroke-width="1px">2</text><text x="201.03515625" y="0" dx="0em" dy="0.95em" style="text-anchor: middle; visibility: inherit; font-family: Roboto, sans-serif; font-size: 12px; font-weight: 200;" fill="rgb(33, 33, 33)" stroke="none" stroke-width="1px">2.5</text><text x="234.541015625" y="0" dx="0em" dy="0.95em" style="text-anchor: middle; visibility: inherit; font-family: Roboto, sans-serif; font-size: 12px; font-weight: 200;" fill="rgb(33, 33, 33)" stroke="none" stroke-width="1px">3</text><text x="268.046875" y="0" dx="0em" dy="0.95em" style="text-anchor: middle; visibility: hidden; font-family: Roboto, sans-serif; font-size: 12px; font-weight: 200;" fill="rgb(33, 33, 33)" stroke="none" stroke-width="1px">3.5</text></g><line x1="0" y1="0" x2="268.046875" y2="0" fill="rgb(0, 0, 0)" stroke="rgb(204, 204, 204)" stroke-width="1px"></line></g></g></g></g></svg>