<svg viewBox="0 0 330 200" xmlns="http://www.w3.org/2000/svg"><g><g><g><g><g><line x1="51.5625" y1="177" x2="46.5625" y2="177" style="visibility: inherit;" fill="rgb(0, 0, 0)" stroke="rgb(204, 204, 204)" stroke-width="1px"></line><line x1="51.5625" y1="160.9090909090909" x2="46.5625" y2="160.9090909090909" style="visibility: inherit;" fill="rgb(0, 0, 0)" stroke="rgb(204, 204, 204)" stroke-width="1px"></line><line x1="51.5625" y1="144.8181818181818" x2="46.5625" y2="144.8181818181818" style="visibility: inherit;" fill="rgb(0, 0, 0)" stroke="rgb(204, 204, 204)" stroke-width="1px"></line><line x1="51.5625" y1="128.72727272727272" x2="46.5625" y2="128.72727272727272" style="visibility: inherit;" fill="rgb(0, 0, 0)" stroke="rgb(204, 204, 204)" stroke-width="1px"></line><line x1="51.5625" y1="112.63636363636364" x2="46.5625" y2="112.63636363636364" style="visibility: inherit;" fill="rgb(0, 0, 0)" stroke="rgb(204, 204, 204)" stroke-width="1px"></line><line x1="51.5625" y1="96.54545454545453" x2="46.5625" y2="96.54545454545453" style="visibility: inherit;" fill="rgb(0, 0, 0)" stroke="rgb(204, 204, 204)" stroke-width="1px"></line><line x1="51.5625" y1="80.45454545454547" x2="46.5625" y2="80.45454545454547" style="visibility: inherit;" fill="rgb(0, 0, 0)" stroke="rgb(204, 204, 204)" stroke-width="1px"></line><line x1="51.5625" y1="64.36363636363639" x2="46.5625" y2="64.36363636363639" style="visibility: inherit;" fill="rgb(0, 0, 0)" stroke="rgb(204, 204, 204)" stroke-width="1px"></line><line x1="51.5625" y1="48.27272727272729" x2="46.5625" y2="48.27272727272729" style="visibility: inherit;" fill="rgb(0, 0, 0)" stroke="rgb(204, 204, 204)" stroke-width="1px"></line><line x1="51.5625" y1="32.181818181818194" x2="46.5625" y2="32.181818181818194" style="visibility: inherit;" fill="rgb(0, 0, 0)" stroke="rgb(204, 204, 204)" stroke-width="1px"></line><line x1="51.5625" y1="16.090909090909097" x2="46.5625" y2="16.090909090909097" style="visibility: inherit;" fill="rgb(0, 0, 0)" stroke="rgb(204, 204, 204)" stroke-width="1px"></line><line x1="51.5625" y1="0" x2="46.5625" y2="0" style="visibility: inherit;" fill="rgb(0, 0, 0)" stroke="rgb(204, 204, 204)" stroke-width="1px"></line></g><g transform="translate(41.5625, 0)"><text x="0" y="177" dx="0em" dy="0.3em" style="text-anchor: end; visibility: hidden; font-family: Roboto, sans-serif; font-size: 12px; font-weight: 200;" fill="rgb(33, 33, 33)" stroke="none" stroke-width="1px">-0.2</text><text x="0" y="160.9090909090909" dx="0em" dy="0.3em" style="text-anchor: end; visibility: inherit; font-family: Roboto, sans-serif; font-size: 12px; font-weight: 200;" fill="rgb(33, 33, 33)" stroke="none" stroke-width="1px">0</text><text x="0" y="144.8181818181818" dx="0em" dy="0.3em" style="text-anchor: end; visibility: hidden; font-family: Roboto, sans-serif; font-size: 12px; font-weight: 200;" fill="rgb(33, 33, 33)" stroke="none" stroke-width="1px">0.2</text><text x="0" y="128.72727272727272" dx="0em" dy="0.3em" style="text-anchor: end; visibility: inherit; font-family: Roboto, sans-serif; font-size: 12px; font-weight: 200;" fill="rgb(33, 33, 33)" stroke="none" stroke-width="1px">0.4</text><text x="0" y="112.63636363636364" dx="0em" dy="0.3em" style="text-anchor: end; visibility: hidden; font-family: Roboto, sans-serif; font-size: 12px; font-weight: 200;" fill="rgb(33, 33, 33)" stroke="none" stroke-width="1px">0.6</text><text x="0" y="96.54545454545453" dx="0em" dy="0.3em" style="text-anchor: end; visibility: inherit; font-family: Roboto, sans-serif; font-size: 12px; font-weight: 200;" fill="rgb(33, 33, 33)" stroke="none" stroke-width="1px">0.8</text><text x="0" y="80.45454545454547" dx="0em" dy="0.3em" style="text-anchor: end; visibility: hidden; font-family: Roboto, sans-serif; font-size: 12px; font-weight: 200;" fill="rgb(33, 33, 33)" stroke="none" stroke-width="1px">1</text><text x="0" y="64.36363636363639" dx="0em" dy="0.3em" style="text-anchor: end; visibility: inherit; font-family: Roboto, sans-serif; font-size: 12px; font-weight: 200;" fill="rgb(33, 33, 33)" stroke="none" stroke-width="1px">1.2</text><text x="0" y="48.27272727272729" dx="0em" dy="0.3em" style="text-anchor: end; visibility: hidden; font-family: Roboto, sans-serif; font-size: 12px; font-weight: 200;" fill="rgb(33, 33, 33)" stroke="none" stroke-width="1px">1.4</text><text x="0" y="32.181818181818194" dx="0em" dy="0.3em" style="text-anchor: end; visibility: inherit; font-family: Roboto, sans-serif; font-size: 12px; font-weight: 200;" fill="rgb(33, 33, 33)" stroke="none" stroke-width="1px">1.6</text><text x="0" y="16.090909090909097" dx="0em" dy="0.3em" style="text-anchor: end; visibility: hidden; font-family: Roboto, sans-serif; font-size: 12px; font-weight: 200;" fill="rgb(33, 33, 33)" stroke="none" stroke-width="1px">1.8</text><text x="0" y="0" dx="0em" dy="0.3em" style="text-anchor: end; visibility: hidden; font-family: Roboto, sans-serif; font-size: 12px; font-weight: 200;" fill="rgb(33, 33, 33)" stroke="none" stroke-width="1px">2</text></g><line x1="51.5625" y1="0" x2="51.5625" y2="177" fill="rgb(0, 0, 0)" stroke="rgb(204, 204, 204)" stroke-width="1px"></line></g></g><g transform="translate(51, 0)" clip-path="url(#clip_0)"><clipPath id="clip_0"><rect width="278" height="177"></rect></clipPath><g><g><g><line x1="0" y1="0" x2="0" y2="177" fill="rgb(0, 0, 0)" stroke="rgb(66, 66, 66)" stroke-width="1px" opacity="0.25"></line><line x1="34.80468750000001" y1="0" x2="34.80468750000001" y2="177" fill="rgb(0, 0, 0)" stroke="rgb(66, 66, 66)" stroke-width="1px" opacity="0.25"></line><line x1="69.60937500000001" y1="0" x2="69.60937500000001" y2="177" fill="rgb(0, 0, 0)" stroke="rgb(66, 66, 66)" stroke-width="1px" opacity="0.25"></line><line x1="104.41406250000003" y1="0" x2="104.41406250000003" y2="177" fill="rgb(0, 0, 0)" stroke="rgb(66, 66, 66)" stroke-width="1px" opacity="0.25"></line><line x1="139.21875000000003" y1="0" x2="139.21875000000003" y2="177" fill="rgb(0, 0, 0)" stroke="rgb(66, 66, 66)" stroke-width="1px" opacity="0.25"></line><line x1="174.0234375" y1="0" x2="174.0234375" y2="177" fill="rgb(0, 0, 0)" stroke="rgb(66, 66, 66)" stroke-width="1px" opacity="0.25"></line><line x1="208.828125" y1="0" x2="208.828125" y2="177" fill="rgb(0, 0, 0)" stroke="rgb(66, 66, 66)" stroke-width="1px" opacity="0.25"></line><line x1="243.6328125" y1="0" x2="243.6328125" y2="177" fill="rgb(0, 0, 0)" stroke="rgb(66, 66, 66)" stroke-width="1px" opacity="0.25"></line><line x1="278.4375" y1="0" x2="278.4375" y2="177" fill="rgb(0, 0, 0)" stroke="rgb(66, 66, 66)" stroke-width="1px" opacity="0.25"></line></g><g><line x1="0" y1="177" x2="278.4375" y2="177" fill="rgb(0, 0, 0)" stroke="rgb(66, 66, 66)" stroke-width="1px" opacity="0.25"></line><line x1="0" y1="160.9090909090909" x2="278.4375" y2="160.9090909090909" fill="rgb(0, 0, 0)" stroke="rgb(66, 66, 66)" stroke-width="1px" opacity="0.25"></line><line x1="0" y1="144.8181818181818" x2="278.4375" y2="144.8181818181818" fill="rgb(0, 0, 0)" stroke="rgb(66, 66, 66)" stroke-width="1px" opacity="0.25"></line><line x1="0" y1="128.72727272727272" x2="278.4375" y2="128.72727272727272" fill="rgb(0, 0, 0)" stroke="rgb(66, 66, 66)" stroke-width="1px" opacity="0.25"></line><line x1="0" y1="112.63636363636364" x2="278.4375" y2="112.63636363636364" fill="rgb(0, 0, 0)" stroke="rgb(66, 66, 66)" stroke-width="1px" opacity="0.25"></line><line x1="0" y1="96.54545454545453" x2="278.4375" y2="96.54545454545453" fill="rgb(0, 0, 0)" stroke="rgb(66, 66, 66)" stroke-width="1px" opacity="0.25"></line><line x1="0" y1="80.45454545454547" x2="278.4375" y2="80.45454545454547" fill="rgb(0, 0, 0)" stroke="rgb(66, 66, 66)" stroke-width="1px" opacity="0.25"></line><line x1="0" y1="64.36363636363639" x2="278.4375" y2="64.36363636363639" fill="rgb(0, 0, 0)" stroke="rgb(66, 66, 66)" stroke-width="1px" opacity="0.25"></line><line x1="0" y1="48.27272727272729" x2="278.4375" y2="48.27272727272729" fill="rgb(0, 0, 0)" stroke="rgb(66, 66, 66)" stroke-width="1px" opacity="0.25"></line><line x1="0" y1="32.181818181818194" x2="278.4375" y2="32.181818181818194" fill="rgb(0, 0, 0)" stroke="rgb(66, 66, 66)" stroke-width="1px" opacity="0.25"></line><line x1="0" y1="16.090909090909097" x2="278.4375" y2="16.090909090909097" fill="rgb(0, 0, 0)" stroke="rgb(66, 66, 66)" stroke-width="1px" opacity="0.25"></line><line x1="0" y1="0" x2="278.4375" y2="0" fill="rgb(0, 0, 0)" stroke="rgb(66, 66, 66)" stroke-width="1px" opacity="0.25"></line></g></g></g><g><g><line x1="0" y1="160.9090909090909" x2="278.4375" y2="160.9090909090909" fill="rgb(0, 0, 0)" stroke="rgb(153, 153, 153)" stroke-width="1.5px"></line></g></g><g><g><line x1="34.80468750000001" y1="0" x2="34.80468750000001" y2="177" fill="rgb(0, 0, 0)" stroke="rgb(153, 153, 153)" stroke-width="1.5px"></line></g></g><g><g><g><g><g><path stroke="rgb(204, 51, 17)" stroke-width="2px" d="M44.83636523437501,-0.14295235844259313L45.436552734375006,1.3469599532928789L46.393004882812505,3.723158594327765L46.745885742187504,6.396661504850176L46.86373828125,9.051476400138961L47.70185449218751,12.483529594358872L48.04825781250001,16.360610886872507L48.2861865234375,18.73053291760326L48.40345898437501,19.137938462900742L48.518604492187514,20.061239268307837L48.986437500000015,22.97891959955403L49.1104775390625,22.79120100601756L49.226879882812504,23.728415978879724L49.58585156250001,25.285493121485423L49.70302734375001,26.809827080929633L50.061708984375,28.006109210968482L50.5387265625,30.34471866999572L50.78641992187501,31.668851252393047L51.02647558593751,33.69183676004182L51.14519824218751,34.34542572615224L51.267788085937504,35.32508106518578L51.38206347656251,36.613272973828295L51.62163574218751,37.23854919120727L51.868072265625,38.05632479531961L52.102037109375,38.12908651773355L52.45588476562501,38.47505347608787L52.573060546875006,37.305065471189614L52.691783203125006,38.39466975281628L52.924877929687504,38.7769514797221L53.053558593750004,39.346142483077244L53.17073437500001,41.641831928791774L53.534830078125005,41.8913830127133L53.7773994140625,43.78485584727171L53.899892578125,46.17002764029052L54.140141601562505,47.642740003363755L54.265438476562515,49.24923575537103L54.62489355468751,51.98563666928015L55.21812011718751,56.303626520888486L55.333749023437505,58.2586492439845L55.45575878906251,60.05852601066573L55.689046875,60.51494576307252L55.80390234375001,62.079057647690604L56.03999414062501,62.616270991507434L56.287397460937505,65.61051678309528L56.406603515625015,63.956589367252356L56.52561621093751,64.492478431836L56.647142578125006,64.7080973211921L56.899379882812504,67.45084724460929L57.0155888671875,70.39641337935696L57.85486523437501,72.48086370706031L58.35054199218751,74.9690668444602L58.840804687500004,72.22363434741959L58.9611708984375,75.27203624227411L59.085114257812506,76.80539286817553L59.57605371093751,78.6718570013154L59.69477636718751,78.20702049413805L59.938892578125014,81.12916793935644L60.296510742187515,82.9681724589763L60.42209765625001,82.93955012396616L60.77720214843752,84.73093824310307L60.898921875000006,85.85430121636134L61.149418945312505,87.89364531819015L61.26949511718751,87.97705526082294L61.3887978515625,89.65499074037203L61.63745800781251,90.62953226053098L61.7574375,92.48665505924939L61.874806640625,93.70365142663518L61.991982421875015,94.7165016034745L62.11292871093751,94.41842325543561L62.23213476562501,94.76285158946689L62.5951669921875,96.32291146457214L62.9669970703125,95.7863369376769L63.44817187500001,97.42277172860456L63.5733720703125,98.70119372510177L63.80975390625,99.47751367879775L64.0498095703125,100.44865362900039L64.17462304687501,101.79574424767112L64.78670214843751,102.5970125860408L65.14403027343751,103.17985752133231L65.26371972656251,103.24721711764809L65.3919169921875,104.67926519393426L65.51044628906251,105.7499279922109L65.74798828125,107.32372957903944L66.23196679687501,107.77285579271036L66.470765625,109.32012334612071L66.7206826171875,110.28574463812744L66.96325195312501,110.57390035714377L67.5592822265625,112.09761478509814L67.8031083984375,113.03241982138667L68.27123144531251,113.94374196900111L68.8700654296875,114.95388455656713L69.11234472656251,115.25325411132411L69.23648144531249,117.10795656620687L69.59303613281251,119.48233242120065L69.83869921875001,119.704449148689L69.95819531250001,119.84661764929822L70.07324414062501,119.66680436639973L70.32306445312501,116.37787372545702L70.44294726562501,115.88671288568288L70.56273339843752,114.87965395150597L71.05889355468751,115.16368249929936L71.17935644531252,116.23021083455026L71.41496484375001,117.25595557212186L71.78466796875,118.49285434523111L72.277734375,118.86544359772192L72.39984082031252,120.02979057677045L72.5206904296875,121.33899088562727L72.637189453125,121.87504428867493L72.8851728515625,121.36784165592839L73.24114746093751,121.78346893159387L73.366541015625,122.81671481817756L73.48168652343752,125.51773957360211L73.83988476562502,126.22490473846555L73.96827539062501,125.62774877703168L74.20204687500001,126.10206678266728L74.92405078125,125.27447233541957L75.16149609375,125.96869954162602L75.5223046875,126.13636947525167L75.6421875,126.68537614853753L75.89084765625,126.32480103277473L76.01227734375001,126.69477823839208L76.6156552734375,126.28020691769872L76.74066210937501,126.11736815998397L76.97414355468752,127.34745520360028L77.21883984375002,127.70261835405735L77.33678906250002,126.9467417894952L77.4581220703125,128.86928224287618L77.82347460937501,129.22659059055505L77.94200390625001,130.19352402284278L78.06382031250001,130.0114066199497L78.31093359375002,129.24711887270968L78.4265625,129.24366362882654L78.664201171875,130.04492863087384L78.7849541015625,128.9329181826948L79.02945703125,129.05644182663198L79.2640986328125,129.60289872630693L79.5108251953125,129.847252177318L79.62809765625,129.74031460709577L79.74556347656251,131.12533187687356L79.98474902343752,130.08065955965063L80.11497656250002,131.34657233867415L80.4646669921875,130.4869496058589L80.58648339843752,130.63502843565738L80.70868652343752,130.23259573050896L80.825765625,129.0183300763662L81.06514453125001,129.21821483099055L81.18145019531251,128.8393300876615L81.302783203125,129.7867183098011L81.4391015625,131.2045987427069L82.5226875,131.39739884993253L82.64914453125002,131.78581616806386L82.88281933593751,131.56094668496817L83.2489453125,132.1508220651371L84.09566601562501,132.29702023487118L84.2131318359375,132.31868736637134L84.69701367187501,132.4870031528134L84.81418945312501,133.316987644418L84.93300878906251,133.11124199079507L85.18389257812501,133.73342028960172L85.42288476562501,133.09719181534942L85.905703125,133.32322807813244L86.99576660156251,133.22078379108154L87.112265625,133.723424983702L87.226927734375,133.98506635641513L87.34410351562501,134.1073761345961L87.58812304687498,133.8729037240538L87.7085859375,133.3933420579505L88.0675576171875,133.4036192060037L88.43329687500001,133.48943144823073L89.271123046875,134.72099055929323L89.39458300781251,133.86106441829244L89.517076171875,134.28172627067025L89.66180566406251,134.1034158515551L89.91694335937501,134.4866651509231L90.05113476562502,135.79164184415492L90.1703408203125,134.8610059890561L90.4137802734375,135.09383585348746L90.53782031249999,134.81857742463743L90.66978808593751,134.27321875179203L90.915837890625,135.45139963243676L91.16072753906252,135.86777589698107L91.28950488281251,135.91346352304882L91.7748369140625,135.79318058440063L92.631515625,137.21106045974315L92.9924208984375,137.19851556087798L93.11839453125002,137.23678530851166L93.35487304687503,137.2531399659627L93.58893457031252,137.14944699057367L93.95718750000002,137.14467991218388L95.28962695312501,137.4266424488369L95.663970703125,137.4532297081556L95.78201660156252,137.27552873489458L95.899095703125,138.18887373998447L96.13441406250001,137.67446857861037L96.38288085937499,138.40269604264873L96.50315039062501,137.9056265941159L96.74291601562501,137.8509197175495L97.34000976562501,137.65858597072642L97.46588671875003,138.29088401341411L98.1698115234375,137.99891026290095L98.410060546875,139.3168898258373L98.52868652343751,139.97373064632532L98.65514355468751,139.99721669772998L98.77454296875003,139.78676165765907L98.8949091796875,140.02651397850852L99.013341796875,139.53408490480842L99.132451171875,139.62107247627893L99.261421875,139.2855296469213L99.38188476562502,139.30835259665847L99.5014775390625,139.42681384076195L99.7400830078125,139.07988336513512L100.10756250000003,138.88723457137607L100.22734863281252,139.10589109609262L100.34326757812502,138.02169464839972L100.588447265625,138.54237118143834L101.08093359375002,138.68426476639453L101.3323974609375,139.58704489574723L101.57690039062503,139.71185666277455L101.6957197265625,140.41826660876865L102.06484277343752,140.4648001464385L102.18975292968753,140.52187861200875L102.3144697265625,140.42314553974094L102.57772851562501,140.60254719685332L102.84272753906251,140.57143525922243L103.16225390625002,140.6878745572585L103.42792968750001,140.94604452190077L103.54674902343753,141.26242561888154L103.90649414062503,140.73108689420116L104.14384277343751,140.70777059726262L104.26382226562501,141.32276258818442L104.39443652343752,141.3856503294129L104.51412597656253,140.5867705355363L104.63487890625001,140.71165057861288L104.75611523437503,141.0527460717495L104.99655761718752,140.42585589873084L105.11131640625001,140.59191236835184L105.71672460937502,140.37944206831463L105.83660742187502,140.9662433817244L106.07008886718752,141.2860578861931L106.18842480468753,140.88821425892056L106.32029589843751,140.83347649109828L106.67791406250002,140.18152400475043L106.92183691406251,140.5180829686654L107.15667187500003,140.60781742307304L107.39112011718753,140.9192810041798L107.63020898437502,141.04584659453968L107.864947265625,140.2345444335093L107.98270312500001,141.28307428852563L108.10974023437501,141.0792257546589L108.46532812500001,140.65157789399007L108.94195898437502,141.70861415294493L109.05681445312501,141.92664856504555L109.30431445312502,141.85688164163867L109.42139355468753,141.45946847830123L109.65729199218752,141.32611654388523L110.14030371093753,141.43188599785015L110.26299023437501,141.97087649022356L110.51165039062502,142.91536113818287L110.752576171875,142.91893826191955L111.59649316406251,142.53583177594632L111.72285351562502,142.72366052397336L111.95681835937502,141.95387479706824L112.0767978515625,142.07104660028025L112.19300683593752,141.95162192067878L112.31337304687501,142.36908532050256L112.4384765625,142.67916714903282L112.55768261718752,143.47565251497912L112.79793164062501,142.7754620866306L112.91530078125001,142.8413053464868L113.40256640625003,143.1915305540332L113.52022558593752,143.31134933687912L113.76965917968751,142.15489433734763L114.00971484375002,142.78357546807453L114.37729101562502,142.52646550486975L114.62160058593751,142.4299129434366L114.73751953125002,142.69177271814416L114.86416992187502,142.9417498777151L115.22188476562499,143.9459465285227L115.34350781250002,143.8029419305159L115.47286523437502,143.79339233390075L115.59516503906251,143.65198257775057L115.71456445312502,143.9520533222071L115.95462011718752,143.84883294982924L116.08243066406251,144.61710066974996L116.201443359375,144.2010935898202L116.435794921875,144.21908777579046L116.55625781250001,143.77492513324353L116.68252148437503,144.0874357801789L116.80153417968751,143.65375446787343L116.91677636718751,143.85402873029466L117.03366210937502,144.40199140991498L117.27681152343752,144.37208504955498L117.39514746093752,143.8959844634131L117.75556933593752,144.03224635111823L118.24051464843751,144.0937723776768L118.61128125000002,143.87928672092488L118.73155078125001,144.60927409585534L118.85104687500002,143.98427698244743L119.09380957031253,144.78210165583602L119.21852636718752,144.9515168067101L119.33937597656251,144.48602308283674L119.4550048828125,144.3576343649922L119.6880029296875,144.70821271288006L119.81165625,144.5318385901363L119.92960546875,144.0894477901969L120.40449609375003,143.98874758980088L120.88112695312502,144.3415070974369L121.00719726562501,144.3737553598606L121.24406250000001,144.8220087531662L121.35891796875002,145.15115873584975L121.47938085937501,144.85319618868184L121.60554785156252,145.46932782062663L121.73074804687502,145.11421164795297L121.85092089843751,145.03847445963183L122.21956054687502,145.50543473260075L122.334416015625,146.05134101730107L122.45188183593753,145.85212218340783L123.06106054687501,145.54523304014964L123.30237304687499,145.85117445696767L123.43376074218752,145.7978774034994L123.55548046875,145.66152588434755L123.67778027343752,144.98282445289067L123.91735253906252,144.24279643242525L124.28454199218753,144.82971147764525L124.40374804687502,144.67743325599585L124.764169921875,145.2283909928008L124.88579296875001,145.6863825680085L125.0082861328125,145.63268770832337L125.2445712890625,146.06319284473966L125.49197460937502,146.00159527842902L125.84775585937503,146.11983427775542L125.9745029296875,145.76985049686596L126.20701757812502,145.64498404094275L126.57275683593753,145.26136860181833L126.69167285156253,145.49873987340354L126.80739843750001,145.70454716928313L127.04755078125001,146.08171833792738L127.17632812500003,145.97250539911528L127.2951474609375,146.33030542589324L127.41096972656253,145.812821099665L127.52891894531253,145.40523097756605L127.64841503906248,145.32306188576553L127.77477539062501,145.2783252334402L128.250439453125,146.14504709782312L128.37631640625,145.67282617870418L128.84511621093753,146.45617759152864L128.9704130859375,147.07690509621162L129.20959863281252,147.15034486060927L129.44656054687502,146.42262233022205L129.697734375,146.1262705380033L129.81926074218748,146.61118403888514L129.9379833984375,146.65021199745723L130.05341894531253,146.70979185071354L130.17861914062505,146.51708286991683L130.29540820312502,146.7742391564091L130.52386230468753,146.51064079736602L130.75995410156253,146.58930676042178L131.00242675781251,146.77188757899162L131.3541474609375,146.6048144900096L131.476640625,146.66319165791285L131.59149609375,146.43061472926212L131.7066416015625,146.8846698828667L131.82739453125,146.37478286845806L132.315240234375,146.85171984708123L132.55548925781252,146.97619239516362L132.6873603515625,147.3380307421361L132.93118652343753,147.5377218978948L133.29711914062503,146.79245012256675L133.53930175781252,147.24921822807187L133.65841113281252,147.19354438395442L133.77433007812502,147.8588229654716L134.135138671875,147.53742216458838L134.50194140625004,147.55724231640866L134.62298437500002,147.21425564053064L134.864490234375,147.44362039760375L135.110056640625,147.58722351212495L135.34489160156252,147.95903058670388L135.46322753906253,148.09445134078734L135.9540703125,148.15685569916423L136.1896787109375,147.60900562536543L136.31226855468753,147.96936596027834L136.43002441406253,148.06856994764917L136.5456533203125,148.03958388854483L136.904431640625,147.85979432386898L137.1470009765625,147.97710936868742L137.6308828125,147.6870415441828L137.8703583984375,147.43238621223517L137.99169140625003,147.8500168843454L138.10964062500003,147.7510337317924L138.23899804687503,147.94554930456306L138.3566572265625,147.10606650428667L138.84798339843752,147.00800887025684L139.08484863281254,147.28072024423977L139.206375,147.51642434024274L139.569697265625,147.9563174737898L139.68977343750004,148.57094568029038L139.80984960937502,148.78065464559734L139.9309892578125,148.68526284494126L140.0610234375,148.2561836029071L140.29721191406253,148.21429315065666L140.419318359375,148.2874304172172L140.5375576171875,147.8384948686281L140.66575488281254,147.49283913629006L140.91393164062498,148.11357016315472L141.280734375,148.1667176346641L141.52011328125002,147.49878670447129L141.64183300781252,147.82361934532017L141.8887529296875,148.6540508240148L142.00747558593753,148.44845971013487L142.1308388671875,148.69466032819273L142.37012109375002,148.66490870638302L142.4966748046875,148.74716785233656L142.7312197265625,148.66684390658455L142.8557431640625,148.63825387797436L143.701787109375,149.50940980556797L143.8281474609375,149.48278672829275L143.94735351562503,149.19468081576449L144.0658828125,149.10906691031622L144.1854755859375,148.45676163404997L144.30303808593752,148.29453453977973L144.42852832031255,148.2383462467848L144.66984082031252,148.45289830982495L144.79098046875,148.1793783040577L144.91154003906252,148.05415655942977L145.2731220703125,147.7385558992594L145.3947451171875,147.79491606847625L145.5198486328125,148.08453855647716L145.65181640625002,148.52213309573847L145.88539453125003,149.3862343376576L146.61812988281253,149.25072462722764L146.73549902343748,149.3972537219612L146.86495312500006,149.46137512435138L147.101431640625,149.74864338300762L147.5814462890625,149.90012104895087L147.940998046875,149.4806954055754L148.305673828125,149.32801697030396L148.78346484375,148.70824367193853L149.13441210937503,149.1294037560296L149.25226464843755,149.3976538959221L149.3777548828125,148.93110928434587L149.61326660156254,148.77398573403087L149.7317958984375,148.99361072805243L149.850228515625,148.42675127067017L150.09308789062501,148.9679268990085L150.21045703125,149.5295541228781L150.32995312500003,149.95716905410305L150.44935253906252,149.64990742584106L150.57155566406252,149.64102752825372L150.8072607421875,149.71687433721166L150.9236630859375,150.0649349980013L151.1629453125,149.7906643017694L151.39855371093753,149.71266529511436L151.52327050781253,150.0239979012778L151.768740234375,150.09514620425307L152.006572265625,149.42283045472993L152.1250048828125,149.85950761678285L152.24595117187502,148.98574073209932L152.37086132812502,149.44058451600523L152.72741601562504,150.10704113896554L152.84236816406252,150.03980664904253L152.969115234375,149.95844603042642L153.31696875000003,149.52840604840043L153.43569140625002,149.7050885276586L154.38837304687502,149.7739048713039L154.74908496093752,150.19374002136695L154.86761425781253,150.71900465287783L155.1011923828125,150.4031459879757L155.33680078125,150.3587132546614L155.46731835937499,150.49789852384228L155.821166015625,150.18977464129625L155.94172558593752,150.20123958034466L156.19144921875,150.27912786541995L156.30949511718748,150.6915802307155L156.4268642578125,150.49581548853075L156.54723046875,150.34221706288346L156.910359375,150.34831036354745L157.88228027343754,150.87658417711586L158.0029365234375,150.92878774750733L158.1249462890625,150.69089922061485L158.358234375,150.64030807953537L158.60051367187504,150.33644550993012L158.71942968750002,150.18959858119143L158.83911914062497,150.53889146398208L159.07927148437503,150.55655797528013L159.31130273437498,150.87496604690477L159.4301220703125,150.89205181482964L159.54720117187497,151.0322191253136L159.90510937500002,151.006739548841L160.02267187500001,150.55128162188896L160.14062109375,150.77468416415522L160.7380048828125,150.2482794385344L160.9800908203125,150.43806079990807L161.09397949218751,151.06443506540958L161.33480859375,151.26406682224876L161.45575488281253,151.21198649547853L161.698517578125,151.00542330675012L162.41810449218755,151.10828161687178L162.538857421875,151.38268552853614L162.78577734375003,151.29314163677986L163.023029296875,151.2226287778855L163.50169042968753,151.26819051841736L163.73845898437503,151.26322099725672L163.98663574218753,150.8028258116478L164.2247578125,151.354495452457L164.4624931640625,151.1403891028462L164.70941308593748,151.6178989025489L164.8271689453125,151.5904097488679L164.94328125,151.5432694014784L165.05910351562503,151.45145200071354L165.18594726562497,150.92554284559262L165.659291015625,151.10600448477936L165.90553417968752,151.13183088742355L166.02754394531252,151.18457645940197L166.7499345703125,151.37473572706176L166.99714453125,151.75618755062328L167.2275322265625,151.20492838709947L167.34760839843753,150.89283491903186L167.4642041015625,151.43658219850607L168.18185742187498,151.56401683787976L168.54537304687503,152.07637528338498L168.7836884765625,151.84000360686298L169.21981054687498,152.51356351776874L169.599181640625,152.62982556627205L169.721384765625,152.23595727761557L169.97255859375002,152.6618113203914L170.0925380859375,151.97052975364588L170.217931640625,151.6356168083433L170.33452734375,151.85207251425723L170.57583984375003,151.53988514481756L170.69494921875,151.55882038069123L170.937228515625,151.87235645479285L171.0560478515625,151.25035604687687L171.173513671875,151.2546854666004L171.53625585937502,151.2221774402663L171.65169140625002,151.57337498598451L171.89339062500002,151.95029256764582L172.8591240234375,152.15548357950493L172.98016699218752,152.08540857919525L173.0975361328125,151.78225988256563L173.2201259765625,151.98353404087584L173.576197265625,152.05431900490976L173.6931796875,152.15267129256844L173.81045214843752,151.3745427254437L174.1762880859375,151.86137463753647L174.29713769531253,151.94726137391953L174.4164404296875,151.88397368858864L174.7816962890625,151.84805329646667L176.20810839843753,152.26183429689084L176.57616796875,151.9564885679373L176.81545019531254,152.31162981753118L176.9415205078125,152.37729790926534L177.17828906250003,152.54386825145707L177.29304785156253,152.1969434093864L177.4129306640625,152.2650871097269L177.66497460937504,152.03536430332576L178.02046582031252,151.66989015458316L178.1453759765625,152.02004958342488L178.26129492187502,151.71170036936928L178.381177734375,152.20468153893754L178.50135058593753,151.77894631501647L178.62007324218752,152.16681340024834L178.74904394531254,152.2161251133386L178.86825000000002,152.32876503241462L179.10395507812504,152.4517883910355L179.34633105468754,152.33563870782086L179.46302343750003,152.32265190999004L179.7009521484375,152.70134694409546L179.93994433593753,152.80893007048365L180.18319042968753,152.66699803033327L180.30084960937504,152.7329537265666L180.41647851562502,152.48619235063057L180.53761816406254,152.5742176860837L180.66378515625001,152.3159189689861L180.7824111328125,152.54688256629902L181.262232421875,152.7429789657672L181.85971289062502,152.41506189599946L181.97766210937502,152.7681131094415L182.214140625,152.77539521307787L182.328416015625,152.8550513513313L182.45274609375002,152.80658903014492L182.81954882812502,152.71789154421748L182.9368212890625,152.62875382392303L183.0634716796875,153.28012656199695L183.30372070312504,153.6763379093221L183.66375585937502,153.57217686435484L184.01625,153.0036688068617L184.26326660156252,152.9123230381998L184.49974511718753,153.24260816870017L184.62136816406252,153.04609836360362L184.86142382812506,152.8703292057872L184.97850292968752,152.8632687265524L185.32770996093754,152.60488672193256L185.45155664062506,152.76774742901327L185.56989257812498,152.4822844121673L185.80463085937504,152.61308850262384L185.92180664062502,152.49911673396934L186.03840234375002,152.56119860320266L186.2856123046875,152.9211707435948L186.40423828125003,153.02229929377773L186.521220703125,153.06483566084316L186.64139355468754,152.7117975110395L186.76562695312504,152.79115139544234L186.88125585937502,152.72867256679456L187.12092480468752,152.90914536988817L187.47941308593755,152.6832259304073L187.59716894531252,152.61988629088734L187.82862011718754,152.28990776758047L188.30786132812503,152.25289576846208L188.42938769531253,152.4218036584292L188.67804785156252,152.2081837159643L189.15380859375003,152.46319430863178L189.38912695312501,152.72257605777463L189.62502539062504,152.71046742821233L189.8728154296875,153.3961735003479L189.988154296875,153.19940874883352L190.10504003906254,152.9141632177597L190.225599609375,153.11722326571194L190.4731962890625,152.56490664657622L190.83178125,153.37376546412347L190.956498046875,153.20424160065758L191.19287988281252,152.86338897197226L191.31343945312503,152.49508614330756L191.432162109375,152.58166540475432L191.67598828125,152.38255983966545L192.14372460937503,152.59590653948217L192.3856171875,152.6845922291791L192.503953125,152.81872279224433L192.74797265625,153.4094718922561L192.87539648437502,153.63087718120076L193.23456152343752,152.68496141040296L193.3579248046875,153.13169299323107L193.958208984375,153.12800653216308L194.08524609375002,153.08068395978088L194.20068164062502,153.31480973394602L194.31863085937502,153.2007812601603L194.5530791015625,152.8594868945265L194.802029296875,153.11603852558693L194.91910839843752,153.2908659810013L195.03860449218752,153.42023514875527L195.1550068359375,153.30019383260137L195.28223730468753,153.2381596740884L195.40637402343754,153.05710976825426L195.76466894531254,152.62216811996643L196.12441406250002,152.40705136919095L196.36185937500002,152.9902329738058L196.611486328125,153.06225675152805L196.7323359375,153.09642725146776L196.85821289062503,153.3590002886418L196.98176953125005,153.55795750347917L197.10977343750002,153.5378473523582L197.5847607421875,153.70752409510493L198.06719238281252,153.78648023146903L198.30144726562503,154.1274710995087L198.42800097656252,153.64302689120672L198.7772080078125,153.56354351593177L198.89312695312503,152.91008872378106L199.02364453125003,153.02535849997705L199.36231347656252,152.8433396843793L199.71519433593753,152.8740394316204L199.82647265625002,152.69154969384977L199.938041015625,153.01066248868693L200.17248925781252,152.47891056364378L200.28589453125005,152.92637030703457L200.39958984375002,152.7451178917283L200.75508105468754,152.89501845771042L200.98353515625,152.53209813848062L201.0963603515625,153.00095721188686L201.20976562500002,152.98168861873503L201.32984179687503,153.11156441628017L201.44353710937503,153.49183458683157L201.55665234375002,153.42134834125363L201.7845263671875,153.53354967926956L201.90914648437501,153.25563107850613L202.34091796875,153.28726924774165L203.011875,153.49369535147508L203.54458007812502,153.78368940531826L204.5507255859375,154.0229847200219L204.6770859375,153.8108441753417L204.7945517578125,154.23130356997538L204.90940722656254,154.2560106738227L205.3784970703125,154.3399658742926L205.72035644531252,154.3220827491565L205.84159277343753,154.14593140442977L206.08077832031253,154.08144107149835L206.20723535156253,154.12495024640708L206.32943847656253,154.20611775546337L206.45599218750002,154.29541474603508L206.6988515625,154.5726450173702L206.9452880859375,154.26840495805908L207.07232519531254,154.13943920983544L207.19269140625005,154.16360923864104L207.44173828125,153.8935606148537L207.56461816406252,153.6871985691984L207.69039843750002,153.5991684554934L207.9335478515625,153.6794118220054L208.16925292968753,154.02075398634167L208.90150488281253,153.96188497969953L209.14842480468752,154.18135572142162L209.6478720703125,154.4408030105365L209.75837695312498,154.6200039276755L209.87642285156252,154.08071508966813L210.3337177734375,153.67790632523852L210.9271376953125,153.63911165912333L211.04199316406252,153.81403237056364L211.51475683593753,154.1750928186221L211.98413671875002,154.45860495838943L212.331796875,154.4362306851732L212.68796484375002,154.54884267988237L212.8009833984375,154.3374114245538L212.9150654296875,154.21391141476417L213.263015625,154.11495483744363L213.379224609375,153.89136955689864L213.73326562499997,153.88014388954977L213.84744433593752,153.559734511993L213.96075292968752,153.4343856166622L214.0729013671875,153.15413611991315L214.18543652343755,153.35419346337653L214.998802734375,153.79993750366108L215.117138671875,153.79904339575654L215.2260966796875,153.88733068433825L215.3378583984375,154.01208277052189L215.5739501953125,154.01958867531528L215.6907392578125,154.1110347107522L215.808978515625,154.26318480535093L215.9219970703125,154.312286042951L216.0455537109375,154.55888518293375L216.15663867187502,153.9850008837724L216.272654296875,154.22694534402427L216.38576953125002,154.31994767555037L216.50120507812503,154.35646794993923L216.8509921875,154.43012149921964L217.08505371093753,154.56545311196882L217.67170605468752,154.12580204298638L217.78443457031253,154.06878248409575L217.9045107421875,153.86997409902787L218.13596191406253,153.61031814633205L218.946041015625,153.83787785140078L219.1835830078125,153.90651205363133L219.7572802734375,154.2826823922747L219.867205078125,154.379857991827L220.32952734375002,154.71643792833078L220.5601083984375,154.37922125496488L220.6763173828125,154.05903887197007L220.9071884765625,153.97099677860245L221.0210771484375,153.9574319912816L221.248177734375,154.0679118131078L221.3691240234375,154.46751470749618L222.06077050781252,154.7613270847556L222.17427246093752,154.9115103995482L222.28748437500002,154.92180467558165L222.86446875,154.88268999621806L222.9817412109375,154.93318859258613L224.02414160156252,154.66180603136397L224.1403505859375,154.7583020327999L224.4866572265625,154.53456343620286L224.603349609375,154.0528313222267L224.72004199218753,154.31972882655597L224.83460742187498,154.50092972900688L224.95855078125,154.45801264451222L225.073212890625,154.0857445193795L225.1883583984375,153.68306012277247L225.42164648437503,154.23965792470025L225.65164746093754,154.13060918815643L225.7674697265625,153.76162559825983L225.8854189453125,154.54000901034036L226.11619335937502,154.51608706433998L226.2326923828125,154.60330447452375L226.4556357421875,154.54167909642143L226.6917275390625,154.5987501236097L226.80561621093753,154.9131555308822L227.02865625,154.4177581191017L227.14254492187501,154.036061709683L227.6074775390625,154.1288734878285L227.72146289062502,154.04744383533986L227.95861816406253,153.57724669317878L228.07550390625002,153.9266450595559L228.18639550781253,154.269742338813L228.2971904296875,154.0842788061512L228.53492578125002,154.1150085400513L228.649587890625,154.4057328605147L228.760189453125,154.0676641620745L228.882005859375,154.10394926495468L229.3426845703125,154.67961590988978L229.5669814453125,154.47870074431407L229.69063476562502,154.26964175480245L229.80229980468752,154.52995832917586L230.04022851562502,154.59564299081262L230.27680371093754,154.49641211067515L230.50728808593755,154.53599487683104L230.7464736328125,155.0482407723504L230.86683984375003,154.7023455658339L230.98101855468752,154.63139598178108L231.2076357421875,154.9974444132933L231.3235546875,154.68654570845462L231.443244140625,154.91416990298828L231.55703613281253,155.25461832226776L231.6716015625,155.15929024325504L231.788583984375,154.85386528208778L232.02467578125,154.5042966395531L232.1448486328125,154.743484551197L232.50014648437505,155.12753516513342L232.619642578125,155.10659231427616L232.84268261718753,154.80505430455443L232.95715136718752,155.0740314376949L233.310322265625,155.37523116647432L233.424984375,154.9127677060103L233.541,155.13882420277753L233.6536318359375,155.33035163851096L233.77438476562503,155.20869080721607L234.00506249999998,155.41904200721436L234.46844824218752,155.36897816208014L234.698255859375,155.43762500173239L234.81079101562503,155.19125858542608L234.9298037109375,155.18301504881282L235.27997753906251,155.09465373827226L235.397056640625,155.1992355801871L235.63276171875003,155.2090317265571L235.74684374999998,155.27961341939292L236.091990234375,155.73226382511373L236.2169970703125,155.88186260418604L236.33272265625004,155.45363820407695L236.4490283203125,154.96956302629437L236.68134960937502,155.14418974950735L236.918021484375,155.17790898668932L237.145798828125,155.45651920268202L237.25765722656251,155.42546576203102L237.4924921875,155.6419004190256L237.6037705078125,155.41604731609166L237.72026953125004,155.22490998312946L237.83415820312499,155.1728007236699L238.07450390625004,155.0741296379966L238.41733007812502,155.10442761974565L238.54079003906253,155.14460776061762L238.65757910156253,155.24526728522798L238.7726279296875,155.04744761188044L238.88941699218748,155.04866783889386L239.233693359375,155.0947914452958L239.352416015625,155.38664919272168L239.7063603515625,155.25121866490957L239.8217958984375,155.01440818450217L239.93143066406253,155.01886026493798L240.1565009765625,154.9811352387087L240.2706796875,154.37588292384788L240.39230273437502,154.16746655148327L240.84544042968753,154.34747877010577L241.19261718750002,154.88624758079789L241.3085361328125,154.98094767310758L241.427162109375,154.74193383875973L241.7853603515625,155.13954505912736L241.90156933593752,154.85457149907407L242.0189384765625,154.92564755023014L242.1390146484375,155.381921424511L242.25048632812502,155.45488861660917L242.47952050781254,155.4613760422947L242.593892578125,155.52303993931739L242.71435546875,155.62479575197514L243.059888671875,156.02111695404852L243.1729072265625,156.21278689674685L243.41044921875002,156.09050184086976L243.52366113281252,155.89999295259398L243.63706640625,155.76565049010716L243.9987451171875,155.49849376683898L244.22874609375,155.62236745610028L244.3389609375,155.54284980838736L244.46251757812504,155.7040572317609L244.5763095703125,155.76853146701433L244.6896181640625,154.66556262755566L245.0481064453125,154.95914672972174L245.38957910156248,155.03466005042225L245.50617480468753,155.07071303593318L245.859732421875,155.41182287508207L245.97130078125002,155.16626214857183L246.43284960937498,155.29256067743523L246.779736328125,155.3442552931075L246.90232617187502,155.44296508061134L247.14073828124998,155.3249997349217L247.36774218750003,155.38634133186113L247.60586425781253,155.3960646230025L247.72004296875,155.57350381893718L247.83586523437504,155.13760076951485L247.9591318359375,154.9789991023359L248.4166201171875,155.4829862068425L248.53369921875,155.03232784083556L248.65532226562502,155.46058909439054L248.89093066406252,155.51801231897588L249.0055927734375,155.65416247268365L249.117837890625,155.7235584323072L249.5798701171875,155.62585467267633L249.81605859375,155.93567779300136L250.049056640625,155.75977711894987L250.2744169921875,155.77294268619346L250.39584667968754,156.0344154049183L250.6239140625,156.03604263271242L251.08845996093748,156.0673104806428L251.3152705078125,156.37281084017607L251.42664550781254,156.1737199891823L251.77652929687505,156.2211550797191L252.11867871093753,156.205763288665L252.58825195312502,156.27840333914813L252.8227001953125,155.79231295861797L252.935138671875,155.4393103516416L253.28598925781253,155.2768255851999L253.7556591796875,155.24902241693673L253.872931640625,155.42610917575476L253.9944580078125,155.24589384277326L254.1097001953125,155.4436152991795L254.45610351562502,155.56561123234889L254.57656640625,155.40928155180077L254.6907451171875,155.54716678503365L254.91842578125002,155.65833550961196L255.0331845703125,155.6776326176715L255.1575146484375,155.83984086147282L255.3903193359375,155.76366170240786L255.5161962890625,155.35484114772993L255.87265429687503,155.33253168483003L255.98847656249998,155.06127037764335L256.2231181640625,155.331687191545L256.4609501953125,154.99170587434602L256.576482421875,155.03472211453945L256.690951171875,155.1710047369274L257.1665185546875,155.33312687546444L257.5232666015625,155.67551901298478L257.6383154296875,155.69396030845147L257.74998046875004,155.6367755539639L257.8640625,155.8487749888499L258.2199404296875,155.86126533819325L258.56489355468756,156.01247986170594L258.68052246093754,155.9318913222131L258.8022421875,155.99261907330177L258.912650390625,155.85988719815626L259.026732421875,155.7515824640885L259.257216796875,155.95432190044926L259.60845410156253,155.86667530232467L259.959884765625,155.673291543631L260.4151494140625,155.7599960283578L260.5423798828125,155.9695228767804L260.6543349609375,156.3313252229936L260.77112402343755,156.28937649317177L260.8823056640625,156.21038487876734L261.122361328125,156.19225794934582L261.23450976562503,156.24088427613913L261.7040830078125,155.86440596694194L262.0509697265625,155.77800034439502L262.16273144531255,155.77609190399826L262.5101982421875,155.43051523219955L262.6275673828125,155.12901963280848L262.7391357421875,155.40991088821633L262.8612421875,155.6609860174036L262.973583984375,155.5397228570631L263.21276953125,155.23859318760503L263.3255947265625,155.15811709834347L263.44779785156254,155.5378627464204L263.5634267578125,155.5281875365719L263.67915234375005,155.8009370425679" style="fill: none;" fill="none"></path></g></g></g></g><g opacity="0.2"><g><g><g><path stroke="rgb(204, 51, 17)" stroke-width="2px" d="M44.35905761718751,-1.4762358231978054L44.47555664062501,1.5483020652424186L44.598919921875,1.7654119296507473L44.715708984375006,-1.0257498784498806L44.83636523437501,0.5126351659948086L45.436552734375006,3.5818284208124425L46.393004882812505,7.287456555799997L46.745885742187504,10.406915870579812L46.86373828125,13.033698743039901L47.70185449218751,17.631609385663822L48.04825781250001,22.176232825626045L48.2861865234375,22.285415963693104L48.40345898437501,19.74904678084636L48.518604492187514,21.446190476417563L48.986437500000015,27.35544009642168L49.1104775390625,22.509623115712955L49.226879882812504,25.13423843817278L49.58585156250001,27.62110883539374L49.70302734375001,29.096328020095847L50.061708984375,29.800532406026676L50.5387265625,33.85263285853648L50.78641992187501,33.65505012598905L51.02647558593751,36.726315021514914L51.14519824218751,35.32580917531795L51.267788085937504,36.794564073736026L51.38206347656251,38.54556083679201L51.62163574218751,38.176463517275735L51.868072265625,39.282988201488166L52.102037109375,38.238229101354435L52.45588476562501,38.994003913619316L52.573060546875006,35.55008346384223L52.691783203125006,40.029076175256215L52.924877929687504,39.350374070080846L53.053558593750004,40.19992898810996L53.17073437500001,45.08536609736356L53.534830078125005,42.2657096385956L53.7773994140625,46.62506509910932L53.899892578125,49.74778532981875L54.140141601562505,49.851808547973654L54.265438476562515,51.65897938338193L54.62489355468751,56.0902380401438L55.21812011718751,62.78061129830102L55.333749023437505,61.19118332862856L55.45575878906251,62.758341160687536L55.689046875,61.199575391682714L55.80390234375001,64.4252254746177L56.03999414062501,63.42209100723269L56.287397460937505,70.10188547047703L56.406603515625015,61.47569824348798L56.52561621093751,65.2963120287115L56.647142578125006,65.03152565522629L56.899379882812504,71.56497212973508L57.0155888671875,74.81476258147849L57.85486523437501,75.60753919861536L58.35054199218751,78.70137155056001L58.840804687500004,68.10548560185867L58.9611708984375,79.84463908455591L59.085114257812506,79.10542780702765L59.57605371093751,81.47155320102519L59.69477636718751,77.50976573337208L59.938892578125014,85.51238910718399L60.296510742187515,85.7266792384061L60.42209765625001,82.89661662145096L60.77720214843752,87.41802042180842L60.898921875000006,87.53934567624873L61.149418945312505,90.9526614709334L61.26949511718751,88.1021701747721L61.3887978515625,92.17189395969565L61.63745800781251,92.09134454076941L61.7574375,95.272339257327L61.874806640625,95.52914597771384L61.991982421875015,96.2357768687335L62.11292871093751,93.97130573337729L62.23213476562501,95.27949409051377L62.5951669921875,98.66300127723001L62.9669970703125,94.98147514733402L63.44817187500001,99.87742391499607L63.5733720703125,100.6188267198476L63.80975390625,100.64199360934171L64.0498095703125,101.9053635543043L64.17462304687501,103.81638017567722L64.78670214843751,103.79891509359534L65.14403027343751,104.0541249242696L65.26371972656251,103.34825651212174L65.3919169921875,106.8273373083635L65.51044628906251,107.35592218962583L65.74798828125,109.68443195928229L66.23196679687501,108.44654511321677L66.470765625,111.64102467623624L66.7206826171875,111.73417657613754L66.96325195312501,111.00613393566825L67.5592822265625,114.3831864270297L67.8031083984375,114.43462737581946L68.27123144531251,115.31072519042276L68.8700654296875,116.46909843791617L69.11234472656251,115.7023084434596L69.23648144531249,119.89001024853101L69.59303613281251,123.04389620369132L69.83869921875001,120.03762423992157L69.95819531250001,120.05987040021203L70.07324414062501,119.39708444205198L70.32306445312501,111.44447776404294L70.44294726562501,115.14997162602164L70.56273339843752,113.3690655502406L71.05889355468751,115.58972532098944L71.17935644531252,117.83000333742663L71.41496484375001,118.79457267847928L71.78466796875,120.34820250489496L72.277734375,119.42432747645813L72.39984082031252,121.77631104534323L72.5206904296875,123.30279134891249L72.637189453125,122.6791243932464L72.8851728515625,120.60703770680863L73.24114746093751,122.40690984509207L73.366541015625,124.3665836480531L73.48168652343752,129.56927670673892L73.83988476562502,127.28565248576078L73.96827539062501,124.73201483488083L74.20204687500001,126.81354379112071L74.92405078125,124.03308066454801L75.16149609375,127.01004035093568L75.5223046875,126.38787437569013L75.6421875,127.50888615846634L75.89084765625,125.78393835913053L76.01227734375001,127.24974404681815L76.6156552734375,125.6583499366587L76.74066210937501,125.87311002341184L76.97414355468752,129.1925857690248L77.21883984375002,128.23536307974294L77.33678906250002,125.81292694265193L77.4581220703125,131.75309292294762L77.82347460937501,129.7625531120734L77.94200390625001,131.64392417127436L78.06382031250001,129.7382305156101L78.31093359375002,128.10068725184962L78.4265625,129.2384807630019L78.664201171875,131.24682613394478L78.7849541015625,127.26490251042627L79.02945703125,129.2417272925377L79.2640986328125,130.42258407581937L79.5108251953125,130.21378235383466L79.62809765625,129.5799082517624L79.74556347656251,133.20285778154027L79.98474902343752,128.5136510838162L80.11497656250002,133.24544150720945L80.4646669921875,129.19751550663602L80.58648339843752,130.85714668035507L80.70868652343752,129.62894667278638L80.825765625,127.19693159515208L81.06514453125001,129.51804196292704L81.18145019531251,128.27100297266787L81.302783203125,131.2078006430106L81.4391015625,133.33141939206558L82.5226875,131.68659901077098L82.64914453125002,132.3684421452609L82.88281933593751,131.22364246032456L83.2489453125,133.03563513539055L84.09566601562501,132.51631748947233L84.2131318359375,132.35118806362152L84.69701367187501,132.73947683247656L84.81418945312501,134.56196438182485L84.93300878906251,132.80262351036072L85.18389257812501,134.6666877378117L85.42288476562501,132.14284910397097L85.905703125,133.66228247230703L86.99576660156251,133.0671173605052L87.112265625,134.4773867726326L87.226927734375,134.37752841548487L87.34410351562501,134.29084080186757L87.58812304687498,133.5211951082403L87.7085859375,132.6739995587956L88.0675576171875,133.41903492808342L88.43329687500001,133.6181498115713L89.271123046875,136.56832922588697L89.39458300781251,132.57117520679128L89.517076171875,134.91271904923698L89.66180566406251,133.83595022288236L89.91694335937501,135.06153909997508L90.05113476562502,137.74910688400269L90.1703408203125,133.4650522064079L90.4137802734375,135.44308065013453L90.53782031249999,134.40568978136236L90.66978808593751,133.45518074252388L90.915837890625,137.21867095340383L91.16072753906252,136.49234029379758L91.28950488281251,135.9819949621504L91.7748369140625,135.61275617642838L92.631515625,139.33788027275693L92.9924208984375,137.17969821258023L93.11839453125002,137.29418992996216L93.35487304687503,137.27767195213926L93.58893457031252,136.9939075274901L93.95718750000002,137.13752929459918L95.28962695312501,137.84958625381643L95.663970703125,137.49311059713364L95.78201660156252,137.00897727500308L95.899095703125,139.55889124761927L96.13441406250001,136.90286083654925L96.38288085937499,139.49503723870623L96.50315039062501,137.16002242131665L96.74291601562501,137.76885940269992L97.34000976562501,137.3700853504918L97.46588671875003,139.23933107744563L98.1698115234375,137.56094963713124L98.410060546875,141.2938591702418L98.52868652343751,140.95899187705734L98.65514355468751,140.032445774837L98.77454296875003,139.47107909755275L98.8949091796875,140.3861424597827L99.013341796875,138.7954412942583L99.132451171875,139.75155383348465L99.261421875,138.78221540288493L99.38188476562502,139.34258702126417L99.5014775390625,139.60450570691717L99.7400830078125,138.5594876516949L100.10756250000003,138.59826138073748L100.22734863281252,139.43387588316745L100.34326757812502,136.3953999768604L100.588447265625,139.32338598099622L101.08093359375002,138.89710514382884L101.3323974609375,140.9412150897763L101.57690039062503,139.89907431331548L101.6957197265625,141.47788152775982L102.06484277343752,140.5346004529433L102.18975292968753,140.60749631036413L102.3144697265625,140.27504593133926L102.57772851562501,140.87164968252182L102.84272753906251,140.52476735277608L103.16225390625002,140.8625335043127L103.42792968750001,141.33329946886408L103.54674902343753,141.7369972643527L103.90649414062503,139.93407880718058L104.14384277343751,140.67279615185478L104.26382226562501,142.2452505745671L104.39443652343752,141.47998194125566L104.51412597656253,139.38845084472135L104.63487890625001,140.89897064322776L104.75611523437503,141.5643893114545L104.99655761718752,139.4855206392028L105.11131640625001,140.8409970727834L105.71672460937502,140.06073661825874L105.83660742187502,141.84644535183907L106.07008886718752,141.7657796428962L106.18842480468753,140.29144881801173L106.32029589843751,140.75136983936483L106.67791406250002,139.20359527522868L106.92183691406251,141.02292141453788L107.15667187500003,140.74241910468447L107.39112011718753,141.38647637583992L107.63020898437502,141.23569498007947L107.864947265625,139.0175911919637L107.98270312500001,142.85586907105014L108.10974023437501,140.77345295385882L108.46532812500001,140.01010610298678L108.94195898437502,143.29416854137725L109.05681445312501,142.25370018319651L109.30431445312502,141.75223125652835L109.42139355468753,140.86334873329508L109.65729199218752,141.12608864226124L110.14030371093753,141.59054017879745L110.26299023437501,142.7793622287837L110.51165039062502,144.33208811012182L110.752576171875,142.92430394752458L111.59649316406251,141.9611720469865L111.72285351562502,143.00540364601395L111.95681835937502,140.79919620671055L112.0767978515625,142.24680430509827L112.19300683593752,141.7724849012765L112.31337304687501,142.99528042023832L112.4384765625,143.14428989182818L112.55768261718752,144.67038056389853L112.79793164062501,141.72517644410783L112.91530078125001,142.94007023627108L113.40256640625003,143.7168683653528L113.52022558593752,143.491077511148L113.76965917968751,140.42021183805034L114.00971484375002,143.7265971641649L114.37729101562502,142.1408005600626L114.62160058593751,142.2850841012868L114.73751953125002,143.0845623802055L114.86416992187502,143.3167156170715L115.22188476562499,145.45224150473422L115.34350781250002,143.58843503350562L115.47286523437502,143.77906793897802L115.59516503906251,143.43986794352531L115.71456445312502,144.40215943889186L115.95462011718752,143.6940023912625L116.08243066406251,145.76950224963102L116.201443359375,143.5770829699256L116.435794921875,144.24607905474576L116.55625781250001,143.1086811694232L116.68252148437503,144.55620175058192L116.80153417968751,143.00323249941522L116.91677636718751,144.15444012392652L117.03366210937502,145.2239354293455L117.27681152343752,144.327225509015L117.39514746093752,143.18183358420026L117.75556933593752,144.23663918267596L118.24051464843751,144.18606141751462L118.61128125000002,143.55755823579702L118.73155078125001,145.704255158251L118.85104687500002,143.0467813123356L119.09380957031253,145.97883866591886L119.21852636718752,145.20563953302124L119.33937597656251,143.7877824970267L119.4550048828125,144.16505128822544L119.6880029296875,145.23408023471183L119.81165625,144.2672774060206L119.92960546875,143.4258615902879L120.40449609375003,143.83769728920677L120.88112695312502,144.87064635889098L121.00719726562501,144.42212775349617L121.24406250000001,145.49438884312457L121.35891796875002,145.64488370987502L121.47938085937501,144.40625236792997L121.60554785156252,146.39352526854384L121.73074804687502,144.58153738894245L121.85092089843751,144.92486867715013L122.21956054687502,146.2058751420541L122.334416015625,146.87020044435155L122.45188183593753,145.55329393256795L123.06106054687501,145.08489932526243L123.30237304687499,146.31008658219469L123.43376074218752,145.717931823297L123.55548046875,145.4569986056198L123.67778027343752,143.96477230570534L123.91735253906252,143.13275440172717L124.28454199218753,145.71008404547518L124.40374804687502,144.44901592352173L124.764169921875,146.05482759800825L124.88579296875001,146.37336993082002L125.0082861328125,145.55214541879567L125.2445712890625,146.7089505493641L125.49197460937502,145.90919892896306L125.84775585937503,146.29719277674502L125.9745029296875,145.24487482553178L126.20701757812502,145.45768435705793L126.57275683593753,144.68594544313171L126.69167285156253,145.8547967807813L126.80739843750001,146.01325811310247L127.04755078125001,146.64747509089383L127.17632812500003,145.8086859908971L127.2951474609375,146.8670054660602L127.41096972656253,145.0365946103226L127.52891894531253,144.79384579441765L127.64841503906248,145.19980824806473L127.77477539062501,145.21122025495225L128.250439453125,147.44512989439747L128.37631640625,144.96449480002576L128.84511621093753,147.63120471076533L128.9704130859375,148.0079963532361L129.20959863281252,147.2605045072057L129.44656054687502,145.33103853464127L129.697734375,145.6817428496751L129.81926074218748,147.33855429020795L129.9379833984375,146.7087539353154L130.05341894531253,146.79916163059798L130.17861914062505,146.22801939872178L130.29540820312502,147.1599735861475L130.52386230468753,146.11524325880137L130.75995410156253,146.70730570500547L131.00242675781251,147.04575880684635L131.3541474609375,146.3542048565366L131.476640625,146.75075740976766L131.59149609375,146.08174933628604L131.7066416015625,147.56575261327353L131.82739453125,145.60995234684512L132.315240234375,147.56712531501597L132.55548925781252,147.16290121728724L132.6873603515625,147.88078826259482L132.93118652343753,147.83725863153285L133.29711914062503,145.6745424595746L133.53930175781252,147.93437038632956L133.65841113281252,147.11003361777827L133.77433007812502,148.8567408377474L134.135138671875,147.0553209632635L134.50194140625004,147.5869725441391L134.62298437500002,146.69977562671357L134.864490234375,147.78766753321344L135.110056640625,147.80262818390673L135.34489160156252,148.51674119857225L135.46322753906253,148.29758247191256L135.9540703125,148.25046223672953L136.1896787109375,146.78723051466724L136.31226855468753,148.5099064626477L136.43002441406253,148.2173759287054L136.5456533203125,147.99610479988834L136.904431640625,147.5901099768552L137.1470009765625,148.15308193591508L137.6308828125,147.25193980742586L137.8703583984375,147.05040321431377L137.99169140625003,148.47646289251068L138.10964062500003,147.60255900296298L138.23899804687503,148.237322663719L138.3566572265625,145.8468423038721L138.84798339843752,146.86092241921207L139.08484863281254,147.6897873052142L139.206375,147.8699804842472L139.569697265625,148.6161571741104L139.68977343750004,149.49288799004123L139.80984960937502,149.0952180935578L139.9309892578125,148.54217514395714L140.0610234375,147.61256473985586L140.29721191406253,148.151457472281L140.419318359375,148.39713631705806L140.5375576171875,147.1650915457444L140.66575488281254,146.97435553778303L140.91393164062498,149.04466670345175L141.280734375,148.24643884192812L141.52011328125002,146.49689030918208L141.64183300781252,148.31086830659345L141.8887529296875,149.89969804205677L142.00747558593753,148.14007303931496L142.1308388671875,149.06396125527945L142.37012109375002,148.62028127366847L142.4966748046875,148.87055657126686L142.7312197265625,148.54635798795655L142.8557431640625,148.59536883505908L143.701787109375,150.81614369695836L143.8281474609375,149.44285211237994L143.94735351562503,148.76252194697207L144.0658828125,148.98064605214378L144.1854755859375,147.47830371965063L144.30303808593752,148.05119389837438L144.42852832031255,148.15406380729243L144.66984082031252,148.77472640438512L144.79098046875,147.76909829540685L144.91154003906252,147.8663239424879L145.2731220703125,147.26515490900385L145.3947451171875,147.8794563223015L145.5198486328125,148.5189722884785L145.65181640625002,149.1785249046304L145.88539453125003,150.68238620053637L146.61812988281253,149.04746006158265L146.73549902343748,149.61704736406153L146.86495312500006,149.55755722793666L147.101431640625,150.17954577099192L147.5814462890625,150.12733754786578L147.940998046875,148.8515569405122L148.305673828125,149.09899931739676L148.78346484375,147.7785837243904L149.13441210937503,149.76114388216627L149.25226464843755,149.80002910576084L149.3777548828125,148.2312923669815L149.61326660156254,148.5383004085584L149.7317958984375,149.32304821908474L149.850228515625,147.5764620845968L150.09308789062501,149.779690341516L150.21045703125,150.3719949586825L150.32995312500003,150.5985914509405L150.44935253906252,149.18901498344812L150.57155566406252,149.62770768187264L150.8072607421875,149.8306445506486L150.9236630859375,150.5870259891857L151.1629453125,149.37925825742158L151.39855371093753,149.5956667851318L151.52327050781253,150.49099681052294L151.768740234375,150.20186865871602L152.006572265625,148.4143568304452L152.1250048828125,150.51452335986224L152.24595117187502,147.67509040507403L152.37086132812502,150.1228501918641L152.72741601562504,151.10672607340595L152.84236816406252,149.93895491415805L152.969115234375,149.83640510250223L153.31696875000003,148.88334607536143L153.43569140625002,149.97011224654588L154.38837304687502,149.8771293867718L154.74908496093752,150.8234927464615L154.86761425781253,151.50690160014412L155.1011923828125,149.92935799062252L155.33680078125,150.29206415468997L155.46731835937499,150.70667642761362L155.821166015625,149.72758881747723L155.94172558593752,150.21843698891726L156.19144921875,150.3959602930329L156.30949511718748,151.31025877865878L156.4268642578125,150.20216837525368L156.54723046875,150.11181942441246L156.910359375,150.35745031454346L157.88228027343754,151.66899489746854L158.0029365234375,151.00709310309455L158.1249462890625,150.3340664302761L158.358234375,150.5644213679162L158.60051367187504,149.88065165552226L158.71942968750002,149.96932818808338L158.83911914062497,151.06283078816804L159.07927148437503,150.5830577422272L159.31130273437498,151.35257815434173L159.4301220703125,150.91768046671694L159.54720117187497,151.24247009103948L159.90510937500002,150.9685201841322L160.02267187500001,149.86809473146093L160.14062109375,151.1097879775546L160.7380048828125,149.4586723501032L160.9800908203125,150.72273284196854L161.09397949218751,152.00399646366185L161.33480859375,151.56351445750758L161.45575488281253,151.13386600532314L161.698517578125,150.69557852365753L162.41810449218755,151.26256908205423L162.538857421875,151.7942913960327L162.78577734375003,151.1588257991455L163.023029296875,151.11685948954388L163.50169042968753,151.33653312921524L163.73845898437503,151.25576671551573L163.98663574218753,150.11223303323442L164.2247578125,152.1819999136708L164.4624931640625,150.81922957843L164.70941308593748,152.33416360210288L164.8271689453125,151.54917601834643L164.94328125,151.47255888039416L165.05910351562503,151.3137258995663L165.18594726562497,150.13667911291122L165.659291015625,151.37669694355944L165.90553417968752,151.17057049138978L166.02754394531252,151.26369481736964L166.7499345703125,151.65997462855145L166.99714453125,152.32836528596553L167.2275322265625,150.37803964181379L167.34760839843753,150.4246947169304L167.4642041015625,152.2522031177174L168.18185742187498,151.7551687969403L168.54537304687503,152.8449129516428L168.7836884765625,151.48544609208L169.21981054687498,153.5239033841274L169.599181640625,152.804218639027L169.721384765625,151.64515484463084L169.97255859375002,153.30059238455513L170.0925380859375,150.93360740352762L170.217931640625,151.13324739038944L170.33452734375,152.1767560731281L170.57583984375003,151.0716040906581L170.69494921875,151.58722323450175L170.937228515625,152.34266056594524L171.0560478515625,150.31735543500292L171.173513671875,151.26117959618568L171.53625585937502,151.17341540076515L171.65169140625002,152.10017130456188L171.89339062500002,152.51566894013774L172.8591240234375,152.46327009729364L172.98016699218752,151.9802960787307L173.0975361328125,151.32753683762118L173.2201259765625,152.28544527834111L173.576197265625,152.16049645096064L173.6931796875,152.3001997240565L173.81045214843752,150.20734987475655L174.1762880859375,152.59162250567567L174.29713769531253,152.07609147849408L174.4164404296875,151.7890421605923L174.7816962890625,151.79417270828378L176.20810839843753,152.88250579752705L176.57616796875,151.49846997450697L176.81545019531254,152.84434169192207L176.9415205078125,152.4758000468666L177.17828906250003,152.79372376474467L177.29304785156253,151.67655614628032L177.4129306640625,152.36730266023767L177.66497460937504,151.69078009372407L178.02046582031252,151.12167893146926L178.1453759765625,152.54528872668743L178.26129492187502,151.24917654828593L178.381177734375,152.94415329328993L178.50135058593753,151.14034347913483L178.62007324218752,152.7486140280962L178.74904394531254,152.2900926829739L178.86825000000002,152.49772491102868L179.10395507812504,152.6363234289668L179.34633105468754,152.16141418299893L179.46302343750003,152.30317171324384L179.7009521484375,153.26938949525356L179.93994433593753,152.97030476006594L180.18319042968753,152.45409997010773L180.30084960937504,152.83188727091658L180.41647851562502,152.1160502867265L180.53761816406254,152.70625568926334L180.66378515625001,151.92847089333966L180.7824111328125,152.89332796226847L181.262232421875,153.03712356496942L181.85971289062502,151.92318629134786L181.97766210937502,153.29768992960453L182.214140625,152.78631836853245L182.328416015625,152.9745355587114L182.45274609375002,152.73389554836533L182.81954882812502,152.58484531532633L182.9368212890625,152.49504724348134L183.0634716796875,154.25718566910788L183.30372070312504,154.2706549303098L183.66375585937502,153.41593529690397L184.01625,152.15090672062203L184.26326660156252,152.7753043852069L184.49974511718753,153.73803586445072L184.62136816406252,152.75133365595883L184.86142382812506,152.60667546906254L184.97850292968752,152.85267800770023L185.32770996093754,152.21731371500275L185.45155664062506,153.01203848963434L185.56989257812498,152.05408988689834L185.80463085937504,152.80929463830861L185.92180664062502,152.32815908098763L186.03840234375002,152.6543214070526L186.2856123046875,153.46112895418298L186.40423828125003,153.1739921190522L186.521220703125,153.1286402114413L186.64139355468754,152.182240286334L186.76562695312504,152.91018222204664L186.88125585937502,152.6349543238228L187.12092480468752,153.1798545745286L187.47941308593755,152.34434677118605L187.59716894531252,152.52487683160737L187.82862011718754,151.79493998262015L188.30786132812503,152.19737776978448L188.42938769531253,152.67516549337995L188.67804785156252,151.88775380226699L189.15380859375003,152.84571019763297L189.38912695312501,153.1116486814889L189.62502539062504,152.69230448386887L189.8728154296875,154.42473260855132L189.988154296875,152.90426162156191L190.10504003906254,152.4862949211489L190.225599609375,153.42181333764032L190.4731962890625,151.73643171787262L190.83178125,154.58705369044435L190.956498046875,152.9499558054588L191.19287988281252,152.35211002894422L191.31343945312503,151.94263190031052L191.432162109375,152.7115342969244L191.67598828125,152.08390149203214L192.14372460937503,152.9159265892072L192.3856171875,152.8176207637245L192.503953125,153.01991863684222L192.74797265625,154.29559554227373L192.87539648437502,153.9629851146178L193.23456152343752,151.2660877542062L193.3579248046875,153.80179036747325L193.958208984375,153.1224768405611L194.08524609375002,153.0097001012076L194.20068164062502,153.6659983951937L194.31863085937502,153.02973854948175L194.5530791015625,152.34754534607583L194.802029296875,153.50086597217754L194.91910839843752,153.55310716412285L195.03860449218752,153.6142889003862L195.1550068359375,153.1201318583705L195.28223730468753,153.14510843631896L195.40637402343754,152.785534909503L195.76466894531254,151.96975564753467L196.12441406250002,152.08437624302778L196.36185937500002,153.86500538072804L196.611486328125,153.17029241811144L196.7323359375,153.14768300137737L196.85821289062503,153.75285984440282L196.98176953125005,153.8563933257352L197.10977343750002,153.50768212567675L197.5847607421875,153.96203920922497L198.06719238281252,153.90491443601522L198.30144726562503,154.63895740156823L198.42800097656252,152.91636057875374L198.7772080078125,153.44431845301932L198.89312695312503,151.929906535555L199.02364453125003,153.198263164271L199.36231347656252,152.57031146098268L199.71519433593753,152.9200890524821L199.82647265625002,152.4178150871938L199.938041015625,153.48933168094266L200.17248925781252,151.68128267607906L200.28589453125005,153.59755992212078L200.39958984375002,152.4732392687689L200.75508105468754,153.11986930668354L200.98353515625,151.987717659636L201.0963603515625,153.70424582199618L201.20976562500002,152.95278572900727L201.32984179687503,153.3063781125979L201.44353710937503,154.0622398426587L201.55665234375002,153.31561897288668L201.7845263671875,153.70185168629342L201.90914648437501,152.83875317736104L202.34091796875,153.3347265015949L203.011875,153.80333450707522L203.54458007812502,154.21868048608303L204.5507255859375,154.38192769207737L204.6770859375,153.4926333583214L204.7945517578125,154.86199266192588L204.90940722656254,154.29307132959366L205.3784970703125,154.46589867499742L205.72035644531252,154.29525806145236L205.84159277343753,153.88170438733968L206.08077832031253,153.9847055721012L206.20723535156253,154.1902140087702L206.32943847656253,154.32786901904777L206.45599218750002,154.42936023189262L206.6988515625,154.98849042437294L206.9452880859375,153.81204486909238L207.07232519531254,153.9459905875L207.19269140625005,154.19986428184941L207.44173828125,153.48848767917264L207.56461816406252,153.37765550071543L207.69039843750002,153.46712328493595L207.9335478515625,153.79977687177333L208.16925292968753,154.53276723284614L208.90150488281253,153.8735814697363L209.14842480468752,154.5105618340048L209.6478720703125,154.82997394420883L209.75837695312498,154.88880530338395L209.87642285156252,153.27178183265707L210.3337177734375,153.0736931785941L210.9271376953125,153.58091965995052L211.04199316406252,154.0764134377241L211.51475683593753,154.7166834907098L211.98413671875002,154.8838731680404L212.331796875,154.40266927534884L212.68796484375002,154.71776067194614L212.8009833984375,154.02026454156095L212.9150654296875,154.02866140007973L213.263015625,153.96651997146282L213.379224609375,153.5559916360812L213.73326562499997,153.86330538852647L213.84744433593752,153.07912044565785L213.96075292968752,153.246362273666L214.0729013671875,152.73376187478954L214.18543652343755,153.65427947857162L214.998802734375,154.4685535640879L215.117138671875,153.7977022338997L215.2260966796875,154.01976161721078L215.3378583984375,154.19921089979735L215.5739501953125,154.03084753250533L215.6907392578125,154.2482037639076L215.808978515625,154.49140994724902L215.9219970703125,154.38593789935112L216.0455537109375,154.9287838929079L216.15663867187502,153.12417443503034L216.272654296875,154.5898620344021L216.38576953125002,154.45945117283952L216.50120507812503,154.4112483615225L216.8509921875,154.54060182314026L217.08505371093753,154.76845053109255L217.67170605468752,153.46632543951273L217.78443457031253,153.98325314575976L217.9045107421875,153.5717615214261L218.13596191406253,153.22083421728829L218.946041015625,154.17921740900385L219.1835830078125,154.00946335697716L219.7572802734375,154.84693790023977L219.867205078125,154.5256213911555L220.32952734375002,155.22130783308637L220.5601083984375,153.87339624491605L220.6763173828125,153.5787652974779L220.9071884765625,153.83893363855103L221.0210771484375,153.93708481030032L221.248177734375,154.23363154584712L221.3691240234375,155.06691904907876L222.06077050781252,155.20204565064475L222.17427246093752,155.13678537173703L222.28748437500002,154.93724608963186L222.86446875,154.82401797717267L222.9817412109375,155.00893648713827L224.02414160156252,154.25473218953067L224.1403505859375,154.9030460349538L224.4866572265625,154.19895554130727L224.603349609375,153.33023315126246L224.72004199218753,154.72007508304986L224.83460742187498,154.77273108268326L224.95855078125,154.39363701777026L225.073212890625,153.5273423316804L225.1883583984375,153.07903352786195L225.42164648437503,155.0745546275919L225.65164746093754,153.96703608334064L225.7674697265625,153.20815021341497L225.8854189453125,155.7075841284611L226.11619335937502,154.4802041453394L226.2326923828125,154.73413058979943L226.4556357421875,154.44924102926797L226.6917275390625,154.68435666439208L226.80561621093753,155.3847636417909L227.02865625,153.674662001431L227.14254492187501,153.46351709555495L227.6074775390625,154.26809115504676L227.72146289062502,153.92529935660687L227.95861816406253,152.8719509799372L228.07550390625002,154.4507426091216L228.18639550781253,154.78438825769857L228.2971904296875,153.80608350715855L228.53492578125002,154.16110314090145L228.649587890625,154.8418193412098L228.760189453125,153.56056111441418L228.882005859375,154.15837691927499L229.3426845703125,155.54311587729237L229.5669814453125,154.17732799595052L229.69063476562502,153.95605327053502L229.80229980468752,154.9204331907359L230.04022851562502,154.69416998326778L230.27680371093754,154.347565790469L230.50728808593755,154.59536902606487L230.7464736328125,155.81660961562937L230.86683984375003,154.18350275605917L230.98101855468752,154.5249716057019L231.2076357421875,155.54651706056163L231.3235546875,154.2201976511966L231.443244140625,155.25560619478875L231.55703613281253,155.76529095118696L231.6716015625,155.016298124736L231.788583984375,154.3957278403369L232.02467578125,153.97994367575103L232.1448486328125,155.10226641866294L232.50014648437505,155.70361108603802L232.619642578125,155.0751780379902L232.84268261718753,154.35274728997186L232.95715136718752,155.47749713740566L233.310322265625,155.82703075964343L233.424984375,154.21907251531428L233.541,155.4779089479284L233.6536318359375,155.6176427921111L233.77438476562503,155.02619956027377L234.00506249999998,155.7345688072118L234.46844824218752,155.29388239437884L234.698255859375,155.54059526121074L234.81079101562503,154.82170896096662L234.9298037109375,155.17064974389294L235.27997753906251,154.96211177246138L235.397056640625,155.35610834305936L235.63276171875003,155.22372594611213L235.74684374999998,155.38548595864665L236.091990234375,156.41123943369496L236.2169970703125,156.10626077279449L236.33272265625004,154.8113016039133L236.4490283203125,154.2434502596205L236.68134960937502,155.40612983432683L236.918021484375,155.22848784246227L237.145798828125,155.87443452667105L237.25765722656251,155.37888560105455L237.4924921875,155.96655240451747L237.6037705078125,155.0772676616907L237.72026953125004,154.93820398368618L237.83415820312499,155.09463683448055L238.07450390625004,154.92612300948664L238.41733007812502,155.14987459236926L238.54079003906253,155.20487797192553L238.65757910156253,155.39625657214359L238.7726279296875,154.7507181018591L238.88941699218748,155.05049817941406L239.233693359375,155.16397685489872L239.352416015625,155.82443581386045L239.7063603515625,155.0480728731914L239.8217958984375,154.65919246389106L239.93143066406253,155.02553838559172L240.1565009765625,154.92454769936475L240.2706796875,153.46800445155665L240.39230273437502,153.85484199293634L240.84544042968753,154.6174970980395L241.19261718750002,155.69440079683608L241.3085361328125,155.1229978115721L241.427162109375,154.38341308723795L241.7853603515625,155.73596188967878L241.90156933593752,154.4271111589941L242.0189384765625,155.03226162696427L242.1390146484375,156.06633223593235L242.25048632812502,155.56433940475637L242.47952050781254,155.47110718082297L242.593892578125,155.61553578485143L242.71435546875,155.77742947096175L243.059888671875,156.61559875715864L243.1729072265625,156.50029181079432L243.41044921875002,155.90707425705412L243.52366113281252,155.61422962018034L243.63706640625,155.5641367963769L243.9987451171875,155.0977586819367L244.22874609375,155.80817798999223L244.3389609375,155.423573336818L244.46251757812504,155.94586836682126L244.5763095703125,155.86524281989443L244.6896181640625,153.01110936836764L245.0481064453125,155.3995228829709L245.38957910156248,155.14793003147298L245.50617480468753,155.12479251419956L245.859732421875,155.9234876338054L245.97130078125002,154.7979210588065L246.43284960937498,155.48200847073034L246.779736328125,155.4217972166159L246.90232617187502,155.59102976186708L247.14073828124998,155.14805171638727L247.36774218750003,155.47835372727025L247.60586425781253,155.41064955971459L247.72004296875,155.8396626128392L247.83586523437504,154.48374619538134L247.9591318359375,154.74109660156748L248.4166201171875,156.2389668636024L248.53369921875,154.3563402918252L248.65532226562502,156.10298097472298L248.89093066406252,155.60414715585384L249.0055927734375,155.85838770324534L249.117837890625,155.82765237174252L249.5798701171875,155.47929903323L249.81605859375,156.40041247348893L250.049056640625,155.4959261078726L250.2744169921875,155.79269103705883L250.39584667968754,156.42662448300555L250.6239140625,156.03848347440362L251.08845996093748,156.11421225253832L251.3152705078125,156.83106137947604L251.42664550781254,155.8750837126916L251.77652929687505,156.29230771552432L252.11867871093753,156.18267560208386L252.58825195312502,156.38736341487277L252.8227001953125,155.06317738782275L252.935138671875,154.909806441177L253.28598925781253,155.03309843553737L253.7556591796875,155.207317664542L253.872931640625,155.69173931398174L253.9944580078125,154.97557084330103L254.1097001953125,155.74019748378885L254.45610351562502,155.74860513210297L254.57656640625,155.17478703097865L254.6907451171875,155.75399463488296L254.91842578125002,155.82508859647945L255.0331845703125,155.70657827976075L255.1575146484375,156.08315322717482L255.3903193359375,155.6493929638104L255.5161962890625,154.74161031571302L255.87265429687503,155.29906749048016L255.98847656249998,154.65437841686335L256.2231181640625,155.73731241239742L256.4609501953125,154.48173389854756L256.576482421875,155.09924647482958L256.690951171875,155.3754286705093L257.1665185546875,155.57631008327007L257.5232666015625,156.18910721926525L257.6383154296875,155.7216222516515L257.74998046875004,155.55099842223254L257.8640625,156.16677414117888L258.2199404296875,155.88000086220828L258.56489355468756,156.23930164697495L258.68052246093754,155.81100851297379L258.8022421875,156.08371069993484L258.912650390625,155.66078938543797L259.026732421875,155.58912536298686L259.257216796875,156.2584310549904L259.60845410156253,155.73520540513775L259.959884765625,155.3832159055905L260.4151494140625,155.89005275544795L260.5423798828125,156.28381314941427L260.6543349609375,156.87402874231339L260.77112402343755,156.22645339843902L260.8823056640625,156.09189745716074L261.122361328125,156.1650675552135L261.23450976562503,156.31382376632908L261.7040830078125,155.29968850314617L262.0509697265625,155.64839191057465L262.16273144531255,155.77322924340314L262.5101982421875,154.91215022450143L262.6275673828125,154.67677623372185L262.7391357421875,155.83124777132815L262.8612421875,156.03759871118447L262.973583984375,155.35782811655238L263.21276953125,154.78689868341792L263.3255947265625,155.0374029644511L263.44779785156254,156.10748121853578L263.5634267578125,155.5136747217991L263.67915234375005,156.21006130156192" style="fill: none;" fill="none"></path></g></g></g></g></g></g><g transform="translate(51, 177)" clip-path="url(#clip_1)"><clipPath id="clip_1"><rect width="278" height="23"></rect></clipPath><g><g><line x1="0" y1="0" x2="0" y2="5" style="visibility: inherit;" fill="rgb(0, 0, 0)" stroke="rgb(204, 204, 204)" stroke-width="1px"></line><line x1="34.80468750000001" y1="0" x2="34.80468750000001" y2="5" style="visibility: inherit;" fill="rgb(0, 0, 0)" stroke="rgb(204, 204, 204)" stroke-width="1px"></line><line x1="69.60937500000001" y1="0" x2="69.60937500000001" y2="5" style="visibility: inherit;" fill="rgb(0, 0, 0)" stroke="rgb(204, 204, 204)" stroke-width="1px"></line><line x1="104.41406250000003" y1="0" x2="104.41406250000003" y2="5" style="visibility: inherit;" fill="rgb(0, 0, 0)" stroke="rgb(204, 204, 204)" stroke-width="1px"></line><line x1="139.21875000000003" y1="0" x2="139.21875000000003" y2="5" style="visibility: inherit;" fill="rgb(0, 0, 0)" stroke="rgb(204, 204, 204)" stroke-width="1px"></line><line x1="174.0234375" y1="0" x2="174.0234375" y2="5" style="visibility: inherit;" fill="rgb(0, 0, 0)" stroke="rgb(204, 204, 204)" stroke-width="1px"></line><line x1="208.828125" y1="0" x2="208.828125" y2="5" style="visibility: inherit;" fill="rgb(0, 0, 0)" stroke="rgb(204, 204, 204)" stroke-width="1px"></line><line x1="243.6328125" y1="0" x2="243.6328125" y2="5" style="visibility: inherit;" fill="rgb(0, 0, 0)" stroke="rgb(204, 204, 204)" stroke-width="1px"></line><line x1="278.4375" y1="0" x2="278.4375" y2="5" style="visibility: inherit;" fill="rgb(0, 0, 0)" stroke="rgb(204, 204, 204)" stroke-width="1px"></line></g><g transform="translate(0, 8)"><text x="0" y="0" dx="0em" dy="0.95em" style="text-anchor: middle; visibility: hidden; font-family: Roboto, sans-serif; font-size: 12px; font-weight: 200;" fill="rgb(33, 33, 33)" stroke="none" stroke-width="1px">-0.1</text><text x="34.80468750000001" y="0" dx="0em" dy="0.95em" style="text-anchor: middle; visibility: inherit; font-family: Roboto, sans-serif; font-size: 12px; font-weight: 200;" fill="rgb(33, 33, 33)" stroke="none" stroke-width="1px">0</text><text x="69.60937500000001" y="0" dx="0em" dy="0.95em" style="text-anchor: middle; visibility: inherit; font-family: Roboto, sans-serif; font-size: 12px; font-weight: 200;" fill="rgb(33, 33, 33)" stroke="none" stroke-width="1px">0.1</text><text x="104.41406250000003" y="0" dx="0em" dy="0.95em" style="text-anchor: middle; visibility: inherit; font-family: Roboto, sans-serif; font-size: 12px; font-weight: 200;" fill="rgb(33, 33, 33)" stroke="none" stroke-width="1px">0.2</text><text x="139.21875000000003" y="0" dx="0em" dy="0.95em" style="text-anchor: middle; visibility: inherit; font-family: Roboto, sans-serif; font-size: 12px; font-weight: 200;" fill="rgb(33, 33, 33)" stroke="none" stroke-width="1px">0.3</text><text x="174.0234375" y="0" dx="0em" dy="0.95em" style="text-anchor: middle; visibility: inherit; font-family: Roboto, sans-serif; font-size: 12px; font-weight: 200;" fill="rgb(33, 33, 33)" stroke="none" stroke-width="1px">0.4</text><text x="208.828125" y="0" dx="0em" dy="0.95em" style="text-anchor: middle; visibility: inherit; font-family: Roboto, sans-serif; font-size: 12px; font-weight: 200;" fill="rgb(33, 33, 33)" stroke="none" stroke-width="1px">0.5</text><text x="243.6328125" y="0" dx="0em" dy="0.95em" style="text-anchor: middle; visibility: inherit; font-family: Roboto, sans-serif; font-size: 12px; font-weight: 200;" fill="rgb(33, 33, 33)" stroke="none" stroke-width="1px">0.6</text><text x="278.4375" y="0" dx="0em" dy="0.95em" style="text-anchor: middle; visibility: hidden; font-family: Roboto, sans-serif; font-size: 12px; font-weight: 200;" fill="rgb(33, 33, 33)" stroke="none" stroke-width="1px">0.7</text></g><line x1="0" y1="0" x2="278.4375" y2="0" fill="rgb(0, 0, 0)" stroke="rgb(204, 204, 204)" stroke-width="1px"></line></g></g></g></g></svg>