<svg viewBox="0 0 330 200" xmlns="http://www.w3.org/2000/svg"><g><g><g><g><g><line x1="51.5625" y1="177" x2="46.5625" y2="177" style="visibility: inherit;" fill="rgb(0, 0, 0)" stroke="rgb(204, 204, 204)" stroke-width="1px"></line><line x1="51.5625" y1="163.3846153846154" x2="46.5625" y2="163.3846153846154" style="visibility: inherit;" fill="rgb(0, 0, 0)" stroke="rgb(204, 204, 204)" stroke-width="1px"></line><line x1="51.5625" y1="149.76923076923077" x2="46.5625" y2="149.76923076923077" style="visibility: inherit;" fill="rgb(0, 0, 0)" stroke="rgb(204, 204, 204)" stroke-width="1px"></line><line x1="51.5625" y1="136.15384615384613" x2="46.5625" y2="136.15384615384613" style="visibility: inherit;" fill="rgb(0, 0, 0)" stroke="rgb(204, 204, 204)" stroke-width="1px"></line><line x1="51.5625" y1="122.53846153846153" x2="46.5625" y2="122.53846153846153" style="visibility: inherit;" fill="rgb(0, 0, 0)" stroke="rgb(204, 204, 204)" stroke-width="1px"></line><line x1="51.5625" y1="108.92307692307693" x2="46.5625" y2="108.92307692307693" style="visibility: inherit;" fill="rgb(0, 0, 0)" stroke="rgb(204, 204, 204)" stroke-width="1px"></line><line x1="51.5625" y1="95.30769230769232" x2="46.5625" y2="95.30769230769232" style="visibility: inherit;" fill="rgb(0, 0, 0)" stroke="rgb(204, 204, 204)" stroke-width="1px"></line><line x1="51.5625" y1="81.6923076923077" x2="46.5625" y2="81.6923076923077" style="visibility: inherit;" fill="rgb(0, 0, 0)" stroke="rgb(204, 204, 204)" stroke-width="1px"></line><line x1="51.5625" y1="68.0769230769231" x2="46.5625" y2="68.0769230769231" style="visibility: inherit;" fill="rgb(0, 0, 0)" stroke="rgb(204, 204, 204)" stroke-width="1px"></line><line x1="51.5625" y1="54.46153846153847" x2="46.5625" y2="54.46153846153847" style="visibility: inherit;" fill="rgb(0, 0, 0)" stroke="rgb(204, 204, 204)" stroke-width="1px"></line><line x1="51.5625" y1="40.84615384615386" x2="46.5625" y2="40.84615384615386" style="visibility: inherit;" fill="rgb(0, 0, 0)" stroke="rgb(204, 204, 204)" stroke-width="1px"></line><line x1="51.5625" y1="27.230769230769234" x2="46.5625" y2="27.230769230769234" style="visibility: inherit;" fill="rgb(0, 0, 0)" stroke="rgb(204, 204, 204)" stroke-width="1px"></line><line x1="51.5625" y1="13.615384615384606" x2="46.5625" y2="13.615384615384606" style="visibility: inherit;" fill="rgb(0, 0, 0)" stroke="rgb(204, 204, 204)" stroke-width="1px"></line><line x1="51.5625" y1="0" x2="46.5625" y2="0" style="visibility: inherit;" fill="rgb(0, 0, 0)" stroke="rgb(204, 204, 204)" stroke-width="1px"></line></g><g transform="translate(41.5625, 0)"><text x="0" y="177" dx="0em" dy="0.3em" style="text-anchor: end; visibility: hidden; font-family: Roboto, sans-serif; font-size: 12px; font-weight: 200;" fill="rgb(33, 33, 33)" stroke="none" stroke-width="1px">-0.1</text><text x="0" y="163.3846153846154" dx="0em" dy="0.3em" style="text-anchor: end; visibility: inherit; font-family: Roboto, sans-serif; font-size: 12px; font-weight: 200;" fill="rgb(33, 33, 33)" stroke="none" stroke-width="1px">0</text><text x="0" y="149.76923076923077" dx="0em" dy="0.3em" style="text-anchor: end; visibility: hidden; font-family: Roboto, sans-serif; font-size: 12px; font-weight: 200;" fill="rgb(33, 33, 33)" stroke="none" stroke-width="1px">0.1</text><text x="0" y="136.15384615384613" dx="0em" dy="0.3em" style="text-anchor: end; visibility: inherit; font-family: Roboto, sans-serif; font-size: 12px; font-weight: 200;" fill="rgb(33, 33, 33)" stroke="none" stroke-width="1px">0.2</text><text x="0" y="122.53846153846153" dx="0em" dy="0.3em" style="text-anchor: end; visibility: hidden; font-family: Roboto, sans-serif; font-size: 12px; font-weight: 200;" fill="rgb(33, 33, 33)" stroke="none" stroke-width="1px">0.3</text><text x="0" y="108.92307692307693" dx="0em" dy="0.3em" style="text-anchor: end; visibility: inherit; font-family: Roboto, sans-serif; font-size: 12px; font-weight: 200;" fill="rgb(33, 33, 33)" stroke="none" stroke-width="1px">0.4</text><text x="0" y="95.30769230769232" dx="0em" dy="0.3em" style="text-anchor: end; visibility: hidden; font-family: Roboto, sans-serif; font-size: 12px; font-weight: 200;" fill="rgb(33, 33, 33)" stroke="none" stroke-width="1px">0.5</text><text x="0" y="81.6923076923077" dx="0em" dy="0.3em" style="text-anchor: end; visibility: inherit; font-family: Roboto, sans-serif; font-size: 12px; font-weight: 200;" fill="rgb(33, 33, 33)" stroke="none" stroke-width="1px">0.6</text><text x="0" y="68.0769230769231" dx="0em" dy="0.3em" style="text-anchor: end; visibility: hidden; font-family: Roboto, sans-serif; font-size: 12px; font-weight: 200;" fill="rgb(33, 33, 33)" stroke="none" stroke-width="1px">0.7</text><text x="0" y="54.46153846153847" dx="0em" dy="0.3em" style="text-anchor: end; visibility: inherit; font-family: Roboto, sans-serif; font-size: 12px; font-weight: 200;" fill="rgb(33, 33, 33)" stroke="none" stroke-width="1px">0.8</text><text x="0" y="40.84615384615386" dx="0em" dy="0.3em" style="text-anchor: end; visibility: hidden; font-family: Roboto, sans-serif; font-size: 12px; font-weight: 200;" fill="rgb(33, 33, 33)" stroke="none" stroke-width="1px">0.9</text><text x="0" y="27.230769230769234" dx="0em" dy="0.3em" style="text-anchor: end; visibility: inherit; font-family: Roboto, sans-serif; font-size: 12px; font-weight: 200;" fill="rgb(33, 33, 33)" stroke="none" stroke-width="1px">1</text><text x="0" y="13.615384615384606" dx="0em" dy="0.3em" style="text-anchor: end; visibility: hidden; font-family: Roboto, sans-serif; font-size: 12px; font-weight: 200;" fill="rgb(33, 33, 33)" stroke="none" stroke-width="1px">1.1</text><text x="0" y="0" dx="0em" dy="0.3em" style="text-anchor: end; visibility: hidden; font-family: Roboto, sans-serif; font-size: 12px; font-weight: 200;" fill="rgb(33, 33, 33)" stroke="none" stroke-width="1px">1.2</text></g><line x1="51.5625" y1="0" x2="51.5625" y2="177" fill="rgb(0, 0, 0)" stroke="rgb(204, 204, 204)" stroke-width="1px"></line></g></g><g transform="translate(51, 0)" clip-path="url(#clip_0)"><clipPath id="clip_0"><rect width="278" height="177"></rect></clipPath><g><g><g><line x1="0" y1="0" x2="0" y2="177" fill="rgb(0, 0, 0)" stroke="rgb(66, 66, 66)" stroke-width="1px" opacity="0.25"></line><line x1="19.888392857142858" y1="0" x2="19.888392857142858" y2="177" fill="rgb(0, 0, 0)" stroke="rgb(66, 66, 66)" stroke-width="1px" opacity="0.25"></line><line x1="39.776785714285715" y1="0" x2="39.776785714285715" y2="177" fill="rgb(0, 0, 0)" stroke="rgb(66, 66, 66)" stroke-width="1px" opacity="0.25"></line><line x1="59.66517857142858" y1="0" x2="59.66517857142858" y2="177" fill="rgb(0, 0, 0)" stroke="rgb(66, 66, 66)" stroke-width="1px" opacity="0.25"></line><line x1="79.55357142857143" y1="0" x2="79.55357142857143" y2="177" fill="rgb(0, 0, 0)" stroke="rgb(66, 66, 66)" stroke-width="1px" opacity="0.25"></line><line x1="99.44196428571428" y1="0" x2="99.44196428571428" y2="177" fill="rgb(0, 0, 0)" stroke="rgb(66, 66, 66)" stroke-width="1px" opacity="0.25"></line><line x1="119.33035714285712" y1="0" x2="119.33035714285712" y2="177" fill="rgb(0, 0, 0)" stroke="rgb(66, 66, 66)" stroke-width="1px" opacity="0.25"></line><line x1="139.21874999999997" y1="0" x2="139.21874999999997" y2="177" fill="rgb(0, 0, 0)" stroke="rgb(66, 66, 66)" stroke-width="1px" opacity="0.25"></line><line x1="159.1071428571428" y1="0" x2="159.1071428571428" y2="177" fill="rgb(0, 0, 0)" stroke="rgb(66, 66, 66)" stroke-width="1px" opacity="0.25"></line><line x1="178.9955357142857" y1="0" x2="178.9955357142857" y2="177" fill="rgb(0, 0, 0)" stroke="rgb(66, 66, 66)" stroke-width="1px" opacity="0.25"></line><line x1="198.88392857142856" y1="0" x2="198.88392857142856" y2="177" fill="rgb(0, 0, 0)" stroke="rgb(66, 66, 66)" stroke-width="1px" opacity="0.25"></line><line x1="218.77232142857142" y1="0" x2="218.77232142857142" y2="177" fill="rgb(0, 0, 0)" stroke="rgb(66, 66, 66)" stroke-width="1px" opacity="0.25"></line><line x1="238.6607142857143" y1="0" x2="238.6607142857143" y2="177" fill="rgb(0, 0, 0)" stroke="rgb(66, 66, 66)" stroke-width="1px" opacity="0.25"></line><line x1="258.5491071428571" y1="0" x2="258.5491071428571" y2="177" fill="rgb(0, 0, 0)" stroke="rgb(66, 66, 66)" stroke-width="1px" opacity="0.25"></line><line x1="278.4375" y1="0" x2="278.4375" y2="177" fill="rgb(0, 0, 0)" stroke="rgb(66, 66, 66)" stroke-width="1px" opacity="0.25"></line></g><g><line x1="0" y1="177" x2="278.4375" y2="177" fill="rgb(0, 0, 0)" stroke="rgb(66, 66, 66)" stroke-width="1px" opacity="0.25"></line><line x1="0" y1="163.3846153846154" x2="278.4375" y2="163.3846153846154" fill="rgb(0, 0, 0)" stroke="rgb(66, 66, 66)" stroke-width="1px" opacity="0.25"></line><line x1="0" y1="149.76923076923077" x2="278.4375" y2="149.76923076923077" fill="rgb(0, 0, 0)" stroke="rgb(66, 66, 66)" stroke-width="1px" opacity="0.25"></line><line x1="0" y1="136.15384615384613" x2="278.4375" y2="136.15384615384613" fill="rgb(0, 0, 0)" stroke="rgb(66, 66, 66)" stroke-width="1px" opacity="0.25"></line><line x1="0" y1="122.53846153846153" x2="278.4375" y2="122.53846153846153" fill="rgb(0, 0, 0)" stroke="rgb(66, 66, 66)" stroke-width="1px" opacity="0.25"></line><line x1="0" y1="108.92307692307693" x2="278.4375" y2="108.92307692307693" fill="rgb(0, 0, 0)" stroke="rgb(66, 66, 66)" stroke-width="1px" opacity="0.25"></line><line x1="0" y1="95.30769230769232" x2="278.4375" y2="95.30769230769232" fill="rgb(0, 0, 0)" stroke="rgb(66, 66, 66)" stroke-width="1px" opacity="0.25"></line><line x1="0" y1="81.6923076923077" x2="278.4375" y2="81.6923076923077" fill="rgb(0, 0, 0)" stroke="rgb(66, 66, 66)" stroke-width="1px" opacity="0.25"></line><line x1="0" y1="68.0769230769231" x2="278.4375" y2="68.0769230769231" fill="rgb(0, 0, 0)" stroke="rgb(66, 66, 66)" stroke-width="1px" opacity="0.25"></line><line x1="0" y1="54.46153846153847" x2="278.4375" y2="54.46153846153847" fill="rgb(0, 0, 0)" stroke="rgb(66, 66, 66)" stroke-width="1px" opacity="0.25"></line><line x1="0" y1="40.84615384615386" x2="278.4375" y2="40.84615384615386" fill="rgb(0, 0, 0)" stroke="rgb(66, 66, 66)" stroke-width="1px" opacity="0.25"></line><line x1="0" y1="27.230769230769234" x2="278.4375" y2="27.230769230769234" fill="rgb(0, 0, 0)" stroke="rgb(66, 66, 66)" stroke-width="1px" opacity="0.25"></line><line x1="0" y1="13.615384615384606" x2="278.4375" y2="13.615384615384606" fill="rgb(0, 0, 0)" stroke="rgb(66, 66, 66)" stroke-width="1px" opacity="0.25"></line><line x1="0" y1="0" x2="278.4375" y2="0" fill="rgb(0, 0, 0)" stroke="rgb(66, 66, 66)" stroke-width="1px" opacity="0.25"></line></g></g></g><g><g><line x1="0" y1="163.3846153846154" x2="278.4375" y2="163.3846153846154" fill="rgb(0, 0, 0)" stroke="rgb(153, 153, 153)" stroke-width="1.5px"></line></g></g><g><g><line x1="19.888392857142858" y1="0" x2="19.888392857142858" y2="177" fill="rgb(0, 0, 0)" stroke="rgb(153, 153, 153)" stroke-width="1.5px"></line></g></g><g><g><g><g><g><path stroke="rgb(0, 153, 136)" stroke-width="2px" d="M29.3511796875,-1.49374899786762L29.61580580357143,0.15008296840396096L30.02163950892857,0.5688558806398277L30.700165178571428,2.076474693631308L30.835074776785714,3.6995706574736L30.97009486607143,4.1465179306712825L31.12301450892857,5.414276544763568L31.25969196428571,6.217774541511754L31.391839285714287,7.012050117322543L32.09124776785714,11.977179183823283L33.16853571428571,15.917516208871582L33.443879464285715,21.186509577292547L33.576358258928565,23.21564800841096L33.70740066964286,27.470686945061576L34.662706473214286,33.14615977845173L35.064231026785706,39.185826203247L35.341453125,43.23128934242512L35.48122433035714,46.34791865623774L35.61502901785714,50.94346686821657L36.160412946428565,54.88012596097336L36.29642745535713,57.09773219074093L36.432662946428565,59.27922500545644L36.847888392857136,62.75726367412774L36.987659598214286,63.90202183811665L37.39515066964285,67.94451091232409L37.96274330357142,73.00083902801582L38.241622767857145,72.95986603371529L38.504922991071425,76.12535897343845L38.63994308035714,77.62156273807167L38.784796875,82.05104286510488L38.91661272321428,83.80750585129793L39.05030691964285,86.04057746983591L39.181791294642856,87.0708146224303L39.44586495535714,88.2875229692848L39.720214285714285,90.03296001458665L40.10682254464286,93.02513018211884L40.24825111607142,94.76338425530614L40.381392857142856,97.3712766657871L40.644361607142855,98.36834463696216L40.77783482142857,100.0393343924866L40.91837946428571,103.27088660493273L41.31570535714285,104.89916847322176L41.59723660714286,105.5372936066569L41.72827901785714,107.12845298224025L41.99754575892857,109.28187620614736L42.13389174107142,110.40570760308412L42.54315066964285,112.3404646538786L43.07825892857143,115.32798542288722L43.21073772321428,116.77954389232909L43.339459821428576,117.26954202125654L43.47171763392856,118.91432028528013L43.75203348214285,118.94046814428269L43.88152901785713,120.6016308259159L44.149690848214284,119.73111410363578L44.428017857142855,122.55267415987198L44.5585078125,121.76055248201244L44.693085937499994,123.08756247807678L44.827111607142854,123.23747736648356L45.0952734375,124.70141248870962L45.22786272321429,124.9784125624244L46.16206473214286,126.42492758400569L46.69275334821428,128.46447985409554L47.242667410714276,130.23679207815812L47.37370982142857,131.1323245028822L47.50342633928571,131.79265234645598L48.05334040178571,133.47170901990538L48.18604017857143,133.84564503388032L48.322165178571424,133.96562878105894L48.46237834821429,135.47064151928063L48.85672098214285,134.80714130004924L48.98942075892857,135.16760804781953L49.403430803571425,135.80143687215462L49.53513616071429,135.55679143306438L49.80882254464285,136.04603416501502L49.941522321428565,136.23910139346455L50.075547991071424,137.14352991511103L50.342825892857135,136.89709081937983L50.48436495535714,136.3716550547212L50.61584933035714,136.932897549493L50.74965401785715,137.75839148673174L50.887767857142855,137.79137857568531L51.02278794642857,138.4258151180742L51.450498883928574,138.99769944068822L51.58198325892857,138.8215806683767L51.8566640625,139.14114021985017L52.38315401785714,139.44990328846882L52.52524553571428,139.72361738437903L52.799373883928574,139.50571917130782L53.10013058035714,140.46095407478856L53.245647321428564,140.58994070848456L53.93732142857142,140.69105968846182L54.36304352678572,140.5229424851L54.50391964285714,141.14104318627565L54.64346986607142,141.47167556107735L54.78998102678571,141.44207550015315L55.07073883928572,142.94599222405205L55.635790178571426,142.64561863606934L55.90781919642857,143.10581085326805L56.195979910714286,142.82701693138387L56.344148437499996,143.10279119202346L56.4814888392857,141.61338577016275L57.0476450892857,142.59132618054656L57.19017857142857,143.5198502781225L57.463422991071425,143.964372465927L57.74031361607143,144.61134915301167L58.01952455357143,144.68251268118001L58.72909821428571,145.3774318312874L59.01283928571427,144.8086071078526L59.152499999999996,145.65546834440923L59.57247656249999,145.67192605717122L59.86295758928571,145.58413913001502L60.00029799107142,146.22975670738793L60.14117410714285,146.5900713163014L60.42369977678571,146.70248925248544L60.57043191964285,146.7156966696688L60.706114955357144,147.38689127251098L61.27182924107143,147.5864608658734L61.407401785714285,147.34199070038235L61.681088169642855,147.17412577974056L62.11111941964285,147.59286435328738L62.670977678571425,147.58117984601012L62.80820758928571,147.46041515115866L62.95074107142857,148.0127424406875L63.08885491071428,148.39145972133736L63.368728794642855,147.98679407991526L63.78737946428571,148.07890636473815L63.91963727678571,148.548417513989L64.06482254464284,149.33868274507586L64.47518638392856,150.1679264130178L64.60821763392856,150.4780981342874L64.89582589285715,150.54685164786974L65.74671763392857,150.10396324069168L66.02316629464285,150.42880055222204L66.17056138392857,150.18753540326668L66.30944866071428,150.07871252964262L66.44535267857142,148.99525199519405L66.5836875,149.10694002207816L66.86996986607143,149.22697238016914L67.00819419642856,148.9102827221404L67.7156685267857,147.89722680510582L67.85422433035714,148.36743225226013L68.13498214285714,148.131672382538L68.42115401785715,149.01158033345288L68.56015178571428,148.95902961352417L68.70091741071428,149.81611861823447L69.12873883928572,150.64962340020207L69.2687310267857,151.0815995015089L69.40629241071427,150.98006610964808L69.68450892857142,151.0636821891876L69.83665513392856,150.98160771534148L70.10890513392857,150.54353303866614L70.245140625,150.5042703880903L70.5305390625,151.2895700094447L70.80643526785714,151.20051439196095L71.08343638392857,151.32288659016578L71.22917410714287,151.03646366788962L71.36596205357142,151.3640921908719L71.64218973214285,150.86861138791L71.7847232142857,151.74754243825583L72.20989285714286,151.43697814003835L72.34734375,151.5936374169729L72.4899877232143,150.8826086756259L72.63892968749998,150.80433530750966L72.91946651785713,151.1962384108673L73.06012165178569,151.62402448842897L73.19315290178571,151.71668751985737L73.33977455357142,152.44672187812594L74.5972734375,152.47328554365134L74.73792857142857,152.34541355098682L75.0269732142857,152.32208888660492L75.43590066964286,152.5274736826686L76.42678459821428,152.63264900897963L76.56290959821429,152.1397412579405L77.121,153.09847458048472L77.25999776785713,153.96442428848812L77.39689620535714,154.10132269633812L77.68174218749999,154.05815588210595L77.95100892857143,154.0508132824849L78.22723660714284,154.13076001884463L78.51970647321428,154.04071754045899L79.79455245535713,154.05238217196052L79.93310825892856,153.57243940465975L80.06613950892857,151.18839331958534L80.20613169642857,150.43965615970353L80.4881049107143,149.31881122261376L80.6266607142857,149.17711279855837L81.03359933035715,149.45139422456424L81.4596529017857,149.92684301675285L82.28811495535714,151.20766594145482L82.42423995535712,152.46635876469392L82.56334821428571,152.61445517578653L82.70974888392855,152.6280004721908L82.84719977678571,152.68315640250702L83.11889732142856,152.86975765186006L83.25877901785715,153.5403250306601L83.4040747767857,153.31939855468647L83.67621428571428,154.01633897023976L83.81620647321428,154.00004762767304L83.95630915178572,153.776184063536L84.24237053571429,153.68922132244325L84.52246540178572,153.0884563234577L84.65671205357143,153.3873164933126L85.22971874999999,153.7175608059792L86.21695647321428,154.8123878586905L86.3531919642857,154.81076347659192L86.62190625,154.15483414108576L86.76024107142857,154.33263084185825L87.03823660714284,154.95312476392212L87.31126004464285,154.889234307208L87.73245200892856,154.87919154058872L88.71195535714287,154.95603488421565L89.1321529017857,154.60458988454232L89.27269754464284,155.3328556244565L89.6754375,155.1954700379413L89.82084375,155.0947814669744L89.95464843749998,155.67515110476643L90.23496428571428,155.25309223741283L90.37495647321427,155.41737485414737L90.52478236607142,156.1042436848778L90.6581450892857,155.70816795953914L90.93050558035713,155.58752551586556L91.64184709821427,155.50463303916487L91.77973995535713,155.28051177396537L92.61361607142857,155.39897538952832L92.88465066964285,155.8155219458738L93.0221015625,156.15396557973708L93.1602154017857,156.41354538818945L93.30274888392859,156.55139921842618L93.44561383928571,156.76602087782064L93.58129687499999,156.33029018767112L93.7186372767857,156.61881265963805L93.86150223214285,156.39749226273665L94.01121763392855,156.43650368585972L94.14723214285713,156.78907528774198L94.42224441964284,156.61338171561468L94.84487276785714,157.13239581841634L94.98088727678572,156.42267250783593L95.12021651785713,156.0624336898215L95.40870870535714,156.34868164107678L95.54317633928571,156.37659891692087L95.95773883928572,156.304960994177L96.23849665178572,156.70383589026048L96.51339843749999,156.36430850337894L96.6507388392857,156.79366156813842L97.06762165178573,156.83949327727714L97.20684040178571,156.40763947018627L97.34926339285714,156.7591289905091L97.634109375,156.53652229357655L97.77233370535713,156.18171294988835L97.9106685267857,155.8773115825201L98.19661941964286,156.00327534295084L98.47837165178571,156.00118088727754L98.61482812499999,156.74306513487022L99.03469419642857,156.86490709485614L99.16993526785714,156.62335136864093L99.30153013392858,156.8595529014494L99.43599776785713,157.18485577056103L99.570796875,157.21878770770516L99.71531919642857,156.68821132419865L99.85409598214285,156.55496441497195L99.98966852678572,156.69091273374704L100.26655915178569,156.7262772944595L100.41273883928571,156.95152230011195L100.96519419642856,156.69631605024887L101.11126339285714,156.54862414153024L101.24727790178571,156.984028798145L101.52195870535714,156.7772740308333L101.66791741071428,156.6791220834189L101.81829575892857,156.92683322335358L101.95707254464284,156.09818620010796L102.23827232142855,156.0457000841634L102.54024441964285,156.73799024787854L102.82155468749998,156.42136242250987L103.09513058035714,156.3469557417746L103.37655133928571,156.79354774719525L103.65090066964285,157.22666659009394L103.78702566964286,156.99193926530398L103.92337165178569,156.98712714608132L104.34633147321428,157.24027065187374L104.90718415178573,157.22555851557888L105.04618191964283,157.42628956943636L105.32130468749999,157.0581305049605L105.46549553571427,157.31673458629257L105.74227566964285,157.78176924167883L106.31263058035714,157.32939838951575L106.45483258928569,157.7626108415378L106.73592187499999,158.24420949398043L107.02596093749999,157.83485683730993L107.5894654017857,157.80364137274154L107.98789620535715,157.89555261064845L108.128109375,157.5693880777545L108.40941964285712,157.79768703760018L108.5434453125,157.4980381257062L108.67879687499999,157.51084531613233L108.813375,157.3750495323697L108.96121205357143,157.7447392948273L109.09932589285715,158.00405077132558L109.23677678571428,157.57725066951085L109.38030468749999,157.63049705424913L109.51963392857141,157.62437310140277L110.07595647321428,157.38158207245618L110.21108705357143,157.15385770128478L110.49747991071428,157.55430563378428L110.77713281249999,157.71231749385376L111.20152901785713,158.00866208832406L111.50029687499998,157.9550723693427L111.63675334821428,158.12188830330527L111.78856808035714,158.65782707292723L112.26014397321427,158.38251167428746L112.40113058035713,158.4262782021666L112.53725558035713,158.3838854729944L112.6840982142857,158.46538283090214L112.82121763392855,158.07922024478611L113.10230691964284,158.2587733084657L113.24141517857142,158.58295771888163L113.3859375,158.29050774773566L113.6558671875,158.35885364560343L113.79232366071426,157.77002912403287L113.92745424107142,158.2361617305347L114.06998772321427,157.9705930221085L114.20567075892856,157.54159039114097L114.33870200892855,157.92943830999243L114.61868638392856,158.06174980459883L114.76608147321426,157.87066375528735L115.17346205357143,158.50944804232606L115.72470200892856,158.54601283167725L116.14423660714284,158.57282682993505L116.28157700892856,158.52954092167911L116.41847544642856,157.96171151631626L116.55703124999998,158.254267589604L116.69282477678571,158.30279682107232L116.84320312499999,158.67926227397965L116.97943861607142,158.52372436409465L117.11854687499998,158.4396223375011L117.39554799107141,158.4539374458538L117.53112053571428,158.6023597502741L117.67453794642857,158.75561935027025L118.2246729910714,158.6606798452389L118.77480803571427,158.7070751147512L118.91170647321427,158.90366535824796L119.1948950892857,158.7183215846233L119.33466629464286,158.69434635242575L119.47233816964284,158.4728094998276L119.60879464285712,158.52238390272666L119.7576261160714,158.70644452963222L119.89993861607141,158.35397738210116L120.32090959821427,158.65664045163888L120.46775223214286,158.5620346564218L120.60674999999998,158.4436564125746L121.3128984375,158.86472064057534L121.58559040178571,158.89810598006343L121.72447767857143,158.8818998866065L121.86922098214285,159.04860262745245L122.00843973214283,158.82935828509565L122.2883136160714,158.48598346620994L122.70541741071428,158.46983401827288L122.84397321428571,158.41776998275955L123.26847991071429,158.6339352610697L123.40659375,158.8492437999013L123.5439341517857,159.09495138151058L123.82027232142856,159.54070681862828L124.10511830357142,159.16952351993154L124.51758147321428,159.22321093286726L124.65370647321427,159.23410706092463L124.93788950892855,159.35918793107643L125.35167857142856,159.0840849722039L125.5022779017857,158.74273029831716L125.64116517857143,158.77742876262832L125.91794531249998,158.89245608974778L126.05484374999999,158.69524937289526L126.20179687499999,158.68045899933503L126.34057366071427,158.95017494887438L126.47548325892855,158.92928361328484L126.61812723214284,158.90710162823777L126.7572354910714,159.05474012570653L126.90949218749998,158.80917988016145L127.32504910714283,159.11459671502902L127.46725111607141,158.9398801017691L128.02699888392857,158.89255952172812L128.16456026785713,158.9634931973922L128.4502901785714,159.1164859622717L128.73016406249997,158.96975962001545L129.01467857142856,158.9736404766578L129.15621763392855,158.71448385187847L129.29941406249998,158.80527243389312L129.4425,158.8211203290211L129.5767466517857,158.30429799786634L129.73088169642855,158.3954395915951L130.00401562499997,158.2647363128869L130.2821216517857,158.4262932643244L130.56343191964282,158.35932310298932L130.9789888392857,158.6891741052894L131.13312388392856,159.13678993419117L131.27002232142857,158.55604856576323L131.40802566964285,158.61248539285265L131.54801785714284,158.89599519871896L131.8356261160714,159.10614764747342L132.1206930803571,159.00353147650918L132.39681026785712,158.72836196828214L132.5351450892857,158.6611224714647L132.82153794642855,159.08722548140238L133.2336696428571,158.95491103524932L133.5193995535714,158.04908334110084L133.6601651785714,158.74127835453507L133.7947433035714,158.9189378545708L134.21438839285713,158.9716036674534L134.63756919642856,158.89594148600563L134.7858482142857,159.1538867315687L135.06030803571426,159.263015903388L135.33841406249996,159.09911807159318L135.6304419642857,158.8519339795922L135.7688872767857,159.20793923251074L136.33239174107143,159.66821082849188L136.6053046875,159.4568541189549L136.74695424107142,159.35188147942253L136.8939073660714,159.19906973231772L137.03014285714283,159.27018017691202L137.30327678571427,159.49218495102284L137.44824107142855,159.07212761289807L137.6336450892857,159.0160436401964L137.7813716517857,158.82443507915556L138.369515625,159.08035231841328L138.6580078125,158.89682093389465L138.8015357142857,158.6999602270398L138.94340624999998,158.9875472369311L139.08605022321427,159.14952152404754L139.24106919642855,159.08804045876008L139.82004241071428,159.17051152375194L140.11770535714282,159.02508514148872L140.26156473214286,159.36585010063075L140.68242522321427,159.74474233039456L140.82142299107144,159.61301192580603L140.9625200892857,159.56468926093038L141.09919754464283,159.35780352210713L141.23686941964283,159.08598475370235L141.5225993303571,159.23011784657817L141.6621495535714,159.38524953666317L141.80313616071425,159.1620143383094L141.93727232142857,159.33536127911867L142.23526674107143,159.2579949848648L142.645078125,159.3507316232248L142.92959263392854,159.12725319251103L143.06991629464287,159.03538387358228L143.34647544642854,159.42325294346557L143.49309709821426,158.9910303298337L143.63286830357143,159.43033160277577L143.9089854910714,159.178222010048L144.04754129464285,159.2988894655683L144.33426562499997,159.375045340987L144.47768303571428,159.64029852140476L145.17344531249998,159.0170356311023L145.44945200892857,159.2300713894874L145.59552120535713,159.67121724151846L145.73407700892855,159.57703499723976L145.8753950892857,159.49936920438066L146.01605022321425,159.57078349346847L146.153390625,159.50709662474765L146.28951562499998,159.21110729175734L146.57679241071426,159.44457846461492L146.7173370535714,159.80712370266082L146.85710825892855,159.95612459696912L147.2705658482143,159.53874214045297L147.40580691964283,159.50614140798365L147.54314732142853,159.70012274902888L147.67728348214283,159.73031361230693L147.95903571428568,160.15421231252427L148.7908125,160.02305646314628L148.92638504464284,160.15623985940093L149.06018973214285,160.32608112613988L149.34337834821426,159.92910313513107L149.89749107142856,160.11355955957492L150.31006473214285,160.10702063957936L150.72584263392855,159.54569072341053L151.14537723214283,159.4867158390452L151.29199888392856,159.1292190530933L151.70578794642853,159.12031616076817L151.84080803571428,158.95593203029492L151.9906339285714,159.24598424983893L152.26929241071426,159.3068333211254L152.4097265625,159.52637672082847L152.54817187499995,159.13397360376734L152.83876339285712,159.16646881948017L152.97411495535712,159.55305964953683L153.11145535714283,159.3266826382925L153.24956919642855,159.07938104295476L153.3885669642857,158.87541161340414L153.66844084821426,159.15405242601506L153.80600223214284,158.86642474966467L154.0753794642857,159.11033248316042L154.35359598214285,158.9551837645312L154.49071540178568,158.99658601252125L154.76804799107143,159.58377255315162L155.05521428571427,159.72737399848128L155.18923995535712,159.731534311498L155.32890066964282,159.30899638149472L155.46579910714286,159.4078029739276L155.88080357142857,159.64591386211103L156.01958035714284,159.58789874248708L156.1548214285714,159.59999689504687L156.29834933035713,159.38914675945844L156.5759029017857,159.1832165173166L156.70915513392856,159.5770961773815L157.83141294642854,159.3965759626787L158.24597544642856,159.46880615960126L158.39337053571424,159.80998225670015L158.66716741071428,159.658557716169L158.9422901785714,159.5359016746766L159.09421540178568,159.48008747456774L159.51363950892855,159.52483791858324L159.64987499999995,159.51564870075757L159.9395825892857,159.71016947322298L160.07670200892858,159.78175999928516L160.21315848214283,159.67245183069753L160.35447656249997,159.79266580381312L160.77047544642858,159.32831988183267L161.8770435267857,159.21663417005487L162.02178683035714,159.56469906011054L162.15890625,159.40962035738727L162.43358705357142,159.59436292794248L162.7101462053571,159.6463592295508L162.8450558035714,160.08361802940453L162.97808705357141,159.71982614858035L163.2503370535714,159.44754413807397L163.53440959821427,159.64200885769134L163.67407031249996,159.33485099915964L163.80931138392853,159.29501185333544L164.2313872767857,159.1753312072871L164.36784375,158.8665944804702L164.5029743303571,159.0115865994389L165.20735491071426,159.31918749981494L165.49374776785712,159.43784286336432L165.62766294642856,159.48923500871766L165.89980245535713,159.681682534378L166.03460156249997,159.72820391623773L166.3177901785714,159.78392447338277L167.14978794642855,159.60274795327052L167.28613392857142,159.763820207456L167.55926785714286,159.47417916620742L167.84776004464283,159.66783659570245L168.41480022321429,159.84038064897828L168.552140625,159.5198916489207L168.69213281249998,159.84639964459586L168.83168303571426,159.58045957246983L168.97476897321425,159.5976677436665L169.25409040178567,159.75058157186078L169.52578794642855,159.61725336357938L169.66345982142852,159.87696481786546L169.80510937499997,160.2180078788679L169.94686941964284,160.00807891434457L170.08796651785713,160.27515845076317L170.22928459821426,160.3133841095012L170.36828236607138,160.01336932842247L170.93377566964284,160.00175849274308L171.21729575892854,160.32491648702972L171.3547466517857,160.24240384863845L172.19536272321426,160.08803756685046L172.47081696428566,160.36852054754715L172.75389508928566,160.2785723722796L172.88847321428568,160.13937409895505L173.02824441964282,160.28897572770117L173.31110156249997,159.9455028867663L173.85858482142856,159.87728839297583L174.28485937499997,160.26784505160194L174.56616964285712,160.10370846448038L174.98835602678568,160.54822134038577L175.39816741071428,160.3471114636797L175.5413638392857,160.6436001076946L175.8205747767857,160.43795545658443L175.95681026785712,160.7685248578478L176.09459263392856,160.74144671191874L176.23889397321426,160.5672022872436L176.37347209821425,160.47340143862817L176.5121383928571,160.3607589578926L176.64947879464285,160.44721677712246L176.9333303571428,160.4347295370475L177.06956584821424,160.22083564716155L177.20878459821427,159.89917086788256L177.62467299107138,160.09728799988082L177.76356026785712,160.0276757429335L178.03967745535712,160.19042766863942L179.16624441964285,160.3245357442695L179.30667857142853,160.3715743661815L179.44600781249997,160.31933769414803L179.5841216517857,160.45511128755246L179.72798102678567,160.70800660792398L180.00686049107142,160.43816004678118L180.13889732142852,160.627867609514L180.2740279017857,160.3134253605417L180.41413058035712,160.20630387111237L180.69068973214286,160.40899827290886L180.82769866071428,160.4064870055919L180.96338169642854,160.2771920877845L181.2490011160714,160.17214835738199L181.38921428571427,160.14917000312795L181.66267968749997,160.05570415135963L183.05707700892856,160.20434416770829L183.48246763392854,159.81479678026466L183.62268080357143,160.01863842795956L183.76223102678568,160.18861267712424L183.9026651785714,160.03111496898177L184.1872901785714,160.2669764907655L184.32275223214285,160.0650392595138L184.4607555803571,160.03892034556625L184.74328124999997,160.1118418950118L185.15143526785712,159.87514906441982L185.28833370535713,160.01576825591494L185.43506584821426,160.13626730715464L185.57351116071425,160.15899522720758L185.71571316964284,160.04387991499294L185.8574732142857,160.22462784628596L185.99348772321426,160.11158599151872L186.1417667410714,160.06048205507173L186.4205357142857,160.51738561811854L186.69532700892853,160.51497779424213L186.83830245535714,160.4949745965728L187.10259709821426,160.43995455698544L187.37937723214284,160.29768183774803L187.6592511160714,160.61072203932437L187.8026685267857,160.29568878982482L187.9356997767857,160.38451087521233L188.07635491071426,160.50656004083035L188.22518638392856,160.24828136852815L188.36352120535713,160.24905105569667L188.9234899553571,160.08322412935732L189.61505357142858,160.2196706972131L189.76112276785713,160.5143660602245L190.03547209821429,160.5436414214948L190.1709341517857,160.6229447590788L190.30960044642853,160.6743228421864L190.7262622767857,160.59740150454567L190.86338169642855,160.61239307971096L190.99674441964282,160.78317657035902L191.27927008928572,160.88170897043213L191.54842633928567,160.4245577013236L191.68245200892855,160.5748161624241L192.09756696428568,160.4779365920323L192.3776618303571,160.51176801620937L192.6699107142857,160.64387499077375L192.80139508928568,160.8877766328052L193.0775122767857,160.91623735157773L193.2230290178571,160.81558192680234L193.63416629464282,160.81330630920453L193.7717276785714,160.99901464106836L193.91901227678568,161.12890623660664L194.19170424107142,161.10120848874547L194.32948660714283,160.83130795212153L194.4677109375,160.8044109566259L194.75741852678567,160.80557925908482L194.89774218749997,160.71931153894081L195.03872879464285,160.78316322287137L195.1717600446428,160.59271374145965L195.32014955357138,160.73261376545872L195.4542857142857,160.78649534662807L195.73007142857142,160.8615285531572L196.15214732142854,160.71760752217855L196.29125558035713,160.9350701801683L196.56593638392857,160.99709517371275L197.1372857142857,160.80022861210247L197.27672544642854,160.56488159707905L197.55748325892853,160.46433205746797L197.6948236607143,160.60063050135346L198.10982812499995,160.77196119875947L198.3891495535714,160.79888203211294L198.6626149553571,160.54008817378357L198.95397991071428,160.72631719084785L199.09319866071425,160.68065111136835L199.23153348214285,160.517024607316L199.36743749999997,160.63530503046601L199.65106808035713,160.2579170238821L200.05900111607144,160.45174140945778L200.19932477678572,160.64107749590698L200.48328683035714,160.00159341073152L200.62504687499998,160.24426213523034L200.76216629464287,160.4496526784914L201.0493325892857,160.70987234653794L201.59803125000002,160.49191426043004L201.87989397321428,160.50874771015265L202.01270424107142,160.26729609570754L202.2918046875,160.2949399003726L202.4422935267857,159.6433100991132L202.57808705357144,159.58009046582015L202.8511104910714,159.63675373470747L202.98602008928574,160.1482854628964L203.5462098214286,160.1661100545858L203.6833292410714,160.3614514997205L203.8185703125,160.08970636793197L203.96928013392858,160.32443275815564L204.108609375,160.3270165374472L204.3793125,160.19067172640897L204.6590758928571,159.83937061114787L204.79829464285714,160.15771636031582L204.93519308035712,160.2619415595498L205.07695312499996,160.25717423313748L205.21628236607143,160.2831101226809L205.3651138392857,160.45199553372328L205.77956584821428,159.99684598061864L206.19567522321427,159.85576867560906L206.47256584821426,160.1637902612891L206.76161049107145,160.0173455026071L206.89839843749996,160.13323132614525L207.0349654017857,160.21238393323375L207.17562053571424,160.25924878559562L207.31019866071426,160.59559602755616L207.87270870535713,160.54476786214022L208.42439062499997,160.46542709939882L208.7023861607143,160.39038771498738L208.85243303571426,160.28976861245863L208.99319866071426,159.92915315829634L209.26964732142855,159.75831737552147L209.40941852678571,159.66145306671712L209.55283593749996,159.51822461255958L209.96607254464283,159.6171525344901L210.3943359375,159.46985159944333L210.53189732142857,159.65343072607007L210.66890625,159.533288362838L210.9493325892857,159.26058281118245L211.09739062499997,159.40143930671738L211.25163616071424,159.29682305884162L211.52963169642854,159.65761245368233L211.6677455357143,159.98282466141904L211.9475089285714,160.0049049438242L212.08263950892854,160.14069030149923L212.21511830357142,160.05359691451784L212.3488125,159.95313093314738L212.49289285714283,160.2965491582578L212.62360379464283,160.41637973317793L212.89607477678567,160.05333109866234L213.03429910714283,159.98809267017404L213.45714843749997,160.07154715961266L214.15412611607144,160.2793538427255L214.70337723214283,160.05566983258137L215.82187834821423,160.36410335720058L215.96606919642855,159.92237012238053L216.1026361607143,160.02834788169298L216.23721428571426,160.0160706469306L216.37554910714283,160.20830108764332L216.79994531249997,160.1711936626541L216.9394955357143,160.15047194551138L217.21517075892856,160.31187954229995L217.35582589285713,160.09733938580638L217.6353683035714,160.35266419684726L217.7733716517857,160.16318969848794L217.91292187499997,160.2965345790751L218.04860491071426,160.4288602844567L218.3314620535714,160.41746231871835L218.6068058035714,159.63775072852184L218.74613504464284,159.64498914041076L218.88833705357143,159.96063463222677L219.16113950892856,160.13071579259727L219.2992533482143,160.17613268014892L219.43681473214284,159.65298704253817L219.7187879464286,159.67701798451102L219.98849665178574,159.61720770988924L220.82193080357143,159.75795721795598L221.10743973214286,160.14556759078857L221.68354017857143,160.39639214941363L221.82165401785716,160.55210194312176L221.95689508928572,160.55127534187497L222.52117299107144,160.56700328630512L223.21118973214288,160.51160742805553L223.34598883928572,160.6213797235993L223.89579241071428,161.08528777680075L224.30869754464288,161.0554199510476L224.44747433035712,160.88923969322715L224.87176004464285,160.6606981173871L225.29085267857144,160.61882140913528L225.42973995535712,160.47805912773242L225.56696986607142,160.51281792188865L225.99479129464288,160.5636116251108L226.13765625,160.32545689425487L226.55453906250003,159.93292141825467L226.70204464285715,159.88981529099053L226.8396060267857,159.78803395974634L226.97926674107143,159.97967400010916L227.11738058035715,160.3327174476176L228.0995357142857,160.61037362533378L228.2356607142857,160.44015077463865L228.37266964285715,160.6006032601031L228.512109375,160.21379755655352L228.79209375000002,160.2464822574774L228.929765625,160.5042262500348L229.06544866071428,160.6578332655049L229.20057924107144,160.53526151290956L229.3361517857143,160.42479399256914L229.47956919642857,160.39649863214177L229.61978236607143,159.9869813662178L229.7582276785714,160.08396585371995L229.8965625,160.4126870102056L230.32758816964287,160.38401522504725L230.6042578125,160.01634396943987L231.30952232142857,160.10888058191813L231.44852008928572,159.79426719624337L231.5896171875,160.29284507651556L231.8861752232143,160.20407946135109L232.45111607142857,160.56143973512445L232.8647946428571,160.67440607509198L233.15218191964286,160.43407907666855L233.71270312500002,160.72965791239977L233.85932477678574,160.55025652000094L233.99611272321428,160.4875212450826L234.1335636160714,160.46169894530246L234.55818080357142,160.59056182250166L234.83286160714283,160.4845690595793L234.97296428571428,160.3825655390663L235.12190625000002,160.52502308271463L235.27261607142856,160.7077003391971L235.40951450892857,160.777690142696L235.67248325892857,160.44562416484555L235.80849776785715,160.35162784548348L236.21654129464284,160.71792749394257L236.62889397321428,160.90412397580909L236.76391406250002,160.8935098949159L236.9024698660714,161.00977044009292L237.58475223214282,160.77530267726488L237.72772767857143,161.05435464982085L237.86495758928572,161.02343344718247L238.95152678571426,160.87565654786292L239.08809374999998,161.0226135879912L239.21979910714288,160.92364137535853L239.4972421875,160.93377894021103L239.63038392857143,160.746244734132L239.76352566964286,160.90082439564046L239.900203125,160.70094521443244L240.03146651785715,160.8176519630288L240.17665178571428,160.83132357621722L240.31498660714286,160.5477094831003L240.5796127232143,161.02021718152503L240.8527466517857,160.81609901713216L240.986109375,160.61755393780172L241.11891964285715,161.1638367698191L241.38884933035712,161.06262674438395L241.5330401785714,160.85351233475333L241.79413058035715,161.01673332782113L242.06262388392855,160.90950202729144L242.20924553571427,161.0881606892741L242.47033593749998,161.3687916564389L242.6084497767857,161.2770614700903L243.15085044642856,161.23004685299244L243.28487611607144,161.2186347323823L243.42575223214286,161.1083772590123L243.56751227678572,161.15002188664081L243.70871986607145,161.1145758033066L243.8408671875,161.2773137774192L244.03290066964288,161.22638065101825L244.33255245535713,161.2199046497242L244.47254464285712,161.305861008516L244.62016071428573,161.1559428930541L244.7709810267857,161.20010882499528L245.36398660714286,161.36869653863414L245.66187053571429,161.41899349526037L245.80285714285714,161.34564917136206L245.96052790178572,161.2316744245184L246.2478046875,161.38239507341476L246.54270535714284,161.285199579841L246.8418046875,161.3989667378572L247.13526897321427,161.37876590868692L247.28166964285717,161.24511219957753L247.44188169642857,161.32972841277294L247.73103683035714,161.3093743042714L247.8782109375,161.3130111171207L248.0201919642857,161.41553055972648L248.17863616071432,161.4242371835389L248.3256997767857,161.41552924495485L248.46745982142858,161.33202636091073L248.76965290178572,161.1013412205192L248.92422991071427,161.36108066742955L249.36442633928573,161.52583129319748L249.5013247767857,161.4564477189672L249.78108816964286,161.63530274043083L249.92008593749998,161.66663682714096L250.34415066964283,161.6759302890369L250.47519308035714,161.5826688896642L250.61176004464286,161.51082209363963L250.74689062500002,161.4849704031761L250.88047433035715,161.51173454486405L251.15990624999998,161.58067141457016L251.71932254464284,160.8906347393013L251.99687611607143,160.9943081020494L252.13244866071426,160.94488862502726L252.26724776785716,161.07790580255528L252.68413058035713,161.20020023663025L252.82412276785712,161.31522452960994L253.09836160714286,161.36563693104918L253.24553571428572,161.4814645283124L253.38652232142857,161.49502045661262L253.65976674107145,161.41635421376995L253.79677566964284,161.30801962591153L253.94516517857141,161.26248122939708L254.07941183035712,161.39928600155855L254.35519754464283,161.45704695543466L254.63496093749998,161.38235472944638L254.9104151785714,161.54351335947072L255.04676116071428,161.4952364228765L255.32862388392857,161.39171467475614L255.46574330357143,161.2344437739174L255.60606696428573,161.35954715569187L255.74804799107142,161.50292909918923L256.03156808035715,161.58039154587942L256.4474564732143,161.66860023506507L256.58590178571427,161.62924932500917L256.7399263392857,161.5321629977206L256.8785926339286,161.55043254067226L257.0202421875,161.48529543521607L257.2952544642857,161.60681605731241L257.44276004464285,161.6425767305412L257.5849620535714,161.6690424675801L257.8607477678571,161.68316538184084L257.99797767857143,161.52088301532066L258.14426785714284,161.5952628834815L258.27884598214285,161.61285769143484L258.56015625000003,161.58283959688322L258.70103236607144,161.71448460809336L258.8476540178571,161.7432558934025L259.4099430803571,161.6627875202056L259.8348917410714,161.62237539259758L259.9706852678571,161.70090125800837L260.10415848214285,161.55571356074017L260.5208203125,161.4891689713313L260.6536305803571,161.5007783656702L260.78677232142854,161.7613044006206L260.9259910714286,161.7131380218428L261.0715078125,161.5665689285723L261.34629910714284,161.44064678430402L261.4823136160714,161.66383898147618L261.62164285714283,161.57487392370646L262.03465848214285,161.65887940745247L262.17067299107146,161.63373292411472L262.4463482142857,161.60514896902964L262.57904799107143,161.7728782995691L262.71417857142853,161.95533142091654L263.13570200892855,161.8641113894255L263.406515625,161.8119458155766L263.545734375,161.83156153742007L263.67942857142856,161.8276102202493L263.8237299107143,161.78034391223537L263.96062834821424,161.33727985074836L264.3739754464285,161.2480892597984L264.7969352678571,161.17850590277894L264.9318448660714,161.3179352226186L265.34640736607145,161.4178906205767L265.47844419642854,161.12912993616857L266.03653459821425,161.43469535878344L266.45452232142856,161.3478042660647L266.6022488839286,161.2315172590678L266.8834486607143,160.9216551580899L267.0201261160715,161.2658541412209L267.1565825892857,161.52085377387684L267.4412075892857,161.42764281789258L267.5807578125,161.48776471243562L267.7197555803571,161.57571530050564L267.8601897321429,161.39330395147655L268.42833482142856,161.49883884844226L268.56733258928574,161.28581834001795L268.70577790178567,161.37145519846902L269.00454575892854,161.48409642278L269.1429910714286,161.4755081209357L269.2811049107143,161.2827062075945L269.84560379464284,161.11728221248185L269.9850435267857,161.15979272329704" style="fill: none;" fill="none"></path></g></g></g></g><g opacity="0.2"><g><g><g><path stroke="rgb(0, 153, 136)" stroke-width="2px" d="M29.3511796875,-0.8145331236032218L29.61580580357143,2.615830916624798L30.02163950892857,1.1970152488121513L30.700165178571428,4.337902912726757L30.835074776785714,6.134214602983905L30.97009486607143,4.816938840425921L31.12301450892857,7.315914465830878L31.25969196428571,7.423021536606994L31.391839285714287,8.20346348102276L32.09124776785714,19.42487278351417L33.16853571428571,21.82802174641534L33.443879464285715,29.08999962990101L33.576358258928565,26.259355655083283L33.70740066964286,33.85324535003075L34.662706473214286,41.6593690285316L35.064231026785706,48.24532584043651L35.341453125,49.2994840511909L35.48122433035714,51.02286262695606L35.61502901785714,57.83678918618423L36.160412946428565,60.78511460010822L36.29642745535713,60.42414153539218L36.432662946428565,62.55146422752968L36.847888392857136,67.97432167713458L36.987659598214286,65.61915908409999L37.39515066964285,74.00824452363528L37.96274330357142,80.58533120155334L38.241622767857145,72.89840654226451L38.504922991071425,80.8735983830232L38.63994308035714,79.86586838502151L38.784796875,88.69526305565468L38.91661272321428,86.44220033058754L39.05030691964285,89.39018489764288L39.181791294642856,88.61617035132187L39.44586495535714,90.1125854895665L39.720214285714285,92.6511155825395L40.10682254464286,97.51338543341711L40.24825111607142,97.37076536508708L40.381392857142856,101.28311528150851L40.644361607142855,99.86394659372476L40.77783482142857,102.54581902577327L40.91837946428571,108.1182149236019L41.31570535714285,107.3415912756553L41.59723660714286,106.49448130680965L41.72827901785714,109.51519204561527L41.99754575892857,112.51201104200804L42.13389174107142,112.09145469848926L42.54315066964285,115.24260023007027L43.07825892857143,119.80926657640018L43.21073772321428,118.95688159649188L43.339459821428576,118.00453921464774L43.47171763392856,121.38148768131549L43.75203348214285,118.9796899327865L43.88152901785713,123.09337484836578L44.149690848214284,118.42533902021555L44.428017857142855,126.7850142442263L44.5585078125,120.57236996522316L44.693085937499994,125.07807747217325L44.827111607142854,123.46234969909376L45.0952734375,126.89731517204872L45.22786272321429,125.39391267299652L46.16206473214286,128.59470011637762L46.69275334821428,131.5238082592304L47.242667410714276,132.89526041425194L47.37370982142857,132.4756231399683L47.50342633928571,132.7831441118167L48.05334040178571,135.9902940300795L48.18604017857143,134.40654905484274L48.322165178571424,134.14560440182686L48.46237834821429,137.72816062661317L48.85672098214285,133.81189097120213L48.98942075892857,135.70830816947498L49.403430803571425,136.75218010865726L49.53513616071429,135.18982327442902L49.80882254464285,136.77989826294092L49.941522321428565,136.52870223613886L50.075547991071424,138.50017269758078L50.342825892857135,136.52743217578302L50.48436495535714,135.58350140773334L50.61584933035714,137.77476129165063L50.74965401785715,138.99663239258987L50.887767857142855,137.84085920911568L51.02278794642857,139.3774699316575L51.450498883928574,139.85552592460925L51.58198325892857,138.55740250990942L51.8566640625,139.62047954706046L52.38315401785714,139.91304789139676L52.52524553571428,140.13418852824432L52.799373883928574,139.17887185170102L53.10013058035714,141.8938064300097L53.245647321428564,140.78342065902856L53.93732142857142,140.84273815842775L54.36304352678572,140.27076668005722L54.50391964285714,142.06819423803915L54.64346986607142,141.96762412327988L54.78998102678571,141.39767540876682L55.07073883928572,145.20186730990042L55.635790178571426,142.19505825409522L55.90781919642857,143.79609917906615L56.195979910714286,142.4088260485576L56.344148437499996,143.51645258298288L56.4814888392857,139.37927763737167L57.0476450892857,144.05823679612232L57.19017857142857,144.91263642448646L57.463422991071425,144.6311557476337L57.74031361607143,145.58181418363864L58.01952455357143,144.78925797343254L58.72909821428571,146.41981055644843L59.01283928571427,143.95537002270038L59.152499999999996,146.9257601992442L59.57247656249999,145.69661262631416L59.86295758928571,145.4524587392807L60.00029799107142,147.1981830734473L60.14117410714285,147.13054322967162L60.42369977678571,146.87111615676147L60.57043191964285,146.7355077954439L60.706114955357144,148.39368317677426L61.27182924107143,147.88581525591704L61.407401785714285,146.9752854521458L61.681088169642855,146.9223283987779L62.11111941964285,148.22097221360755L62.670977678571425,147.56365308509422L62.80820758928571,147.27926810888144L62.95074107142857,148.8412333749808L63.08885491071428,148.95953564231212L63.368728794642855,147.37979561778215L63.78737946428571,148.21707479197246L63.91963727678571,149.2526842378653L64.06482254464284,150.52408059170614L64.47518638392856,151.4117919149307L64.60821763392856,150.9433557161918L64.89582589285715,150.64998191824327L65.74671763392857,149.43963062992464L66.02316629464285,150.91605651951755L66.17056138392857,149.82563767983365L66.30944866071428,149.9154782192065L66.44535267857142,147.3700611935212L66.5836875,149.27447206240433L66.86996986607143,149.4070209173056L67.00819419642856,148.4352482350973L67.7156685267857,146.37764292955399L67.85422433035714,149.07274042299161L68.13498214285714,147.7780325779548L68.42115401785715,150.3314422598252L68.56015178571428,148.8802035336311L68.70091741071428,151.1017521252999L69.12873883928572,151.8998805731535L69.2687310267857,151.72956365346909L69.40629241071427,150.82776602185692L69.68450892857142,151.18910630849692L69.83665513392856,150.85849600457226L70.10890513392857,149.8864210236531L70.245140625,150.4453764122266L70.5305390625,152.4675194414762L70.80643526785714,151.06693096573537L71.08343638392857,151.50644488747304L71.22917410714287,150.6068292844754L71.36596205357142,151.8555349753453L71.64218973214285,150.12539018346715L71.7847232142857,153.06593901377457L72.20989285714286,150.97113169271213L72.34734375,151.8286263323747L72.4899877232143,149.81606556360538L72.63892968749998,150.6869252553353L72.91946651785713,151.78409306590373L73.06012165178569,152.26570360477155L73.19315290178571,151.85568206699995L73.33977455357142,153.5417734155288L74.5972734375,152.51313104193943L74.73792857142857,152.15360556199002L75.0269732142857,152.28710189003212L75.43590066964286,152.83555087676416L76.42678459821428,152.79041199844616L76.56290959821429,151.40037963138175L77.121,154.53657456430105L77.25999776785713,155.26334885049326L77.39689620535714,154.3066703081131L77.68174218749999,153.99340566075767L77.95100892857143,154.03979938305343L78.22723660714284,154.25068012338417L78.51970647321428,153.9056538228805L79.79455245535713,154.0698791192128L79.93310825892856,152.85252525370854L80.06613950892857,147.61232419197376L80.20613169642857,149.3165504198808L80.4881049107143,147.6375438169791L80.6266607142857,148.96456516247528L81.03359933035715,149.86281636357307L81.4596529017857,150.64001620503572L82.28811495535714,153.12890032850777L82.42423995535712,154.3543979995526L82.56334821428571,152.83659979242546L82.70974888392855,152.6483184167972L82.84719977678571,152.7658902979814L83.11889732142856,153.14965952588963L83.25877901785715,154.54617609886023L83.4040747767857,152.98800884072597L83.67621428571428,155.0617495935697L83.81620647321428,153.97561061382294L83.95630915178572,153.44038871733042L84.24237053571429,153.55877721080412L84.52246540178572,152.18730882497934L84.65671205357143,153.8356067480949L85.22971874999999,154.21292727497908L86.21695647321428,156.4546284377575L86.3531919642857,154.80832690344405L86.62190625,153.17094013782648L86.76024107142857,154.59932589301695L87.03823660714284,155.88386564701796L87.31126004464285,154.79339862213683L87.73245200892856,154.86412739065977L88.71195535714287,155.07129989965605L89.1321529017857,154.07742238503235L89.27269754464284,156.42525423432772L89.6754375,154.98939165816856L89.82084375,154.94374861052404L89.95464843749998,156.54570556145447L90.23496428571428,154.62000393638243L90.37495647321427,155.6637987792492L90.52478236607142,157.13454693097336L90.6581450892857,155.11405437153118L90.93050558035713,155.40656185035522L91.64184709821427,155.38029432411378L91.77973995535713,154.9443298761661L92.61361607142857,155.57667081287275L92.88465066964285,156.44034178039203L93.0221015625,156.66163103053202L93.1602154017857,156.80291510086792L93.30274888392859,156.7581799637813L93.44561383928571,157.08795336691233L93.58129687499999,155.67669415244688L93.7186372767857,157.05159636758842L93.86150223214285,156.06551166738456L94.01121763392855,156.4950208205443L94.14723214285713,157.3179326905654L94.42224441964284,156.3498413574237L94.84487276785714,157.91091697261882L94.98088727678572,155.35808754196535L95.12021651785713,155.5220754627998L95.40870870535714,156.77805356795972L95.54317633928571,156.41847483068705L95.95773883928572,156.1975041100612L96.23849665178572,157.30214823438573L96.51339843749999,155.85501742305664L96.6507388392857,157.43769116527758L97.06762165178573,156.90824084098523L97.20684040178571,155.75985875954996L97.34926339285714,157.2863632709934L97.634109375,156.2026122481777L97.77233370535713,155.64949893435607L97.9106685267857,155.42070953146768L98.19661941964286,156.19222098359694L98.47837165178571,155.9980392037676L98.61482812499999,157.85589150625927L99.03469419642857,157.04767003483497L99.16993526785714,156.2610177793182L99.30153013392858,157.21385520066207L99.43599776785713,157.67281007422852L99.570796875,157.2696856134213L99.71531919642857,155.89234674893893L99.85409598214285,156.35509405113183L99.98966852678572,156.89483521190974L100.26655915178569,156.77932413552816L100.41273883928571,157.28938980859058L100.96519419642856,156.31350667545428L101.11126339285714,156.32708627845233L101.24727790178571,157.63713578306712L101.52195870535714,156.46714187986575L101.66791741071428,156.53189416229725L101.81829575892857,157.29839993325564L101.95707254464284,154.85521566523957L102.23827232142855,155.96697091024654L102.54024441964285,157.77642549345126L102.82155468749998,155.94642068445683L103.09513058035714,156.2353457206717L103.37655133928571,157.4634357553262L103.65090066964285,157.87634485444198L103.78702566964286,156.63984827811902L103.92337165178569,156.97990896724738L104.34633147321428,157.61998591056238L104.90718415178573,157.20349031113662L105.04618191964283,157.72738615022254L105.32130468749999,156.50589190824675L105.46549553571427,157.7046407082906L105.74227566964285,158.47932122475825L106.31263058035714,156.65084211127115L106.45483258928569,158.4124295195708L106.73592187499999,158.9666074726444L107.02596093749999,157.22082785230415L107.5894654017857,157.75681817588898L107.98789620535715,158.0334194675088L108.128109375,157.08014127841363L108.40941964285712,158.14013547736866L108.5434453125,157.0485647578652L108.67879687499999,157.5300561017715L108.813375,157.1713558567258L108.96121205357143,158.29927393851372L109.09932589285715,158.39301798607295L109.23677678571428,156.9370505167888L109.38030468749999,157.71036663135658L109.51963392857141,157.6151871721332L110.07595647321428,157.01739552903635L110.21108705357143,156.81227114452767L110.49747991071428,158.1549775325335L110.77713281249999,157.949335283958L111.20152901785713,158.45317898002955L111.50029687499998,157.87468779087067L111.63675334821428,158.37211220424908L111.78856808035714,159.46173522736018L112.26014397321427,157.96953857632784L112.40113058035713,158.4919279939853L112.53725558035713,158.32029637923608L112.6840982142857,158.58762886776375L112.82121763392855,157.4999763656121L113.10230691964284,158.52810290398506L113.24141517857142,159.06923433450552L113.3859375,157.85183279101665L113.6558671875,158.46137249240508L113.79232366071426,156.88679234167705L113.92745424107142,158.9353606402874L114.06998772321427,157.57223995946921L114.20567075892856,156.89808644468968L114.33870200892855,158.51121018826962L114.61868638392856,158.26021704650842L114.76608147321426,157.5840346813202L115.17346205357143,159.46762447288404L115.72470200892856,158.6008600157041L116.14423660714284,158.61304782732176L116.28157700892856,158.46461205929518L116.41847544642856,157.10996740827193L116.55703124999998,158.69310169953567L116.69282477678571,158.3755906682748L116.84320312499999,159.24396045334063L116.97943861607142,158.29041749926714L117.11854687499998,158.3134692976108L117.39554799107141,158.47541010838287L117.53112053571428,158.82499320690448L117.67453794642857,158.98550875026447L118.2246729910714,158.5182705876919L118.77480803571427,158.77666801901964L118.91170647321427,159.1985507234931L119.1948950892857,158.44030592418633L119.33466629464286,158.65838350412938L119.47233816964284,158.14050422093044L119.60879464285712,158.59674550707524L119.7576261160714,158.9825354699905L119.89993861607141,157.82527666080458L120.32090959821427,159.11063505594547L120.46775223214286,158.4201259635962L120.60674999999998,158.2660890468038L121.3128984375,159.49631698257647L121.58559040178571,158.9481839892956L121.72447767857143,158.8575907464211L121.86922098214285,159.2986567387214L122.00843973214283,158.50049177156043L122.2883136160714,157.97092123788136L122.70541741071428,158.4456098463673L122.84397321428571,158.33967392948958L123.26847991071429,158.95818317853488L123.40659375,159.1722066081487L123.5439341517857,159.4635127539245L123.82027232142856,160.2093399743048L124.10511830357142,158.61274857188647L124.51758147321428,159.30374205227082L124.65370647321427,159.25045125301068L124.93788950892855,159.5468092363041L125.35167857142856,158.67143053389512L125.5022779017857,158.23069828748703L125.64116517857143,158.8294764590951L125.91794531249998,159.06499708042693L126.05484374999999,158.39943929761648L126.20179687499999,158.6582734389947L126.34057366071427,159.35474887318335L126.47548325892855,158.89794660990054L126.61812723214284,158.87382865066712L126.7572354910714,159.2761978719097L126.90949218749998,158.44083951184382L127.32504910714283,159.57272196733035L127.46725111607141,158.67780518187928L128.02699888392857,158.82157865166664L128.16456026785713,159.06989371088835L128.4502901785714,159.34597510959094L128.73016406249997,158.74967010663104L129.01467857142856,158.97946176162134L129.15621763392855,158.32574891470946L129.29941406249998,158.94145530691515L129.4425,158.844892171713L129.5767466517857,157.52906450113426L129.73088169642855,158.53215198218822L130.00401562499997,158.0686813948246L130.2821216517857,158.6686286914807L130.56343191964282,158.25886786098664L130.9789888392857,159.18395060873948L131.13312388392856,159.80821367754388L131.27002232142857,157.6849365131213L131.40802566964285,158.69714063348678L131.54801785714284,159.32125990751845L131.8356261160714,159.4213763206051L132.1206930803571,158.84960722006284L132.39681026785712,158.31560770594157L132.5351450892857,158.5602632262386L132.82153794642855,159.7263799963089L133.2336696428571,158.7564393660197L133.5193995535714,156.69034179987815L133.6601651785714,159.7795708746864L133.7947433035714,159.1854271046244L134.21438839285713,159.05060238677723L134.63756919642856,158.78244821383404L134.7858482142857,159.54080459991326L135.06030803571426,159.42670966111697L135.33841406249996,158.85327132390094L135.6304419642857,158.48115784159074L135.7688872767857,159.74194711188858L136.33239174107143,160.3586182224636L136.6053046875,159.13981905464942L136.74695424107142,159.194422520124L136.8939073660714,158.96985211166051L137.03014285714283,159.3768458438034L137.30327678571427,159.82519211218906L137.44824107142855,158.44204160571098L137.6336450892857,158.93191768114383L137.7813716517857,158.5370222375943L138.369515625,159.46422817729987L138.6580078125,158.6215238571167L138.8015357142857,158.40466916675751L138.94340624999998,159.4189277517681L139.08605022321427,159.39248295472217L139.24106919642855,158.99581886082888L139.82004241071428,159.29421812123977L140.11770535714282,158.80694556809388L140.26156473214286,159.87699753934373L140.68242522321427,160.3130806750403L140.82142299107144,159.41541631892323L140.9625200892857,159.49220526361694L141.09919754464283,159.0474749138722L141.23686941964283,158.6782566010952L141.5225993303571,159.44631748589185L141.6621495535714,159.6179470717907L141.80313616071425,158.82716154077877L141.93727232142857,159.59538169033252L142.23526674107143,159.14194554348404L142.645078125,159.48983658076477L142.92959263392854,158.79203554644036L143.06991629464287,158.89757989518918L143.34647544642854,160.00505654829053L143.49309709821426,158.34269640938592L143.63286830357143,160.08928351218884L143.9089854910714,158.80005762095635L144.04754129464285,159.47989064884874L144.33426562499997,159.489279154115L144.47768303571428,160.03817829203146L145.17344531249998,158.08214129564854L145.44945200892857,159.5496250270651L145.59552120535713,160.33293601956504L145.73407700892855,159.4357616308217L145.8753950892857,159.38287051509207L146.01605022321425,159.67790492710012L146.153390625,159.4115663216664L146.28951562499998,158.76712329227192L146.57679241071426,159.79478522390127L146.7173370535714,160.35094155972968L146.85710825892855,160.17962593843157L147.2705658482143,158.9126684556787L147.40580691964283,159.45724030927968L147.54314732142853,159.99109476059675L147.67728348214283,159.775599907224L147.95903571428568,160.79006036285026L148.7908125,159.82632268907932L148.92638504464284,160.35601495378293L149.06018973214285,160.58084302624832L149.34337834821426,159.3336361486178L149.89749107142856,160.39024419624073L150.31006473214285,160.09721225958603L150.72584263392855,158.7036958491573L151.14537723214283,159.39825351249712L151.29199888392856,158.59297387416547L151.70578794642853,159.1069618222805L151.84080803571428,158.70935583458495L151.9906339285714,159.68106257915497L152.26929241071426,159.3981069280551L152.4097265625,159.85569182038307L152.54817187499995,158.5453689281757L152.83876339285712,159.21521164304934L152.97411495535712,160.13294589462188L153.11145535714283,158.98711712142597L153.24956919642855,158.7084286499482L153.3885669642857,158.5694574690782L153.66844084821426,159.57201364493142L153.80600223214284,158.43498323513913L154.0753794642857,159.47619408340407L154.35359598214285,158.72246068658737L154.49071540178568,159.0586893845063L154.76804799107143,160.4645523640972L155.05521428571427,159.94277616647574L155.18923995535712,159.7377747810231L155.32890066964282,158.67518948648984L155.46579910714286,159.5560128625769L155.88080357142857,160.00308019438614L156.01958035714284,159.50087606305112L156.1548214285714,159.61814412388665L156.29834933035713,159.0728715560757L156.5759029017857,158.87432115410382L156.70915513392856,160.16791566747887L157.83141294642854,159.1257956406245L158.24597544642856,159.57715145498514L158.39337053571424,160.32174640234845L158.66716741071428,159.43142090537228L158.9422901785714,159.35191761243803L159.09421540178568,159.39636617440445L159.51363950892855,159.59196358460648L159.64987499999995,159.50186487401908L159.9395825892857,160.00195063192112L160.07670200892858,159.88914578837844L160.21315848214283,159.50848957781608L160.35447656249997,159.9729867634865L160.77047544642858,158.63180099886196L161.8770435267857,159.0491056023882L162.02178683035714,160.08679639519406L162.15890625,159.1770023033023L162.43358705357142,159.87147678377536L162.7101462053571,159.7243536819632L162.8450558035714,160.73950622918514L162.97808705357141,159.1741383273441L163.2503370535714,159.03912112231438L163.53440959821427,159.93370593711734L163.67407031249996,158.87411421136213L163.80931138392853,159.2352531345991L164.2313872767857,158.99581023821463L164.36784375,158.40348939024486L164.5029743303571,159.229074777892L165.20735491071426,159.780588850379L165.49374776785712,159.6158259086884L165.62766294642856,159.5663232267476L165.89980245535713,159.9703538228686L166.03460156249997,159.7979859890273L166.3177901785714,159.86750530910032L167.14978794642855,159.33098317310214L167.28613392857142,160.00542858873422L167.55926785714286,159.03971760433453L167.84776004464283,159.958322739945L168.41480022321429,160.09919672889205L168.552140625,159.03915814883433L168.69213281249998,160.3361616381086L168.83168303571426,159.18154946428078L168.97476897321425,159.6234800004615L169.25409040178567,159.97995231415217L169.52578794642855,159.41726105115734L169.66345982142852,160.26653199929459L169.80510937499997,160.72957247037155L169.94686941964284,159.69318546755957L170.08796651785713,160.67577775539112L170.22928459821426,160.3707225976082L170.36828236607138,159.56334715680433L170.93377566964284,159.984342239224L171.21729575892854,160.80965347845967L171.3547466517857,160.11863489105153L172.19536272321426,159.85648814416848L172.47081696428566,160.78924501859225L172.75389508928566,160.1436501093782L172.88847321428568,159.93057668896822L173.02824441964282,160.51337817082037L173.31110156249997,159.43029362536393L173.85858482142856,159.77496665229017L174.28485937499997,160.85368003954108L174.56616964285712,159.85750358379804L174.98835602678568,161.21499065424388L175.39816741071428,160.04544664862064L175.5413638392857,161.08833307371688L175.8205747767857,160.12948847991916L175.95681026785712,161.26437895974288L176.09459263392856,160.70082949302517L176.23889397321426,160.30583565023082L176.37347209821425,160.33270016570503L176.5121383928571,160.19179523678926L176.64947879464285,160.5769035059672L176.9333303571428,160.41599867693506L177.06956584821424,159.89999481233266L177.20878459821427,159.41667369896402L177.62467299107138,160.39446369787822L177.76356026785712,159.92325735751254L178.03967745535712,160.43455555719825L179.16624441964285,160.52569785771462L179.30667857142853,160.44213229904955L179.44600781249997,160.2409826860978L179.5841216517857,160.6587716776591L179.72798102678567,161.0873495884813L180.00686049107142,160.03339020506692L180.13889732142852,160.91242895361322L180.2740279017857,159.84176198708323L180.41413058035712,160.04562163696838L180.69068973214286,160.71303987560364L180.82769866071428,160.4027201046164L180.96338169642854,160.08324971107336L181.2490011160714,160.01458276177829L181.38921428571427,160.11470247174685L181.66267968749997,159.9155053737072L183.05707700892856,160.42730419223125L183.48246763392854,159.2304756990992L183.62268080357143,160.32440089950194L183.76223102678568,160.44357405087123L183.9026651785714,159.79486840676802L184.1872901785714,160.62076877344114L184.32275223214285,159.76213341263625L184.4607555803571,159.99974197464493L184.74328124999997,160.22122421918007L185.15143526785712,159.52010981853192L185.28833370535713,160.22669704315754L185.43506584821426,160.31701588401427L185.57351116071425,160.193087107287L185.71571316964284,159.871206946671L185.8574732142857,160.49574974322547L185.99348772321426,159.94202320936782L186.1417667410714,159.98382615040128L186.4205357142857,161.20274096268875L186.69532700892853,160.51136605842757L186.83830245535714,160.4649698000688L187.10259709821426,160.35742449760437L187.37937723214284,160.08427275889196L187.6592511160714,161.08028234168887L187.8026685267857,159.82313891557547L187.9356997767857,160.51774400329361L188.07635491071426,160.68963378925736L188.22518638392856,159.86086336007486L188.36352120535713,160.25020558644945L188.9234899553571,159.8344837398483L189.61505357142858,160.42434054899675L189.76112276785713,160.95640910474154L190.03547209821429,160.5875544634003L190.1709341517857,160.7418997654548L190.30960044642853,160.7513899668478L190.7262622767857,160.4820194980846L190.86338169642855,160.63488044245886L190.99674441964282,161.03935180633115L191.27927008928572,161.02950757054182L191.54842633928567,159.73883079766082L191.68245200892855,160.80020385407485L192.09756696428568,160.33261723644458L192.3776618303571,160.56251515247502L192.6699107142857,160.84203545262034L192.80139508928568,161.25362909585238L193.0775122767857,160.95892842973655L193.2230290178571,160.6645987896392L193.63416629464282,160.8098928828079L193.7717276785714,161.27757713886407L193.91901227678568,161.32374362991405L194.19170424107142,161.05966186695375L194.32948660714283,160.42645714718563L194.4677109375,160.76406546338248L194.75741852678567,160.80733171277322L194.89774218749997,160.5899099587248L195.03872879464285,160.8789407487672L195.1717600446428,160.30703951934208L195.32014955357138,160.94246380145734L195.4542857142857,160.86731771838205L195.73007142857142,160.9740783629509L196.15214732142854,160.50172597571063L196.29125558035713,161.26126416715292L196.56593638392857,161.09013266402943L197.1372857142857,160.50492876968704L197.27672544642854,160.21186107454392L197.55748325892853,160.31350774805134L197.6948236607143,160.80507816718173L198.10982812499995,161.02895724486845L198.3891495535714,160.83926328214315L198.6626149553571,160.15189738628956L198.95397991071428,161.00566071644425L199.09319866071425,160.61215199214908L199.23153348214285,160.27158485123744L199.36743749999997,160.81272566519104L199.65106808035713,159.69183501400627L200.05900111607144,160.74247798782127L200.19932477678572,160.9250816255808L200.48328683035714,159.04236728296829L200.62504687499998,160.6082652219786L200.76216629464287,160.75773849338293L201.0493325892857,161.10020184860778L201.59803125000002,160.16497713126816L201.87989397321428,160.5339978847366L202.01270424107142,159.90511867403984L202.2918046875,160.33640560737024L202.4422935267857,158.66586539722405L202.57808705357144,159.48526101588058L202.8511104910714,159.72174863803846L202.98602008928574,160.91558305517984L203.5462098214286,160.19284694211987L203.6833292410714,160.65446366742253L203.8185703125,159.68208867024916L203.96928013392858,160.67652234349114L204.108609375,160.3308922063846L204.3793125,159.98615450985156L204.6590758928571,159.31241893825623L204.79829464285714,160.63523498406778L204.93519308035712,160.41827935840075L205.07695312499996,160.25002324351897L205.21628236607143,160.3220139569961L205.3651138392857,160.70532365028674L205.77956584821428,159.31412165096174L206.19567522321427,159.6441527180947L206.47256584821426,160.6258226398092L206.76161049107145,159.79767836458407L206.89839843749996,160.3070600614525L207.0349654017857,160.33111284386652L207.17562053571424,160.3295460641384L207.31019866071426,161.10011689049693L207.87270870535713,160.46852561401633L208.42439062499997,160.34641595528674L208.7023861607143,160.2778286383702L208.85243303571426,160.13883995866547L208.99319866071426,159.38822997705293L209.26964732142855,159.50206370135913L209.40941852678571,159.51615660351055L209.55283593749996,159.3033819313233L209.96607254464283,159.76554441738588L210.3943359375,159.24890019687322L210.53189732142857,159.9287994160102L210.66890625,159.3530748179899L210.9493325892857,158.85152448369908L211.09739062499997,159.6127240500198L211.25163616071424,159.13989868702797L211.52963169642854,160.1987965459434L211.6677455357143,160.47064297302413L211.9475089285714,160.0380253674319L212.08263950892854,160.34436833801178L212.21511830357142,159.92295683404575L212.3488125,159.80243196109166L212.49289285714283,160.81167649592345L212.62360379464283,160.59612559555816L212.89607477678567,159.50875814688894L213.03429910714283,159.8902350274416L213.45714843749997,160.19672889377063L214.15412611607144,160.59106386739475L214.70337723214283,159.72014381736517L215.82187834821423,160.8267536441294L215.96606919642855,159.25977027015043L216.1026361607143,160.18731452066166L216.23721428571426,159.997654794787L216.37554910714283,160.49664674871244L216.79994531249997,160.11553252517032L216.9394955357143,160.11938936979723L217.21517075892856,160.55399093748284L217.35582589285713,159.775529151066L217.6353683035714,160.73565141340862L217.7733716517857,159.87897795094895L217.91292187499997,160.49655189995582L218.04860491071426,160.62734884252916L218.3314620535714,160.40036537011082L218.6068058035714,158.46818334322708L218.74613504464284,159.65584675824414L218.88833705357143,160.4341028699508L219.16113950892856,160.38583753315302L219.2992533482143,160.24425801147635L219.43681473214284,158.86826858612207L219.7187879464286,159.7130643974703L219.98849665178574,159.52749229795657L220.82193080357143,159.96908148005605L221.10743973214286,160.72698315003743L221.68354017857143,160.77262898735128L221.82165401785716,160.78566663368392L221.95689508928572,160.5500354400048L222.52117299107144,160.59059520295034L223.21118973214288,160.42851364068113L223.34598883928572,160.786038166915L223.89579241071428,161.78114985660292L224.30869754464288,161.0106182124179L224.44747433035712,160.63996930649648L224.87176004464285,160.317885753627L225.29085267857144,160.55600634675758L225.42973995535712,160.26691570562812L225.56696986607142,160.56495611312297L225.99479129464288,160.63980217994404L226.13765625,159.96822479797098L226.55453906250003,159.34411820425439L226.70204464285715,159.82515610009432L226.8396060267857,159.63536196288007L226.97926674107143,160.26713406065335L227.11738058035715,160.86228261888027L228.0995357142857,161.02685789190807L228.2356607142857,160.18481649859595L228.37266964285715,160.8412819882998L228.512109375,159.63358900122918L228.79209375000002,160.29550930886316L228.929765625,160.89084223887096L229.06544866071428,160.88824378871L229.20057924107144,160.35140388401655L229.3361517857143,160.25909271205848L229.47956919642857,160.35405559150072L229.61978236607143,159.37270546733188L229.7582276785714,160.2294425849731L229.8965625,160.90576874493408L230.32758816964287,160.34100754730977L230.6042578125,159.46483708602878L231.30952232142857,160.24768550063555L231.44852008928572,159.3223471177312L231.5896171875,161.04071189692388L231.8861752232143,160.07093103860433L232.45111607142857,161.09748014578452L232.8647946428571,160.84385558504326L233.15218191964286,160.07358857903344L233.71270312500002,161.17302616599662L233.85932477678574,160.28115443140268L233.99611272321428,160.39341833270512L234.1335636160714,160.42296549563224L234.55818080357142,160.78385613830042L234.83286160714283,160.3255799151957L234.97296428571428,160.22956025829683L235.12190625000002,160.73870939818713L235.27261607142856,160.98171622392076L235.40951450892857,160.88267484794443L235.67248325892857,159.9475251980699L235.80849776785715,160.21063336644036L236.21654129464284,161.2673769666312L236.62889397321428,161.18341869860888L236.76391406250002,160.87758877357612L236.9024698660714,161.18416125785845L237.58475223214282,160.42360103302278L237.72772767857143,161.47293260865487L237.86495758928572,160.97705164322485L238.95152678571426,160.6539911988836L239.08809374999998,161.2430491481836L239.21979910714288,160.77518305640953L239.4972421875,160.9489852874898L239.63038392857143,160.46494342501347L239.76352566964286,161.13269388790314L239.900203125,160.40112644262038L240.03146651785715,160.99271208592333L240.17665178571428,160.85183099599985L240.31498660714286,160.12228834342497L240.5796127232143,161.7289787291621L240.8527466517857,160.50992177054286L240.986109375,160.31973631880604L241.11891964285715,161.98326101784522L241.38884933035712,160.9108117062312L241.5330401785714,160.53984072030735L241.79413058035715,161.26156481742285L242.06262388392855,160.74865507649687L242.20924553571427,161.35614868224812L242.47033593749998,161.78973810718608L242.6084497767857,161.1394661905674L243.15085044642856,161.15952492734561L243.28487611607144,161.20151655146708L243.42575223214286,160.94299104895728L243.56751227678572,161.21248882808365L243.70871986607145,161.06140667830522L243.8408671875,161.52142073858815L244.03290066964288,161.1499809614168L244.33255245535713,161.21019064778318L244.47254464285712,161.4347955467036L244.62016071428573,160.93106571986127L244.7709810267857,161.26635772290712L245.36398660714286,161.62157810909244L245.66187053571429,161.4944389301997L245.80285714285714,161.2356326855146L245.96052790178572,161.06071230425286L246.2478046875,161.60847604675936L246.54270535714284,161.13940633948033L246.8418046875,161.5696174748815L247.13526897321427,161.34846466493147L247.28166964285717,161.04463163591348L247.44188169642857,161.456652732566L247.73103683035714,161.2788431415191L247.8782109375,161.31846633639472L248.0201919642857,161.56930972363514L248.17863616071432,161.43729711925755L248.3256997767857,161.40246733707878L248.46745982142858,161.20677203484453L248.76965290178572,160.75531350993194L248.92422991071427,161.75068983779502L249.36442633928573,161.77295723184943L249.5013247767857,161.3523723576218L249.78108816964286,161.90358527262623L249.92008593749998,161.71363795720615L250.34415066964283,161.6898704818808L250.47519308035714,161.44277679060514L250.61176004464286,161.4030518996028L250.74689062500002,161.4461928674808L250.88047433035715,161.55188075739605L251.15990624999998,161.6840767191293L251.71932254464284,159.855579726398L251.99687611607143,161.14981814617147L252.13244866071426,160.87075940949413L252.26724776785716,161.27743156884725L252.68413058035713,161.38364188774275L252.82412276785712,161.48776096907946L253.09836160714286,161.44125553320808L253.24553571428572,161.6552059242072L253.38652232142857,161.515354349063L253.65976674107145,161.2983548495059L253.79677566964284,161.14551774412394L253.94516517857141,161.1941736346254L254.07941183035712,161.60449315980077L254.35519754464283,161.54368838624885L254.63496093749998,161.27031639046393L254.9104151785714,161.78525130450726L255.04676116071428,161.42282101798517L255.32862388392857,161.23643205257562L255.46574330357143,160.9985374226593L255.60606696428573,161.54720222835357L255.74804799107142,161.71800201443526L256.03156808035715,161.69658521591472L256.4474564732143,161.80091326884352L256.58590178571427,161.57022295992536L256.7399263392857,161.38653350678774L256.8785926339286,161.57783685509975L257.0202421875,161.38758977703176L257.2952544642857,161.78909699045695L257.44276004464285,161.69621774038444L257.5849620535714,161.70874107313844L257.8607477678571,161.70434975323195L257.99797767857143,161.27745946554037L258.14426785714284,161.70683268572276L258.27884598214285,161.63924990336483L258.56015625000003,161.5378124550558L258.70103236607144,161.91195212490857L258.8476540178571,161.78641282136624L259.4099430803571,161.54208496041022L259.8348917410714,161.5617572011856L259.9706852678571,161.81869005612455L260.10415848214285,161.33793201483786L260.5208203125,161.38935208721804L260.6536305803571,161.51819245717846L260.78677232142854,162.1520934530462L260.9259910714286,161.64088845367615L261.0715078125,161.3467152886666L261.34629910714284,161.25176356790158L261.4823136160714,161.99862727723442L261.62164285714283,161.44142633705187L262.03465848214285,161.7848876330715L262.17067299107146,161.59601319910814L262.4463482142857,161.562273036402L262.57904799107143,162.02447229537827L262.71417857142853,162.22901110293773L263.13570200892855,161.7272813421889L263.406515625,161.73369745480326L263.545734375,161.8609851201853L263.67942857142856,161.82168324449313L263.8237299107143,161.7094444502145L263.96062834821424,160.67268375851788L264.3739754464285,161.11430337337347L264.7969352678571,161.0741308672497L264.9318448660714,161.52707920237802L265.34640736607145,161.5678237175139L265.47844419642854,160.69598890955632L266.03653459821425,161.89304349270577L266.45452232142856,161.2174676269866L266.6022488839286,161.0570867485725L266.8834486607143,160.45686200662303L267.0201261160715,161.78215261591743L267.1565825892857,161.90335322286074L267.4412075892857,161.28782638391624L267.5807578125,161.5779475542502L267.7197555803571,161.70764118261062L267.8601897321429,161.11968692793297L268.42833482142856,161.6571411938908L268.56733258928574,160.9662875773815L268.70577790178567,161.49991048614567L269.00454575892854,161.65305825924645L269.1429910714286,161.4626256681692L269.2811049107143,160.99350333758272L269.84560379464284,160.8691462198129L269.9850435267857,161.22355848951983" style="fill: none;" fill="none"></path></g></g></g></g></g><g><g opacity="0.742218"><span fill="rgb(0, 0, 0)" stroke="none" stroke-width="1px">Alt + Scroll to Zoom</span></g></g></g><g transform="translate(51, 177)" clip-path="url(#clip_1)"><clipPath id="clip_1"><rect width="278" height="23"></rect></clipPath><g><g><line x1="0" y1="0" x2="0" y2="5" style="visibility: inherit;" fill="rgb(0, 0, 0)" stroke="rgb(204, 204, 204)" stroke-width="1px"></line><line x1="19.888392857142858" y1="0" x2="19.888392857142858" y2="5" style="visibility: inherit;" fill="rgb(0, 0, 0)" stroke="rgb(204, 204, 204)" stroke-width="1px"></line><line x1="39.776785714285715" y1="0" x2="39.776785714285715" y2="5" style="visibility: inherit;" fill="rgb(0, 0, 0)" stroke="rgb(204, 204, 204)" stroke-width="1px"></line><line x1="59.66517857142858" y1="0" x2="59.66517857142858" y2="5" style="visibility: inherit;" fill="rgb(0, 0, 0)" stroke="rgb(204, 204, 204)" stroke-width="1px"></line><line x1="79.55357142857143" y1="0" x2="79.55357142857143" y2="5" style="visibility: inherit;" fill="rgb(0, 0, 0)" stroke="rgb(204, 204, 204)" stroke-width="1px"></line><line x1="99.44196428571428" y1="0" x2="99.44196428571428" y2="5" style="visibility: inherit;" fill="rgb(0, 0, 0)" stroke="rgb(204, 204, 204)" stroke-width="1px"></line><line x1="119.33035714285712" y1="0" x2="119.33035714285712" y2="5" style="visibility: inherit;" fill="rgb(0, 0, 0)" stroke="rgb(204, 204, 204)" stroke-width="1px"></line><line x1="139.21874999999997" y1="0" x2="139.21874999999997" y2="5" style="visibility: inherit;" fill="rgb(0, 0, 0)" stroke="rgb(204, 204, 204)" stroke-width="1px"></line><line x1="159.1071428571428" y1="0" x2="159.1071428571428" y2="5" style="visibility: inherit;" fill="rgb(0, 0, 0)" stroke="rgb(204, 204, 204)" stroke-width="1px"></line><line x1="178.9955357142857" y1="0" x2="178.9955357142857" y2="5" style="visibility: inherit;" fill="rgb(0, 0, 0)" stroke="rgb(204, 204, 204)" stroke-width="1px"></line><line x1="198.88392857142856" y1="0" x2="198.88392857142856" y2="5" style="visibility: inherit;" fill="rgb(0, 0, 0)" stroke="rgb(204, 204, 204)" stroke-width="1px"></line><line x1="218.77232142857142" y1="0" x2="218.77232142857142" y2="5" style="visibility: inherit;" fill="rgb(0, 0, 0)" stroke="rgb(204, 204, 204)" stroke-width="1px"></line><line x1="238.6607142857143" y1="0" x2="238.6607142857143" y2="5" style="visibility: inherit;" fill="rgb(0, 0, 0)" stroke="rgb(204, 204, 204)" stroke-width="1px"></line><line x1="258.5491071428571" y1="0" x2="258.5491071428571" y2="5" style="visibility: inherit;" fill="rgb(0, 0, 0)" stroke="rgb(204, 204, 204)" stroke-width="1px"></line><line x1="278.4375" y1="0" x2="278.4375" y2="5" style="visibility: inherit;" fill="rgb(0, 0, 0)" stroke="rgb(204, 204, 204)" stroke-width="1px"></line></g><g transform="translate(0, 8)"><text x="0" y="0" dx="0em" dy="0.95em" style="text-anchor: middle; visibility: hidden; font-family: Roboto, sans-serif; font-size: 12px; font-weight: 200;" fill="rgb(33, 33, 33)" stroke="none" stroke-width="1px">-0.05</text><text x="19.888392857142858" y="0" dx="0em" dy="0.95em" style="text-anchor: middle; visibility: inherit; font-family: Roboto, sans-serif; font-size: 12px; font-weight: 200;" fill="rgb(33, 33, 33)" stroke="none" stroke-width="1px">0</text><text x="39.776785714285715" y="0" dx="0em" dy="0.95em" style="text-anchor: middle; visibility: hidden; font-family: Roboto, sans-serif; font-size: 12px; font-weight: 200;" fill="rgb(33, 33, 33)" stroke="none" stroke-width="1px">0.05</text><text x="59.66517857142858" y="0" dx="0em" dy="0.95em" style="text-anchor: middle; visibility: inherit; font-family: Roboto, sans-serif; font-size: 12px; font-weight: 200;" fill="rgb(33, 33, 33)" stroke="none" stroke-width="1px">0.1</text><text x="79.55357142857143" y="0" dx="0em" dy="0.95em" style="text-anchor: middle; visibility: hidden; font-family: Roboto, sans-serif; font-size: 12px; font-weight: 200;" fill="rgb(33, 33, 33)" stroke="none" stroke-width="1px">0.15</text><text x="99.44196428571428" y="0" dx="0em" dy="0.95em" style="text-anchor: middle; visibility: inherit; font-family: Roboto, sans-serif; font-size: 12px; font-weight: 200;" fill="rgb(33, 33, 33)" stroke="none" stroke-width="1px">0.2</text><text x="119.33035714285712" y="0" dx="0em" dy="0.95em" style="text-anchor: middle; visibility: hidden; font-family: Roboto, sans-serif; font-size: 12px; font-weight: 200;" fill="rgb(33, 33, 33)" stroke="none" stroke-width="1px">0.25</text><text x="139.21874999999997" y="0" dx="0em" dy="0.95em" style="text-anchor: middle; visibility: inherit; font-family: Roboto, sans-serif; font-size: 12px; font-weight: 200;" fill="rgb(33, 33, 33)" stroke="none" stroke-width="1px">0.3</text><text x="159.1071428571428" y="0" dx="0em" dy="0.95em" style="text-anchor: middle; visibility: hidden; font-family: Roboto, sans-serif; font-size: 12px; font-weight: 200;" fill="rgb(33, 33, 33)" stroke="none" stroke-width="1px">0.35</text><text x="178.9955357142857" y="0" dx="0em" dy="0.95em" style="text-anchor: middle; visibility: inherit; font-family: Roboto, sans-serif; font-size: 12px; font-weight: 200;" fill="rgb(33, 33, 33)" stroke="none" stroke-width="1px">0.4</text><text x="198.88392857142856" y="0" dx="0em" dy="0.95em" style="text-anchor: middle; visibility: hidden; font-family: Roboto, sans-serif; font-size: 12px; font-weight: 200;" fill="rgb(33, 33, 33)" stroke="none" stroke-width="1px">0.45</text><text x="218.77232142857142" y="0" dx="0em" dy="0.95em" style="text-anchor: middle; visibility: inherit; font-family: Roboto, sans-serif; font-size: 12px; font-weight: 200;" fill="rgb(33, 33, 33)" stroke="none" stroke-width="1px">0.5</text><text x="238.6607142857143" y="0" dx="0em" dy="0.95em" style="text-anchor: middle; visibility: hidden; font-family: Roboto, sans-serif; font-size: 12px; font-weight: 200;" fill="rgb(33, 33, 33)" stroke="none" stroke-width="1px">0.55</text><text x="258.5491071428571" y="0" dx="0em" dy="0.95em" style="text-anchor: middle; visibility: inherit; font-family: Roboto, sans-serif; font-size: 12px; font-weight: 200;" fill="rgb(33, 33, 33)" stroke="none" stroke-width="1px">0.6</text><text x="278.4375" y="0" dx="0em" dy="0.95em" style="text-anchor: middle; visibility: hidden; font-family: Roboto, sans-serif; font-size: 12px; font-weight: 200;" fill="rgb(33, 33, 33)" stroke="none" stroke-width="1px">0.65</text></g><line x1="0" y1="0" x2="278.4375" y2="0" fill="rgb(0, 0, 0)" stroke="rgb(204, 204, 204)" stroke-width="1px"></line></g></g></g></g></svg>