<svg viewBox="0 0 330 200" xmlns="http://www.w3.org/2000/svg"><g><g><g><g><g><line x1="61.953125" y1="177" x2="56.953125" y2="177" style="visibility: inherit;" fill="rgb(0, 0, 0)" stroke="rgb(204, 204, 204)" stroke-width="1px"></line><line x1="61.953125" y1="157.33333333333331" x2="56.953125" y2="157.33333333333331" style="visibility: inherit;" fill="rgb(0, 0, 0)" stroke="rgb(204, 204, 204)" stroke-width="1px"></line><line x1="61.953125" y1="137.66666666666666" x2="56.953125" y2="137.66666666666666" style="visibility: inherit;" fill="rgb(0, 0, 0)" stroke="rgb(204, 204, 204)" stroke-width="1px"></line><line x1="61.953125" y1="118.00000000000001" x2="56.953125" y2="118.00000000000001" style="visibility: inherit;" fill="rgb(0, 0, 0)" stroke="rgb(204, 204, 204)" stroke-width="1px"></line><line x1="61.953125" y1="98.33333333333334" x2="56.953125" y2="98.33333333333334" style="visibility: inherit;" fill="rgb(0, 0, 0)" stroke="rgb(204, 204, 204)" stroke-width="1px"></line><line x1="61.953125" y1="78.66666666666666" x2="56.953125" y2="78.66666666666666" style="visibility: inherit;" fill="rgb(0, 0, 0)" stroke="rgb(204, 204, 204)" stroke-width="1px"></line><line x1="61.953125" y1="59.00000000000001" x2="56.953125" y2="59.00000000000001" style="visibility: inherit;" fill="rgb(0, 0, 0)" stroke="rgb(204, 204, 204)" stroke-width="1px"></line><line x1="61.953125" y1="39.33333333333333" x2="56.953125" y2="39.33333333333333" style="visibility: inherit;" fill="rgb(0, 0, 0)" stroke="rgb(204, 204, 204)" stroke-width="1px"></line><line x1="61.953125" y1="19.666666666666675" x2="56.953125" y2="19.666666666666675" style="visibility: inherit;" fill="rgb(0, 0, 0)" stroke="rgb(204, 204, 204)" stroke-width="1px"></line><line x1="61.953125" y1="0" x2="56.953125" y2="0" style="visibility: inherit;" fill="rgb(0, 0, 0)" stroke="rgb(204, 204, 204)" stroke-width="1px"></line></g><g transform="translate(51.953125, 0)"><text x="0" y="177" dx="0em" dy="0.3em" style="text-anchor: end; visibility: hidden; font-family: Roboto, sans-serif; font-size: 12px; font-weight: 200;" fill="rgb(33, 33, 33)" stroke="none" stroke-width="1px">0.95</text><text x="0" y="157.33333333333331" dx="0em" dy="0.3em" style="text-anchor: end; visibility: inherit; font-family: Roboto, sans-serif; font-size: 12px; font-weight: 200;" fill="rgb(33, 33, 33)" stroke="none" stroke-width="1px">0.951</text><text x="0" y="137.66666666666666" dx="0em" dy="0.3em" style="text-anchor: end; visibility: hidden; font-family: Roboto, sans-serif; font-size: 12px; font-weight: 200;" fill="rgb(33, 33, 33)" stroke="none" stroke-width="1px">0.952</text><text x="0" y="118.00000000000001" dx="0em" dy="0.3em" style="text-anchor: end; visibility: inherit; font-family: Roboto, sans-serif; font-size: 12px; font-weight: 200;" fill="rgb(33, 33, 33)" stroke="none" stroke-width="1px">0.953</text><text x="0" y="98.33333333333334" dx="0em" dy="0.3em" style="text-anchor: end; visibility: hidden; font-family: Roboto, sans-serif; font-size: 12px; font-weight: 200;" fill="rgb(33, 33, 33)" stroke="none" stroke-width="1px">0.954</text><text x="0" y="78.66666666666666" dx="0em" dy="0.3em" style="text-anchor: end; visibility: inherit; font-family: Roboto, sans-serif; font-size: 12px; font-weight: 200;" fill="rgb(33, 33, 33)" stroke="none" stroke-width="1px">0.955</text><text x="0" y="59.00000000000001" dx="0em" dy="0.3em" style="text-anchor: end; visibility: hidden; font-family: Roboto, sans-serif; font-size: 12px; font-weight: 200;" fill="rgb(33, 33, 33)" stroke="none" stroke-width="1px">0.956</text><text x="0" y="39.33333333333333" dx="0em" dy="0.3em" style="text-anchor: end; visibility: inherit; font-family: Roboto, sans-serif; font-size: 12px; font-weight: 200;" fill="rgb(33, 33, 33)" stroke="none" stroke-width="1px">0.957</text><text x="0" y="19.666666666666675" dx="0em" dy="0.3em" style="text-anchor: end; visibility: hidden; font-family: Roboto, sans-serif; font-size: 12px; font-weight: 200;" fill="rgb(33, 33, 33)" stroke="none" stroke-width="1px">0.958</text><text x="0" y="0" dx="0em" dy="0.3em" style="text-anchor: end; visibility: hidden; font-family: Roboto, sans-serif; font-size: 12px; font-weight: 200;" fill="rgb(33, 33, 33)" stroke="none" stroke-width="1px">0.959</text></g><line x1="61.953125" y1="0" x2="61.953125" y2="177" fill="rgb(0, 0, 0)" stroke="rgb(204, 204, 204)" stroke-width="1px"></line></g></g><g transform="translate(61, 0)" clip-path="url(#clip_0)"><clipPath id="clip_0"><rect width="268" height="177"></rect></clipPath><g><g><g><line x1="0" y1="0" x2="0" y2="177" fill="rgb(0, 0, 0)" stroke="rgb(66, 66, 66)" stroke-width="1px" opacity="0.25"></line><line x1="22.337239583333332" y1="0" x2="22.337239583333332" y2="177" fill="rgb(0, 0, 0)" stroke="rgb(66, 66, 66)" stroke-width="1px" opacity="0.25"></line><line x1="44.674479166666664" y1="0" x2="44.674479166666664" y2="177" fill="rgb(0, 0, 0)" stroke="rgb(66, 66, 66)" stroke-width="1px" opacity="0.25"></line><line x1="67.01171875" y1="0" x2="67.01171875" y2="177" fill="rgb(0, 0, 0)" stroke="rgb(66, 66, 66)" stroke-width="1px" opacity="0.25"></line><line x1="89.34895833333333" y1="0" x2="89.34895833333333" y2="177" fill="rgb(0, 0, 0)" stroke="rgb(66, 66, 66)" stroke-width="1px" opacity="0.25"></line><line x1="111.68619791666667" y1="0" x2="111.68619791666667" y2="177" fill="rgb(0, 0, 0)" stroke="rgb(66, 66, 66)" stroke-width="1px" opacity="0.25"></line><line x1="134.0234375" y1="0" x2="134.0234375" y2="177" fill="rgb(0, 0, 0)" stroke="rgb(66, 66, 66)" stroke-width="1px" opacity="0.25"></line><line x1="156.36067708333334" y1="0" x2="156.36067708333334" y2="177" fill="rgb(0, 0, 0)" stroke="rgb(66, 66, 66)" stroke-width="1px" opacity="0.25"></line><line x1="178.69791666666666" y1="0" x2="178.69791666666666" y2="177" fill="rgb(0, 0, 0)" stroke="rgb(66, 66, 66)" stroke-width="1px" opacity="0.25"></line><line x1="201.03515625000003" y1="0" x2="201.03515625000003" y2="177" fill="rgb(0, 0, 0)" stroke="rgb(66, 66, 66)" stroke-width="1px" opacity="0.25"></line><line x1="223.3723958333333" y1="0" x2="223.3723958333333" y2="177" fill="rgb(0, 0, 0)" stroke="rgb(66, 66, 66)" stroke-width="1px" opacity="0.25"></line><line x1="245.70963541666666" y1="0" x2="245.70963541666666" y2="177" fill="rgb(0, 0, 0)" stroke="rgb(66, 66, 66)" stroke-width="1px" opacity="0.25"></line><line x1="268.046875" y1="0" x2="268.046875" y2="177" fill="rgb(0, 0, 0)" stroke="rgb(66, 66, 66)" stroke-width="1px" opacity="0.25"></line></g><g><line x1="0" y1="177" x2="268.046875" y2="177" fill="rgb(0, 0, 0)" stroke="rgb(66, 66, 66)" stroke-width="1px" opacity="0.25"></line><line x1="0" y1="157.33333333333331" x2="268.046875" y2="157.33333333333331" fill="rgb(0, 0, 0)" stroke="rgb(66, 66, 66)" stroke-width="1px" opacity="0.25"></line><line x1="0" y1="137.66666666666666" x2="268.046875" y2="137.66666666666666" fill="rgb(0, 0, 0)" stroke="rgb(66, 66, 66)" stroke-width="1px" opacity="0.25"></line><line x1="0" y1="118.00000000000001" x2="268.046875" y2="118.00000000000001" fill="rgb(0, 0, 0)" stroke="rgb(66, 66, 66)" stroke-width="1px" opacity="0.25"></line><line x1="0" y1="98.33333333333334" x2="268.046875" y2="98.33333333333334" fill="rgb(0, 0, 0)" stroke="rgb(66, 66, 66)" stroke-width="1px" opacity="0.25"></line><line x1="0" y1="78.66666666666666" x2="268.046875" y2="78.66666666666666" fill="rgb(0, 0, 0)" stroke="rgb(66, 66, 66)" stroke-width="1px" opacity="0.25"></line><line x1="0" y1="59.00000000000001" x2="268.046875" y2="59.00000000000001" fill="rgb(0, 0, 0)" stroke="rgb(66, 66, 66)" stroke-width="1px" opacity="0.25"></line><line x1="0" y1="39.33333333333333" x2="268.046875" y2="39.33333333333333" fill="rgb(0, 0, 0)" stroke="rgb(66, 66, 66)" stroke-width="1px" opacity="0.25"></line><line x1="0" y1="19.666666666666675" x2="268.046875" y2="19.666666666666675" fill="rgb(0, 0, 0)" stroke="rgb(66, 66, 66)" stroke-width="1px" opacity="0.25"></line><line x1="0" y1="0" x2="268.046875" y2="0" fill="rgb(0, 0, 0)" stroke="rgb(66, 66, 66)" stroke-width="1px" opacity="0.25"></line></g></g></g><g><g><line x1="0" y1="18860.333333333318" x2="268.046875" y2="18860.333333333318" fill="rgb(0, 0, 0)" stroke="rgb(153, 153, 153)" stroke-width="1.5px"></line></g></g><g><g><line x1="22.337239583333332" y1="0" x2="22.337239583333332" y2="177" fill="rgb(0, 0, 0)" stroke="rgb(153, 153, 153)" stroke-width="1.5px"></line></g></g><g><g><g><g><g><path stroke="rgb(204, 51, 17)" stroke-width="2px" d="M34.12013346354166,-8.048149013589333L34.39314416956019,5.618513355517179L35.78301685474537,16.382869488064802L35.882293475115745,22.048121503674576L36.341447844328705,48.27142502381269L36.45933883101851,62.387268186733635L36.49036277488426,70.05309684344901L36.57102502893519,72.26406902831509L37.06740813078704,62.11222826695648L37.17288953993056,53.814528071417286L37.210118272569446,65.02433079294495L37.56379123263889,64.27095007387094L38.17186053240741,67.79088775011463L38.240113208912035,68.47836292401679L38.97227828414351,54.605649180902226L39.108783637152776,44.335659075395746L39.41902307581019,48.04801683144639L39.617576316550924,46.39583668222165L39.67962420428241,44.13055480982867L39.77269603587963,70.17706093867194L39.98986364293981,81.75844501860693L40.14498336226852,85.4025396470666L40.47383716724538,95.2553458351549L40.65998083043982,97.26774137051805L40.82751012731482,94.65794624188435L40.93919632523148,90.59147947608733L41.12533998842592,84.46518724111226L41.14395435474537,79.57780047027872L41.23702618634259,73.65150657356733L41.336302806712965,69.50352232691233L41.51624168113426,63.50087107640513L41.74581886574074,54.76024732642503L42.3973216869213,52.35171902370346L42.46557436342593,49.8084619612989L42.84406647858796,41.83996087937596L43.08605324074074,45.665333835058476L43.11087239583333,47.42696093386763L43.17912507233796,47.42143274267385L43.27219690393518,57.97704686077326L43.33424479166666,75.32979621898411L43.71894169560185,79.1601075872472L43.77478479456018,91.6796247330125L43.9299045138889,96.99880597790894L44.029181134259254,98.5627979783267L44.13466254340278,97.88821201809469L44.28978226273148,95.35516931189092L44.451106770833334,91.21002929353435L44.60622649016204,86.1356109675392L45.45007776331019,81.22243383109374L45.57417353877315,76.31597455290891L45.698269314236114,71.43511492380277L45.698269314236114,68.0255181374262L45.872003399884264,73.41213343036713L46.24429072627315,82.95536028638928L46.36218171296295,86.73821676947047L46.48627748842592,87.08548218316314L46.5855541087963,84.91938311838872L46.7530834056713,81.74275752097508L46.99507016782407,75.68570012364926L47.150189887152784,70.23733076958226L47.18121383101851,66.51770598992825L47.21223777488426,63.83673462453481L47.224647352430566,61.33304103920495L47.224647352430566,59.38491061951425L47.49765805844906,55.56446014022312L47.62795862268518,61.10218182906852L47.708620876736106,63.535799644622294L47.85133101851852,72.71295985116471L47.882354962384255,77.76959058761864L47.907174117476856,80.35484142176307L48.04367947048611,80.12280373814781L48.14295609085648,78.21774186914976L48.291871021412035,74.89249128237778L48.291871021412035,72.46408668837297L48.34771412037037,70.57472746976946L49.13572229456019,69.23104927584869L49.2660228587963,66.7551255244738L50.38288483796296,70.1633748701446L50.57523328993056,79.1835302168871L50.67450991030092,83.77553503839567L50.866858362268516,84.09297948556194L51.15848343460648,98.74166536416804L51.35083188657407,105.05044946721831L51.450108506944446,115.93143036555158L51.741733579282396,119.56603061313031L51.83480541087963,120.92810904475775L52.033358651620375,119.31041099722871L52.12643048321759,117.53517714795936L52.62281358506944,110.93479189668632L52.62281358506944,106.58538215196904L53.00751048900462,100.13130824269972L53.106787109375006,95.12133706709983L53.448050491898144,88.74544284999948L53.55973668981481,91.64566264705309L53.69003725405093,91.88628471388343L53.95684317129629,88.70247764087131L53.98166232638889,86.42645929671963L54.167805989583336,82.8805103843448L54.21123951099536,80.39236472517618L54.372564019097226,85.09304365200079L54.72003219039352,99.3684305867504L54.881356698495374,105.71534476206463L54.993042896412035,108.42394651686573L55.25984881365741,106.79032295772741L55.35292064525463,104.7368599047003L55.594907407407405,108.33997443535192L55.87412290219907,113.82580345800487L56.15954318576389,114.62984009939889L56.60008318865741,118.01515928322982L56.78622685185185,125.3433996801467L56.86688910590277,128.68018391717698L56.94134657118055,129.97891965104597L57.08405671296296,129.35899371262562L57.22676685474537,127.59818634801645L57.30122432002315,125.85149603732603L57.462548828125,123.08828269828145L57.487367983217595,121.08900286787035L57.77899305555555,116.84774636844729L57.9775462962963,112.30270827384763L58.12646122685185,108.25388486726149L58.14507559317129,105.49589902287353L58.46151982060185,100.58466735358382L58.53597728587963,103.05548193579267L58.97651728877315,100.02912567372302L59.70247757523148,98.15329401283536L59.72729673032407,96.7159832512678L59.81416377314816,94.61197641265319L59.87621166087963,99.81040585898396L59.89482602719907,102.61530731238668L60.4656665943287,98.73111873140549L60.8255443431713,92.78265132866551L60.85656828703703,88.91535692828258L60.99307364004629,91.37156141649115L61.092350260416666,92.24510507295709L61.28469871238426,91.27816147313679L62.072706886574075,95.89939066592434L62.09752604166666,98.08320250207387L62.43258463541666,109.11451443489877L62.79246238425927,112.46842141423308L62.87932942708333,113.60019042178128L62.98481083622685,113.40289665510613L63.67974717881945,113.68307678650048L63.92793872974537,112.13598571270718L64.1761302806713,109.22714024811873L64.40570746527777,111.84719767985467L64.77179000289351,122.60712918530592L64.97034324363426,127.34085558786416L65.05721028645833,129.32583630244554L65.29299225983796,128.25489998753983L65.37985930266204,126.77114976781161L65.4667263454861,125.04346232416727L65.56600296585648,123.17316366514983L65.61564127604166,121.77433944512183L66.15545789930556,121.81937121213618L66.62702184606482,123.52220267570623L67.11720015914352,131.85905245055645L67.21027199074075,136.0396672593155L67.23509114583334,138.27514223893087L67.2971390335648,144.72310682518787L67.3343677662037,153.96301906337322L68.00448495370371,164.5676947972964L68.11617115162038,169.54071065635281L68.21544777199074,171.6950539878033L68.35815791377314,171.88764434641786L68.42020580150464,171.45553519081923L68.5318919994213,170.10516296477195L68.62496383101852,168.20992846479714L68.76767397280092,165.99387216880396L69.5370677806713,163.42027356017192L69.56809172453703,161.61306717666997L69.94037905092591,168.3001240889602L70.23200412326389,175.4858048916086L70.26302806712962,179.52994614602486L74.19686414930557,179.13371654487568L74.22168330439816,176.8108228453193L74.39541739004629,179.08380542644812L74.67463288483796,178.4932619876584L74.95384837962963,175.96328691722485L75.15240162037037,173.2468193615383L75.30131655092592,170.42595855265347L75.3509548611111,168.02213613114503L75.58673683449075,165.40011575970067L75.69221824363426,163.12263094874174L75.77908528645834,160.82117365693185L76.0707103587963,162.3197519872288L76.44920247395834,161.3574061926417L76.64155092592593,159.16561088578962L76.93317599826388,156.24974367787556L77.22480107060184,157.11100216172173L77.31787290219907,156.71764201002594L77.41714952256945,156.25468322084632L77.41714952256945,155.7504341390491L77.51022135416667,154.9954059632663L77.60949797453704,153.8657809721656L77.80184642650462,151.61863157514196L78.11829065393519,148.27099552172334L78.46575882523148,148.61530326854034L78.60226417824074,147.9399060669597L78.65190248842593,147.09531793572717L78.75738389756945,145.93118145611777L78.91250361689815,148.65512674578218L78.96834671585648,149.63023475922114L79.04280418113426,149.99632799695254L79.04280418113426,149.99701236925767L79.68810221354167,150.3359614803939L79.97352249710647,148.59906465577257L80.15346137152778,150.689110907518L80.29617151331018,154.83759583986176L80.4016529224537,157.1105285681655L80.6994827835648,156.53917970244362L80.9414695457176,154.7048316994362L81.30134729456017,151.07409314706123L81.61158673321759,151.3259062234207L81.73568250868057,154.93599465669888L82.02730758101852,155.0018899789347L82.12658420138888,154.20774097944582L82.38098054108796,152.69406718237337L82.51748589409722,155.20313229296454L82.90218279803241,158.23340122381987L83.00145941840277,163.6366945454276L83.29308449074072,165.6272034694039L83.29308449074072,166.61379061039L83.29308449074072,166.99849357145507L84.40994646990741,160.30193637572006L84.6395236545139,155.08692621447022L84.80084816261575,154.65731911216614L85.04903971354167,153.20576123607782L85.17934027777778,151.54334040609453L85.24138816550926,150.15155152555744L85.26620732060185,148.92261070455893L85.43994140625,151.0534455604104L85.53301323784721,151.7402074551623L85.63228985821758,151.7588659892116L85.73156647858796,151.18113543011518L86.30861183449075,147.9180020893689L86.41409324363427,145.57469460994338L86.74915183738426,145.8407714066712L86.84842845775462,149.77544984605723L86.84842845775462,151.9421365025848L87.28276367187499,150.54696951090474L87.38204029224536,148.94698549377176L87.5557743778935,147.22692460060435L87.83498987268518,144.68412489636808L87.94667607060185,142.40728349851068L88.25691550925926,139.17687252779623L88.36239691840278,144.42905213606304L88.46787832754629,147.0148787151096L88.51131184895833,148.00276903611208L88.74709382233797,147.659130153865L89.42341579861112,143.9367416726418L89.85154622395834,143.31113195579465L89.88877495659723,142.75243018564322L90.00666594328705,145.65723814068159L90.04389467592593,147.21584919391617L90.09973777488426,147.7834061660279L90.16799045138889,151.53558305966192L90.31690538194442,153.0474498673299L90.45961552372685,153.21841285252563L90.633349609375,152.40477983330226L90.70780707465276,151.55133481129607L91.1483470775463,152.0464432436481L91.32828595196759,151.61813567071653L92.15972764756945,150.3858601927132L92.25279947916667,149.1124293414369L92.26520905671296,148.17066156909607L92.42032877604169,150.554918202035L92.49478624131945,151.628646989032L92.66231553819445,151.38293128373186L92.9415310329861,149.64455852406408L93.0966507523148,147.89866894978647L93.15249385127315,146.15061373610413L93.3262279369213,144.4040724780102L93.68610568576389,141.62266186550727L93.74815357349536,139.60918144191638L93.76676793981481,138.05692802154104L93.84743019386575,136.95396227607768L93.9715259693287,135.60619694572392L94.07080258969908,134.28504111716228L94.31899414062501,132.13209810067627L94.45549949363426,130.16372420515364L94.90844907407407,126.63403049782418L95.05115921585649,123.85085954472689L95.09459273726851,121.8489829433275L95.24350766782408,119.82073524787047L95.24350766782408,118.43873739556892L95.3365794994213,120.79189424703297L95.4668800636574,121.70582731359943L95.4792896412037,121.92315090374277L95.59097583912039,121.72297769790445L95.63440936053239,124.9371496558517L95.86398654513889,129.1918154867679L95.95085358796297,131.2438406017727L96.05013020833333,131.64371392730675L96.8071144386574,128.758018034322L97.13596824363427,125.40189709124353L97.34072627314815,122.42043582910652L97.54548430266203,119.66892816412982L97.66958007812498,117.37892666929055L97.70060402199074,115.84550321582644L98.05427698206017,116.57172148515916L98.06668655960648,116.84802989020042L98.15355360243056,116.69590759984852L98.58168402777777,114.55042769538693L98.89812825520833,111.69845424906734L99.20836769386574,111.9308187016821L99.76059389467594,112.75340991709541L100.34384403935185,113.76602573490456L100.34384403935185,114.21933045762535L100.42450629340277,114.1832526452007L100.73474573206018,112.9349900519855L100.79679361979167,111.8803162993591L100.93950376157406,110.63842410375206L101.30558629918981,111.63333910224608L101.60962094907407,111.01727000187424L101.60962094907407,110.4961771129207L101.96949869791665,111.75758468063285L102.26112377025463,114.52784233263155L102.45967701099535,115.28457058054828L102.45967701099535,115.5880938803102L102.5527488425926,115.46918056219415L102.62100151909722,118.30072977031858L102.81334997106481,122.44163774978398L103.64479166666666,127.49382347781194L103.69442997685185,130.3736834858983L104.04189814814816,130.59411855151907L104.09774124710648,130.42629007266322L104.20322265624999,132.86978943208592L104.26527054398149,137.32693754271432L104.7182201244213,141.01168408375406L104.89195421006944,142.3166367752245L105.05948350694446,142.3479779249167L105.14635054976851,145.17496405953457L105.1587601273148,146.56919066258766L105.26424153645831,147.10423043657318L105.7233959056713,148.56559447023577L105.87851562499999,148.84223385397456L105.95297309027778,148.70906574573445L106.05224971064814,148.1809061629347L106.32526041666667,149.59140070256103L106.3562843605324,150.2885904469689L106.6913429542824,149.22052339863393L106.75959563078705,151.33394227912868L107.13808774594908,150.82208765242925L107.13808774594908,150.36727456665525L107.21254521122687,149.94715529531146L107.32423140914352,149.10615805297869L107.46694155092594,148.0145095875441L107.60965169270834,146.48269644720966L108.32940719039352,143.10006117429296L108.51555085358797,140.20866042537983L108.54657479745369,138.33080856500135L108.83199508101852,136.0618817200149L109.03054832175926,133.84855271517335L109.24771592881946,131.6723335334023L109.40904043692129,129.66279832611434L110.14741030092593,128.18934108469824L110.20325339988425,127.02721504561346L110.37078269675926,128.565137443099L110.53831199363425,128.79112053145107L110.91680410879628,127.12804883457844L111.18361002604166,128.07047210775312L111.67378833912036,126.57609286293982L112.02125651041668,124.04772856067765L112.12053313078702,122.12512023984137L112.35631510416665,120.16272021773844L112.62312102141203,117.91292906667921L112.62312102141203,116.42942076245592L112.68516890914353,115.40568216633642L112.71619285300928,114.65780539507782L112.95817961516204,113.01247237838302L113.83925962094908,111.82130547394517L113.83925962094908,110.97531616705633L113.93853624131943,110.33643341869907L114.13088469328703,111.84741885350503L114.52178638599537,111.31311153701856L114.6148582175926,110.73135548829109L114.97473596643519,108.82511859336992L114.97473596643519,107.55243174155048L115.16087962962963,106.40151659599604L115.2229275173611,105.45354696880916L115.25395146122685,104.75628936750257L115.93647822627315,104.41577052551104L116.20948893229165,103.19303041782416L116.66243851273147,100.94252761654063L116.67484809027778,99.46609456013807L116.92924442997685,97.57681039971736L117.03472583912036,96.31804630757956L117.2580982349537,97.53822088401394L117.35737485532407,97.89427595234626L117.56213288483795,97.35862297751459L117.71104781539351,96.53927014830406L118.20122612847221,99.33832757411076L118.29429796006944,103.46255382341757L118.29429796006944,105.81142708724057L118.39357458043982,107.09555744965122L118.69140444155092,109.17470730049965L119.34911205150463,110.84701143524926L119.89513346354165,109.74320283028754L120.18675853587963,108.22003586188708L120.18675853587963,107.18375542419615L120.27983036747685,106.19437750175088L120.84446614583332,106.28064106302298L121.01199544270834,105.8456915124057L121.1112720630787,104.97750939749348L121.23536783854166,104.21465295447565L121.29741572627314,103.51499191459355L121.36566840277777,102.85371700646164L121.43392107928241,102.21547377738158L121.55801685474536,101.35097794115151L121.58904079861111,100.71224463212134L121.91789460358795,99.01236188547497L122.04819516782406,97.63513815484336L122.29638671875,95.85930192519243L122.38945855034721,94.4388505541223L122.42048249421295,93.46841948367748L122.66246925636572,91.94369219822124L123.1588523582176,89.2756765946698L123.23951461226851,87.21019736915595L123.35120081018519,85.7388093470914L123.83517433449074,85.67465825077117L124.2570999710648,84.14040890055685L125.02649377893518,83.12233019700422L125.51046730324073,80.81363274751712L125.51046730324073,79.31588070848717L125.80829716435186,80.24449331716193L125.80829716435186,80.68865842316035L126.00064561631946,82.88839042997506L126.19299406828705,83.64227955827639L126.29227068865741,86.13287730985608L126.38534252025462,87.40076215251402L126.94997829861111,86.35767371962902L127.27883210358796,84.50239141490161L127.53322844328703,82.61133373403092L127.54563802083334,81.36557222579232L127.79382957175925,79.84397814179194L127.84346788194445,81.05321725311684L128.68111436631943,79.13703517975064L128.76177662037037,77.65957191503915L128.99755859375,76.01161680370616L129.0347873263889,74.6969652757044L129.10924479166667,73.79986079841706L129.1899070457176,73.04543988094652L129.1899070457176,72.48447376998011L129.98412000868058,77.21987585134409L130.09580620659722,79.51720484837037L130.4680935329861,79.91984242246868L130.53634620949074,79.94573562570088L130.57977973090277,79.74511331654206L130.83417607060184,78.87170279623916L131.26230649594908,76.95739801288721L131.30574001736113,75.595939140884L131.50429325810185,74.1418424813147L131.7959183304398,72.42350715606466L132.05031467013887,73.12411625907222L132.08754340277778,73.43898149962523L132.18061523437498,73.0999306478217L132.37916847511573,74.72563952832078L132.57151692708334,74.96209441798094L133.01826171875,73.84359137521321L133.1733814380787,72.75423978352329L133.5456687644676,73.07967088172981L133.6139214409722,73.06674243738398L133.68837890625,75.17883648314046L133.78145073784722,76.13193669620082L133.99861834490738,76.18192239623855L134.54463975694443,74.44888789666659L134.6811451099537,72.8937572273397L135.39469581886573,69.7114141086389L135.48776765046298,67.49769871034049L135.63668258101853,65.66306840934926L135.83523582175926,63.856142081171086L135.99656032986113,62.36967877388909L136.00276511863424,61.277115924205866L136.25716145833331,60.020461398192715L136.28818540219905,59.16659513979828L136.49914822048612,58.05550301792001L136.7535445601852,56.69301517439917L136.98312174479165,55.28143900016779L137.09480794270834,54.13815489637765L137.29336118344906,57.37351043558745L137.67185329861113,58.22221035681203L137.74631076388889,58.533558783465274L138.07516456886574,62.21641072682484L138.18064597800927,64.12743904422811L138.26751302083335,65.07524672884281L138.44745189525463,67.38304387572322L138.9996780960648,71.6293570540921L139.00588288483794,73.97739787554126L139.2044361255787,74.78745000157043L139.30991753472222,74.87586266553386L139.44642288773147,76.94607449425902L139.90557725694444,76.79559867096147L140.29647894965277,77.71999086049442L140.39575557002314,77.77994735900918L140.83629557291667,76.63478766996379L140.87352430555555,75.84969387323986L141.06587275752315,76.97661427977361L141.09689670138889,77.55429965052492L141.54364149305553,76.53034577644107L141.67394205729167,75.52632596816419L141.73598994502314,74.72932478622135L141.7980378327546,74.05700366994938L141.89110966435186,73.36243038953036L141.98418149594906,74.82312146969973L142.4929741753472,80.52488179295233L142.8776710792824,82.86842906051272L142.97694769965278,84.17702832762448L143.1568865740741,84.37748221721516L143.3802589699074,85.96115984220897L144.18688151041664,84.5870793205468L144.4412778501157,83.18589646470413L144.50332573784723,84.27795080454281L145.1858525028935,82.92070807682079L145.2603099681713,81.82080850799898L145.4154296875,80.78059908032309L145.44645363136573,80.06128877965513L145.4774775752315,79.53498684506415L145.69464518229165,78.65138004903487L145.78151222511573,77.83753759871585L145.84356011284723,77.16073839988587L146.14759476273147,80.10018811897042L146.37717194733798,81.20037878121266L146.53849645543983,81.38832107721932L146.78668800636572,80.74804932001787L146.8983742042824,79.98830547803786L147.0410843460648,79.1578161649352L147.46921477141203,81.59477317725349L147.5312626591435,82.86892254587815L147.63674406828704,83.35207824371398L148.0338505497685,82.52038708803352L148.17656069155092,81.64907383607176L148.3254756221065,82.7214492302329L148.3254756221065,83.1782562975791L148.7411964699074,82.5234697010944L148.79703956886573,81.94491735379798L148.79703956886573,81.41304333575941L149.28101309317128,81.93932736457295L149.86426323784724,80.78278358305009L150.00076859085647,81.66432728483862L150.19311704282407,83.57976085810671L151.0866066261574,82.44130731544237L151.17967845775462,81.66727055462881L151.21070240162035,81.11188386292879L151.45889395254628,80.14377496090431L151.7691333912037,80.66620748905447L151.9366626880787,80.2566388229603L152.2220829716435,81.37958716035259L152.4144314236111,83.68884403713646L152.87358579282406,84.07941385432952L153.0969581886574,83.77312572195974L153.3265353732639,83.05059837934341L153.9221950954861,81.01066527150222L154.04629087094906,79.4312868836444L154.41237340856483,81.44845051305943L154.57369791666667,82.21330331208658L154.72881763599537,82.22817628249771L154.8901421440972,81.88261932133882L154.9273708767361,81.58666495878794L155.33068214699074,80.4380214158662L155.35550130208333,79.66115288400296L155.7277886284722,80.17970049657534L155.80224609375,80.31499536203225L155.84567961516203,80.30848987519923L156.06284722222222,79.69080974034632L156.18073820891203,79.05762333098495L156.21176215277777,78.59049796913102L156.24278609664353,78.22254034591151L156.4351345486111,77.47848467456683L157.17970920138887,80.9153971935952L157.74434497974536,81.49538381888348L157.8994646990741,81.40965266223955L157.93669343171297,81.27193823176404L158.0049461082176,81.01628921062562L158.2655472366898,80.17222501614194L160.1331886574074,78.51325519350239L160.49306640625,76.33627082189133L160.59234302662037,74.94568002192403L160.9584255642361,73.18901916326034L160.995654296875,72.05156025080552L161.05770218460648,71.20216010881721L161.12595486111113,70.52512633923789L161.23764105902777,69.8689877755892L161.27486979166667,69.39184224014336L161.36173683449076,68.9390990142305L162.168359375,66.76469797716098L162.32968388310186,65.04884093697173L162.42896050347224,63.773159529934944L162.5282371238426,62.76205239266188L162.6957664207176,63.60003780664901L163.0556441695602,65.05092437669875L163.3782931857639,65.18389254970506L163.48997938368055,65.01844405033098L163.52720811631946,64.83758811293711L163.8560619212963,63.996199680202665L164.05461516203704,64.84083167284791L164.55099826388886,64.04878592234813L164.74955150462964,63.089195234034136L164.892261646412,62.19084458894807L165.18388671875,60.929274908783505L165.27695855034722,60.01197276438106L165.56858362268517,58.742314413734064L165.7112937644676,57.66167429022738L165.9036422164352,56.53642921606407L166.09599066840275,55.46460133965561L166.28833912037035,54.34698806311066L166.57996419270833,54.77174683872101L166.90261320891204,54.47378094472313L166.99568504050927,53.97990741418333L167.30592447916666,54.77375224880179L167.8395363136574,54.07220779052381L168.06911349826387,54.891963717485744L168.26766673900465,56.699522255151095L168.39796730324073,59.25355823732613L168.4289912471065,60.70673743822551L169.037060546875,61.863261111208864L169.0742892795139,62.47887070633682L169.14874674479168,64.46543763274373L169.39073350694443,65.1847367973791L169.4900101273148,65.38093358029934L170.40831886574074,65.15167314459681L170.6068721064815,66.3045018115629L170.74337745949074,66.68391835683445L170.83644929108797,68.4326470295219L171.10945999710648,70.60815770623778L171.10945999710648,71.75685489494278L171.717529296875,72.86385408432588L171.74855324074073,73.44974898929105L172.41867042824072,72.32381394486376L172.41867042824072,71.57088608928849L172.51174225983794,70.88702888918708L172.8405960648148,69.9365534363155L172.9150535300926,69.2120033966296L173.16944986979166,68.16255875031919L173.21908817997684,67.37956497431142L173.21908817997684,66.83287076966054L173.70306170428242,65.51174549748167L173.80233832465277,64.56668112569818L174.062939453125,64.95805340147378L174.1622160734954,64.96452739915902L174.58414171006947,64.13378782519572L174.67721354166667,63.408401382657814L174.75167100694443,62.82218697827514L174.75167100694443,64.02951716082227L175.2294397424768,65.55196583289079L175.8437138310185,65.18114567608508L176.34009693287035,65.52741699701947L176.48901186342593,65.28504551223769L176.77443214699073,64.6158726340821L177.02262369791666,63.61747209983735L177.11569552951389,62.72068671042205L177.2956344039352,61.66308549833907L177.41973017939816,60.954440171276026L177.4507541232639,60.45516837522538L177.79822229456016,59.416634858956975L178.5365921585648,58.922459464059145L178.7165310329861,58.2592823470355L178.87785554108797,57.495173086606854L179.05779441550925,56.59876438968309L179.39285300925926,55.333202089824425L179.49212962962963,54.210943948799944L179.73411639178238,54.760922740841345L179.77134512442126,54.800198295280815L179.9078504774306,54.75155458762102L180.19327076099538,54.143289370817755L180.2863425925926,53.561703119764104L180.3111617476852,53.1405423288076L180.36080005787036,52.743896663458564L180.4538718894676,52.28975103315057L180.4538718894676,51.94552350451237L180.4538718894676,51.66677794700732L180.75170175057866,50.99688066947041L180.84477358217595,50.38019074146423L180.84477358217595,49.938436634210596L180.90061668113427,49.530372758826026L180.9998933015046,49.14252302256593L181.01850766782408,48.6955305091985L181.13019386574072,48.35606374059685L181.32254231770833,47.72475611595976L181.51489076967596,48.558051860900854L181.51489076967596,48.915486786705344L181.6948296440972,48.91613396045021L182.4021755642361,50.75879057270085L182.47042824074074,51.721842018892396L182.66898148148144,51.872983102876525L182.8923538773148,51.46711337857002L183.29566514756942,51.99679094329974L183.90373444733797,52.589366947264416L183.96578233506946,52.803776698103675L184.4683702256944,51.80755574511749L184.5552372685185,50.99976051056754L184.62348994502315,50.37488529804031L184.6421043113426,49.930095579560806L185.2749927662037,49.940804552833775L186.0319769965278,49.875489786346776L186.2243254484954,49.628582713057064L186.61522714120372,48.58251436375341L186.90685221354167,47.40486553404313L187.1984772858796,46.14967508570341L187.1984772858796,45.32810289535397L187.29154911747685,44.6302547069789L187.3908257378472,45.65525771055949L187.3908257378472,46.20180159136136L187.96166630497686,48.72413252189459L188.2470865885417,49.68799214995474L188.99166124131946,48.76351588628601L189.15919053819442,47.801364829115116L189.2584671585648,47.02057599026298L189.55629701967592,46.07852391599587L189.97822265625,44.63740639010552L190.04027054398148,43.63816448123825L190.07749927662036,42.9715680841903L190.26984772858796,43.65662141030842L190.90273618344906,42.86119976472272L191.46737196180555,42.862683336919964L191.70935872395833,42.397496947240825L191.8706832320602,43.326714314177515L191.90791196469903,43.81766237248244L192.05682689525463,43.712737036322395L192.46013816550925,42.78796224946109L192.57182436342592,42.10087043337458L192.77658239293982,41.29240340168705L192.86965422453704,43.671771412146796L193.60802408854167,45.10220555765605L193.76314380787036,45.62989868503859L194.18506944444445,46.60952484080438L194.30916521990738,46.93331553619749L194.94825846354163,45.94598747540298L195.2398835358796,44.830778431386385L196.0340964988426,44.17149969229376L196.13337311921296,43.581343151861454L196.17060185185184,43.16207353536387L196.23264973958337,42.7810981607268L196.29469762731483,42.422630441336864L196.32572157118057,42.14284300733389L196.4622269241898,41.71661222733165L197.03306749131946,40.30130910529968L197.17577763310186,39.19564447196988L197.92655707465275,37.064620391880304L198.33607313368054,34.96216643831349L198.6152886284722,33.19569967377794L198.9069137008102,31.63223189227915L199.29161060474536,32.95654485690403L199.29161060474536,33.68783250292835L199.78178891782412,33.18272977773866L199.9431134259259,32.6911744139854L200.29058159722226,31.708379753168398L200.29058159722226,31.056340603670332L200.4581108940972,30.47803005495135L200.9296748408565,29.074634843578423L201.10961371527773,27.985023864215165L201.56876808449076,26.528986705206L201.7362973813657,25.347772653617767L201.7921404803241,24.51619507613891L201.8169596354167,23.89439938312653L202.127199074074,24.4225283017515L202.30713794849535,24.43275167648604L202.39400499131943,24.13270061475726L202.97725513599542,23.098352630513094L203.02068865740742,22.41678815657497L203.08894133391203,23.3315255815252L203.25647063078705,23.575120729672474L204.19339373553242,26.33299440689948L204.49742838541667,27.438648572850767L204.72700557002318,30.54073729790576L204.85110134548611,32.15676112975996L205.055859375,32.75970354878711L205.24200303819444,34.18350456081L205.35989402488426,34.732537861203056L205.50880895543983,34.87862190139532L205.58947120949077,34.84436095872746L206.06103515625,36.75516177685564L206.38988896122686,38.77143298072447L206.67530924479166,39.492143566308414L207.03518699363423,40.73012271815476L207.28337854456024,41.04622042552959L207.45090784143517,42.343396928169014L207.51295572916666,42.9993225730981L207.58741319444445,44.68185621882643L207.61843713831016,45.62995183300004L207.9100622106482,45.64880138137524L207.9721100983796,45.53819974361802L208.11482024016203,45.10657355049674L208.56156503182868,44.1189429731729L208.71668475115737,44.625911377164726L208.9896954571759,44.445260291671694L209.0145146122685,44.215427163468384L209.36818757233794,43.473597131109315L209.43644024884264,42.90799441453087L209.9390281394676,41.66742645015094L210.23685800057874,41.65549165195192L210.33613462094903,41.52829496573911L210.48504955150463,41.21284311917255L210.55950701678242,40.9040050938136L210.93799913194448,40.12180547124512L211.0372757523148,39.4738386563832L212.1665473090278,38.45111946020653L212.4147388599537,38.79964996032452L212.50160590277775,38.831527888692534L212.65052083333333,39.98818147574727L213.15931351273147,41.22514810002601L213.51298647280092,41.31744671168085L213.73015407986114,42.32654787879493L214.01557436342588,42.51938549149829L214.30719943576392,42.047100159340026L214.40027126736112,41.587426368085424L214.59261971932872,41.019034813059235L214.79117296006945,40.38541259976966L214.99593098958337,41.012414717352094L215.06418366608798,41.27139351984418L215.3744231047454,40.84301291040837L215.41165183738423,40.52737331071731L215.94526367187498,42.050844254173164L216.0879738136574,42.79003089790241L216.29893663194443,42.82560869529676L216.69604311342593,43.494961177158594L217.08074001736108,43.1998023161391L217.1738118489583,42.84874885692851L217.1738118489583,42.522300982960125L217.3723650896991,41.92178029884197L217.75706199363424,40.98520223539662L218.04868706597216,41.2996105685326L218.14796368634256,41.3729086598444L218.1789876302083,41.302009495933945L218.2782642505787,41.08691852460721L218.3713360821759,42.176508719744064L218.70018988715273,42.31213952800949L219.02904369212968,41.819596809355915L219.05386284722223,41.46686661374957L219.3889214409722,40.68365174213411L219.5254267939815,39.98584234125998L219.55645073784723,39.5099521363235L220.19554398148148,42.109966287083076L220.28861581307868,44.70434583568498L220.3754828559028,46.14609554614945L220.3754828559028,46.95394080801615L220.4685546875,47.26656538202574L220.82222764756943,46.93929904671915L221.4365017361111,45.71794598483413L222.14384765624996,43.85370288600473L222.32378653067127,43.76108806715391L222.46029188368058,43.479514257424476L222.49131582754632,43.25430318692014L222.62782118055551,42.893640516075614L222.84498878761573,42.339642205559784L222.87601273148147,41.95097643458274L222.90703667534726,41.66151018732899L223.00010850694446,41.31949897484333L223.10558991608795,40.945960783220244L223.56474428530092,39.93832289174582L223.7322735821759,39.05475068288422L223.8253454137731,39.65556972939125L224.36516203703707,39.06843472551243L224.4085955584491,38.66082471826163L224.5388961226852,39.487203182091505L224.67540147569443,42.28903065203122L224.9049786603009,44.86898901906718L225.24003725405097,45.912907426636444L225.32069950810185,46.42719379171475L225.68057725694442,46.177786662804365L225.90394965277773,45.69382390655771L225.96599754050925,45.292319353089155L226.1893699363426,44.71803592185074L226.25762261284726,44.26280785326202L226.32587528935187,43.87854411238779L226.5802716290509,43.2606828333996L226.7478009259259,42.61378993126142L226.8098488136574,42.11546507000286L226.89051106770833,41.706281033273825L227.14490740740743,41.02048302121042L227.62888093171298,39.786102488202026L227.7467719184028,38.826971487935936L227.9080964265046,37.97859898213752L228.02598741319443,37.305932913248256L228.54718967013886,38.5697056575755L228.8574291087963,38.782650382764324L228.89465784143522,38.85602599269948L228.9629105179398,38.79126890830205L229.12423502604165,38.4265361964625L229.19248770254626,38.15330534417972L229.35381221064816,37.717879596786226L229.58338939525458,37.07776113158713L229.7633282696759,36.42360948606054L229.8874240451389,37.129727469387106L230.02392939814814,37.33724002828536L230.22248263888886,37.13774466190819L230.69404658564818,37.574150830552945L230.91121419270834,37.45853818458866L231.52548828124998,38.87133148314059L232.23283420138887,38.64478076498752L232.33211082175924,38.34802110791887L232.52445927372685,37.956151531937216L232.59891673900458,37.66804523078719L232.7540364583333,37.12147622192785L233.44276801215275,37.13066663474914L233.82126012731482,36.55194410163776L234.1625235098379,38.094805656743326L234.41071506076386,39.88281106484415L234.60926830150467,41.869949560558275L235.36625253182874,41.785445535894766L236.0984176070602,40.520318352013014L236.39004267939814,39.28860105047346L236.8678114149306,37.76418013356021L236.8988353587963,36.797480807594376L237.1470269097222,35.85266489141755L237.26491789641202,35.07711934856862L237.64961480034725,34.09273093429638L237.74889142071757,33.34642644815163L237.74889142071757,32.84659698064693L238.1397931134259,32.02951377107014L238.23286494502315,31.332952301540665L238.52449001736113,30.50286122213009L238.62376663773148,29.95322868853987L238.71683846932868,29.418075404345025L239.020873119213,28.635126909679403L239.0891257957176,28.114248816807514L239.43659396701386,27.290163110479845L239.46141312210645,26.744602690609828L239.49864185474536,26.366626332485772L239.75924298321758,25.731906328767703L239.88954354745368,26.351216424009994L239.92056749131947,26.672162374955086L240.3797218605324,26.10090834365358L240.64652777777775,25.35256618539107L241.0808629918981,24.24664617943459L241.1801396122685,23.43164274712856L241.29182581018523,22.741018042686893L241.3662832754629,22.226300787364885L241.40351200810184,21.866830327967893L241.49658383969904,21.50063440334332L241.59586046006945,21.129934309711278L241.80061848958337,20.606486955557543L241.80061848958337,20.242716216607285L242.1418818721065,19.573850606023328L242.203929759838,19.02295537042973L242.57001229745373,18.193988294890254L242.73133680555554,17.447627527409942L243.67446469907406,15.614241494473024L243.97849934895834,14.120811271908627L244.15843822337962,12.979054845319432" style="fill: none;" fill="none"></path></g></g></g></g><g opacity="0.2"><g><g><g><path stroke="rgb(204, 51, 17)" stroke-width="2px" d="M32.916404441550924,-33.926357905070674L33.20802951388889,3.471126079558599L33.47483543113426,41.367977778116106L33.989832899305554,4.1064718564344105L34.12013346354166,-4.702796618144447L34.39314416956019,26.118506908416016L35.78301685474537,32.5294036865227L35.882293475115745,30.5459995269768L36.341447844328705,87.60638030369996L36.45933883101851,83.56103293100914L36.49036277488426,81.55183982849043L36.57102502893519,75.58052730560225L37.06740813078704,46.8844671249382L37.17288953993056,41.367977778116106L37.210118272569446,81.83903487523318L37.56379123263889,63.14087899525883L38.17186053240741,73.07079426447473L38.240113208912035,69.50957568486453L38.97227828414351,33.79657856623257L39.108783637152776,28.930673917133856L39.41902307581019,53.616553465524554L39.617576316550924,43.91756645838343L39.67962420428241,40.73263200124029L39.77269603587963,109.24682013193684L39.98986364293981,99.1305211385083L40.14498336226852,90.86868158976158L40.47383716724538,110.03455511728842L40.65998083043982,100.28633467356283L40.82751012731482,90.74325354893921L40.93919632523148,84.49177932739178L41.12533998842592,75.27574888865075L41.14395435474537,72.2467203140251L41.23702618634259,64.76206572850467L41.336302806712965,63.28154595692875L41.51624168113426,54.49689420064214L41.74581886574074,41.649311701455964L42.3973216869213,48.738926569620006L42.46557436342593,45.99357636769536L42.84406647858796,29.887209256489335L43.08605324074074,51.403393268584445L43.11087239583333,50.069401582081355L43.17912507233796,47.413140455881L43.27219690393518,73.81046803792239L43.33424479166666,101.35892025629599L43.71894169560185,84.90557463963746L43.77478479456018,110.45890045165933L43.9299045138889,104.97757784525473L44.029181134259254,100.90878597895224L44.13466254340278,96.87633307774782L44.28978226273148,91.555605252583L44.451106770833334,84.99231926600059L44.60622649016204,78.52398347854536L45.45007776331019,73.85266812642337L45.57417353877315,68.95628563562951L45.698269314236114,64.11382548014245L45.698269314236114,62.91112295786462L45.872003399884264,81.49205636978071L46.24429072627315,97.2702005704236L46.36218171296295,92.41250149408897L46.48627748842592,87.60638030369996L46.5855541087963,81.67023452122928L46.7530834056713,76.9778191248568L46.99507016782407,66.60011402765832L47.150189887152784,62.06477673848393L47.18121383101851,60.938268820443966L47.21223777488426,59.81527757644576L47.224647352430566,57.57750066121343L47.224647352430566,56.46271498997929L47.49765805844906,49.83378442128423L47.62795862268518,69.40876436233442L47.708620876736106,67.18622636794966L47.85133101851852,86.47870016097944L47.882354962384255,85.35453669230064L47.907174117476856,84.23271767298301L48.04367947048611,79.77474721272708L48.14295609085648,75.3601490656527L48.291871021412035,69.9046154022209L48.291871021412035,68.8214797973625L48.34771412037037,67.74068864186528L49.13572229456019,67.21553198496423L49.2660228587963,63.041239897409305L50.38288483796296,75.27574888865075L50.57523328993056,92.71376323699873L50.67450991030092,90.6635422706596L50.866858362268516,84.56914615631025L51.15848343460648,120.71469418207722L51.35083188657407,114.51362562179483L51.450108506944446,132.25290171305255L51.741733579282396,125.01793098449625L51.83480541087963,122.97122669219888L52.033358651620375,116.88386392593301L52.12643048321759,114.87232637405313L52.62281358506944,101.03421401977458L52.62281358506944,100.06126753489097L53.00751048900462,90.45019737879356L53.106787109375006,87.60638030369996L53.448050491898144,79.18160152435225L53.55973668981481,95.99599234263023L53.69003725405093,92.2472178141268L53.95684317129629,83.92676703135093L53.98166232638889,83.01243178049644L54.167805989583336,77.56158701578698L54.21123951099536,76.6601462364189L54.372564019097226,92.14406204223555L54.72003219039352,120.78151098887042L54.881356698495374,115.23571602503377L54.993042896412035,112.48684914906738L55.25984881365741,104.33988761901774L55.35292064525463,101.65666532516398L55.594907407407405,113.74464623133258L55.87412290219907,122.05454699198323L56.15954318576389,115.83589506149211L56.60008318865741,123.09313805897949L56.78622685185185,136.33576027552203L56.86688910590277,133.68536027272458L56.94134657118055,131.92702325185056L57.08405671296296,128.42910480499182L57.22676685474537,124.95697530110594L57.30122432002315,123.23146057128825L57.462548828125,118.9434626897168L57.487367983217595,118.0900831222526L57.77899305555555,110.48586161931274L57.9775462962963,105.48515113194702L58.12646122685185,102.18064975738446L58.14507559317129,101.35892025629599L58.46151982060185,93.21781984964926L58.53597728587963,106.76170380910156L58.97651728877315,95.48959128061851L59.70247757523148,95.33954652150392L59.72729673032407,94.56001710891645L59.81416377314816,91.45596615473349L59.87621166087963,107.60805002848227L59.89482602719907,106.82265949249188L60.4656665943287,92.9048358599337L60.8255443431713,83.85995022455774L60.85656828703703,83.11441532770714L60.99307364004629,95.05586814880293L61.092350260416666,93.55542055765707L61.28469871238426,89.82774607340416L62.072706886574075,102.83123445510783L62.09752604166666,101.35892025629599L62.43258463541666,125.66148233413614L62.79246238425927,117.49928188323892L62.87932942708333,115.29784393310466L62.98481083622685,113.10695600509561L63.67974717881945,114.10334698359088L63.92793872974537,109.81534910201944L64.1761302806713,104.8638720512382L64.40570746527777,115.77728382746297L64.77179000289351,138.7470264434806L64.97034324363426,134.4414451917004L65.05721028645833,132.30330737431763L65.29299225983796,126.64849551518677L65.37985930266204,124.54552443822142L65.4667263454861,122.45193115870076L65.56600296585648,120.36771567662474L65.61564127604166,119.67610311508098L66.15545789930556,121.8869188626599L66.62702184606482,126.0764498710624L67.11720015914352,144.36432711283283L67.21027199074075,142.31058947245197L67.23509114583334,141.62835470835284L67.2971390335648,154.3950537045788L67.3343677662037,167.82288742065344L68.00448495370371,180.47470839818232L68.11617115162038,177.00023444493522L68.21544777199074,174.92656898498447L68.35815791377314,172.17652988433753L68.42020580150464,170.80737145741693L68.5318919994213,168.07960462570102L68.62496383101852,165.3670767148327L68.76767397280092,162.66978772481198L69.5370677806713,159.5598756472261L69.56809172453703,158.90225760141922L69.94037905092591,178.33070945739658L73.97349175347222,178.23107035954706L74.19686414930557,173.9372113545727L74.22168330439816,173.32648229598914L74.39541739004629,182.4932792981457L74.67463288483796,177.60744682947706L74.95384837962963,172.16832431157343L75.15240162037037,169.1721180280041L75.30131655092592,166.1946673393241L75.3509548611111,164.41640249888016L75.58673683449075,161.46708520253415L75.69221824363426,159.70640373229895L75.77908528645834,157.36898771921707L76.0707103587963,164.56761948267533L76.44920247395834,159.9138875007621L76.64155092592593,155.8779179255159L76.93317599826388,151.87594286600665L77.22480107060184,158.402889887491L77.31787290219907,156.12760178248L77.41714952256945,155.560245037078L77.41714952256945,154.99406051635657L77.51022135416667,153.86286369959427L77.60949797453704,152.1713434855135L77.80184642650462,148.24790747960324L78.11829065393519,143.2495414415987L78.46575882523148,149.13176488876258L78.60226417824074,146.92681026458655L78.65190248842593,145.8284357388806L78.75738389756945,144.18497673670367L78.91250361689815,152.74104468027667L78.96834671585648,151.09289677937738L79.04280418113426,150.5454678535453L79.04280418113426,149.9980389277132L79.68810221354167,150.84438514709387L79.97352249710647,145.99371941884274L80.15346137152778,153.82418028513504L80.29617151331018,161.06032323837195L80.4016529224537,160.51992766062332L80.6994827835648,155.68215640385858L80.9414695457176,151.95330969492508L81.30134729456017,145.62798531850095L81.61158673321759,151.70362583796097L81.73568250868057,160.35112730661942L82.02730758101852,155.10073296228958L82.12658420138888,153.0165174802136L82.38098054108796,150.42355648676468L82.51748589409722,158.9667299588513L82.90218279803241,162.77880462010614L83.00145941840277,171.74163452784134L83.29308449074072,168.61296685536615L83.29308449074072,168.09367132186804L83.29308449074072,167.57554801305048L84.40994646990741,150.25710058212195L84.6395236545139,147.26441097259436L84.80084816261575,154.01290845870886L85.04903971354167,151.02842442194535L85.17934027777778,149.0497091611218L85.24138816550926,148.06386820475174L85.26620732060185,147.0791994730623L85.43994140625,154.24969784418658L85.53301323784721,152.7703502972912L85.63228985821758,151.78685379028235L85.73156647858796,150.31453959147052L86.30861183449075,143.02330207824622L86.41409324363427,142.05973339080725L86.74915183738426,146.2398866017651L86.84842845775462,155.67746750513626L86.84842845775462,155.19216648737503L87.28276367187499,148.45421902338578L87.38204029224536,146.54700946807776L87.5557743778935,144.64683326085324L87.83498987268518,140.86992534001584L87.94667607060185,138.99202140172238L88.25691550925926,134.33125607172565L88.36239691840278,152.30732154846106L88.46787832754629,150.89361858367835L88.51131184895833,149.48460451761795L88.74709382233797,147.14367183049436L89.42341579861112,138.3531589508048L89.85154622395834,142.37271738052283L89.88877495659723,141.914377530415L90.00666594328705,150.01445007324133L90.04389467592593,149.55376577377234L90.09973777488426,148.6347416241955L90.16799045138889,157.1638484001151L90.31690538194442,155.31525007883621L90.45961552372685,153.4748573303214L90.633349609375,151.18433030446286L90.70780707465276,150.27116727828894L91.1483470775463,152.78910589218054L91.32828595196759,150.97567431131912L92.15972764756945,148.53744697570716L92.25279947916667,147.2022830645235L92.26520905671296,146.75800991058264L92.42032877604169,154.1313031514477L92.49478624131945,153.2392401695243L92.66231553819445,151.01435772577835L92.9415310329861,147.0369993845613L93.0966507523148,145.2798345883679L93.15249385127315,143.52853091557736L93.3262279369213,141.78426059087033L93.68610568576389,137.45054594675616L93.74815357349536,136.5889608065279L93.76676793981481,135.7285478909802L93.84743019386575,135.29951365788693L93.9715259693287,133.5845489501945L94.07080258969908,132.30330737431763L94.31899414062501,128.90268357594726L94.45549949363426,127.21116336186644L94.90844907407407,121.33948993682777L95.05115921585649,119.67610311508098L95.09459273726851,118.84616804122842L95.24350766782408,116.77836370468057L95.24350766782408,116.36574061711546L95.3365794994213,124.32162952423013L95.4668800636574,123.07672691345132L95.4792896412037,122.24913628895996L95.59097583912039,121.42271788914915L95.63440936053239,129.75840759277258L95.86398654513889,135.57381423314328L95.95085358796297,134.32187827428098L96.05013020833333,132.24352391560788L96.8071144386574,124.42947419484373L97.13596824363427,120.36771567662474L97.34072627314815,117.94824393590208L97.54548430266203,115.54166666666585L97.66958007812498,113.94392442703165L97.70060402199074,113.54536803563354L98.05427698206017,117.66104888915935L98.06668655960648,117.26249249776122L98.15355360243056,116.46772416432617L98.58168402777777,111.33220783869345L98.89812825520833,107.42049407958902L99.20836769386574,112.27936538060425L99.76059389467594,113.9872967402132L100.34384403935185,115.28494946161823L100.34384403935185,114.89928754170654L100.42450629340277,114.12913592656372L100.73474573206018,111.06259616215942L100.79679361979167,110.29830567041952L100.93950376157406,108.77558581034262L101.30558629918981,113.12571159998495L101.60962094907407,110.09316635131754L101.60962094907407,109.71453777948935L101.96949869791665,113.64969603220538L102.26112377025463,118.68322881062744L102.45967701099535,116.41966295242227L102.45967701099535,116.04337882995523L102.5527488425926,115.29081058502115L102.62100151909722,122.54805358250853L102.81334997106481,128.65299971898315L103.64479166666666,135.0721020698539L103.69442997685185,134.6934734980257L104.04189814814816,130.92477114995236L104.09774124710648,130.17454735437946L104.20322265624999,136.5350384712211L104.26527054398149,144.012659708658L104.7182201244213,146.5388038953137L104.89195421006944,144.27406581242795L105.05948350694446,142.39498964945392L105.14635054976851,149.41544326146357L105.1587601273148,148.66053056716834L105.26424153645831,147.90679009755368L105.7233959056713,150.75764052073077L105.87851562499999,149.2571929295849L105.95297309027778,148.50931358337317L106.05224971064814,147.38866678873612L106.32526041666667,151.70714251200275L106.3562843605324,151.33437506357743L106.6913429542824,147.61842282613034L106.75959563078705,154.50407059987302L107.13808774594908,150.05430571238114L107.13808774594908,149.6850549379976L107.21254521122687,149.31697638829465L107.32423140914352,147.8446621894828L107.46694155092594,146.37703688939328L107.60965169270834,144.18497673670367L108.32940719039352,138.02610826492224L108.51555085358797,135.8715593020113L108.54657479745369,135.51403077443356L108.83199508101852,132.65849145253415L109.03054832175926,130.5285592079154L109.24771592881946,128.40800476074133L109.40904043692129,126.64849551518677L110.14741030092593,125.97915522257405L110.20325339988425,125.28402598698851L110.37078269675926,130.87202103932614L110.53831199363425,129.1300951639803L110.91680410879628,124.63344128926514L111.18361002604166,129.48410701751624L111.67378833912036,124.33452399571654L112.02125651041668,120.25518210728882L112.12053313078702,119.24120775858478L112.35631510416665,117.21912018457967L112.62312102141203,114.53824234008708L112.62312102141203,114.204158306121L112.68516890914353,113.87007427215494L112.71619285300928,113.53599023818889L112.95817961516204,110.54447285334187L113.83925962094908,110.03455511728842L113.83925962094908,109.70633220672526L113.93853624131943,109.37810929616211L114.13088469328703,114.11389700571613L114.52178638599537,110.51165056228555L114.6148582175926,109.858721415201L114.97473596643519,105.96576325098592L114.97473596643519,105.64340146382568L115.16087962962963,104.6751438776644L115.2229275173611,104.0315925280245L115.25395146122685,103.71040296554486L115.93647822627315,103.90499226252157L116.20948893229165,101.35892025629599L116.66243851273147,97.566773414611L116.67484809027778,97.25144497553426L116.92924442997685,94.74288415908734L117.03472583912036,94.42990016937175L117.2580982349537,99.3684827486666L117.35737485532407,98.42835855483928L117.56213288483795,96.55514351526814L117.71104781539351,95.31024090448936L118.20122612847221,103.53691371281862L118.29429796006944,109.64889319737671L118.29429796006944,109.33473698298056L118.39357458043982,109.02175299326498L118.69140444155092,112.29343207677124L119.34911205150463,113.35546763737915L119.89513346354165,108.08748992284058L120.18675853587963,105.93528540929077L120.18675853587963,105.62933476765869L120.27983036747685,104.71031061808186L120.84446614583332,106.41003640492676L121.01199544270834,105.19326718648193L121.1112720630787,103.67523622512736L121.23536783854166,103.0703682899467L121.29741572627314,102.46550035476605L121.36566840277777,101.86180464426594L121.43392107928241,101.25810893376588L121.55801685474536,100.05423418680746L121.58904079861111,99.7541446685783L121.91789460358795,96.46253776550213L122.04819516782406,95.56930255889812L122.29638671875,93.19554758071818L122.38945855034721,92.3081734975171L122.42048249421295,92.01277287801027L122.66246925636572,89.65660127003906L123.1588523582176,85.27365318934045L123.23951461226851,84.111978530883L123.35120081018519,83.53172731399457L123.83517433449074,85.57843160629193L124.2570999710648,81.83903487523318L125.02649377893518,81.59521214167198L125.51046730324073,77.3505865732821L125.51046730324073,77.06925264994226L125.80829716435186,81.63741223017296L125.80829716435186,81.35490608215254L126.00064561631946,86.18798844019493L126.19299406828705,84.77311325073163L126.29227068865741,89.86877393722455L126.38534252025462,89.30258941650311L126.94997829861111,84.79304107030154L127.27883210358796,81.71946795781373L127.53322844328703,79.77474721272708L127.54563802083334,79.49692996342898L127.79382957175925,77.56158701578698L127.84346788194445,82.86707592010418L128.68111436631943,76.26276206970135L128.76177662037037,75.44337701797407L128.99755859375,73.53968413670779L129.0347873263889,72.72498798370283L129.10924479166667,72.45420408248825L129.1899070457176,71.91380850473962L129.1899070457176,71.64302460352502L129.98412000868058,84.32297897338788L130.09580620659722,82.96319834391198L130.4680935329861,80.52379878361941L130.53634620949074,79.98457543055137L130.57977973090277,79.44417985280276L130.83417607060184,77.56158701578698L131.26230649594908,74.08594083785933L131.30574001736113,73.5537508328748L131.50429325810185,71.96069749196293L131.7959183304398,69.84600416819177L132.05031467013887,74.17502991358361L132.08754340277778,73.91127936045251L132.18061523437498,72.59135437011642L132.37916847511573,77.16420284906945L132.57151692708334,75.31677675247114L133.01826171875,72.16583681106489L133.1733814380787,71.12021239598513L133.5456687644676,73.56781752904178L133.6139214409722,73.04734977086308L133.68837890625,78.34697755177737L133.78145073784722,77.56158701578698L133.99861834490738,76.25690094629846L134.54463975694443,71.84933614730757L134.6811451099537,70.5610612233472L135.39469581886573,64.93789943059208L135.48776765046298,64.17712561289392L135.63668258101853,62.91112295786462L135.83523582175926,61.145752588907115L135.99656032986113,60.139983812967166L136.00276511863424,59.638271649677776L136.25716145833331,58.13547960917078L136.28818540219905,57.885795752206676L136.49914822048612,56.38886483510258L136.7535445601852,54.649283409117885L136.98312174479165,53.16407473881962L137.09480794270834,52.42322874069137L137.29336118344906,62.22654374440434L137.67185329861113,59.4952602386467L137.74631076388889,59.0005814234408L138.07516456886574,67.74068864186528L138.18064597800927,66.9939815203341L138.26751302083335,66.49695825576705L138.44745189525463,70.84473959604821L138.9996780960648,77.99882682164431L139.00588288483794,77.49945910771608L139.2044361255787,76.00252819061201L139.30991753472222,75.0084816614779L139.44642288773147,80.0513922373446L139.90557725694444,76.56988493601403L140.29647894965277,79.10657914479495L140.39575557002314,77.86988210678022L140.83629557291667,74.91704813639245L140.87352430555555,74.67205317815068L141.06587275752315,78.66699488957644L141.09689670138889,78.42082770665408L141.54364149305553,74.9944149653109L141.67394205729167,74.0202962557467L141.73598994502314,73.53382301330488L141.7980378327546,73.04852199554365L141.89110966435186,72.3205704689018L141.98418149594906,77.01415808995488L142.4929741753472,89.07752227783124L142.8776710792824,86.38374996185225L142.97694769965278,86.13992722829103L143.1568865740741,84.67816305160443L143.3802589699074,88.33667627970298L144.18688151041664,82.52595853805462L144.4412778501157,81.08412218093792L144.50332573784723,85.91603231429974L145.1858525028935,80.88484398523889L145.2603099681713,80.17095915476402L145.4154296875,79.22028493881147L145.44645363136573,78.98232332865318L145.4774775752315,78.74553394317549L145.69464518229165,77.32596985498985L145.78151222511573,76.61677392323733L145.84356011284723,76.1455396016431L146.14759476273147,84.50936269760052L146.37717194733798,82.85066477457603L146.53849645543983,81.67023452122928L146.78668800636572,79.7876416842135L146.8983742042824,78.84868971506677L147.0410843460648,77.9120821952812L147.46921477141203,85.25020869572877L147.5312626591435,84.78014659881514L147.63674406828704,84.07681179046551L148.0338505497685,81.27285035451175L148.17656069155092,80.3421039581291L148.3254756221065,84.33001232147137L148.3254756221065,83.86346689859947L148.7411964699074,81.54128980636519L148.79703956886573,81.07708883285444L148.79703956886573,80.61523230870486L149.28101309317128,82.72875340779544L149.86426323784724,79.0479679107658L150.00076859085647,82.98664283752363L150.19311704282407,86.4529112180066L151.0866066261574,80.73362700144371L151.17967845775462,80.50621541341066L151.21070240162035,80.27880382537764L151.45889395254628,78.69161160786867L151.7691333912037,81.44985628127974L151.9366626880787,79.64228582382124L152.2220829716435,83.06400966644208L152.4144314236111,87.15272935231447L152.87358579282406,84.66526858011802L153.0969581886574,83.3136935234062L153.3265353732639,81.9668073654167L153.9221950954861,77.95076560974042L154.04629087094906,77.06221930185875L154.41237340856483,84.47419595718306L154.57369791666667,83.3605825106295L154.72881763599537,82.2504857381177L154.8901421440972,81.3642838795972L154.9273708767361,81.14273341496707L155.33068214699074,78.71505610148034L155.35550130208333,78.49585008621138L155.7277886284722,80.957521915435L155.80224609375,80.5179376602165L155.84567961516203,80.29873164494754L156.06284722222222,78.76428953806482L156.18073820891203,78.1078437169385L156.21176215277777,77.88980992635011L156.24278609664353,77.67060391108117L156.4351345486111,76.3624011675509L157.17970920138887,86.07076597213666L157.74434497974536,82.3653637568148L157.8994646990741,81.28105592727583L157.93669343171297,81.0653665860486L158.0049461082176,80.63281567891359L158.2655472366898,78.90612872441531L160.1331886574074,76.02480045954309L160.49306640625,73.07079426447473L160.59234302662037,72.85979382196984L160.9584255642361,70.5540278752637L160.995654296875,70.34537188211999L161.05770218460648,69.92805989583256L161.12595486111113,69.50957568486453L161.23764105902777,68.88477993011396L161.27486979166667,68.67612393697024L161.36173683449076,68.2599841753634L162.168359375,63.50309642155888L162.32968388310186,62.47505537668788L162.42896050347224,61.85963741938196L162.5282371238426,61.24539168675663L162.6957664207176,64.85701592763186L163.0556441695602,67.22725423177006L163.3782931857639,65.3833448092135L163.48997938368055,64.77027130126875L163.52720811631946,64.56630420684738L163.8560619212963,62.73411703109663L164.05461516203704,66.1077796618136L164.55099826388886,62.86071729659956L164.74955150462964,61.649809201557666L164.892261646412,60.84331862131677L165.18388671875,59.03692038853886L165.27695855034722,58.63601954777958L165.56858362268517,56.83782688776575L165.7112937644676,56.040714104969524L165.9036422164352,54.84856160481695L166.09599066840275,53.856859525044L166.28833912037035,52.670568148294315L166.57996419270833,55.40888500213546L166.90261320891204,54.02683210372848L166.99568504050927,53.239097118376925L167.30592447916666,55.96451950073165L167.8395363136574,53.01989110310796L168.06911349826387,56.121597607929736L168.26766673900465,59.41086006164475L168.39796730324073,63.084612210590855L168.4289912471065,62.8865062395724L169.037060546875,63.59804662068608L169.0742892795139,63.40228509902877L169.14874674479168,67.44528802235844L169.39073350694443,66.2636855443311L169.4900101273148,65.67522875467859L170.40831886574074,64.8077824910474L170.6068721064815,68.03374481201095L170.74337745949074,67.25304317474288L170.83644929108797,71.0557400385531L171.10945999710648,73.8714237213127L171.10945999710648,73.47990067799809L171.717529296875,74.52435286839726L171.74855324074073,74.32859134673994L172.41867042824072,70.6349113782239L172.41867042824072,70.44149430592778L172.51174225983794,69.86124308903935L172.8405960648148,68.5108402570081L172.9150535300926,68.12517833709639L173.16944986979166,66.5883917808525L173.21908817997684,66.20507431030195L173.21908817997684,66.0128294626864L173.70306170428242,63.53005758921229L173.80233832465277,63.14908456802291L174.062939453125,65.54511181513391L174.1622160734954,64.97423839569015L174.58414171006947,62.88767846425297L174.67721354166667,62.32032171885095L174.75167100694443,61.94286537170332L174.75167100694443,65.84051243464074L175.2294397424768,67.83563884099247L175.8437138310185,64.62491544087649L176.34009693287035,66.04682397842329L176.48901186342593,64.92148828506393L176.77443214699073,63.61211331685306L177.02262369791666,62.11987129847131L177.11569552951389,61.37550862630132L177.2956344039352,60.0766836802157L177.41973017939816,59.891472180683635L177.4507541232639,59.70626068115158L177.79822229456016,57.858834584553264L178.5365921585648,58.18119637171351L178.7165310329861,57.264516671497844L178.87785554108797,56.349009195962786L179.05779441550925,55.254151344298556L179.39285300925926,53.434858640034236L179.49212962962963,52.52755673726324L179.73411639178238,55.58589092890345L179.77134512442126,54.859111626942195L179.9078504774306,54.67858902613246L180.19327076099538,53.23089154561284L180.2863425925926,52.689323743183635L180.3111617476852,52.50880114237392L180.36080005787036,52.148928165435024L180.4538718894676,51.60853258768641L180.4538718894676,51.42918221155726L180.4538718894676,51.24865961074754L180.75170175057866,49.99203475316289L180.84477358217595,49.455155849456034L180.84477358217595,49.27580547332688L180.90061668113427,48.918276945749156L180.9998933015046,48.56074841817144L181.01850766782408,48.02504173914516L181.13019386574072,47.846863587696596L181.32254231770833,46.77779467900518L181.51489076967596,49.80799547831142L181.51489076967596,49.45163917541428L181.6948296440972,48.91710472106858L182.4021755642361,53.52277549107792L182.47042824074074,53.16641918818079L182.66898148148144,52.09969472885056L182.8923538773148,50.858308792113505L183.29566514756942,52.79130729039434L183.90373444733797,53.478230953215785L183.96578233506946,53.1253913243604L184.4683702256944,50.31322431564254L184.5552372685185,49.7880676587415L184.62348994502315,49.43757247924728L184.6421043113426,49.26291100184048L185.2749927662037,49.9568680127454L186.0319769965278,49.77751763661625L186.2243254484954,49.25822210311813L186.61522714120372,47.01341183980231L186.90685221354167,45.638392289478816L187.1984772858796,44.26688941319708L187.1984772858796,44.09574460983201L187.29154911747685,43.583482424417376L187.3908257378472,47.19276221593146L187.3908257378472,47.02161741256637L187.96166630497686,52.507628917693324L188.2470865885417,51.133781592050426L188.99166124131946,47.37680149078294L189.15919053819442,46.358138243356585L189.2584671585648,45.8493927319837L189.55629701967592,44.665445804595194L189.97822265625,42.47573010126674L190.04027054398148,42.139301617939516L190.07749927662036,41.97167348861618L190.26984772858796,44.68420139948452L190.90273618344906,41.668067296345264L191.46737196180555,42.8649086952202L191.70935872395833,41.699717362720996L191.8706832320602,44.720540364582575L191.90791196469903,44.55408445993984L192.05682689525463,43.5553490320834L192.46013816550925,41.400800069172426L192.57182436342592,41.0702327092481L192.77658239293982,40.07970285415575L192.86965422453704,47.24082342783534L193.60802408854167,47.24785677591885L193.76314380787036,46.42143837610805L194.18506944444445,48.078964074451946L194.30916521990738,47.419001579283915L194.94825846354163,44.464995384215555L195.2398835358796,43.157964865365855L196.0340964988426,43.1825815836581L196.13337311921296,42.696108341216295L196.17060185185184,42.53316911061528L196.23264973958337,42.20963509877447L196.29469762731483,41.88492886225307L196.32572157118057,41.72316185633267L196.4622269241898,41.07726605733159L197.03306749131946,38.17835442225064L197.17577763310186,37.53714752197191L197.92655707465275,33.86808427174811L198.33607313368054,31.808485507964342L198.6152886284722,30.5459995269768L198.9069137008102,29.287030220030992L199.29161060474536,34.94301430384244L199.29161060474536,34.78476397196378L199.78178891782412,32.42507568995083L199.9431134259259,31.953841368356596L200.29058159722226,30.2341877619418L200.29058159722226,30.078281879424303L200.4581108940972,29.610564231871827L200.9296748408565,26.969542026519036L201.10961371527773,26.350607395171387L201.56876808449076,24.344930966694406L201.7362973813657,23.57595157623218L201.7921404803241,23.268828709919504L201.8169596354167,22.961705843606854L202.127199074074,25.214721679686754L202.30713794849535,24.448086738585687L202.39400499131943,23.68262402216519L202.97725513599542,21.546830654143548L203.02068865740742,21.394441445667802L203.08894133391203,24.703631718952707L203.25647063078705,23.940513451893395L204.19339373553242,30.469804922738927L204.49742838541667,29.097129821776598L204.72700557002318,35.193870385487116L204.85110134548611,34.58079687754239L205.055859375,33.664117177326716L205.24200303819444,36.319206078846506L205.35989402488426,35.55608781178717L205.50880895543983,35.09774796167935L205.58947120949077,34.79296954472784L206.06103515625,39.62136300404792L206.38988896122686,41.79583978652879L206.67530924479166,40.57320944468106L207.03518699363423,42.5870914459221L207.28337854456024,41.520366986591846L207.45090784143517,44.28916168212816L207.51295572916666,43.98321104049608L207.58741319444445,47.20565668741787L207.61843713831016,47.05209525426153L207.9100622106482,45.67707570393804L207.9721100983796,45.37229728698655L208.11482024016203,44.45913426081264L208.56156503182868,42.63749710718716L208.71668475115737,45.38636398315355L208.9896954571759,44.17428366343105L209.0145146122685,43.87067747116013L209.36818757233794,42.36085208256964L209.43644024884264,42.05959033965989L209.9390281394676,39.806574503579974L210.23685800057874,41.637589454650126L210.33613462094903,41.33749993642096L210.48504955150463,40.73966534932378L210.55950701678242,40.44074805577521L210.93799913194448,38.948506037393464L211.0372757523148,38.501888434091455L212.1665473090278,36.91704066594367L212.4147388599537,39.32244571049933L212.50160590277775,38.87934478123908L212.65052083333333,41.72316185633267L213.15931351273147,43.08059803644741L213.51298647280092,41.455894629159815L213.73015407986114,43.84019962946499L214.01557436342588,42.808641910552225L214.30719943576392,41.338672161101535L214.40027126736112,40.89791568120244L214.59261971932872,40.16644748051886L214.79117296006945,39.43497927983526L214.99593098958337,41.952917893726855L215.06418366608798,41.65986172358121L215.3744231047454,40.20044199625576L215.41165183738423,40.05391391118293L215.94526367187498,44.336050669351465L216.0879738136574,43.89881086349413L216.29893663194443,42.87897539138718L216.69604311342593,44.49898989995245L217.08074001736108,42.7570640246066L217.1738118489583,42.3221686681104L217.1738118489583,42.03262917200649L217.3723650896991,41.02099927266364L217.75706199363424,39.58033514022752L218.04868706597216,41.771223068236544L218.14796368634256,41.48285579681322L218.1789876302083,41.195660750070466L218.2782642505787,40.76428206761602L218.3713360821759,43.81089401245042L218.70018988715273,42.51558574040655L219.02904369212968,41.08078273137335L219.05386284722223,40.93777132034226L219.3889214409722,39.50882943471197L219.5254267939815,38.939128239948786L219.55645073784723,38.7961168289177L220.19554398148148,46.00998751322353L220.28861581307868,48.59591515858891L220.3754828559028,48.308720111846156L220.3754828559028,48.16570870081509L220.4685546875,47.73550224304124L220.82222764756943,46.448399543761454L221.4365017361111,43.8859163920077L222.14384765624996,41.0573382377617L222.32378653067127,43.6221658388766L222.46029188368058,43.057153542835756L222.49131582754632,42.91648658116583L222.62782118055551,42.35264650980557L222.84498878761573,41.508644739786035L222.87601273148147,41.367977778116106L222.90703667534726,41.2273108164462L223.00010850694446,40.806482156117L223.10558991608795,40.38565349578783L223.56474428530092,38.42686605453415L223.7322735821759,37.729392369587465L223.8253454137731,40.556798299152895L224.36516203703707,38.18773221969529L224.4085955584491,38.049409707386545L224.5388961226852,40.726770877837374L224.67540147569443,46.491771856943004L224.9049786603009,48.738926569620006L225.24003725405097,47.478785037993624L225.32069950810185,47.19862333933436L225.68057725694442,45.80367596944097L225.90394965277773,44.96787977218552L225.96599754050925,44.69006252288744L226.1893699363426,43.85661077499315L226.25762261284726,43.57996575037562L226.32587528935187,43.30214850107754L226.5802716290509,42.33389091491624L226.7478009259259,41.64345057805304L226.8098488136574,41.367977778116106L226.89051106770833,41.092504978179186L227.14490740740743,39.99178600311204L227.62888093171298,37.93453168868943L227.7467719184028,37.3882749875379L227.9080964265046,36.706040223438784L228.02598741319443,36.29693380991543L228.54718967013886,40.46536477406745L228.8574291087963,39.10206747054978L228.89465784143522,38.9660894076022L228.9629105179398,38.69413328170701L229.12423502604165,37.87943712870205L229.19248770254626,37.743459065754465L229.35381221064816,37.064740975697084L229.58338939525458,36.11758343378628L229.7633282696759,35.442382017770655L229.8874240451389,38.188904444375886L230.02392939814814,37.64850886662727L230.22248263888886,36.838501612344636L230.69404658564818,38.228760083515695L230.91121419270834,37.285119215646624L231.52548828124998,40.99052143096848L232.23283420138887,38.30495468775357L232.33211082175924,37.9028816223137L232.52445927372685,37.368347167968004L232.59891673900458,37.23588577906216L232.7540364583333,36.30162270863775L233.44276801215275,37.144452253976716L233.82126012731482,35.6838603019707L234.1625235098379,40.40909798939948L234.41071506076386,42.564819176991016L234.60926830150467,44.85065730412726L235.36625253182874,41.658689498900614L236.0984176070602,38.62262757619146L236.39004267939814,37.44102509816412L236.8678114149306,35.47754875818814L236.8988353587963,35.34743181864346L237.1470269097222,34.43544101715013L237.26491789641202,33.91380103429084L237.64961480034725,32.61614831288581L237.74889142071757,32.22696971893235L237.74889142071757,32.09685277938769L238.1397931134259,30.803888956704984L238.23286494502315,30.288110097248612L238.52449001736113,29.257724603016424L238.62376663773148,29.12877988815233L238.71683846932868,28.615345478057122L239.020873119213,27.460704167683183L239.0891257957176,27.332931677499662L239.43659396701386,26.054034550983957L239.46141312210645,25.926262060800457L239.49864185474536,25.799661795297528L239.75924298321758,24.77982632319058L239.88954354745368,27.28018156687344L239.92056749131947,27.15358130137051L240.3797218605324,25.244027296701322L240.64652777777775,24.230052947997315L241.0808629918981,22.58776617050098L241.1801396122685,22.209137598672765L241.29182581018523,21.70508098602221L241.3662832754629,21.45422490437751L241.40351200810184,21.327624638874582L241.49658383969904,20.951340516407548L241.59586046006945,20.573884169259923L241.80061848958337,19.821315924325855L241.80061848958337,19.697060108184086L242.1418818721065,18.570552190144127L242.203929759838,18.196612517038258L242.57001229745373,16.950537681578858L242.73133680555554,16.328086376189454L243.67446469907406,12.864162445067638L243.97849934895834,11.88066593805877L244.15843822337962,11.266420205433427" style="fill: none;" fill="none"></path></g></g></g></g></g></g><g transform="translate(61, 177)" clip-path="url(#clip_1)"><clipPath id="clip_1"><rect width="268" height="23"></rect></clipPath><g><g><line x1="0" y1="0" x2="0" y2="5" style="visibility: inherit;" fill="rgb(0, 0, 0)" stroke="rgb(204, 204, 204)" stroke-width="1px"></line><line x1="22.337239583333332" y1="0" x2="22.337239583333332" y2="5" style="visibility: inherit;" fill="rgb(0, 0, 0)" stroke="rgb(204, 204, 204)" stroke-width="1px"></line><line x1="44.674479166666664" y1="0" x2="44.674479166666664" y2="5" style="visibility: inherit;" fill="rgb(0, 0, 0)" stroke="rgb(204, 204, 204)" stroke-width="1px"></line><line x1="67.01171875" y1="0" x2="67.01171875" y2="5" style="visibility: inherit;" fill="rgb(0, 0, 0)" stroke="rgb(204, 204, 204)" stroke-width="1px"></line><line x1="89.34895833333333" y1="0" x2="89.34895833333333" y2="5" style="visibility: inherit;" fill="rgb(0, 0, 0)" stroke="rgb(204, 204, 204)" stroke-width="1px"></line><line x1="111.68619791666667" y1="0" x2="111.68619791666667" y2="5" style="visibility: inherit;" fill="rgb(0, 0, 0)" stroke="rgb(204, 204, 204)" stroke-width="1px"></line><line x1="134.0234375" y1="0" x2="134.0234375" y2="5" style="visibility: inherit;" fill="rgb(0, 0, 0)" stroke="rgb(204, 204, 204)" stroke-width="1px"></line><line x1="156.36067708333334" y1="0" x2="156.36067708333334" y2="5" style="visibility: inherit;" fill="rgb(0, 0, 0)" stroke="rgb(204, 204, 204)" stroke-width="1px"></line><line x1="178.69791666666666" y1="0" x2="178.69791666666666" y2="5" style="visibility: inherit;" fill="rgb(0, 0, 0)" stroke="rgb(204, 204, 204)" stroke-width="1px"></line><line x1="201.03515625000003" y1="0" x2="201.03515625000003" y2="5" style="visibility: inherit;" fill="rgb(0, 0, 0)" stroke="rgb(204, 204, 204)" stroke-width="1px"></line><line x1="223.3723958333333" y1="0" x2="223.3723958333333" y2="5" style="visibility: inherit;" fill="rgb(0, 0, 0)" stroke="rgb(204, 204, 204)" stroke-width="1px"></line><line x1="245.70963541666666" y1="0" x2="245.70963541666666" y2="5" style="visibility: inherit;" fill="rgb(0, 0, 0)" stroke="rgb(204, 204, 204)" stroke-width="1px"></line><line x1="268.046875" y1="0" x2="268.046875" y2="5" style="visibility: inherit;" fill="rgb(0, 0, 0)" stroke="rgb(204, 204, 204)" stroke-width="1px"></line></g><g transform="translate(0, 8)"><text x="0" y="0" dx="0em" dy="0.95em" style="text-anchor: middle; visibility: hidden; font-family: Roboto, sans-serif; font-size: 12px; font-weight: 200;" fill="rgb(33, 33, 33)" stroke="none" stroke-width="1px">-0.001</text><text x="22.337239583333332" y="0" dx="0em" dy="0.95em" style="text-anchor: middle; visibility: inherit; font-family: Roboto, sans-serif; font-size: 12px; font-weight: 200;" fill="rgb(33, 33, 33)" stroke="none" stroke-width="1px">0</text><text x="44.674479166666664" y="0" dx="0em" dy="0.95em" style="text-anchor: middle; visibility: hidden; font-family: Roboto, sans-serif; font-size: 12px; font-weight: 200;" fill="rgb(33, 33, 33)" stroke="none" stroke-width="1px">0.001</text><text x="67.01171875" y="0" dx="0em" dy="0.95em" style="text-anchor: middle; visibility: inherit; font-family: Roboto, sans-serif; font-size: 12px; font-weight: 200;" fill="rgb(33, 33, 33)" stroke="none" stroke-width="1px">0.002</text><text x="89.34895833333333" y="0" dx="0em" dy="0.95em" style="text-anchor: middle; visibility: hidden; font-family: Roboto, sans-serif; font-size: 12px; font-weight: 200;" fill="rgb(33, 33, 33)" stroke="none" stroke-width="1px">0.003</text><text x="111.68619791666667" y="0" dx="0em" dy="0.95em" style="text-anchor: middle; visibility: inherit; font-family: Roboto, sans-serif; font-size: 12px; font-weight: 200;" fill="rgb(33, 33, 33)" stroke="none" stroke-width="1px">0.004</text><text x="134.0234375" y="0" dx="0em" dy="0.95em" style="text-anchor: middle; visibility: hidden; font-family: Roboto, sans-serif; font-size: 12px; font-weight: 200;" fill="rgb(33, 33, 33)" stroke="none" stroke-width="1px">0.005</text><text x="156.36067708333334" y="0" dx="0em" dy="0.95em" style="text-anchor: middle; visibility: inherit; font-family: Roboto, sans-serif; font-size: 12px; font-weight: 200;" fill="rgb(33, 33, 33)" stroke="none" stroke-width="1px">0.006</text><text x="178.69791666666666" y="0" dx="0em" dy="0.95em" style="text-anchor: middle; visibility: hidden; font-family: Roboto, sans-serif; font-size: 12px; font-weight: 200;" fill="rgb(33, 33, 33)" stroke="none" stroke-width="1px">0.007</text><text x="201.03515625000003" y="0" dx="0em" dy="0.95em" style="text-anchor: middle; visibility: inherit; font-family: Roboto, sans-serif; font-size: 12px; font-weight: 200;" fill="rgb(33, 33, 33)" stroke="none" stroke-width="1px">0.008</text><text x="223.3723958333333" y="0" dx="0em" dy="0.95em" style="text-anchor: middle; visibility: hidden; font-family: Roboto, sans-serif; font-size: 12px; font-weight: 200;" fill="rgb(33, 33, 33)" stroke="none" stroke-width="1px">0.009</text><text x="245.70963541666666" y="0" dx="0em" dy="0.95em" style="text-anchor: middle; visibility: inherit; font-family: Roboto, sans-serif; font-size: 12px; font-weight: 200;" fill="rgb(33, 33, 33)" stroke="none" stroke-width="1px">0.01</text><text x="268.046875" y="0" dx="0em" dy="0.95em" style="text-anchor: middle; visibility: hidden; font-family: Roboto, sans-serif; font-size: 12px; font-weight: 200;" fill="rgb(33, 33, 33)" stroke="none" stroke-width="1px">0.011</text></g><line x1="0" y1="0" x2="268.046875" y2="0" fill="rgb(0, 0, 0)" stroke="rgb(204, 204, 204)" stroke-width="1px"></line></g></g></g></g></svg>