<svg viewBox="0 0 330 200" xmlns="http://www.w3.org/2000/svg"><g><g><g><g><g><line x1="61.953125" y1="177" x2="56.953125" y2="177" style="visibility: inherit;" fill="rgb(0, 0, 0)" stroke="rgb(204, 204, 204)" stroke-width="1px"></line><line x1="61.953125" y1="162.25000000000136" x2="56.953125" y2="162.25000000000136" style="visibility: inherit;" fill="rgb(0, 0, 0)" stroke="rgb(204, 204, 204)" stroke-width="1px"></line><line x1="61.953125" y1="147.50000000000273" x2="56.953125" y2="147.50000000000273" style="visibility: inherit;" fill="rgb(0, 0, 0)" stroke="rgb(204, 204, 204)" stroke-width="1px"></line><line x1="61.953125" y1="132.7500000000041" x2="56.953125" y2="132.7500000000041" style="visibility: inherit;" fill="rgb(0, 0, 0)" stroke="rgb(204, 204, 204)" stroke-width="1px"></line><line x1="61.953125" y1="118.00000000000546" x2="56.953125" y2="118.00000000000546" style="visibility: inherit;" fill="rgb(0, 0, 0)" stroke="rgb(204, 204, 204)" stroke-width="1px"></line><line x1="61.953125" y1="103.24999999999864" x2="56.953125" y2="103.24999999999864" style="visibility: inherit;" fill="rgb(0, 0, 0)" stroke="rgb(204, 204, 204)" stroke-width="1px"></line><line x1="61.953125" y1="88.5" x2="56.953125" y2="88.5" style="visibility: inherit;" fill="rgb(0, 0, 0)" stroke="rgb(204, 204, 204)" stroke-width="1px"></line><line x1="61.953125" y1="73.75000000000136" x2="56.953125" y2="73.75000000000136" style="visibility: inherit;" fill="rgb(0, 0, 0)" stroke="rgb(204, 204, 204)" stroke-width="1px"></line><line x1="61.953125" y1="59.000000000002736" x2="56.953125" y2="59.000000000002736" style="visibility: inherit;" fill="rgb(0, 0, 0)" stroke="rgb(204, 204, 204)" stroke-width="1px"></line><line x1="61.953125" y1="44.250000000004086" x2="56.953125" y2="44.250000000004086" style="visibility: inherit;" fill="rgb(0, 0, 0)" stroke="rgb(204, 204, 204)" stroke-width="1px"></line><line x1="61.953125" y1="29.49999999999726" x2="56.953125" y2="29.49999999999726" style="visibility: inherit;" fill="rgb(0, 0, 0)" stroke="rgb(204, 204, 204)" stroke-width="1px"></line><line x1="61.953125" y1="14.74999999999863" x2="56.953125" y2="14.74999999999863" style="visibility: inherit;" fill="rgb(0, 0, 0)" stroke="rgb(204, 204, 204)" stroke-width="1px"></line><line x1="61.953125" y1="0" x2="56.953125" y2="0" style="visibility: inherit;" fill="rgb(0, 0, 0)" stroke="rgb(204, 204, 204)" stroke-width="1px"></line></g><g transform="translate(51.953125, 0)"><text x="0" y="177" dx="0em" dy="0.3em" style="text-anchor: end; visibility: hidden; font-family: Roboto, sans-serif; font-size: 12px; font-weight: 200;" fill="rgb(33, 33, 33)" stroke="none" stroke-width="1px">0.998</text><text x="0" y="162.25000000000136" dx="0em" dy="0.3em" style="text-anchor: end; visibility: inherit; font-family: Roboto, sans-serif; font-size: 12px; font-weight: 200;" fill="rgb(33, 33, 33)" stroke="none" stroke-width="1px">0.998</text><text x="0" y="147.50000000000273" dx="0em" dy="0.3em" style="text-anchor: end; visibility: hidden; font-family: Roboto, sans-serif; font-size: 12px; font-weight: 200;" fill="rgb(33, 33, 33)" stroke="none" stroke-width="1px">0.998</text><text x="0" y="132.7500000000041" dx="0em" dy="0.3em" style="text-anchor: end; visibility: inherit; font-family: Roboto, sans-serif; font-size: 12px; font-weight: 200;" fill="rgb(33, 33, 33)" stroke="none" stroke-width="1px">0.998</text><text x="0" y="118.00000000000546" dx="0em" dy="0.3em" style="text-anchor: end; visibility: hidden; font-family: Roboto, sans-serif; font-size: 12px; font-weight: 200;" fill="rgb(33, 33, 33)" stroke="none" stroke-width="1px">0.998</text><text x="0" y="103.24999999999864" dx="0em" dy="0.3em" style="text-anchor: end; visibility: inherit; font-family: Roboto, sans-serif; font-size: 12px; font-weight: 200;" fill="rgb(33, 33, 33)" stroke="none" stroke-width="1px">0.999</text><text x="0" y="88.5" dx="0em" dy="0.3em" style="text-anchor: end; visibility: hidden; font-family: Roboto, sans-serif; font-size: 12px; font-weight: 200;" fill="rgb(33, 33, 33)" stroke="none" stroke-width="1px">0.999</text><text x="0" y="73.75000000000136" dx="0em" dy="0.3em" style="text-anchor: end; visibility: inherit; font-family: Roboto, sans-serif; font-size: 12px; font-weight: 200;" fill="rgb(33, 33, 33)" stroke="none" stroke-width="1px">0.999</text><text x="0" y="59.000000000002736" dx="0em" dy="0.3em" style="text-anchor: end; visibility: hidden; font-family: Roboto, sans-serif; font-size: 12px; font-weight: 200;" fill="rgb(33, 33, 33)" stroke="none" stroke-width="1px">0.999</text><text x="0" y="44.250000000004086" dx="0em" dy="0.3em" style="text-anchor: end; visibility: inherit; font-family: Roboto, sans-serif; font-size: 12px; font-weight: 200;" fill="rgb(33, 33, 33)" stroke="none" stroke-width="1px">0.999</text><text x="0" y="29.49999999999726" dx="0em" dy="0.3em" style="text-anchor: end; visibility: hidden; font-family: Roboto, sans-serif; font-size: 12px; font-weight: 200;" fill="rgb(33, 33, 33)" stroke="none" stroke-width="1px">1</text><text x="0" y="14.74999999999863" dx="0em" dy="0.3em" style="text-anchor: end; visibility: inherit; font-family: Roboto, sans-serif; font-size: 12px; font-weight: 200;" fill="rgb(33, 33, 33)" stroke="none" stroke-width="1px">1</text><text x="0" y="0" dx="0em" dy="0.3em" style="text-anchor: end; visibility: hidden; font-family: Roboto, sans-serif; font-size: 12px; font-weight: 200;" fill="rgb(33, 33, 33)" stroke="none" stroke-width="1px">1</text></g><line x1="61.953125" y1="0" x2="61.953125" y2="177" fill="rgb(0, 0, 0)" stroke="rgb(204, 204, 204)" stroke-width="1px"></line></g></g><g transform="translate(61, 0)" clip-path="url(#clip_0)"><clipPath id="clip_0"><rect width="268" height="177"></rect></clipPath><g><g><g><line x1="0" y1="0" x2="0" y2="177" fill="rgb(0, 0, 0)" stroke="rgb(66, 66, 66)" stroke-width="1px" opacity="0.25"></line><line x1="20.618990384615383" y1="0" x2="20.618990384615383" y2="177" fill="rgb(0, 0, 0)" stroke="rgb(66, 66, 66)" stroke-width="1px" opacity="0.25"></line><line x1="41.23798076923077" y1="0" x2="41.23798076923077" y2="177" fill="rgb(0, 0, 0)" stroke="rgb(66, 66, 66)" stroke-width="1px" opacity="0.25"></line><line x1="61.85697115384615" y1="0" x2="61.85697115384615" y2="177" fill="rgb(0, 0, 0)" stroke="rgb(66, 66, 66)" stroke-width="1px" opacity="0.25"></line><line x1="82.47596153846153" y1="0" x2="82.47596153846153" y2="177" fill="rgb(0, 0, 0)" stroke="rgb(66, 66, 66)" stroke-width="1px" opacity="0.25"></line><line x1="103.09495192307692" y1="0" x2="103.09495192307692" y2="177" fill="rgb(0, 0, 0)" stroke="rgb(66, 66, 66)" stroke-width="1px" opacity="0.25"></line><line x1="123.7139423076923" y1="0" x2="123.7139423076923" y2="177" fill="rgb(0, 0, 0)" stroke="rgb(66, 66, 66)" stroke-width="1px" opacity="0.25"></line><line x1="144.33293269230768" y1="0" x2="144.33293269230768" y2="177" fill="rgb(0, 0, 0)" stroke="rgb(66, 66, 66)" stroke-width="1px" opacity="0.25"></line><line x1="164.95192307692307" y1="0" x2="164.95192307692307" y2="177" fill="rgb(0, 0, 0)" stroke="rgb(66, 66, 66)" stroke-width="1px" opacity="0.25"></line><line x1="185.57091346153845" y1="0" x2="185.57091346153845" y2="177" fill="rgb(0, 0, 0)" stroke="rgb(66, 66, 66)" stroke-width="1px" opacity="0.25"></line><line x1="206.1899038461538" y1="0" x2="206.1899038461538" y2="177" fill="rgb(0, 0, 0)" stroke="rgb(66, 66, 66)" stroke-width="1px" opacity="0.25"></line><line x1="226.8088942307692" y1="0" x2="226.8088942307692" y2="177" fill="rgb(0, 0, 0)" stroke="rgb(66, 66, 66)" stroke-width="1px" opacity="0.25"></line><line x1="247.4278846153846" y1="0" x2="247.4278846153846" y2="177" fill="rgb(0, 0, 0)" stroke="rgb(66, 66, 66)" stroke-width="1px" opacity="0.25"></line><line x1="268.046875" y1="0" x2="268.046875" y2="177" fill="rgb(0, 0, 0)" stroke="rgb(66, 66, 66)" stroke-width="1px" opacity="0.25"></line></g><g><line x1="0" y1="177" x2="268.046875" y2="177" fill="rgb(0, 0, 0)" stroke="rgb(66, 66, 66)" stroke-width="1px" opacity="0.25"></line><line x1="0" y1="162.25000000000136" x2="268.046875" y2="162.25000000000136" fill="rgb(0, 0, 0)" stroke="rgb(66, 66, 66)" stroke-width="1px" opacity="0.25"></line><line x1="0" y1="147.50000000000273" x2="268.046875" y2="147.50000000000273" fill="rgb(0, 0, 0)" stroke="rgb(66, 66, 66)" stroke-width="1px" opacity="0.25"></line><line x1="0" y1="132.7500000000041" x2="268.046875" y2="132.7500000000041" fill="rgb(0, 0, 0)" stroke="rgb(66, 66, 66)" stroke-width="1px" opacity="0.25"></line><line x1="0" y1="118.00000000000546" x2="268.046875" y2="118.00000000000546" fill="rgb(0, 0, 0)" stroke="rgb(66, 66, 66)" stroke-width="1px" opacity="0.25"></line><line x1="0" y1="103.24999999999864" x2="268.046875" y2="103.24999999999864" fill="rgb(0, 0, 0)" stroke="rgb(66, 66, 66)" stroke-width="1px" opacity="0.25"></line><line x1="0" y1="88.5" x2="268.046875" y2="88.5" fill="rgb(0, 0, 0)" stroke="rgb(66, 66, 66)" stroke-width="1px" opacity="0.25"></line><line x1="0" y1="73.75000000000136" x2="268.046875" y2="73.75000000000136" fill="rgb(0, 0, 0)" stroke="rgb(66, 66, 66)" stroke-width="1px" opacity="0.25"></line><line x1="0" y1="59.000000000002736" x2="268.046875" y2="59.000000000002736" fill="rgb(0, 0, 0)" stroke="rgb(66, 66, 66)" stroke-width="1px" opacity="0.25"></line><line x1="0" y1="44.250000000004086" x2="268.046875" y2="44.250000000004086" fill="rgb(0, 0, 0)" stroke="rgb(66, 66, 66)" stroke-width="1px" opacity="0.25"></line><line x1="0" y1="29.49999999999726" x2="268.046875" y2="29.49999999999726" fill="rgb(0, 0, 0)" stroke="rgb(66, 66, 66)" stroke-width="1px" opacity="0.25"></line><line x1="0" y1="14.74999999999863" x2="268.046875" y2="14.74999999999863" fill="rgb(0, 0, 0)" stroke="rgb(66, 66, 66)" stroke-width="1px" opacity="0.25"></line><line x1="0" y1="0" x2="268.046875" y2="0" fill="rgb(0, 0, 0)" stroke="rgb(66, 66, 66)" stroke-width="1px" opacity="0.25"></line></g></g></g><g><g><line x1="0" y1="73750.0000000013" x2="268.046875" y2="73750.0000000013" fill="rgb(0, 0, 0)" stroke="rgb(153, 153, 153)" stroke-width="1.5px"></line></g></g><g><g><line x1="20.618990384615383" y1="0" x2="20.618990384615383" y2="177" fill="rgb(0, 0, 0)" stroke="rgb(153, 153, 153)" stroke-width="1.5px"></line></g></g><g><g><g><g><g><path stroke="rgb(51, 187, 238)" stroke-width="2px" d="M20.618990384615383,0L21.05428018162393,0L21.231832598824784,0L21.74157986111111,0L21.79312733707265,0L21.873312299679487,-1.6388890244911636e-11L22.14823217147436,0L22.257054620726496,0L22.70379941239316,413.8935105688956L34.47953392094017,177.88452989434595L34.54253639155983,173.47367457493837L34.57117387820512,170.675944399497L34.65135884081196,168.54893035392897L35.20119858440171,165.12051741301866L35.281383547008545,162.650260448572L35.31574853098291,161.03095598228236L35.64794337606837,158.72303716664427L36.19205562232906,155.19311471179182L36.255058092948715,152.83251073000136L36.907992788461534,148.9808515670149L37.00536024305555,146.33753037227618L37.24018763354701,143.88643584116127L37.4406500400641,141.78277779498094L37.56092748397435,140.31309919880633L37.71556991185897,139.12182472541954L37.91603231837607,137.8004337692023L38.12222222222222,136.5117481555789L38.46587206196581,134.77496809996592L38.68351696047008,133.17023221991187L38.866796875,131.65703120435074L38.98134682158119,130.38865150573656L39.17035423344017,129.09484756924317L39.261994190705124,128.14448984229375L39.43381911057693,127.14172429898086L39.468184094551276,126.45566479598136L39.70301148504273,125.5358696951507L39.966476362179485,124.2437327488643L40.516316105769235,122.04947260525533L40.57931857638888,120.58169953529476L40.97451589209401,118.80604214969351L41.21507077991452,117.23424665632432L41.24370826655983,116.21907754243387L41.300983239850424,115.46755077541864L41.39262319711538,114.80563427270296L41.455625667735035,114.26781740940037L41.85655048076923,113.12222556564811L41.94819043803419,112.234420039022L42.074195379273505,111.43622783290094L42.16583533653846,110.76037876288221L42.27465778579059,110.15969391155066L42.39493522970085,109.54256579570414L42.53812266292735,108.85402992542784L42.71567508012821,108.12792441353993L43.569072182158116,106.136132842932L43.69507712339743,104.71071575083275L43.90126702724359,103.62864001988537L44.01581697382478,102.92312779664569L44.27928185096154,102.10946964407275L44.57711171207265,101.13069872369856L44.72029914529913,100.32891905493236L44.85775908119658,99.63509247414356L45.00667401175214,98.9568043095617L45.1384064503205,98.34410597937361L45.464873798076916,97.51756101881426L45.59087873931623,96.82294195910842L45.625243723290595,96.3551787496861L45.648153712606835,96.02528738745318L45.71688368055555,95.72888569694281L45.75124866452991,95.5018112460554L45.940256076388884,95.07368263004969L46.08917100694444,94.5759132885865L46.146445980235036,94.18230148458467L46.34690838675213,93.71051724137988L46.38127337072649,93.37997159589507L46.42136585202991,93.1341691090373L46.553098290598285,92.80206222974233L46.67337573450855,92.4181727149703L46.81083567040598,91.96101353041104L46.83947315705127,91.64100125713277L46.8795656383547,91.40503546764066L47.64132278311965,90.25768721801366L47.778782719017094,89.39871957720938L48.809732238247854,87.54700285685925L48.97010216346153,86.24255575235468L49.0331046340812,85.38252066073183L49.222112045940165,84.63791579304612L49.4741219284188,83.89223557888941L49.680311832264955,83.22327698576194L49.812044270833326,82.6759598571513L50.07550914797009,82.09436904898233L50.149966613247855,81.67508108324762L50.33324652777777,81.21074952427938L50.396248998397425,80.86181710806513L50.8429937900641,80.16891497759292L50.88308627136752,79.71976529590808L51.19809862446581,79.11443311592006L51.306921073717945,78.65276693475505L51.58756844284188,78.0821249435684L51.70784588675214,77.60962280931176L51.85676081730769,77.1995212632581L52.1545906784188,76.67036807526682L52.19468315972222,76.32122609609961L52.37796307425213,75.92535718437843L52.4123280582265,75.6579441079925L52.57269798344017,75.34452094134164L52.95071280715812,74.79600795206701L53.139720219017086,74.28930811939397L53.23136017628205,73.89737136875955L53.546372529380335,73.4019754392797L53.62655749198718,73.0203377045931L53.90720486111111,72.56452958808184L54.308129674145285,71.95871902124301L54.525774572649574,71.40533228287546L54.972519364316234,70.72514950972844L55.1901642628205,70.16054785098244L55.29325921474358,69.74442002681309L55.36771668002136,69.4419932216869L55.493721621260676,69.15855359140214L55.631181557158115,68.8865062660222L55.70563902243589,68.67228609718401L55.91755642361111,68.4171537303847L55.96337640224358,68.23945759200959L56.25547876602564,67.90953110733517L56.43875868055555,67.56387490676398L56.581946113782045,67.2597726502814L56.62203859508546,67.05269457810616L56.93132345085469,66.68931389995558L57.085965878739316,66.35347691266341L57.52698317307692,65.82668237143295L58.36892528044872,65.01475460679839L58.45483774038461,64.50649790377533L58.735485109508545,64.11362703091451L58.77557759081197,63.855046125931594L58.81567007211538,63.67879753868641L59.41132979433761,63.18621424175358L59.80652711004273,62.63922206960398L59.858074586004264,62.289926722062084L60.06999198717948,61.95726592207904L60.13872195512819,61.71722769060748L60.293364383012815,61.471221204512204L61.14676148504273,60.80842456574223L61.21549145299145,60.372063168022635L61.51332131410256,59.918587594117255L61.86842614850427,59.43901848131088L62.00588608440171,59.09501022895746L62.09752604166666,58.832338492875785L62.75618823450854,58.310759687905865L62.94519564636752,57.89055384665223L63.16856804220085,57.51358841341471L63.397667935363245,57.18366726924555L63.718407785790596,56.811639217677524L63.91887019230768,56.486438839516175L64.01623764690171,56.24032683901731L64.26252003205128,55.95726768811885L64.34843249198718,55.7381987609855L64.43434495192307,55.55752396812428L64.5718048878205,55.39812731880548L64.60616987179486,55.28666429601814L65.20182959401708,54.9279025368872L65.7287593482906,54.473511646564845L66.41033153044872,53.96877662562261L66.51342648237178,53.62021885050635L66.54779146634614,53.3952591522553L66.6107939369658,53.23039160394488L66.65088641826922,53.115646041774035L67.45846354166666,52.71798968156809L67.64747095352563,52.40554571057108L67.75056590544871,52.174120902451016L67.87657084668803,51.9772408958836L67.93957331730769,51.83097949961406L68.08276075053419,51.685197540170066L68.2087656917735,51.53970324280825L68.34622562767093,51.396139879729766L69.19962272970085,50.960092794715614L69.2339877136752,50.68439784754996L69.6062750400641,50.36952223247464L69.87546741452991,50.07333830515123L69.9041049011752,49.883319589617614L70.00719985309829,49.72886660881405L70.075929821047,49.60981976501553L70.47112713675213,49.40651638217252L70.70022702991453,49.1931008273747L71.22715678418803,48.873392759222355L71.25579427083333,48.66750122217381L71.34743422809828,48.50704122250139L72.13210136217947,48.11184792914773L72.16646634615384,47.862423593999246L72.71630608974358,47.51935192060909L72.756398571047,47.30120055742887L73.05995592948717,47.06305118124087L73.2546908386752,46.84982807469803L73.38642327724358,46.67441911121199L73.71289062499999,46.46543184887898L73.93626302083332,46.25915598852223L73.97062800480768,46.1248404501846L74.13099793002137,45.9862260054948L74.40019030448717,45.81338215062289L74.70374766292736,45.607692290479235L74.86984508547008,45.4297699267443L75.03021501068376,45.268508060864434L75.13330996260683,45.13834253793172L75.29940738514958,45.00573477652172L75.39677483974359,44.892761716284014L75.53996227297007,44.7827777916437L75.81488214476497,44.63062892283996L76.09552951388888,44.45318108752507L76.57663928952991,44.272862231465965L76.81146668002135,44.09257909996975L77.10929654113247,43.89121735897389L77.27539396367521,43.72820022587703L77.30403145032051,43.61983992389039L77.3326689369658,43.54603205759569L77.39567140758545,43.48064729356346L77.49303886217947,43.41152470579417L77.72786625267092,43.29795933527676L78.04860610309828,43.140144924895196L78.39798344017093,42.94523106848461L78.5468983707265,42.78959934017576L78.65572081997863,42.6768785959592L78.76454326923076,42.5793544200744L78.99364316239316,42.47160647795906L79.13683059561964,42.37882432035259L79.17119557959401,42.31260500366838L79.21128806089743,42.26408172855347L79.92722522702991,42.05385905032795L80.23651008279914,41.84332526639069L80.44842748397436,41.66073821136364L80.66607238247863,41.48612750857834L80.69470986912391,41.37256940179625L80.98681223290599,41.22179269774918L81.21591212606839,41.06802654256783L81.61683693910254,40.8667499541714L81.90893930288462,40.66685883518927L82.05212673611109,40.511757423382534L82.36141159188033,40.33077972524821L82.48741653311966,40.187026365959994L82.65924145299145,40.05857426188116L82.79097389155982,39.946336259018004L83.2205361912393,39.76821822498506L83.31217614850426,39.63673068626814L83.51263855502137,39.50684638943754L83.54700353899572,39.42012412624138L83.57564102564102,39.36105742023036L84.76123297275642,39.046041810306406L84.95024038461538,38.8077990077741L85.18506777510684,38.60858654158512L85.37980268429486,38.441583962301586L85.50580762553417,38.309732348359L85.58026509081196,38.214796346805585L85.65472255608975,38.14376804969999L85.8437299679487,38.05367597188286L85.94109742254271,37.97676234391795L86.00982739049147,37.91478913394622L86.1014673477564,37.852988489679134L86.59403211805555,37.70161619675552L86.65130709134614,37.59496778781675L87.04077690972221,37.44130355438729L87.07514189369657,37.342071666251016L87.10950687767092,37.27374084826162L87.58488915598289,37.12900047323314L87.72234909188033,37.0122645188661L87.85408153044871,36.914089553905335L88.11754640758546,36.79540111622243L88.30082632211537,36.69605466127708L88.62729366987179,36.56435497045566L88.7246611244658,36.464235111718864L88.82775607638888,36.38130481520544L88.92512353098292,36.31044659304689L89.09122095352562,36.23276491933427L89.78424813034188,36.05252230151701L90.21381043002137,35.86173489084556L90.24817541399572,35.740229096355925L90.34554286858973,35.647983912435805L90.37418035523503,35.58560345400024L90.44291032318377,35.53410848277519L90.5059127938034,35.48914480386168L90.63191773504272,35.43579154120047L90.80374265491454,35.375646191273056L90.96984007745725,35.30615057792654L91.06148003472222,35.25214485077415L91.53686231303418,35.11951620428796L91.6915047409188,35.01356396108315L92.57926682692306,34.78119226115801L92.66517928685897,34.62242753397493L92.70527176816239,34.520135349575035L92.84845920138888,34.43238498361873L92.9057341746795,34.367426404907L93.07755909455128,34.29680119130423L93.3582064636752,34.19815927847297L93.5013938969017,34.11259907545945L93.62739883814102,34.03664623535256L93.78204126602563,33.96645781299783L94.16578358707265,33.8628029638544L94.23451355502134,33.78830169523205L94.30324352297009,33.73129257490925L94.32615351228633,33.690053754635336L94.44643095619658,33.64069374418038L94.53807091346154,33.593494367697055L94.81299078525639,33.51594130522748L95.03063568376068,33.446551086462925L95.53465544871794,33.32051677820223L95.6663878872863,33.2202794749634L95.77521033653845,33.14958707088175L95.96421774839742,33.077279899084466L95.99285523504273,33.02862058494673L96.0673127003205,32.987116637314706L96.16468015491454,32.94463089852347L96.22768262553417,32.90683109610588L96.28495759882478,32.871842855512504L96.32505008012821,32.84557490009057L96.57133246527776,32.78937237536058L96.66869991987178,32.73806749031385L96.83479734241452,32.679151166945275L97.45336705395299,32.53478447762665L97.85429186698715,32.39189767937079L98.04329927884616,32.27275719702231L98.26094417735042,32.16786450421007L98.40413161057691,32.082070507257896L98.44422409188033,32.025319098025626L98.86805889423078,31.931484793774896L98.9196063701923,31.868150863136062L98.99406383547009,31.819600482634055L99.46944611378204,31.72013677349788L99.82455094818376,31.60595010037238L100.13383580395299,31.489962996928558L100.74667801816237,31.330695546800953L101.3996127136752,31.141943214613153L101.4282502003205,31.02341680424114L101.49125267094016,30.941750935894312L101.81199252136751,30.85230966340611L101.89217748397434,30.78809487778304L102.0124549278846,30.728465962158705L102.33892227564101,30.641696839182035L102.60238715277777,30.54919361391266L102.6424796340812,30.49017500471747L103.03194945245727,30.39849705452747L103.47869424412393,30.30480686994932L103.69061164529914,30.218701029850855L103.7249766292735,30.161762514735717L103.78797909989316,30.118807720550794L103.87389155982906,30.08248482192442L104.05144397702992,30.03607436444981L104.89911358173076,29.888661172547234L104.92775106837607,29.794938246346355L105.25421841613246,29.691229391060578L105.31722088675212,29.62021239278311L105.43749833066238,29.558260486583745L105.47186331463674,29.515814331809676L105.9357905982906,29.425288169163085L106.13052550747862,29.342839079247693L106.3481704059829,29.270511244028732L106.41690037393161,29.218322857792977L106.47990284455128,29.1764598039312L106.56008780715811,29.142550286496668L106.97819511217948,29.06242111733441L107.10992755074786,28.99676024562504L107.16720252403844,28.948572037498327L107.25884248130342,28.90559241645367L107.67122228899572,28.83936289235496L107.70558727297008,28.796108503844152L108.11796708066238,28.724439108199853L108.19815204326923,28.672645785702358L108.63916933760683,28.58881968157764L108.66780682425212,28.53500734506599L108.70789930555556,28.497444932096368L108.85108673878203,28.45732411410584L108.99427417200855,28.41566825310443L109.19473657852562,28.36429968118719L109.77894130608973,28.261386720177747L109.99658620459401,28.17326388826225L110.02522369123929,28.11687351506465L110.30587106036323,28.047872550735146L110.5120609642094,27.98185525384849L110.74688835470084,27.917628157422623L110.94735076121793,27.85799185531007L111.7377453926282,27.725501537902645L111.81220285790597,27.63897399936814L111.99548277243589,27.565957432000236L112.2074001736111,27.50280578435315L112.7056924412393,27.41216468513211L112.98633981036325,27.329646633270436L113.50754206730768,27.220352343445345L113.95428685897436,27.10730066998504L114.06310930822647,27.027161306762753L114.4583066239316,26.954460970540417L114.7160440037393,26.88094903945052L114.75613648504272,26.833325206758108L114.79050146901709,26.799475896076757L114.82486645299144,26.77564963561965L115.1456063034188,26.726187138931184L115.98754841079058,26.608592789867853L116.01618589743589,26.534519506396293L116.04482338408118,26.48655886226832L116.34838074252136,26.431407420476802L116.7550330528846,26.35787480392343L116.81803552350426,26.304963548887027L117.23614282852563,26.229258370343345L117.27050781249999,26.18031858917864L117.37933026175213,26.140404698359497L117.45951522435897,26.107664678753828L117.51679019764957,26.084503992950296L118.27854734241453,25.994999089580432L118.57637720352564,25.91140441819382L119.09757946047007,25.8190475268576L119.14339943910255,25.76011671802231L119.46413928952991,25.694866503356465L119.50423177083333,25.65219970052174L119.68751168536325,25.605499574570423L119.80778912927349,25.566929476871127L120.00825153579059,25.522687374004317L120.13425647702991,25.482075416123802L120.73564369658118,25.39968311969845L120.81010116185897,25.34321439375976L120.85592114049145,25.30581648415315L120.88455862713673,25.27986106434415L121.29693843482904,25.22560439800608L121.92696314102562,25.131508602469378L122.55126034989316,25.018784340479378L122.8433627136752,24.92653306499479L122.87200020032049,24.86942396268971L122.9750951522436,24.82460847916994L123.5592998798077,24.74496907844169L123.9258597088675,24.683118741832832L124.17786959134614,24.630183506679654L124.25805455395299,24.591389017504255L124.32105702457264,24.562837312942936L124.38978699252135,24.538672942114463L124.46424445779913,24.517140971540435L124.61315938835467,24.491913430049905L124.64752437232904,24.473260231110565L125.09999666132478,24.426901571331104L125.2088191105769,24.38853635333819L125.50092147435896,24.340900504246935L125.60974392361109,24.301768972671848L125.64410890758546,24.27477337968013L125.90184628739316,24.233959305589597L126.44595853365384,24.16199576156839L126.5948734642094,24.10650927601774L126.65787593482905,24.066184036605488L127.19626068376067,23.99627213041378L127.66018796741452,23.913883235223555L128.46776509081195,23.794116417266277L129.00614983974356,23.676539563957373L129.04051482371793,23.604235114946253L129.2467047275641,23.54326907533247L129.2753422142094,23.503172777524078L129.44716713408118,23.46328996564464L129.67053952991452,23.42529358235326L129.8022719684829,23.390187393227404L129.87672943376066,23.36384866869253L130.44947916666666,23.30057033440801L130.8446764823718,23.2309532674632L131.12532385149572,23.168082983040915L131.1711438301282,23.128602475365046L131.4116987179487,23.083814126520487L131.52052116720085,23.048149432107746L132.4254657451923,22.959933808671796L132.52856069711538,22.898212749497677L132.79775307158118,22.841838406757038L132.90657552083331,22.79922211601156L132.9352130074786,22.770135667524148L133.00394297542735,22.74740878737565L133.0383079594017,22.730255985238248L133.74851762820512,22.665455856308697L133.93179754273504,22.612509082790538L134.21244491185897,22.556124300377572L134.26971988514956,22.517018419872088L134.3499048477564,22.488279880504543L134.6076422275641,22.451695049657673L135.06011451655982,22.394577410727152L135.13457198183758,22.355031816312763L135.34076188568375,22.315479426469725L135.6328642494658,22.26888961129254L135.86196414262818,22.225110689004907L135.89632912660255,22.19708499860818L136.06815404647435,22.166202888203145L136.23425146901707,22.135365262810733L136.49198884882478,22.09752098035058L136.91009615384615,22.043164344500408L137.05328358707263,22.00000034085849L137.51721087072647,21.94069353528003L137.74631076388889,21.899834440868673L137.82649572649572,21.870043973162527L137.9124081864316,21.845136344455344L138.08996060363248,21.816125071068946L138.67989282852562,21.75651821852959L138.84599025106837,21.706687410837322L139.59629240117522,21.6222804785798L139.69938735309827,21.564602971143422L139.85975727831195,21.517688107530574L140.12894965277778,21.471955819149194L140.28931957799145,21.433966424004954L140.36950454059829,21.405897775850875L140.59860443376067,21.374989890788168L140.632969417735,21.352928485712066L140.85634181356838,21.325624946496124L141.10262419871793,21.291659452764378L141.3088141025641,21.25721346035179L141.4348190438034,21.229512516822375L141.62955395299144,21.197066917521774L142.02475126869658,21.151224502626672L142.0877537393162,21.118444042631896L142.44285857371793,21.075917385360395L142.5344985309829,21.04336804291072L142.6032284989316,21.018563426378297L142.76932592147435,20.99137229731271L143.30771067040598,20.938132542438293L143.3993506276709,20.90091367844447L143.59981303418803,20.86451566388281L143.73727297008546,20.83388517003981L143.80027544070512,20.810231862673042L144.26993022168804,20.76263147485472L144.65940004006407,20.707696186853905L144.84267995459402,20.66242665491056L145.24933226495725,20.607131543404016L145.27796975160254,20.572196139475945L145.5242521367521,20.537168200955385L145.55288962339745,20.51439310082053L146.02254440438034,20.469077974372084L146.14854934561967,20.433097213398636L146.2115518162393,20.406233745747038L146.28028178418802,20.38659899111597L146.3833767361111,20.367784790260384L146.49219918536326,20.34946292165698L147.13367888621795,20.301544723059866L147.68924612713673,20.248177085599526L147.71788361378202,20.212639829088136L147.96989349626065,20.179009116030254L148.2505408653846,20.143005655010946L149.16121294070513,20.070411804800568L149.38458533653846,20.012788798497514L149.45331530448715,19.974698320680496L150.2494374332265,19.906127271445918L150.3754423744658,19.859709630837614L150.51862980769232,19.823067361376463L150.5587222889957,19.799323662680536L150.59308727297008,19.781560769414682L150.8336421607906,19.75859467431069L150.94246461004275,19.737781669171348L151.0283770699786,19.721777192039443L151.36629941239315,19.692832798532333L151.64121928418803,19.661399466251236L151.830226696047,19.631989444770447L152.17960403311966,19.59851839869082L152.3399739583333,19.569644085940322L152.500343883547,19.54352781318564L152.9986361511752,19.501482994216445L153.07882111378203,19.47273942879155L153.1876435630342,19.448459941459664L153.651570846688,19.409275530756833L153.8119407719017,19.378731536258186L154.0410406650641,19.34985511743376L154.12122562767092,19.329012592100625L154.49924045138889,19.295407032640433L154.5679704193376,19.271727022927497L154.65388287927348,19.25400234305797L155.15790264423075,19.21699247981987L155.82229233440168,19.16313649550784L156.00557224893163,19.12027288279209L156.2633096287393,19.0804880189891L157.23125667735042,19.009142001155166L157.2656216613248,18.964576053432292L157.29998664529913,18.93431981074701L157.56345152243588,18.903857705996266L157.98155882745726,18.866238735912916L158.3022986778846,18.82784232068161L158.59440104166666,18.792496112393426L158.7433159722222,18.76249670231123L159.1556957799145,18.723397012017966L159.37906817574785,18.6893871757184L159.6138955662393,18.656672914795838L160.38710770566237,18.603635954842407L160.54747763087605,18.56478043078193L160.98849492521367,18.522125409116047L161.16604734241452,18.48598237399944L161.35505475427345,18.45550486782676L161.52115217681623,18.430185016034745L161.55551716079057,18.413234767938647L161.96789696848288,18.381964574827222L162.01371694711537,18.361444121941137L162.47764423076922,18.32979014297497L162.55782919337605,18.307281081551878L162.5921941773504,18.2920173076837L162.84993155715813,18.27055068421503L162.9644815037393,18.252395699072842L163.0103014823718,18.239744370969944L163.0503939636752,18.23039523707914L163.27376635950856,18.21247739760672L164.11570846688033,18.163043279457483L164.8774656116453,18.103491079216365L165.06647302350424,18.058968073964053L165.10083800747861,18.030495933788515L165.1752954727564,18.00989597564963L165.49603532318375,17.983469304592756L167.7125767895299,17.867388091770444L168.24523404113245,17.774880982802426L168.2795990251068,17.7176183804122L168.69197883279912,17.663919111743535L168.73207131410257,17.6299412135231L168.8122562767094,17.606037800547455L168.88671374198717,17.589937415746114L169.00699118589742,17.57500217379612L169.0413561698718,17.56428269160035L169.1387236244658,17.554334328249325L170.0665781917735,17.509681895772925L170.26131310096156,17.474098751187643L170.3701355502137,17.449232190397993L170.49041299412394,17.429037242864844L170.67369290865383,17.4081285892275L171.08607271634614,17.378000026846177L171.45836004273502,17.34585619324384L171.56718249198715,17.321294882019814L171.60154747596152,17.304799758269425L171.91655982905982,17.280835987858765L172.12274973290596,17.255907703475643L172.8501418936966,17.2163340145601L173.05060430021362,17.18203977907898L173.18233673878203,17.156188226727682L173.52025908119654,17.1248522621323L173.58898904914528,17.10429234635258L173.92691139155983,17.077889700724285L174.04718883547008,17.05501476525237L174.2419237446581,17.032498118874663L174.41947616185897,17.010196445937122L174.61993856837606,16.98802375707022L174.91776842948715,16.960653447586367L175.19841579861108,16.93368123977081L175.3301482371795,16.910464566993074L175.62797809829058,16.88246786716434L176.12054286858972,16.8428114659941L176.3439152644231,16.80846760317491L176.56156016292738,16.77906960036919L176.69902009882475,16.754397450612096L176.72765758547007,16.739594160754557L177.33477230235042,16.700820457483537L177.3748647836538,16.67579789849843L177.45504974626067,16.65902602608156L177.74142461271367,16.640171217533627L177.85024706196583,16.623583321340615L178.8181941105769,16.57318883214632L179.01292901976493,16.534160453520467L179.13320646367518,16.505468415287247L179.23057391826922,16.48297818128143L179.49976629273505,16.458934018754324L179.56849626068376,16.440990847196307L180.15842848557688,16.40560822597254L180.18706597222223,16.3826203162125L180.8457281650641,16.342452515041728L180.8743656517094,16.316593497320024L180.98891559829056,16.295803075622732L181.22947048611107,16.274537137504918L181.2982004540598,16.258260900599012L181.59603031517094,16.23618679929954L181.6704877804487,16.221184001502248L181.7048527644231,16.210423985796464L182.14014256143162,16.186384606170794L182.20314503205125,16.168444304355273L182.5467948717949,16.14361342709079L182.6441623263889,16.125198226696888L183.0164496527778,16.098324073277603L183.11954460470082,16.076924570158493L183.18254707532046,16.06232653126288L183.2398220486111,16.05005103388541L183.62356436965808,16.0268607022776L184.190586605235,15.98832978501413L184.6888788728632,15.945869527426447L184.89506877670942,15.911601687769455L185.12989616720083,15.882249298874166L185.42772602831195,15.852329506390882L185.55945846688036,15.829102619828461L185.78855836004274,15.806374802796457L185.817195846688,15.790979775549827L185.85728832799143,15.779984422184247L186.16657318376065,15.76107885101388L186.87678285256408,15.72160211598422L187.03715277777772,15.690882726879654L187.21470519497862,15.665417745331775L187.43235009348285,15.643105408324473L187.76454493856838,15.61565130995146L187.93064236111113,15.592145502842511L188.12537727029917,15.571008670492024L188.26283720619656,15.553051560017453L188.2972021901709,15.540518956716761L188.5663945646367,15.5224493726111L188.66376201923072,15.50809094810923L188.6981270032051,15.49771755638724L188.76685697115383,15.489735184331524L188.90431690705122,15.481429087053082L188.95013688568372,15.47468709167332L188.97877437232907,15.468883557424599L189.21932926014958,15.456609751764443L189.3166967147436,15.445728794326595L189.34533420138888,15.437441882841371L189.41406416933762,15.430711398929374L189.48279413728628,15.423156434540417L189.5858890892094,15.41510678186529L189.61452657585465,15.408518653240984L189.90662893963676,15.397532427977996L190.18154881143158,15.383907344741624L190.24455128205128,15.37221562075641L190.35337373130344,15.361683912330072L191.03494591346148,15.328989831956253L191.0979483840812,15.307615046707813L191.3270482772436,15.28775682747854L191.58478565705124,15.267050210841505L191.97998297275643,15.23880120766651L192.66728265224359,15.198993424488506L192.73028512286322,15.17159208053341L193.31448985042738,15.135809566940576L193.4175848023504,15.110823384741481L193.47485977564102,15.092315001372077L193.5034972622863,15.081209971352092L194.13924946581196,15.049930235060938L194.92391659989315,15.00302900095228L195.02128405448715,14.9713715864355L195.44511885683758,14.936552104544134L195.7429487179487,14.90511039327915L196.00068609775641,14.877453681420695L196.02932358440168,14.859101317281477L196.1266910389957,14.84457322475456L196.19542100694446,14.834098032224087L196.23551348824785,14.826054579676741L196.69944077190175,14.805403474968662L196.97436064369654,14.782462790013653L197.81630275106835,14.744081660746774L198.03967514690171,14.71401963510642L198.14849759615385,14.692465745677193L198.38332498664528,14.670741726916908L198.85297976762817,14.643640619488833L199.0190771901709,14.623863280996801L199.07062466613243,14.611996877896665L199.29972455929484,14.596085350933858L199.9068392761752,14.565438390513856L200.5196814903846,14.529466844049848L200.76023637820515,14.49909223105726L200.92060630341877,14.47559245220399L200.95497128739316,14.459734247874422L201.14397869925213,14.444944314217347L201.60217848557693,14.420245320831949L201.66518095619656,14.403667587781477L201.85418836805556,14.386687599867704L201.96301081730772,14.372982933077683L202.7419504540598,14.340143414706517L202.89659288194443,14.3151646926212L203.33188267895295,14.284352426178863L203.45216012286323,14.262348392281554L204.10509481837602,14.229804264710259L204.4315621661324,14.201486103063132L205.21622930021368,14.159878487774412L205.3135967548077,14.131397244567626L205.3479617387821,14.112550161617776L205.41669170673072,14.099483574825342L205.47396668002136,14.089885285727389L205.51978665865383,14.082367975255915L205.64579159989313,14.07434091493128L206.21854133279913,14.05018297150199L206.34454627403844,14.030413194383417L207.14639590010682,13.993934609823315L207.6332331730769,13.959739099941142L207.8909705528846,13.930430108902547L208.17161792200855,13.904053029173385L208.53817775106833,13.877676759218819L208.5725427350427,13.860092660221937L209.06510750534184,13.833717167642506L209.16247495993588,13.816133535060864L209.52903478899574,13.793274996372311L209.557672275641,13.77780153613503L209.68367721688028,13.766759122975056L210.25069945245727,13.74255030486378L210.38815938835467,13.724508339960195L210.84635917467946,13.699616464860862L211.0067290998931,13.679406328733732L211.07545906784185,13.665521910034936L211.1384615384615,13.655432921801339L211.43629139957264,13.640587843745347L211.58520633012816,13.62640578585078L211.7913962339743,13.61262154005141L212.27823350694445,13.590284296401508L212.3125984909188,13.57512361319725L212.37560096153845,13.564268866258741L212.53024338942308,13.554239344044053L213.50964543269228,13.520088238384528L213.81893028846153,13.490805889879546L214.24849258814098,13.466203132694691L214.38595252403846,13.447924804343655L214.63223490918799,13.42992445924627L214.826969818376,13.413849241135042L215.00452223557687,13.398929099194227L215.11907218215813,13.38821867701869L215.1935296474359,13.37827574966833L215.73764189369655,13.358243297097685L216.0927467280983,13.337432140441093L216.356211605235,13.317912098363651L216.6998614449786,13.295650050988657L216.92323384081197,13.277017811504324L217.1007862580128,13.26056345675601L217.16951622596153,13.248932506887787L217.23251869658114,13.24019559993779L217.2726111778846,13.233195118745273L217.6678084935897,13.220203144938498L217.74226595886748,13.210649623630285L217.96563835470081,13.199642499781103L218.38947315705124,13.18248820335289L218.60139055822648,13.166920614421887L218.85340044070512,13.150546712986335L218.91640291132478,13.138964035097574L219.23141526442305,13.121464406239078L219.29441773504269,13.109206291909654L219.83852998130342,13.087784727138459L220.20508981036323,13.066140103176277L220.26236478365385,13.051394991774824L220.39409722222223,13.039031250900392L220.46282719017088,13.029854669351582L220.7950220352564,13.013798698295421L220.89811698717944,13.002406778639203L222.0493439503205,12.963921560473025L222.31280882745725,12.935555418515605L222.57627370459403,12.915019059292856L222.72518863514955,12.899180569710907L223.18338842147432,12.877369116827083L223.58431323450847,12.85373222296335L223.83632311698713,12.834275075585774L224.0596955128205,12.815567439075714L224.391890357906,12.79555117206533L224.4892578125,12.78178307483329L224.66681022970081,12.768247205433104L224.82145265758544,12.756609009761055L225.0390975560897,12.744351081288665L225.10782752403844,12.735237987177795L225.44002236912397,12.720978445613463L225.46865985576923,12.71066438364743L226.024227096688,12.690409250305729L226.14450454059826,12.674739496262237L226.41369691506407,12.660062632773522L226.86616920405982,17.685375405445996L227.31291399572646,20.679463024790795L227.4274639423077,22.470640585344867L227.50192140758546,23.541830447632304L227.7367487980769,24.172236005855375L228.06894364316238,24.534654307598057L228.35531850961542,24.738038592483235L228.4469584668803,24.85655248936932L228.51568843482906,24.92414415346578L228.6302383814102,24.959424140852832L228.6932408520299,24.97707545924005L228.98534321581195,24.971841217084513L229.32899305555551,24.952875638609868L229.35190304487176,24.939737954500934L229.69555288461538,24.91427197382519L229.83301282051278,24.89371737436369L229.86737780448715,24.87962627765935L230.4974025106837,24.839521553254475L230.66922743055554,24.806667033521908L230.73795739850422,24.783437647637353L230.76659488514957,24.76774167908247L230.86396233974358,24.753049086885262L231.21906717414524,24.730166835406514L232.0896467681624,24.686545755162765L232.75403645833333,24.62696470361335L232.92013388087608,24.584182724610045L233.04613882211535,24.55148018911309L233.08050380608975,24.530100330800597L233.2122362446581,24.51023906772961L233.4241536458333,24.48953062478264L233.46424612713673,24.4753472219854L233.49861111111113,24.465078843289447L233.59597856570514,24.453642805012542L233.69334602029915,24.44150617098214L234.16300080128207,24.411365809295802L234.3233707264957,24.38624824419395L234.4264656784188,24.365902694075135L234.98776041666665,24.327320308695647L235.022125400641,24.302412540442173L235.18822282318374,24.28043453140823L235.34286525106836,24.260214377907634L235.58914763621792,24.23577392665952L235.88697749732904,24.207042959743674L235.94425247061966,24.186287705545862L236.28790231036322,24.15800951984585L236.47690972222222,24.13225092332147L236.55136718749998,24.11327909135855L236.80337706997864,24.093104307081354L236.8778345352564,24.07748276246999L236.95801949786326,24.06459316166636L237.22721187232904,24.046309379055646L237.42194678151708,24.02830576140408L237.49640424679484,24.01398691676813L237.56513421474355,24.00187893594808L237.85150908119655,23.98230578830666L238.3784388354701,23.947703518458628L238.51017127403847,23.91990880845976L238.69917868589738,23.896198634386774L238.83091112446579,23.876697518873815L239.4093883547008,23.840380131273793L239.75303819444443,23.802764665519376L239.79885817307695,23.780195386076546L239.86186064369656,23.76313714436418L240.05086805555558,23.74411051423567L240.09096053685897,23.730936199131133L240.2456029647436,23.71423992496569L240.52052283653842,23.693672138342805L240.68662025908117,23.67429811828887L240.78971521100428,23.657398695190597L240.91572015224355,23.64198403027721L241.11618255876067,23.62394354621169L241.53428986378205,23.593777548546047L241.75766225961536,23.5651279278247L242.4220519497863,23.51980476305789L243.10935162927348,23.46271913484951L243.20099158653844,23.423192746853662L243.34990651709396,23.394201902993533L243.37854400373934,23.375049059659872L243.60191639957262,23.353007331536055L244.15175614316237,23.315165576367892L244.5469534588675,23.2766354900775L244.91924078525642,23.23769240511211L245.15406817574782,23.203776532004355L245.35453058226497,23.174635323048438L246.2995676415598,23.121983857247574L247.0956897702991,23.056984574373743L247.39351963141021,23.005676645501673L247.89753939636748,22.953791843929576L247.93190438034188,22.92090262597037L248.16100427350426,22.8906190730614L248.31564670138889,22.867173930253404L248.6421140491453,22.839040148403257L248.75093649839744,22.81864320525141L248.79102897970083,22.804646702337788L249.12322382478632,22.7821821044259L249.25495626335473,22.76342833462271L249.55278612446574,22.73986771358648L249.59287860576922,22.725731340968007L249.77615852029913,22.710216169310158L250.08544337606838,22.688598707166058L250.13126335470082,22.67386989286036L250.49209568643155,22.65272424513574L250.52646067040595,22.63827851948173L250.56082565438032,22.627852747061894L250.8357455261752,22.6110472614864L250.96175046741448,22.595688959076824L250.99038795405983,22.584715640613503L251.54022769764953,22.557031605291556L251.8151475694444,22.529871161966604L252.26189236111108,22.495991525762875L252.35353231837607,22.47038873297148L252.5024472489316,22.44975204623728L252.58263221153845,22.4356116971759L252.61699719551282,22.425369150714918L252.72009214743588,22.415706948801486L252.82318709935896,22.404634616590812L253.01219451121798,22.390957869179285L253.04655949519227,22.380993483714754L253.3443893563034,22.36270649329156L253.45321180555553,22.348217624989346L253.8713191105769,22.325457607849213L254.0488715277778,22.304768249484905L255.03972856570513,22.25542955702471L255.29173844818376,22.215276319416773L255.4463808760684,22.184151028773446" style="fill: none;" fill="none"></path></g></g></g></g><g opacity="0.2"><g><g><g><path stroke="rgb(51, 187, 238)" stroke-width="2px" d="M20.618990384615383,0L21.05428018162393,0L21.231832598824784,0L21.74157986111111,0L21.79312733707265,0L21.873312299679487,0L22.14823217147436,0L22.257054620726496,0L22.70379941239316,1024.3060439825238L32.33172242254273,195.10507583618508L33.75214176014957,174.7611165046723L33.809416733440166,174.34790730476686L34.47953392094017,167.61347651481924L34.54253639155983,166.85739159584338L34.57117387820512,166.47934913635547L34.65135884081196,165.35840928554825L35.20119858440171,159.97789800167365L35.281383547008545,158.94487500191013L35.31574853098291,158.6019992828397L35.64794337606837,155.261158943179L36.19205562232906,149.89823102951314L36.255058092948715,149.29160475731157L36.907992788461534,143.20336282253515L37.00536024305555,142.37254858017218L37.24018763354701,140.2097940444971L37.4406500400641,138.62729072571045L37.56092748397435,138.1085813045526L37.71556991185897,137.33491301536802L37.91603231837607,135.81834733486414L38.12222222222222,134.57871973514796L38.46587206196581,132.1697980165505L38.68351696047008,130.76312839985124L38.866796875,129.38722968101732L38.98134682158119,128.48608195781935L39.17035423344017,127.15414166450725L39.261994190705124,126.71895325184093L39.43381911057693,125.63757598400336L39.468184094551276,125.42657554149848L39.70301148504273,124.15617704391698L39.966476362179485,122.30552732944705L40.516316105769235,118.75808238983365L40.57931857638888,118.38003993034572L40.97451589209401,116.14255607128348L41.21507077991452,114.87655341625415L41.24370826655983,114.69632387161457L41.300983239850424,114.34026062488758L41.39262319711538,113.81275951862537L41.455625667735035,113.46109211445054L41.85655048076923,111.40383780002789L41.94819043803419,110.90271174907879L42.074195379273505,110.23893952369883L42.16583533653846,109.7466051578541L42.27465778579059,109.25866663456156L42.39493522970085,108.61687362194252L42.53812266292735,107.82122611999701L42.71567508012821,107.03876614570805L43.569072182158116,103.14844548702422L43.69507712339743,102.57259011268796L43.90126702724359,102.00552642345609L44.01581697382478,101.86485946178614L44.27928185096154,100.88898241520106L44.57711171207265,99.6625423431414L44.72029914529913,99.12624955177483L44.85775908119658,98.59435260296043L45.00667401175214,97.93937206268482L45.1384064503205,97.42505848407917L45.464873798076916,96.27774357795884L45.59087873931623,95.78101336956193L45.625243723290595,95.65353393554855L45.648153712606835,95.53045034408738L45.71688368055555,95.28428316116499L45.75124866452991,95.16119956970384L45.940256076388884,94.4314897060411L46.08917100694444,93.82925927639172L46.146445980235036,93.59188377857373L46.34690838675213,93.0028408765809L46.38127337072649,92.88415312767191L46.42136585202991,92.76546537876291L46.553098290598285,92.30390191078348L46.67337573450855,91.84233844280405L46.81083567040598,91.27527475357216L46.83947315705127,91.16098284721534L46.8795656383547,91.05108678341072L47.64132278311965,88.53666484356083L47.778782719017094,88.11026811599886L48.809732238247854,84.76942777633816L48.97010216346153,84.2858850955978L49.0331046340812,84.09246802330165L49.222112045940165,83.52100849151758L49.4741219284188,82.77371525764612L49.680311832264955,82.21983909607077L49.812044270833326,81.85498416423941L50.07550914797009,81.22198283672476L50.149966613247855,81.04614913463735L50.33324652777777,80.51425218582295L50.396248998397425,80.33841848373555L50.8429937900641,79.12956178188463L50.88308627136752,79.04604077339312L51.19809862446581,78.20643484592574L51.306921073717945,77.96026766300339L51.58756844284188,77.22616195678846L51.70784588675214,76.90086960792677L51.85676081730769,76.58436894416944L52.1545906784188,75.87663829326763L52.19468315972222,75.7975131273283L52.37796307425213,75.33155381679668L52.4123280582265,75.25682449340952L52.57269798344017,74.87438619136942L52.95071280715812,73.97323846817147L53.139720219017086,73.52925837040078L53.23136017628205,73.30946624279152L53.546372529380335,72.65888154506811L53.62655749198718,72.44788110256323L53.90720486111111,71.88081741333134L54.308129674145285,71.05000317096835L54.525774572649574,70.57525217533237L54.972519364316234,69.7048753499997L55.1901642628205,69.31364536285523L55.29325921474358,69.12022829055907L55.36771668002136,68.98835301399352L55.493721621260676,68.7333941459668L55.631181557158115,68.47843527794005L55.70563902243589,68.35095584392667L55.91755642361111,68.03445518016935L55.96337640224358,67.97291338443875L56.25547876602564,67.41464138031124L56.43875868055555,67.0453906059277L56.581946113782045,66.80361926555751L56.62203859508546,66.74207746982692L56.93132345085469,66.14424288272974L57.085965878739316,65.84972143173333L57.52698317307692,65.0364905595791L58.36892528044872,63.796862959862885L58.45483774038461,63.744112849236664L58.735485109508545,63.524320721627404L58.77557759081197,63.467174768449006L58.81567007211538,63.414424657822785L59.41132979433761,62.44733929634204L59.80652711004273,61.818733811379566L59.858074586004264,61.765983700753345L60.06999198717948,61.45827472210038L60.13872195512819,61.357170343400135L60.293364383012815,61.10221147537339L61.14676148504273,59.814229607583144L61.21549145299145,59.71752107143507L61.51332131410256,59.238374233246894L61.86842614850427,58.71966481208904L62.00588608440171,58.578997850419135L62.09752604166666,58.438330888749206L62.75618823450854,57.52839148044688L62.94519564636752,57.260245084763575L63.16856804220085,56.94814026355843L63.397667935363245,56.6887855529795L63.718407785790596,56.25359714031318L63.91887019230768,55.998638272286456L64.01623764690171,55.87115883827308L64.26252003205128,55.532678961754826L64.34843249198718,55.40959537029363L64.43434495192307,55.286511778832455L64.5718048878205,55.15903234481908L64.60616987179486,55.119469761849416L65.20182959401708,54.38975989818669L65.7287593482906,53.79192531108951L66.41033153044872,53.21167409420108L66.51342648237178,53.09738218784426L66.54779146634614,53.057819604874595L66.6107939369658,52.98309028148744L66.65088641826922,52.94352769851778L67.45846354166666,52.121505141259156L67.64747095352563,51.936879754067384L67.75056590544871,51.82698369026274L67.87657084668803,51.681920886040636L67.93957331730769,51.61158740520568L68.08276075053419,51.466524600983576L68.2087656917735,51.32146179676147L68.34622562767093,51.18079483509154L69.19962272970085,50.3060221672067L69.2339877136752,50.27085542678921L69.6062750400641,49.897208809853474L69.87546741452991,49.62906241417019L69.9041049011752,49.59829151630488L70.00719985309829,49.49718713760464L70.075929821047,49.431249499321865L70.47112713675213,49.101561307907964L70.70022702991453,48.87297749519435L71.22715678418803,48.39383065700616L71.25579427083333,48.358663916588675L71.34743422809828,48.26635122299279L72.13210136217947,47.51905798912132L72.16646634615384,47.48828709125603L72.71630608974358,47.00474441051565L72.756398571047,46.97397351265036L73.05995592948717,46.70582711696708L73.2546908386752,46.52999341487966L73.38642327724358,46.411305665970666L73.71289062499999,46.15195095539174L73.93626302083332,45.949742197991235L73.97062800480768,45.923367142678124L74.13099793002137,45.778304338455996L74.40019030448717,45.55411636829456L74.70374766292736,45.29915750026783L74.86984508547008,45.16288638115009L75.03021501068376,45.02661526203235L75.13330996260683,44.94309425354083L75.29940738514958,44.8068231344231L75.39677483974359,44.72330212593157L75.53996227297007,44.617801904679126L75.81488214476497,44.402405619622066L76.09552951388888,44.18700933456498L76.57663928952991,44.00238394737321L76.81146668002135,43.82215440273362L77.10929654113247,43.5891747474678L77.27539396367521,43.48367452621536L77.30403145032051,43.45729947090225L77.3326689369658,43.43532025814134L77.39567140758545,43.38257014751512L77.49303886217947,43.307840824127965L77.72786625267092,43.12761127948837L78.04860610309828,42.90342330932693L78.39798344017093,42.652860283852384L78.5468983707265,42.5561517477043L78.65572081997863,42.507797479630256L78.76454326923076,42.433068156243124L78.99364316239316,42.30998456478193L79.13683059561964,42.239651083946974L79.17119557959401,42.213276028633864L79.21128806089743,42.19129681587293L79.92722522702991,41.738525032997856L80.23651008279914,41.52752459049297L80.44842748397436,41.386857628823044L80.66607238247863,41.224211454392204L80.69470986912391,41.20223224163127L80.98681223290599,40.99562764167857L81.21591212606839,40.837377309799905L81.61683693910254,40.56483507156443L81.90893930288462,40.367022156716104L82.05212673611109,40.279105305672395L82.36141159188033,40.05931317806315L82.48741653311966,39.97139632701945L82.65924145299145,39.86589610576701L82.79097389155982,39.7779792547233L83.2205361912393,39.50104117393564L83.31217614850426,39.43949937820504L83.51263855502137,39.31201994419167L83.54700353899572,39.29004073143076L83.57564102564102,39.272457361222L84.76123297275642,38.57351839542458L84.95024038461538,38.45043480396338L85.18506777510684,38.309767842293454L85.37980268429486,38.19108009338446L85.50580762553417,38.111954927445126L85.58026509081196,38.07239234447546L85.65472255608975,38.03722560405797L85.8437299679487,37.918537855148976L85.94109742254271,37.86139190197058L86.00982739049147,37.82182931900091L86.1014673477564,37.760287523270314L86.59403211805555,37.47455775737828L86.65130709134614,37.43499517440861L87.04077690972221,37.210807204247175L87.07514189369657,37.19322383403844L87.10950687767092,37.17124462127751L87.58488915598289,36.911889910698584L87.72234909188033,36.83716058731143L87.85408153044871,36.76682710647648L88.11754640758546,36.61736845970217L88.30082632211537,36.54703497886722L88.62729366987179,36.36680543422762L88.7246611244658,36.3140553236014L88.82775607638888,36.256909370423L88.92512353098292,36.20415925979678L89.09122095352562,36.116242408753074L89.78424813034188,35.782158374787L90.21381043002137,35.57555377483431L90.24817541399572,35.557970404625564L90.34554286858973,35.50961613655152L90.37418035523503,35.49203276634279L90.44291032318377,35.4568660259253L90.5059127938034,35.42169928550783L90.63191773504272,35.35576164722505L90.80374265491454,35.28542816639008L90.96984007745725,35.201907157898574L91.06148003472222,35.17113626003328L91.53686231303418,34.92057323455872L91.6915047409188,34.85463559627594L92.57926682692306,34.432634711266175L92.66517928685897,34.38428044319213L92.70527176816239,34.3666970729834L92.84845920138888,34.30075943470062L92.9057341746795,34.269988536835314L93.07755909455128,34.19086337089598L93.3582064636752,34.050196409226075L93.5013938969017,33.98425877094328L93.62739883814102,33.9227169752127L93.78204126602563,33.8611751794821L94.16578358707265,33.70732069015562L94.23451355502134,33.67654979229033L94.30324352297009,33.64577889442502L94.32615351228633,33.62819552421629L94.44643095619658,33.56665372848569L94.53807091346154,33.52269530296385L94.81299078525639,33.39961171150267L95.03063568376068,33.34246575832425L95.53465544871794,33.13146531581937L95.6663878872863,33.06992352008877L95.77521033653845,33.04354846477566L95.96421774839742,32.96881914138853L95.99285523504273,32.955631613731974L96.0673127003205,32.924860715866664L96.16468015491454,32.88090229034482L96.22768262553417,32.85013139247951L96.28495759882478,32.81936049461422L96.32505008012821,32.80617296695767L96.57133246527776,32.705068588257404L96.66869991987178,32.66111016273556L96.83479734241452,32.59077668190061L97.45336705395299,32.318234443665126L97.85429186698715,32.1775674819952L98.04329927884616,32.09404647350367L98.26094417735042,32.01052546501216L98.40413161057691,31.95337951183376L98.44422409188033,31.940191984177204L98.86805889423078,31.7907333374029L98.9196063701923,31.77314996719417L98.99406383547009,31.746774911881058L99.46944611378204,31.57094120979364L99.82455094818376,31.434670090675912L100.13383580395299,31.315982341766915L100.74667801816237,31.091794371605477L101.3996127136752,30.858814716339662L101.4282502003205,30.845627188683107L101.49125267094016,30.819252133369996L101.81199252136751,30.718147754669733L101.89217748397434,30.691772699356623L102.0124549278846,30.639022588730402L102.33892227564101,30.511543154717028L102.60238715277777,30.410438776016765L102.6424796340812,30.40164709091241L103.03194945245727,30.26098012924248L103.47869424412393,30.164271593094398L103.69061164529914,30.089542269707263L103.7249766292735,30.076354742050707L103.78797909989316,30.054375529289775L103.87389155982906,30.028000473976665L104.05144397702992,29.96645867824607L104.89911358173076,29.66754138469748L104.92775106837607,29.654353857040924L105.25421841613246,29.535666108131927L105.31722088675212,29.513686895370995L105.43749833066238,29.465332627296974L105.47186331463674,29.45214509964042L105.9357905982906,29.289498925209557L106.13052550747862,29.219165444374603L106.3481704059829,29.162019491196183L106.41690037393161,29.140040278435272L106.47990284455128,29.11366522312216L106.56008780715811,29.09168601036123L106.97819511217948,28.942227363586944L107.10992755074786,28.89826893806508L107.16720252403844,28.87628972530417L107.25884248130342,28.84112298488668L107.67122228899572,28.740018606186418L107.70558727297008,28.73122692108204L108.11796708066238,28.616935014725243L108.19815204326923,28.59495580196431L108.63916933760683,28.46308052539876L108.66780682425212,28.45428884029438L108.70789930555556,28.441101312637826L108.85108673878203,28.397142887115983L108.99427417200855,28.353184461594118L109.19473657852562,28.287246823311342L109.77894130608973,28.10701727867177L109.99658620459401,28.041079640388972L110.02522369123929,28.032287955284616L110.30587106036323,27.944371104240908L110.5120609642094,27.88282930851031L110.74688835470084,27.821287512779733L110.94735076121793,27.768537402153513L111.7377453926282,27.52676606178332L111.81220285790597,27.509182691574587L111.99548277243589,27.456432580948366L112.2074001736111,27.408078312874324L112.7056924412393,27.27620303630877L112.98633981036325,27.2058695554738L113.50754206730768,27.056410908699515L113.95428685897436,26.93772315979052L114.06310930822647,26.90695226192521L114.4583066239316,26.845410466194632L114.7160440037393,26.77068114280748L114.75613648504272,26.761889457703102L114.79050146901709,26.748701930046547L114.82486645299144,26.73991024494219L115.1456063034188,26.651993393898483L115.98754841079058,26.432201266289223L116.01618589743589,26.423409581184846L116.04482338408118,26.41461789608049L116.34838074252136,26.348680257797714L116.7550330528846,26.24757587909745L116.81803552350426,26.225596666336518L117.23614282852563,26.1157006025319L117.27050781249999,26.10690891742752L117.37933026175213,26.08053386211441L117.45951522435897,26.05855464935348L117.51679019764957,26.049762964249123L118.27854734241453,25.86074173450515L118.57637720352564,25.786012411117998L119.09757946047007,25.680512189865556L119.14339943910255,25.6717205047612L119.46413928952991,25.596991181374047L119.50423177083333,25.58819949626967L119.68751168536325,25.53544938564345L119.80778912927349,25.50907433033034L120.00825153579059,25.45632421970412L120.13425647702991,25.421157479286634L120.73564369658118,25.276094675064527L120.81010116185897,25.25851130485579L120.85592114049145,25.249719619751417L120.88455862713673,25.240927934647058L121.29693843482904,25.144219398498976L121.92696314102562,24.99036490917249L122.55126034989316,24.84969794750258L122.8433627136752,24.788156151771986L122.87200020032049,24.783760309219804L122.9750951522436,24.757385253906694L123.5592998798077,24.625509977341125L123.9258597088675,24.59034323692366L124.17786959134614,24.550780653953993L124.25805455395299,24.53319728374524L124.32105702457264,24.520009756088683L124.38978699252135,24.50242638587995L124.46424445779913,24.484843015671217L124.61315938835467,24.454072117805907L124.64752437232904,24.44528043270155L125.09999666132478,24.357363581657843L125.2088191105769,24.330988526344733L125.50092147435896,24.269446730614135L125.60974392361109,24.243071675301024L125.64410890758546,24.234279990196647L125.90184628739316,24.17273819446607L126.44595853365384,24.054050445557074L126.5948734642094,24.023279547691764L126.65787593482905,24.00569617748303L127.19626068376067,23.891404271126213L127.66018796741452,23.79029989242595L128.46776509081195,23.614466190338554L129.00614983974356,23.500174283981735L129.04051482371793,23.495778441429557L129.2467047275641,23.451820015907693L129.2753422142094,23.443028330803337L129.44716713408118,23.40346574783367L129.67053952991452,23.368299007416184L129.8022719684829,23.337528109550895L129.87672943376066,23.32434058189434L130.44947916666666,23.205652832985322L130.8446764823718,23.12652766704599L131.12532385149572,23.07377755641977L131.1711438301282,23.069381713867593L131.4116987179487,23.016631603241372L131.52052116720085,22.99465239048044L132.4254657451923,22.827610373497404L132.52856069711538,22.80563116073649L132.79775307158118,22.757276892662446L132.90657552083331,22.735297679901517L132.9352130074786,22.726505994797158L133.00394297542735,22.713318467140603L133.0383079594017,22.704526782036226L133.74851762820512,22.568255662918496L133.93179754273504,22.53308892250101L134.21244491185897,22.471547126770414L134.26971988514956,22.45835959911386L134.3499048477564,22.445172071457304L134.6076422275641,22.39681780338326L135.06011451655982,22.30890095233957L135.13457198183758,22.295713424683015L135.34076188568375,22.25615084171335L135.6328642494658,22.199004888534933L135.86196414262818,22.159442305565268L135.89632912660255,22.15504646301309L136.06815404647435,22.119879722595602L136.23425146901707,22.089108824730314L136.49198884882478,22.04075455665627L136.91009615384615,21.96162939071694L137.05328358707263,21.93525433540383L137.51721087072647,21.85173332691232L137.74631076388889,21.838545799255765L137.82649572649572,21.82535827159921L137.9124081864316,21.807774901390456L138.08996060363248,21.77260816097299L138.67989282852562,21.667107939720527L138.84599025106837,21.63194119930306L139.59629240117522,21.49567008018531L139.69938735309827,21.478086709976576L139.85975727831195,21.447315812111288L140.12894965277778,21.403357386589423L140.28931957799145,21.376982331276313L140.36950454059829,21.363794803619758L140.59860443376067,21.32862806320227L140.632969417735,21.319836378097914L140.85634181356838,21.284669637680427L141.10262419871793,21.240711212158583L141.3088141025641,21.205544471741096L141.4348190438034,21.187961101532363L141.62955395299144,21.148398518562697L142.02475126869658,21.08246088027992L142.0877537393162,21.069273352623366L142.44285857371793,21.012127399444946L142.5344985309829,20.994544029236213L142.6032284989316,20.981356501579658L142.76932592147435,20.950585603714348L143.30771067040598,20.858272910118462L143.3993506276709,20.845085382461907L143.59981303418803,20.80991864204444L143.73727297008546,20.787939429283508L143.80027544070512,20.774751901626953L144.26993022168804,20.691230893135444L144.65940004006407,20.62529325485265L144.84267995459402,20.59452235698736L145.24933226495725,20.524188876152405L145.27796975160254,20.51979303360021L145.5242521367521,20.48462629318274L145.55288962339745,20.480230450630543L146.02254440438034,20.401105284691212L146.14854934561967,20.379126071930298L146.2115518162393,20.365938544273742L146.28028178418802,20.357146859169365L146.3833767361111,20.339563488960632L146.49219918536326,20.32198011875188L147.13367888621795,20.229667425155995L147.68924612713673,20.168125629425397L147.71788361378202,20.159333944321038L147.96989349626065,20.12856304645573L148.2505408653846,20.089000463486066L149.16121294070513,19.96152102947271L149.38458533653846,19.926354289055226L149.45331530448715,19.91756260395085L150.2494374332265,19.80327069759403L150.3754423744658,19.790083169937475L150.51862980769232,19.768103957176564L150.5587222889957,19.763708114624364L150.59308727297008,19.75491642952001L150.8336421607906,19.7241455316547L150.94246461004275,19.706562161445966L151.0283770699786,19.69777047634159L151.36629941239315,19.649416208267567L151.64121928418803,19.61424946785008L151.830226696047,19.58787441253697L152.17960403311966,19.548311829567304L152.3399739583333,19.52633261680637L152.500343883547,19.50435340404544L152.9986361511752,19.438415765762663L153.07882111378203,19.429624080658307L153.1876435630342,19.412040710449553L153.651570846688,19.350498914718976L153.8119407719017,19.33291554451022L154.0410406650641,19.30654048919711L154.12122562767092,19.297748804092755L154.49924045138889,19.244998693466535L154.5679704193376,19.236207008362157L154.65388287927348,19.22741532325778L155.15790264423075,19.161477684975004L155.82229233440168,19.082352519035673L156.00557224893163,19.055977463722563L156.2633096287393,19.020810723305075L157.23125667735042,18.90212297439608L157.2656216613248,18.8977271318439L157.29998664529913,18.888935446739524L157.56345152243588,18.858164548874235L157.98155882745726,18.809810280800193L158.3022986778846,18.770247697830527L158.59440104166666,18.73947679996524L158.7433159722222,18.717497587204306L159.1556957799145,18.664747476578086L159.37906817574785,18.638372421264975L159.6138955662393,18.607601523399687L160.38710770566237,18.524080514908157L160.54747763087605,18.506497144699424L160.98849492521367,18.45814287662538L161.16604734241452,18.43176782131227L161.35505475427345,18.40978860855136L161.52115217681623,18.392205238342605L161.55551716079057,18.387809395790427L161.96789696848288,18.335059285164206L162.01371694711537,18.330663442612007L162.47764423076922,18.282309174537986L162.55782919337605,18.27351748943361L162.5921941773504,18.26912164688143L162.84993155715813,18.23835074901612L162.9644815037393,18.225163221359566L163.0103014823718,18.220767378807388L163.0503939636752,18.21637153625521L163.27376635950856,18.1856006383899L164.11570846688033,18.088892102241836L164.8774656116453,18.014162778854683L165.06647302350424,17.992183566093754L165.10083800747861,17.987787723541572L165.1752954727564,17.9789960384372L165.49603532318375,17.94382929801973L167.7125767895299,17.69326627254518L168.24523404113245,17.636120319366764L168.2795990251068,17.631724476814583L168.69197883279912,17.583370208740543L168.73207131410257,17.578974366188362L168.8122562767094,17.57018268108399L168.88671374198717,17.565786838531807L169.00699118589742,17.55259931087525L169.0413561698718,17.548203468323056L169.1387236244658,17.539411783218696L170.0665781917735,17.442703247070614L170.26131310096156,17.4207240343097L170.3701355502137,17.411932349205326L170.49041299412394,17.39874482154877L170.67369290865383,17.37676560878784L171.08607271634614,17.332807183265995L171.45836004273502,17.297640442848508L171.56718249198715,17.284452915191952L171.60154747596152,17.280057072639774L171.91655982905982,17.244890332222287L172.12274973290596,17.218515276909176L172.8501418936966,17.15697348117858L173.05060430021362,17.130598425865468L173.18233673878203,17.117410898208913L173.52025908119654,17.077848315239248L173.58898904914528,17.07345247268707L173.92691139155983,17.038285732269582L174.04718883547008,17.02070236206085L174.2419237446581,16.998723149299916L174.41947616185897,16.976743936539005L174.61993856837606,16.954764723778073L174.91776842948715,16.919597983360585L175.19841579861108,16.893222928047475L175.3301482371795,16.875639557838742L175.62797809829058,16.840472817421254L176.12054286858972,16.783326864242856L176.3439152644231,16.756951808929745L176.56156016292738,16.734972596168813L176.69902009882475,16.71738922596008L176.72765758547007,16.71738922596008L177.33477230235042,16.642659902572927L177.3748647836538,16.63826406002075L177.45504974626067,16.63386821746855L177.74142461271367,16.61188900470764L177.85024706196583,16.598701477051083L178.8181941105769,16.49759709835082L179.01292901976493,16.475617885589887L179.13320646367518,16.462430357933332L179.23057391826922,16.449242830276777L179.49976629273505,16.422867774963667L179.56849626068376,16.41407608985929L180.15842848557688,16.352534294128713L180.18706597222223,16.348138451576514L180.8457281650641,16.282200813293738L180.8743656517094,16.27780497074156L180.98891559829056,16.264617443085005L181.22947048611107,16.242638230324072L181.2982004540598,16.233846545219716L181.59603031517094,16.203075647354407L181.6704877804487,16.19867980480223L181.7048527644231,16.19428396225005L182.14014256143162,16.150325536728186L182.20314503205125,16.14153385162381L182.5467948717949,16.106367111206342L182.6441623263889,16.097575426101965L183.0164496527778,16.0580128431323L183.11954460470082,16.044825315475745L183.18254707532046,16.040429472923567L183.2398220486111,16.03163778781919L183.62356436965808,15.992075204849526L184.190586605235,15.930533409118928L184.6888788728632,15.882179141044904L184.89506877670942,15.860199928283974L185.12989616720083,15.838220715523041L185.42772602831195,15.807449817657753L185.55945846688036,15.794262290001198L185.78855836004274,15.772283077240266L185.817195846688,15.767887234688088L185.85728832799143,15.763491392135888L186.16657318376065,15.7327204942706L186.87678285256408,15.662387013435646L187.03715277777772,15.644803643226892L187.21470519497862,15.627220273018159L187.43235009348285,15.609636902809426L187.76454493856838,15.574470162391938L187.93064236111113,15.556886792183205L188.12537727029917,15.53930342197445L188.26283720619656,15.526115894317895L188.2972021901709,15.521720051765717L188.5663945646367,15.495344996452607L188.66376201923072,15.48655331134823L188.6981270032051,15.482157468796052L188.76685697115383,15.477761626243874L188.90431690705122,15.468969941139497L188.95013688568372,15.464574098587319L188.97877437232907,15.46017825603512L189.21932926014958,15.438199043274208L189.3166967147436,15.429407358169831L189.34533420138888,15.425011515617634L189.41406416933762,15.420615673065454L189.48279413728628,15.411823987961078L189.5858890892094,15.40303230285672L189.61452657585465,15.398636460304523L189.90662893963676,15.381053090095788L190.18154881143158,15.363469719887055L190.24455128205128,15.354678034782678L190.35337373130344,15.345886349678302L191.03494591346148,15.279948711395527L191.0979483840812,15.275552868843347L191.3270482772436,15.257969498634614L191.58478565705124,15.235990285873681L191.97998297275643,15.196427702904016L192.66728265224359,15.139281749725617L192.73028512286322,15.13049006462124L193.31448985042738,15.082135796547199L193.4175848023504,15.073344111442841L193.47485977564102,15.064552426338464L193.5034972622863,15.064552426338464L194.13924946581196,15.003010630607868L194.92391659989315,14.932677149772912L195.02128405448715,14.923885464668537L195.44511885683758,14.884322881698871L195.7429487179487,14.857947826385761L196.00068609775641,14.835968613624829L196.02932358440168,14.83157277107265L196.1266910389957,14.822781085968273L196.19542100694446,14.818385243416095L196.23551348824785,14.813989400863916L196.69944077190175,14.77442681789425L196.97436064369654,14.74805176258114L197.81630275106835,14.686509966850544L198.03967514690171,14.66892659664179L198.14849759615385,14.660134911537433L198.38332498664528,14.638155698776501L198.85297976762817,14.602988958359013L199.0190771901709,14.594197273254657L199.07062466613243,14.594197273254657L199.29972455929484,14.572218060493725L199.9068392761752,14.519467949867504L200.5196814903846,14.47550952434566L200.76023637820515,14.453530311584728L200.92060630341877,14.440342783928173L200.95497128739316,14.435946941375995L201.14397869925213,14.42275941371944L201.60217848557693,14.383196830749775L201.66518095619656,14.378800988197575L201.85418836805556,14.361217617988842L201.96301081730772,14.352425932884465L202.7419504540598,14.290884137153867L202.89659288194443,14.277696609497312L203.33188267895295,14.238134026527646L203.45216012286323,14.22934234142329L204.10509481837602,14.180988073349248L204.4315621661324,14.159008860588315L205.21622930021368,14.097467064857739L205.3135967548077,14.088675379753361L205.3479617387821,14.084279537201184L205.41669170673072,14.079883694648984L205.47396668002136,14.075487852096806L205.51978665865383,14.071092009544628L205.64579159989313,14.062300324440251L206.21854133279913,14.013946056366208L206.34454627403844,14.000758528709653L207.14639590010682,13.939216732979057L207.6332331730769,13.908445835113767L207.8909705528846,13.886466622352836L208.17161792200855,13.864487409591923L208.53817775106833,13.838112354278813L208.5725427350427,13.833716511726616L209.06510750534184,13.79415392875695L209.16247495993588,13.78975808620477L209.52903478899574,13.758987188339482L209.557672275641,13.754591345787285L209.68367721688028,13.750195503235105L210.25069945245727,13.706237077713261L210.38815938835467,13.697445392608884L210.84635917467946,13.662278652191398L211.0067290998931,13.649091124534843L211.07545906784185,13.644695281982663L211.1384615384615,13.640299439430486L211.43629139957264,13.618320226669553L211.58520633012816,13.605132699012998L211.7913962339743,13.591945171356443L212.27823350694445,13.556778430938957L212.3125984909188,13.552382588386777L212.37560096153845,13.54798674583458L212.53024338942308,13.539195060730222L213.50964543269228,13.468861579895249L213.81893028846153,13.446882367134336L214.24849258814098,13.429298996925583L214.38595252403846,13.420507311821225L214.63223490918799,13.402923941612473L214.826969818376,13.389736413955918L215.00452223557687,13.376548886299362L215.11907218215813,13.372153043747184L215.1935296474359,13.363361358642807L215.73764189369655,13.32819461822534L216.0927467280983,13.306215405464409L216.356211605235,13.288632035255674L216.6998614449786,13.262256979942563L216.92323384081197,13.249069452286008L217.1007862580128,13.235881924629453L217.16951622596153,13.231486082077256L217.23251869658114,13.227090239525078L217.2726111778846,13.222694396972898L217.6678084935897,13.200715184211967L217.74226595886748,13.196319341659768L217.96563835470081,13.183131814003213L218.38947315705124,13.156756758690102L218.60139055822648,13.143569231033547L218.85340044070512,13.125985860824814L218.91640291132478,13.121590018272636L219.23141526442305,13.095214962959526L219.29441773504269,13.090819120407327L219.83852998130342,13.05565237998986L220.20508981036323,13.033673167228928L220.26236478365385,13.02927732467675L220.39409722222223,13.020485639572373L220.46282719017088,13.016089797020195L220.7950220352564,12.989714741707084L220.89811698717944,12.985318899154885L222.0493439503205,12.906193733215554L222.31280882745725,12.893006205558999L222.57627370459403,12.884214520454643L222.72518863514955,12.875422835350266L223.18338842147432,12.844651937484977L223.58431323450847,12.818276882171848L223.83632311698713,12.805089354515292L224.0596955128205,12.787505984306557L224.391890357906,12.765526771545627L224.4892578125,12.761130928993447L224.66681022970081,12.747943401336892L224.82145265758544,12.739151716232517L225.0390975560897,12.725964188575961L225.10782752403844,12.721568346023782L225.44002236912397,12.699589133262851L225.46865985576923,12.695193290710671L226.024227096688,12.660026550293185L226.14450454059826,12.651234865188828L226.41369691506407,12.638047337532273L226.86616920405982,25.223344564438307L227.31291399572646,25.170594453812086L227.4274639423077,25.15740692615553L227.50192140758546,25.14861524105117L227.7367487980769,25.117844343185865L228.06894364316238,25.0782817602162L228.35531850961542,25.043115019798712L228.4469584668803,25.034323334694353L228.51568843482906,25.02553164958998L228.6302383814102,25.012344121933424L228.6932408520299,25.003552436829047L228.98534321581195,24.96398985385938L229.32899305555551,24.924427270889716L229.35190304487176,24.920031428337538L229.69555288461538,24.87607300281569L229.83301282051278,24.862885475159135L229.86737780448715,24.85848963260694L230.4974025106837,24.77936446666761L230.66922743055554,24.757385253906694L230.73795739850422,24.74859356880232L230.76659488514957,24.74419772625014L230.86396233974358,24.731010198593584L231.21906717414524,24.6958434581761L232.0896467681624,24.621114134788947L232.75403645833333,24.537593126297438L232.92013388087608,24.520009756088683L233.04613882211535,24.50242638587995L233.08050380608975,24.498030543327772L233.2122362446581,24.480447173119018L233.4241536458333,24.458467960358107L233.46424612713673,24.454072117805907L233.49861111111113,24.44967627525373L233.59597856570514,24.436488747597174L233.69334602029915,24.42330121994062L234.16300080128207,24.36615526676222L234.3233707264957,24.348571896553466L234.4264656784188,24.33538436889691L234.98776041666665,24.269446730614135L235.022125400641,24.265050888061957L235.18822282318374,24.247467517853202L235.34286525106836,24.22988414764447L235.58914763621792,24.19911324977918L235.88697749732904,24.163946509361693L235.94425247061966,24.155154824257316L236.28790231036322,24.11559224128765L236.47690972222222,24.09361302852674L236.55136718749998,24.084821343422362L236.80337706997864,24.06284213066143L236.8778345352564,24.054050445557074L236.95801949786326,24.045258760452697L237.22721187232904,24.018883705139586L237.42194678151708,24.001300334930853L237.49640424679484,23.992508649826476L237.56513421474355,23.9837169647221L237.85150908119655,23.95294606685681L238.3784388354701,23.89580011367839L238.51017127403847,23.878216743469658L238.69917868589738,23.860633373260924L238.83091112446579,23.84744584560437L239.4093883547008,23.78590404987377L239.75303819444443,23.746341466904106L239.79885817307695,23.746341466904106L239.86186064369656,23.73754978179973L240.05086805555558,23.715570569038817L240.09096053685897,23.711174726486618L240.2456029647436,23.689195513725707L240.52052283653842,23.662820458412597L240.68662025908117,23.645237088203842L240.78971521100428,23.632049560547287L240.91572015224355,23.618862032890732L241.11618255876067,23.5968828201298L241.53428986378205,23.548528552055778L241.75766225961536,23.522153496742668L242.4220519497863,23.451820015907693L243.10935162927348,23.37709069252056L243.20099158653844,23.363903164864006L243.34990651709396,23.35071563720745L243.37854400373934,23.34631979465525L243.60191639957262,23.31994473934214L244.15175614316237,23.258402943611564L244.5469534588675,23.218840360641877L244.91924078525642,23.179277777672212L245.15406817574782,23.1529027223591L245.35453058226497,23.13092350959819L246.2995676415598,23.043006658554482L247.0956897702991,22.959485650062973L247.39351963141021,22.928714752197664L247.89753939636748,22.875964641571443L247.93190438034188,22.871568799019265L248.16100427350426,22.845193743706155L248.31564670138889,22.8320062160496L248.6421140491453,22.79683947563211L248.75093649839744,22.788047790527738L248.79102897970083,22.783651947975557L249.12322382478632,22.748485207558073L249.25495626335473,22.735297679901517L249.55278612446574,22.704526782036226L249.59287860576922,22.704526782036226L249.77615852029913,22.686943411827492L250.08544337606838,22.656172513962186L250.13126335470082,22.651776671410005L250.49209568643155,22.621005773544717L250.52646067040595,22.61660993099252L250.56082565438032,22.61221408844034L250.8357455261752,22.58583903312723L250.96175046741448,22.572651505470674L250.99038795405983,22.568255662918496L251.54022769764953,22.515505552292275L251.8151475694444,22.489130496979147L252.26189236111108,22.445172071457304L252.35353231837607,22.43198454380075L252.5024472489316,22.418797016144193L252.58263221153845,22.41440117359201L252.61699719551282,22.410005331039816L252.72009214743588,22.401213645935456L252.82318709935896,22.3880261182789L253.01219451121798,22.37044274807015L253.04655949519227,22.366046905517972L253.3443893563034,22.33527600765268L253.45321180555553,22.326484322548307L253.8713191105769,22.29131758213082L254.0488715277778,22.273734211922086L255.03972856570513,22.1814215183262L255.29173844818376,22.15504646301309L255.4463808760684,22.137463092804353" style="fill: none;" fill="none"></path></g></g></g></g></g></g><g transform="translate(61, 177)" clip-path="url(#clip_1)"><clipPath id="clip_1"><rect width="268" height="23"></rect></clipPath><g><g><line x1="0" y1="0" x2="0" y2="5" style="visibility: inherit;" fill="rgb(0, 0, 0)" stroke="rgb(204, 204, 204)" stroke-width="1px"></line><line x1="20.618990384615383" y1="0" x2="20.618990384615383" y2="5" style="visibility: inherit;" fill="rgb(0, 0, 0)" stroke="rgb(204, 204, 204)" stroke-width="1px"></line><line x1="41.23798076923077" y1="0" x2="41.23798076923077" y2="5" style="visibility: inherit;" fill="rgb(0, 0, 0)" stroke="rgb(204, 204, 204)" stroke-width="1px"></line><line x1="61.85697115384615" y1="0" x2="61.85697115384615" y2="5" style="visibility: inherit;" fill="rgb(0, 0, 0)" stroke="rgb(204, 204, 204)" stroke-width="1px"></line><line x1="82.47596153846153" y1="0" x2="82.47596153846153" y2="5" style="visibility: inherit;" fill="rgb(0, 0, 0)" stroke="rgb(204, 204, 204)" stroke-width="1px"></line><line x1="103.09495192307692" y1="0" x2="103.09495192307692" y2="5" style="visibility: inherit;" fill="rgb(0, 0, 0)" stroke="rgb(204, 204, 204)" stroke-width="1px"></line><line x1="123.7139423076923" y1="0" x2="123.7139423076923" y2="5" style="visibility: inherit;" fill="rgb(0, 0, 0)" stroke="rgb(204, 204, 204)" stroke-width="1px"></line><line x1="144.33293269230768" y1="0" x2="144.33293269230768" y2="5" style="visibility: inherit;" fill="rgb(0, 0, 0)" stroke="rgb(204, 204, 204)" stroke-width="1px"></line><line x1="164.95192307692307" y1="0" x2="164.95192307692307" y2="5" style="visibility: inherit;" fill="rgb(0, 0, 0)" stroke="rgb(204, 204, 204)" stroke-width="1px"></line><line x1="185.57091346153845" y1="0" x2="185.57091346153845" y2="5" style="visibility: inherit;" fill="rgb(0, 0, 0)" stroke="rgb(204, 204, 204)" stroke-width="1px"></line><line x1="206.1899038461538" y1="0" x2="206.1899038461538" y2="5" style="visibility: inherit;" fill="rgb(0, 0, 0)" stroke="rgb(204, 204, 204)" stroke-width="1px"></line><line x1="226.8088942307692" y1="0" x2="226.8088942307692" y2="5" style="visibility: inherit;" fill="rgb(0, 0, 0)" stroke="rgb(204, 204, 204)" stroke-width="1px"></line><line x1="247.4278846153846" y1="0" x2="247.4278846153846" y2="5" style="visibility: inherit;" fill="rgb(0, 0, 0)" stroke="rgb(204, 204, 204)" stroke-width="1px"></line><line x1="268.046875" y1="0" x2="268.046875" y2="5" style="visibility: inherit;" fill="rgb(0, 0, 0)" stroke="rgb(204, 204, 204)" stroke-width="1px"></line></g><g transform="translate(0, 8)"><text x="0" y="0" dx="0em" dy="0.95em" style="text-anchor: middle; visibility: hidden; font-family: Roboto, sans-serif; font-size: 12px; font-weight: 200;" fill="rgb(33, 33, 33)" stroke="none" stroke-width="1px">-0.001</text><text x="20.618990384615383" y="0" dx="0em" dy="0.95em" style="text-anchor: middle; visibility: inherit; font-family: Roboto, sans-serif; font-size: 12px; font-weight: 200;" fill="rgb(33, 33, 33)" stroke="none" stroke-width="1px">0</text><text x="41.23798076923077" y="0" dx="0em" dy="0.95em" style="text-anchor: middle; visibility: hidden; font-family: Roboto, sans-serif; font-size: 12px; font-weight: 200;" fill="rgb(33, 33, 33)" stroke="none" stroke-width="1px">0.001</text><text x="61.85697115384615" y="0" dx="0em" dy="0.95em" style="text-anchor: middle; visibility: inherit; font-family: Roboto, sans-serif; font-size: 12px; font-weight: 200;" fill="rgb(33, 33, 33)" stroke="none" stroke-width="1px">0.002</text><text x="82.47596153846153" y="0" dx="0em" dy="0.95em" style="text-anchor: middle; visibility: hidden; font-family: Roboto, sans-serif; font-size: 12px; font-weight: 200;" fill="rgb(33, 33, 33)" stroke="none" stroke-width="1px">0.003</text><text x="103.09495192307692" y="0" dx="0em" dy="0.95em" style="text-anchor: middle; visibility: inherit; font-family: Roboto, sans-serif; font-size: 12px; font-weight: 200;" fill="rgb(33, 33, 33)" stroke="none" stroke-width="1px">0.004</text><text x="123.7139423076923" y="0" dx="0em" dy="0.95em" style="text-anchor: middle; visibility: hidden; font-family: Roboto, sans-serif; font-size: 12px; font-weight: 200;" fill="rgb(33, 33, 33)" stroke="none" stroke-width="1px">0.005</text><text x="144.33293269230768" y="0" dx="0em" dy="0.95em" style="text-anchor: middle; visibility: inherit; font-family: Roboto, sans-serif; font-size: 12px; font-weight: 200;" fill="rgb(33, 33, 33)" stroke="none" stroke-width="1px">0.006</text><text x="164.95192307692307" y="0" dx="0em" dy="0.95em" style="text-anchor: middle; visibility: hidden; font-family: Roboto, sans-serif; font-size: 12px; font-weight: 200;" fill="rgb(33, 33, 33)" stroke="none" stroke-width="1px">0.007</text><text x="185.57091346153845" y="0" dx="0em" dy="0.95em" style="text-anchor: middle; visibility: inherit; font-family: Roboto, sans-serif; font-size: 12px; font-weight: 200;" fill="rgb(33, 33, 33)" stroke="none" stroke-width="1px">0.008</text><text x="206.1899038461538" y="0" dx="0em" dy="0.95em" style="text-anchor: middle; visibility: hidden; font-family: Roboto, sans-serif; font-size: 12px; font-weight: 200;" fill="rgb(33, 33, 33)" stroke="none" stroke-width="1px">0.009</text><text x="226.8088942307692" y="0" dx="0em" dy="0.95em" style="text-anchor: middle; visibility: inherit; font-family: Roboto, sans-serif; font-size: 12px; font-weight: 200;" fill="rgb(33, 33, 33)" stroke="none" stroke-width="1px">0.01</text><text x="247.4278846153846" y="0" dx="0em" dy="0.95em" style="text-anchor: middle; visibility: hidden; font-family: Roboto, sans-serif; font-size: 12px; font-weight: 200;" fill="rgb(33, 33, 33)" stroke="none" stroke-width="1px">0.011</text><text x="268.046875" y="0" dx="0em" dy="0.95em" style="text-anchor: middle; visibility: hidden; font-family: Roboto, sans-serif; font-size: 12px; font-weight: 200;" fill="rgb(33, 33, 33)" stroke="none" stroke-width="1px">0.012</text></g><line x1="0" y1="0" x2="268.046875" y2="0" fill="rgb(0, 0, 0)" stroke="rgb(204, 204, 204)" stroke-width="1px"></line></g></g></g></g></svg>