<svg viewBox="0 0 330 200" xmlns="http://www.w3.org/2000/svg"><g><g><g><g><g><line x1="61.953125" y1="177" x2="56.953125" y2="177" style="visibility: inherit;" fill="rgb(0, 0, 0)" stroke="rgb(204, 204, 204)" stroke-width="1px"></line><line x1="61.953125" y1="162.25" x2="56.953125" y2="162.25" style="visibility: inherit;" fill="rgb(0, 0, 0)" stroke="rgb(204, 204, 204)" stroke-width="1px"></line><line x1="61.953125" y1="147.5" x2="56.953125" y2="147.5" style="visibility: inherit;" fill="rgb(0, 0, 0)" stroke="rgb(204, 204, 204)" stroke-width="1px"></line><line x1="61.953125" y1="132.75" x2="56.953125" y2="132.75" style="visibility: inherit;" fill="rgb(0, 0, 0)" stroke="rgb(204, 204, 204)" stroke-width="1px"></line><line x1="61.953125" y1="118.00000000000001" x2="56.953125" y2="118.00000000000001" style="visibility: inherit;" fill="rgb(0, 0, 0)" stroke="rgb(204, 204, 204)" stroke-width="1px"></line><line x1="61.953125" y1="103.24999999999999" x2="56.953125" y2="103.24999999999999" style="visibility: inherit;" fill="rgb(0, 0, 0)" stroke="rgb(204, 204, 204)" stroke-width="1px"></line><line x1="61.953125" y1="88.5" x2="56.953125" y2="88.5" style="visibility: inherit;" fill="rgb(0, 0, 0)" stroke="rgb(204, 204, 204)" stroke-width="1px"></line><line x1="61.953125" y1="73.75" x2="56.953125" y2="73.75" style="visibility: inherit;" fill="rgb(0, 0, 0)" stroke="rgb(204, 204, 204)" stroke-width="1px"></line><line x1="61.953125" y1="59.00000000000001" x2="56.953125" y2="59.00000000000001" style="visibility: inherit;" fill="rgb(0, 0, 0)" stroke="rgb(204, 204, 204)" stroke-width="1px"></line><line x1="61.953125" y1="44.25" x2="56.953125" y2="44.25" style="visibility: inherit;" fill="rgb(0, 0, 0)" stroke="rgb(204, 204, 204)" stroke-width="1px"></line><line x1="61.953125" y1="29.499999999999993" x2="56.953125" y2="29.499999999999993" style="visibility: inherit;" fill="rgb(0, 0, 0)" stroke="rgb(204, 204, 204)" stroke-width="1px"></line><line x1="61.953125" y1="14.750000000000007" x2="56.953125" y2="14.750000000000007" style="visibility: inherit;" fill="rgb(0, 0, 0)" stroke="rgb(204, 204, 204)" stroke-width="1px"></line><line x1="61.953125" y1="0" x2="56.953125" y2="0" style="visibility: inherit;" fill="rgb(0, 0, 0)" stroke="rgb(204, 204, 204)" stroke-width="1px"></line></g><g transform="translate(51.953125, 0)"><text x="0" y="177" dx="0em" dy="0.3em" style="text-anchor: end; visibility: hidden; font-family: Roboto, sans-serif; font-size: 12px; font-weight: 200;" fill="rgb(33, 33, 33)" stroke="none" stroke-width="1px">0.976</text><text x="0" y="162.25" dx="0em" dy="0.3em" style="text-anchor: end; visibility: inherit; font-family: Roboto, sans-serif; font-size: 12px; font-weight: 200;" fill="rgb(33, 33, 33)" stroke="none" stroke-width="1px">0.977</text><text x="0" y="147.5" dx="0em" dy="0.3em" style="text-anchor: end; visibility: hidden; font-family: Roboto, sans-serif; font-size: 12px; font-weight: 200;" fill="rgb(33, 33, 33)" stroke="none" stroke-width="1px">0.978</text><text x="0" y="132.75" dx="0em" dy="0.3em" style="text-anchor: end; visibility: inherit; font-family: Roboto, sans-serif; font-size: 12px; font-weight: 200;" fill="rgb(33, 33, 33)" stroke="none" stroke-width="1px">0.979</text><text x="0" y="118.00000000000001" dx="0em" dy="0.3em" style="text-anchor: end; visibility: hidden; font-family: Roboto, sans-serif; font-size: 12px; font-weight: 200;" fill="rgb(33, 33, 33)" stroke="none" stroke-width="1px">0.98</text><text x="0" y="103.24999999999999" dx="0em" dy="0.3em" style="text-anchor: end; visibility: inherit; font-family: Roboto, sans-serif; font-size: 12px; font-weight: 200;" fill="rgb(33, 33, 33)" stroke="none" stroke-width="1px">0.981</text><text x="0" y="88.5" dx="0em" dy="0.3em" style="text-anchor: end; visibility: hidden; font-family: Roboto, sans-serif; font-size: 12px; font-weight: 200;" fill="rgb(33, 33, 33)" stroke="none" stroke-width="1px">0.982</text><text x="0" y="73.75" dx="0em" dy="0.3em" style="text-anchor: end; visibility: inherit; font-family: Roboto, sans-serif; font-size: 12px; font-weight: 200;" fill="rgb(33, 33, 33)" stroke="none" stroke-width="1px">0.983</text><text x="0" y="59.00000000000001" dx="0em" dy="0.3em" style="text-anchor: end; visibility: hidden; font-family: Roboto, sans-serif; font-size: 12px; font-weight: 200;" fill="rgb(33, 33, 33)" stroke="none" stroke-width="1px">0.984</text><text x="0" y="44.25" dx="0em" dy="0.3em" style="text-anchor: end; visibility: inherit; font-family: Roboto, sans-serif; font-size: 12px; font-weight: 200;" fill="rgb(33, 33, 33)" stroke="none" stroke-width="1px">0.985</text><text x="0" y="29.499999999999993" dx="0em" dy="0.3em" style="text-anchor: end; visibility: hidden; font-family: Roboto, sans-serif; font-size: 12px; font-weight: 200;" fill="rgb(33, 33, 33)" stroke="none" stroke-width="1px">0.986</text><text x="0" y="14.750000000000007" dx="0em" dy="0.3em" style="text-anchor: end; visibility: inherit; font-family: Roboto, sans-serif; font-size: 12px; font-weight: 200;" fill="rgb(33, 33, 33)" stroke="none" stroke-width="1px">0.987</text><text x="0" y="0" dx="0em" dy="0.3em" style="text-anchor: end; visibility: hidden; font-family: Roboto, sans-serif; font-size: 12px; font-weight: 200;" fill="rgb(33, 33, 33)" stroke="none" stroke-width="1px">0.988</text></g><line x1="61.953125" y1="0" x2="61.953125" y2="177" fill="rgb(0, 0, 0)" stroke="rgb(204, 204, 204)" stroke-width="1px"></line></g></g><g transform="translate(61, 0)" clip-path="url(#clip_0)"><clipPath id="clip_0"><rect width="268" height="177"></rect></clipPath><g><g><g><line x1="0" y1="0" x2="0" y2="177" fill="rgb(0, 0, 0)" stroke="rgb(66, 66, 66)" stroke-width="1px" opacity="0.25"></line><line x1="20.618990384615383" y1="0" x2="20.618990384615383" y2="177" fill="rgb(0, 0, 0)" stroke="rgb(66, 66, 66)" stroke-width="1px" opacity="0.25"></line><line x1="41.23798076923077" y1="0" x2="41.23798076923077" y2="177" fill="rgb(0, 0, 0)" stroke="rgb(66, 66, 66)" stroke-width="1px" opacity="0.25"></line><line x1="61.85697115384615" y1="0" x2="61.85697115384615" y2="177" fill="rgb(0, 0, 0)" stroke="rgb(66, 66, 66)" stroke-width="1px" opacity="0.25"></line><line x1="82.47596153846153" y1="0" x2="82.47596153846153" y2="177" fill="rgb(0, 0, 0)" stroke="rgb(66, 66, 66)" stroke-width="1px" opacity="0.25"></line><line x1="103.09495192307692" y1="0" x2="103.09495192307692" y2="177" fill="rgb(0, 0, 0)" stroke="rgb(66, 66, 66)" stroke-width="1px" opacity="0.25"></line><line x1="123.7139423076923" y1="0" x2="123.7139423076923" y2="177" fill="rgb(0, 0, 0)" stroke="rgb(66, 66, 66)" stroke-width="1px" opacity="0.25"></line><line x1="144.33293269230768" y1="0" x2="144.33293269230768" y2="177" fill="rgb(0, 0, 0)" stroke="rgb(66, 66, 66)" stroke-width="1px" opacity="0.25"></line><line x1="164.95192307692307" y1="0" x2="164.95192307692307" y2="177" fill="rgb(0, 0, 0)" stroke="rgb(66, 66, 66)" stroke-width="1px" opacity="0.25"></line><line x1="185.57091346153845" y1="0" x2="185.57091346153845" y2="177" fill="rgb(0, 0, 0)" stroke="rgb(66, 66, 66)" stroke-width="1px" opacity="0.25"></line><line x1="206.1899038461538" y1="0" x2="206.1899038461538" y2="177" fill="rgb(0, 0, 0)" stroke="rgb(66, 66, 66)" stroke-width="1px" opacity="0.25"></line><line x1="226.8088942307692" y1="0" x2="226.8088942307692" y2="177" fill="rgb(0, 0, 0)" stroke="rgb(66, 66, 66)" stroke-width="1px" opacity="0.25"></line><line x1="247.4278846153846" y1="0" x2="247.4278846153846" y2="177" fill="rgb(0, 0, 0)" stroke="rgb(66, 66, 66)" stroke-width="1px" opacity="0.25"></line><line x1="268.046875" y1="0" x2="268.046875" y2="177" fill="rgb(0, 0, 0)" stroke="rgb(66, 66, 66)" stroke-width="1px" opacity="0.25"></line></g><g><line x1="0" y1="177" x2="268.046875" y2="177" fill="rgb(0, 0, 0)" stroke="rgb(66, 66, 66)" stroke-width="1px" opacity="0.25"></line><line x1="0" y1="162.25" x2="268.046875" y2="162.25" fill="rgb(0, 0, 0)" stroke="rgb(66, 66, 66)" stroke-width="1px" opacity="0.25"></line><line x1="0" y1="147.5" x2="268.046875" y2="147.5" fill="rgb(0, 0, 0)" stroke="rgb(66, 66, 66)" stroke-width="1px" opacity="0.25"></line><line x1="0" y1="132.75" x2="268.046875" y2="132.75" fill="rgb(0, 0, 0)" stroke="rgb(66, 66, 66)" stroke-width="1px" opacity="0.25"></line><line x1="0" y1="118.00000000000001" x2="268.046875" y2="118.00000000000001" fill="rgb(0, 0, 0)" stroke="rgb(66, 66, 66)" stroke-width="1px" opacity="0.25"></line><line x1="0" y1="103.24999999999999" x2="268.046875" y2="103.24999999999999" fill="rgb(0, 0, 0)" stroke="rgb(66, 66, 66)" stroke-width="1px" opacity="0.25"></line><line x1="0" y1="88.5" x2="268.046875" y2="88.5" fill="rgb(0, 0, 0)" stroke="rgb(66, 66, 66)" stroke-width="1px" opacity="0.25"></line><line x1="0" y1="73.75" x2="268.046875" y2="73.75" fill="rgb(0, 0, 0)" stroke="rgb(66, 66, 66)" stroke-width="1px" opacity="0.25"></line><line x1="0" y1="59.00000000000001" x2="268.046875" y2="59.00000000000001" fill="rgb(0, 0, 0)" stroke="rgb(66, 66, 66)" stroke-width="1px" opacity="0.25"></line><line x1="0" y1="44.25" x2="268.046875" y2="44.25" fill="rgb(0, 0, 0)" stroke="rgb(66, 66, 66)" stroke-width="1px" opacity="0.25"></line><line x1="0" y1="29.499999999999993" x2="268.046875" y2="29.499999999999993" fill="rgb(0, 0, 0)" stroke="rgb(66, 66, 66)" stroke-width="1px" opacity="0.25"></line><line x1="0" y1="14.750000000000007" x2="268.046875" y2="14.750000000000007" fill="rgb(0, 0, 0)" stroke="rgb(66, 66, 66)" stroke-width="1px" opacity="0.25"></line><line x1="0" y1="0" x2="268.046875" y2="0" fill="rgb(0, 0, 0)" stroke="rgb(66, 66, 66)" stroke-width="1px" opacity="0.25"></line></g></g></g><g><g><line x1="0" y1="14572.999999999987" x2="268.046875" y2="14572.999999999987" fill="rgb(0, 0, 0)" stroke="rgb(153, 153, 153)" stroke-width="1.5px"></line></g></g><g><g><line x1="20.618990384615383" y1="0" x2="20.618990384615383" y2="177" fill="rgb(0, 0, 0)" stroke="rgb(153, 153, 153)" stroke-width="1.5px"></line></g></g><g><g><g><g><g><path stroke="rgb(0, 153, 136)" stroke-width="2px" d="M20.99700520833333,-177L21.197467614850424,124.02056964319583L21.73012486645299,151.01284208236245L21.79312733707265,157.52332841903376L21.884767294337603,151.70329663389305L22.1425046741453,128.84117914383398L22.245599626068376,109.6918001961946L22.732436899038458,159.4050420939377L22.829804353632476,182.31473469543172L23.4541015625,162.7284679095416L23.70038394764957,141.35359422368228L23.80347889957265,124.27028081868286L24.422048611111112,96.6538686428725L24.80006343482906,71.46636349460161L25.155168269230764,50.21959636894008L25.304083199786323,34.97037360352867L25.424360643696577,24.394929093057407L25.71073551014957,49.19556132545912L26.02574786324786,57.60018812242418L26.163207799145297,59.95596962490397L26.231937767094017,60.33478633069311L26.266302751068373,60.053206410557756L26.44385516826923,57.901901331159024L26.73595753205128,52.88590140416644L27.06815237713675,46.02765593840196L27.228522302350424,39.915243246145884L27.583627136752135,32.16704857062393L27.77263454861111,25.456659727672207L27.915821981837603,19.79306420847619L28.41984174679487,11.875980955228787L28.597394163995727,5.4662130630058074L28.7577640892094,0.2959731467895511L29.004046474358972,-4.577519410507282L30.997215544871793,-2.101359965285556L31.283590411324788,14.703972651364063L31.615785256410255,22.79251470280281L32.108350026709395,23.919372118260828L32.2228999732906,23.714559720000125L32.60091479700854,21.471117833825083L33.969786658653845,25.969061624810617L33.99842414529915,28.46948748340378L34.54826388888889,26.73616121714647L34.605538862179486,25.332189694076416L34.63417634882479,24.30904973448854L34.7315438034188,23.157466297753185L35.17828859508547,19.88422248685637L35.26992855235043,17.42372182562184L35.29283854166666,15.783192751134747L35.579213408119664,13.196326945618246L36.13478064903846,9.068947061533967L36.19205562232906,6.301338520429266L36.8278078258547,1.986739496458223L36.890810296474356,-0.8699904799026603L37.63538494925213,-8.967021482673047L37.72702490651709,0.728393401214993L37.92175981570513,5.6960138830611795L38.07067474626068,7.98274638373002L38.39714209401709,18.577615226019425L38.586149505876065,34.49566991609962L38.76370192307692,43.0551523177796L38.87825186965812,47.54166373067863L39.06153178418803,49.276683571660364L39.113079260149576,50.002953149512294L39.290631677350426,49.661881600400974L39.313541666666666,49.30320834790464L39.51400407318376,48.1757791499774L39.82901642628205,46.16509549978317L40.45331363514958,42.406283290165234L40.527771100427344,39.876343721733946L40.86569344284187,36.74774326955523L41.12915831997863,33.9590610866269L41.15779580662392,32.15714150694063L41.22079827724358,30.81997588889124L41.306710737179486,29.636469051934146L41.369713207799144,28.674219420967873L41.72481804220086,26.615998203407344L41.81073050213674,25.019199713975823L41.96537293002136,23.583556285446207L42.12574285523504,22.368041152325713L42.26320279113248,21.287416335682792L42.417845219017096,20.17554380699564L42.56103265224358,18.93696075799731L42.727130074786324,17.630439747111282L43.637802150106836,14.044089596709311L43.77526208600427,11.479070306563083L43.90126702724359,9.531421208824208L43.93563201121795,8.261551537780507L44.1704594017094,6.796998261611731L44.47974425747863,13.00788116407385L44.60574919871794,16.305728339862707L44.73748163728632,17.860325755900867L44.89785156249999,18.26945144070781L45.0238565037393,18.101014316879876L45.32168636485042,17.0842101221106L45.45914630074787,16.07393009929746L45.487783787393155,15.368240210229748L45.516421274038464,14.845656068810174L45.57942374465813,14.334820170216055L45.61378872863247,13.929851757890958L45.80279614049145,13.102047817354176L45.940256076388884,19.631328521040526L45.99180355235042,23.33930317036285L46.186538461538454,25.044675203990717L46.215175948183756,25.964859874744203L46.24381343482905,26.414283795176605L46.35836338141025,26.274948956380754L46.49009581997863,25.786930538302876L46.621828258547005,24.994048438718256L46.66192073985042,24.418797303587663L46.707740718482896,23.974828081935186L47.38358540331197,21.49610690928231L47.55541032318376,19.6364584246675L48.557722355769236,29.142783276999243L48.706637286324785,34.342638798216115L48.76391225961538,37.2628050253743L48.94146467681624,45.10226752793441L49.19920205662393,62.20960604212L49.382481971153844,71.7653993312188L49.548579393696585,83.57990805767011L49.771951789529915,89.81054482735405L49.81777176816239,93.30627638028477L49.972414196047005,94.68174213127035L50.0296891693376,95.26823941442768L50.44206897702991,93.97890600903827L50.47070646367521,93.08995905723593L50.785718816773496,91.41648516181786L50.89454126602564,90.07515178396565L51.19809862446581,88.27126466199374L51.33555856036324,86.75075480320842L51.46156350160256,85.40413964378072L51.78803084935896,83.63189852587678L51.82239583333333,82.46235029907493L52.0400407318376,81.12902670509588L52.07440571581196,80.22423566226304L52.23477564102564,79.16194828059714L52.58415297809829,77.29901494804975L52.7960703792735,75.57955201997656L52.893437833867516,74.24966030439438L53.21417768429487,72.56763342094962L53.300090144230765,71.26723668022471L53.53491753472222,75.46907075073489L53.90147736378205,76.79344701663281L54.15348724626068,82.5486931794617L54.53150206997862,90.26053314171557L54.720509481837595,94.25850413299949L54.82933193108973,96.34570940767064L54.88660690438033,97.39090047141602L55.00688434829059,97.6065642467774L55.15579927884616,97.32767665574762L55.23025674412393,96.95708034151737L55.37344417735042,96.23043149539319L55.40780916132477,95.69386531012404L55.677001535790595,94.47728372274186L55.86600894764957,93.15899520312678L55.98055889423076,91.97942960974589L56.014923878205124,91.17498171756864L56.29557124732905,89.73472264069365L56.45021367521367,93.66590391789823L56.85686598557692,94.65873648640407L57.58998564369658,98.27912737081606L57.624350627670935,100.35430169791101L57.75608306623931,101.21292381697921L57.79044805021367,101.63174021967754L57.830540531517094,101.78702485995517L58.4720202323718,105.17496755383617L58.861490050747854,106.05180241264152L58.895855034722224,106.48260146139303L59.10777243589743,106.17278636549811L59.17650240384616,105.79875524672862L59.31968983707265,105.10661892791246L60.27618189102564,111.89102390229453L60.339184361645295,115.76789814722412L60.659924212072646,121.87374395425232L61.03221153846153,124.4579841750558L61.12385149572649,125.71734769688277L61.20976395566239,126.18354353634409L62.00015858707265,129.16899004774018L62.18343850160256,130.38141340730644L62.42399338942307,130.44034768770922L62.630183293269226,134.44357157725554L63.00247061965812,140.37730165111057L63.22584301549145,143.3428701149637L63.31175547542735,144.82681057376934L63.59240284455127,144.93647321178437L63.695497796474356,149.14456114836838L63.787137753739316,151.37049661677057L63.873050213675214,152.40819560647415L63.901687700320515,152.9319964597245L64.50307491987178,151.4900499552264L64.96700220352562,153.5004664164636L65.41947449252136,161.77663778673815L65.50538695245726,166.43885163909871L65.53402443910255,169.13525140551883L65.59702690972222,170.55193751018194L65.63139189369657,171.3013722953845L66.33014656784188,169.5780802761109L66.49051649305555,168.05950738159387L66.58788394764957,166.85929303865132L66.71388888888889,165.75549529493205L66.77689135950854,164.90226124823388L66.8971688034188,164.0101683563014L67.03462873931623,163.09687016165364L67.21218115651709,162.17260712239795L68.0083032852564,159.31392446669153L68.04266826923076,157.5083363503951L68.39204560630341,159.42892644707777L68.638327991453,159.8505156392131L68.66696547809829,160.01273896421588L68.7643329326923,159.83858572319593L68.82160790598289,159.5536884002416L69.15380275106837,158.48740479544097L69.38290264423077,157.22799666640358L70.05301983173077,155.1641490454499L70.08165731837606,153.83933029145166L70.16184228098291,152.7863151643881L70.93505442040599,157.72737944210678L70.96941940438033,160.6041011576943L71.50780415331195,164.695800814931L71.54216913728632,167.0622004234223L71.83999899839743,167.68938185950807L72.02327891292735,167.54240962374575L72.14355635683759,167.10748222177205L72.43565872061966,166.0728574914029L72.64757612179486,164.8560064031051L72.67621360844015,164.04149557312516L72.8423110309829,163.13078819012642L73.10004841079059,161.91478902277902L73.40360576923077,160.43965462552097L73.55824819711538,159.1441781264948L73.70143563034186,157.95895803823436L73.80453058226496,157.00412047418496L73.9820829994658,156.02715208835914L74.09090544871795,155.19972721760038L74.25700287126067,154.38290328994154L74.56056022970085,156.80883504876306L74.86411758814103,157.617326080375L75.11039997329058,157.5411595222795L75.33377236912393,156.939121754016L75.62587473290597,155.86928927364733L75.76333466880341,154.91510913051823L75.79769965277778,154.26453088091267L75.83779213408118,153.79646543482932L75.95234208066239,153.36018917453205L76.04970953525641,152.86597126419514L76.27308193108973,152.03068605479658L76.58236678685897,150.84306015620916L76.96610910790598,152.78838685780926L77.10929654113247,153.64857723492534L77.17229901175212,154.01171614037764L77.28684895833334,154.00066400353091L77.43003639155982,156.99903069009787L77.52740384615383,158.5655985478782L77.55031383547008,159.4281724336279L77.57322382478633,159.86834993615864L78.16315604967949,158.6807733932448L78.45525841346154,157.291267714459L78.6328108306624,156.01024336907716L78.89054821047007,154.72327100809508L78.91345819978632,153.8775891040326L79.20556056356837,152.71045191136255L79.41747796474358,151.50165852932375L79.8584952590812,149.91409402506517L80.23078258547008,148.32187231431473L80.35678752670938,150.30683045417035L80.75198484241453,150.78005216616228L80.90089977297008,150.7791345959765L81.07845219017094,150.42410331045684L81.22163962339744,149.92904728099617L81.65120192307691,151.8837400522517L81.74284188034186,152.8434452680751L81.92612179487179,152.99550917553884L81.9662142761752,153.01641403918146L82.00057926014956,152.95862347653272L83.1346237313034,150.57762421829048L83.32935864049146,151.8199385980531L83.55273103632479,152.08424621699828L83.73028345352563,151.8331382625017L83.86774338942307,151.4109862537795L83.9364733573718,151.02230309793887L83.99947582799145,150.65405292123137L84.1770282451923,150.02938863521618L84.27439569978631,149.4537879758216L84.33739817040598,148.9747939665994L84.43476562499998,148.4876504754945L84.93305789262821,147.2050689706759L85.0017878605769,146.30469979343113L85.40271267361112,144.98483165202967L85.43707765758545,144.12820396481933L85.46571514423076,143.54987221752882L86.00409989316239,142.30682462331808L86.14728732638888,141.30744386838126L86.30192975427349,140.4549665518175L86.5883046207265,139.4412991087196L86.72003705929488,138.5834147858964L86.9720469417735,137.57212981750735L87.03504941239316,136.84192357760756L87.13241686698717,139.12394720495982L87.22978432158118,140.3046676527338L87.32142427884615,140.82495786016366L87.48179420405982,140.82520299712053L88.12900140224357,139.65324262117903L88.50701622596152,138.2210598667604L88.53565371260683,137.30126342058986L88.62729366987179,136.56862850714234L88.66165865384615,136.06891243295928L88.7361161191239,135.64916420362715L88.7991185897436,135.27739668120196L88.91366853632479,134.81520233290797L89.05112847222223,134.2998068913069L89.22868088942306,133.69411400462755L89.30886585202991,133.21253802481587L89.7670656383547,132.0440722590877L89.91025307158117,131.1108923128964L90.12789797008547,130.14621516297544L90.79228766025642,128.4828665985481L90.88392761752135,127.31535377107912L90.91829260149574,126.55857928992941L91.0500250400641,125.87944746256707L91.11875500801281,125.3597864642189L91.28485243055555,124.76806261148748L91.56549979967947,126.63697296384912L91.68577724358973,127.53254870178655L91.81178218482904,127.84447533847195L91.93778712606837,127.80761918402516L92.2585269764957,127.22811265574035L92.3329844417735,126.7696335064531L92.39598691239316,126.38412245197051L92.43035189636751,126.09760403682648L92.58499432425214,125.70519752532115L92.6766342815171,125.30482160586031L92.94009915865385,124.62747347079583L93.06037660256408,124.00373413397581L93.52430388621795,122.87446061512115L93.68467381143162,121.98308272206974L93.74767628205127,121.3413490953691L93.89659121260682,120.69044836179287L93.92522869925213,120.2468061436161L93.98250367254273,119.87476892405408L94.07987112713676,119.4929445930337L94.16005608974358,119.1587014405719L94.22305856036326,118.85265532784402L94.2574235443376,121.24112305434213L94.47506844284186,124.91573172445119L94.57816339476493,126.95732325097985L94.74426081730769,127.91079093087313L95.3571030315171,127.46268439929798L95.67211538461538,126.66350603485826L95.86112279647435,125.8682016872435L96.08449519230768,125.07698008674686L96.210500133547,124.39335668836969L96.2391376201923,123.93113587352457L96.80043235844015,128.17061952384063L96.83479734241452,130.66085626859407L96.9092548076923,132.0477397571731L97.35599959935897,132.18708506409587L97.73974192040596,134.25831641664618L98.0662092681624,135.02032588666938L98.60459401709402,134.5797246858257L99.17734375,133.378873668002L99.2059812366453,132.6066679488947L99.274711204594,132.04030596800712L99.50953859508544,131.28974125139712L99.56681356837608,130.73706720681687L99.75009348290597,130.20149568564636L100.05365084134614,131.81397182850262L100.3171157184829,132.37070998613922L100.35148070245727,132.65376110711682L100.69513054220084,132.26373727225678L100.97005041399574,131.62565712394323L101.1418753338675,130.9417817369821L101.17051282051281,130.4811680660088L101.26215277777776,130.10492632063816L101.32515524839742,129.77930773063144L101.49125267094016,129.334956054471L102.40192474626069,130.21196744715087L102.4420172275641,130.68858917877014L102.7971220619658,130.4804695148758L102.86012453258547,130.25748251077474L103.00331196581195,129.92745989678457L103.03767694978632,129.6805645592105L103.48442174145298,131.194055841392L103.67915665064102,131.80710165859756L103.83379907852563,134.26277852750738L103.89680154914528,137.9678659957456L103.97125901442308,140.08963826428717L104.03426148504273,141.26177308041264L104.42945880074785,141.31200760053628L104.5669187366453,141.14240122703984L104.6241937099359,140.94111552756019L104.77310864049143,140.67123712850292L105.0652110042735,140.06409915538262L105.09384849091879,139.6505829349256L105.41458834134613,138.91189717382693L105.4775908119658,138.3712738462116L105.85560563568376,137.4638352935206L105.88424312232904,136.8711937275347L105.91860810630341,136.46743035357184L106.03888555021368,136.03245859170636L106.15343549679487,135.57911346450314L106.43981036324786,135.02014578637386L107.11565504807692,136.12660153661304L107.31038995726496,136.503162717547L107.34475494123932,136.6816243265425L107.58530982905982,136.40784549321847L107.8029547275641,135.95978259805435L108.00914463141025,135.40820426799996L108.17524205395299,137.06382643615083L109.0572766426282,136.97019579073572L109.12027911324786,136.8204738739781L109.30355902777778,138.69364817402794L109.48111144497864,139.58088059104657L109.93931123130342,139.50167042539877L110.1684111244658,139.12744530753133L110.67815838675212,140.3728799862619L111.11344818376068,140.5602862860536L111.20508814102563,140.53346977387446L111.39982305021367,140.24026595207786L111.65183293269229,139.6961478868292L111.68619791666666,139.32396028513728L111.71483540331195,139.05493096157812L111.74920038728632,138.84744493749733L112.02984775641025,138.31255746237653L112.88324485844016,136.95455780239323L112.93479233440169,136.0950962460714L112.98061231303419,135.53475755194876L113.2326221955128,134.8866253479721L113.633547008547,136.11049274113245L113.70800447382477,136.7554896563689L114.15474926549146,136.60725001635637L114.1891142494658,136.47399613942252L114.29220920138887,136.26111353448314L114.35521167200854,136.0451154530723L114.3895766559829,135.87120651129914L114.45257912660254,135.678592627788L115.10551382211537,136.79913522335542L115.357523704594,137.11873837430954L115.74126602564101,136.78475749563935L115.77563100961538,136.54076221032022L116.06200587606837,136.0462143089954L116.09637086004273,135.7062304774863L116.29683326655982,135.24270963430052L116.39420072115384,134.83553519105624L116.58893563034188,134.3334583178505L116.7149405715812,133.86059850069043L117.28196280715811,132.85420609481352L117.33923778044871,132.16597047428607L117.36787526709402,131.71082901346796L117.3965127537393,131.39554404847613L117.74589009081195,130.74428210039534L118.52482972756411,129.60517669546388L119.10903445512821,128.22330198781415L119.30949686164529,127.10862323103339L119.33813434829058,126.39937422548648L119.46413928952991,125.85214790031318L120.01397903311964,124.87815075114361L120.1628939636752,124.13339212533783L120.34617387820512,123.48678986428307L120.4206313434829,123.01935167430803L120.49508880876067,122.65906025957335L120.55809127938033,122.36340857738938L120.64400373931622,122.10689240214094L120.78146367521366,121.79438069770777L120.82155615651708,121.5674869257806L121.16520599626068,120.99774475327807L121.26830094818376,120.53844253678054L121.52603832799143,119.95022888457095L121.62340578258546,119.48054711506047L121.65204326923076,119.15970297148944L121.92696314102562,118.65702583486436L122.40234541933759,117.77833334263812L122.52835036057692,117.09814252648597L122.58562533386751,116.61371621009009L123.08391760149573,115.75406256029643L123.49629740918803,114.74910101121306L124.26378205128204,115.1803779174418L124.84798677884613,114.87928955373407L124.89380675747863,114.66135979066689L125.10572415865383,114.30834813338616L125.13436164529915,114.05961606158L125.28900407318375,115.59838035853538L125.45510149572648,116.33455187768925L125.58683393429486,116.62714780980883L125.64410890758546,116.72850354680199L126.21113114316239,116.19746074776972L126.57196347489315,115.47547255576349L126.8354283520299,114.78696910512919L126.8640658386752,114.33729362471473L127.08743823450854,113.81358447065088L127.18480568910255,113.3906937503229L127.95229033119656,112.2760775127042L128.04393028846155,111.50075254666868L128.26730268429486,110.78728037970062L128.36467013888887,110.25299352346028L128.39903512286324,109.8972546692973L128.4620375934829,109.61312620856135L128.49640257745725,109.40748239170132L129.1722472622863,110.3890350855032L129.33834468482905,110.80142966488792L129.6304470486111,110.7327174161656L129.69344951923077,110.62150825350044L129.76217948717948,110.48480094247054L129.98555188301282,110.15836770995375L130.40365918803417,111.29638223447773L130.46666165865383,111.90885746835747L130.66139656784188,112.06639716839166L130.91913394764956,111.88240040430671L131.1138688568376,111.56381524258391L131.14823384081197,111.33820073994112L131.33724125267094,112.79940205331036L131.5434311565171,113.5013441414554L131.77825854700853,115.44171258037757L132.207820846688,116.1839327587221L132.32809829059826,116.48930123886525L132.7404780982906,119.71585204268092L132.80348056891023,121.58039404192411L132.8664830395299,122.6277307584219L132.95812299679486,123.14922589745208L133.11849292200853,123.28453094176193L133.69697015224358,122.76541770942012L133.8516125801282,122.2784677353328L134.40145232371793,121.35892310183254L134.53318476228634,120.66863936448819L134.63055221688035,120.15107890525418L134.77373965010682,119.66822560166746L134.99711204594016,119.13797311505822L135.13457198183758,118.6826713354645L135.23766693376066,118.3412667912987L135.4324018429487,117.93175363557015L135.461039329594,117.651934003929L135.65577423878204,117.28042679792516L135.87341913728633,116.82049864390937L136.06242654914527,116.3423329941007L136.14833900908118,115.954505059217L136.33734642094018,115.52065454309748L136.69817875267094,114.89320346346791L136.76118122329058,114.45026767630179L137.13919604700854,115.53385403382183L137.23656350160255,116.08378063814207L137.2995659722222,116.34656812653681L137.48284588675213,116.33755026999481L137.99259314903844,115.80112177576763L138.06705061431623,115.41315120724548L138.2846955128205,114.9827317849866L138.3992454594017,114.59330818987308L138.46224793002136,114.29389222822363L138.89753772702988,113.65742669321187L139.36146501068376,112.88660322318879L139.68793235844015,112.2630454700619L140.1232221554487,111.50348334320985L140.16331463675212,111.01574433332003L140.39814202724358,110.53179385951273L140.43250701121792,110.20942184144911L140.8964342948718,109.57184269913752L141.02816673344014,109.06304661565213L141.0911692040598,108.6948205002149L141.1484441773504,108.41093636560495L141.26872162126065,108.14600735311532L141.38899906517094,107.89315474870554L141.96174879807688,108.82879879976949L142.3340361244658,109.0448478395082L142.3626736111111,109.14317886437986L142.61468349358972,110.62467212919125L142.87814837072648,111.29272095825566L143.80600293803417,110.94168534556727L144.03510283119655,110.54468025374355L144.1038327991453,110.24458373551388L144.8999549278846,109.41780946829667L145.00877737713674,108.8296080480732L145.129054821047,108.35465860669176L145.15769230769232,108.0390938776987L145.1863297943376,107.81915997613902L145.36388221153845,107.50468425243712L145.4612496661325,107.22491696053473L145.5242521367521,106.99656979187586L145.81062700320513,106.58737091984959L146.03399939903846,106.13120282153278L146.20582431891026,105.70733998095973L146.44637920673077,105.21388844177736L146.57811164529912,104.7986022682527L146.73848157051282,104.43056698152778L147.14513388087607,105.3797432631801L147.20813635149574,105.8894655734621L147.29977630876067,107.65858702840268L147.67206363514956,108.3581941424728L147.84388855502135,108.65803982609093L148.01571347489315,108.688136922083L148.0787159455128,108.64641172096755L148.61137319711537,108.32316264155969L148.70301315438033,108.06978140260844L148.78892561431624,107.8583208679328L149.28721788194443,110.41290850396031L149.94015257745724,111.46317340704832L150.11197749732904,111.94352203472233L150.33534989316237,112.02248910584275L151.22883947649572,111.32890612792029L151.26893195779914,110.88321627921387L151.29756944444443,110.58661397544546L151.52094184027777,111.71158032565141L151.84168169070512,112.09010451405628L152.09369157318375,112.0816018663024L152.311336471688,111.87077484620652L152.44879640758546,111.6271733885581L152.80390124198718,111.15994017395681L153.07309361645298,110.70517321272698L153.26782852564102,110.25858933832606L153.8520332532051,110.95420770112482L153.9837656917735,111.25552847542637L154.38469050480768,112.5950650367646L154.56224292200852,113.25284500083434L154.74552283653847,113.50227434135101L154.89443776709402,113.53588170228397L154.92880275106836,113.52685772429658L155.3125450721154,113.20388767153563L155.34691005608974,112.9812689127354L155.71919738247863,112.53154866110211L155.7821998530983,112.20439472324098L155.81083733974359,111.97961730078616L156.04566473023502,111.64500376174328L156.14303218482905,112.81644184940698L156.17739716880342,113.49081964226738L156.21176215277777,113.86660959084128L156.4179520566239,113.91941486453645L157.191164196047,114.77013141307536L157.75818643162393,114.79385365482143L157.92428385416665,114.66566170117893L157.95292134081194,114.5602614692533L158.0273788060897,114.44040287802711L158.27938868856836,114.14166224759896L160.3699252136752,113.75985744453737L160.8395799946581,113.1421820810863L160.87967247596154,112.74379513808715L161.29205228365385,112.20162566988799L161.32068977029914,111.8488939314432L161.39514723557693,111.5820431059212L161.47533219818374,111.3670724955564L161.6242471287393,111.15579995675996L161.66433961004273,111.00160637595745L161.7387970753205,110.8545817798295L162.55782919337605,110.14039904272093L162.72392661591877,109.5768491172533L162.82702156784188,109.15748399160802L162.93584401709398,108.82533308066417L163.1191239316239,108.49135391829793L163.47422876602562,107.99626913618167L163.7606036324786,107.45938109726403L163.88660857371795,107.05741977316382L163.92097355769226,106.78951625598835L164.21307592147434,106.39034364565387L164.40208333333328,105.9922380801674L164.9347405849359,105.33313219288793L165.16956797542733,104.78082499825862L165.29557291666666,104.3449954624408L165.60485777243588,103.84963891717385L165.66786024305557,103.50037821419681L166.000055088141,103.05801797084519L166.1432425213675,102.68956327541265L166.34943242521365,102.31410846771777L166.64726228632478,101.96047698057738L166.87063468215808,101.59461943267038L167.23719451121795,101.14546608899873L167.46056690705126,100.6980303762846L167.5922993456196,100.32828873625311L167.90158420138889,99.87891494173446L168.38842147435895,99.23195154034434L168.60033887553416,98.66864313222892L168.8408937633547,99.51999724828016L168.98980869391022,99.9298811729121L169.0241736778846,100.15084314199453L169.74011084401707,99.80726265819095L169.7744758279914,99.57614598221274L169.83747829861107,99.38789087263814L170.0608506944444,99.12547916011974L170.15821814903842,98.89347864292233L171.01734274839743,98.08857193650164L171.2178051549145,97.45898260510866L171.3495375934829,98.30045989654627L171.44690504807687,98.73114444912892L171.72182491987178,98.792621434338L171.79055488782052,98.78062585628446L172.34612212873932,98.35740597031322L172.3747596153846,98.07920898784242L172.987601829594,97.45160649889193L173.02196681356835,97.05077995463161L173.11933426816236,96.73784054281704L173.3312516693376,96.38162820912791L173.3999816372863,96.11972237454313L173.65771901709402,97.0675178577082L173.71499399038458,97.58766504583177L173.80663394764954,97.87548830781883L174.2476512419872,97.73484660789066L174.3106537126068,97.60228315356214L174.66575854700855,98.57141728021331L174.7688534989316,99.08045427094466L175.14114082532052,99.120719242635L175.25569077190167,99.07278640779438L175.32442073985038,98.9958482725187L175.39887820512817,98.90185862438518L175.80553051549143,98.55850423369714L176.41837272970085,97.94842575188777L176.94530248397433,98.49882391808171L177.16867487980767,98.68628585170374L177.6154196714743,98.63277599710516L177.9247045272436,98.41182468830642L178.06789196047006,98.1850070387067L178.33708433493587,97.88433610379337L178.37144931891024,97.68037182676599L178.4058143028846,97.53443154447018L178.7838291266025,97.21300855131712L179.5341312767094,96.53168873102517L179.688773704594,96.00754993028032L179.85487112713673,95.57771974126409L180.0782435229701,95.18161633801364L180.4104383680555,94.71431548113854L180.56508079594016,94.31964306065568L180.77699819711538,93.94604098814065L180.90873063568375,93.63079788695103L180.9430956196581,93.41879364496589L181.18365050747863,93.11013071921994L181.29247295673076,92.8570611547673L181.32683794070508,92.68236103482403L181.38411291399572,92.53252753512433L181.47575287126068,92.37475562629847L181.51011785523502,92.25758576713575L181.53875534188032,92.16477713777223L181.77358273237172,91.95119329567899L181.87667768429486,91.75552284882116L181.90531517094013,91.61596553424475L181.99122763087607,91.48721771776356L182.05423010149573,91.36495560014012L182.15159755608974,91.2244298553687L182.1859625400641,91.11795936204281L182.38069744925212,90.91974011765315L182.5811598557692,90.66717495743261L182.64988982371793,90.4709741009714L182.74725727831193,90.28643678030018L183.4460119524572,89.73331679344486L183.51474192040598,89.35713470840498L183.71520432692307,90.22018774070791L183.93857672275638,90.58258256744503L184.34522903311967,90.53486224073984L184.9637987446581,90.08915250336345L185.0268012152778,89.77776823541575L185.57664095886747,89.24243527711023L185.6740084134615,88.85617703235525L185.74846587873927,88.5811669947871L185.7771033653846,88.39435759318836L186.6075904780983,87.87257942636549L187.4094401041666,88.24069228815998L187.5010800614316,88.39685320286623L187.94782485309827,88.21202916758484L188.23419971955127,87.9302243879877L188.5205745860043,87.59093449660685L188.5606670673077,87.36590885012467L188.66948951655982,87.1672416620797L188.73821948450853,87.00584126075177L188.77831196581195,86.88754930829934L189.33960670405986,86.52082184991819L189.61452657585465,87.31253249669943L190.3476462339743,87.32230290904623L190.54810864049145,87.20191655835488L190.63402110042733,87.0667362825928L190.91466846955123,86.838982809594L191.3270482772436,87.59908260644244L191.38432325053415,88.01329406345468L191.4129607371795,88.24072089340893L191.6477881276709,89.39595746127786L192.32363281249994,89.70894693808494L192.896382545406,89.5612499205874L193.11402744391023,89.32633806995183L193.26294237446575,89.08129740793639L193.29157986111113,88.91352463387918L193.49204226762816,89.84183979405965L193.89869457799142,90.126638319337L193.9616970486111,90.25602068081011L194.21370693108972,90.20845650180806L194.31680188301283,90.11767286386923L195.05564903846152,89.5870450158532L195.25611144497864,89.16598142502426L195.6971287393162,88.6467793781617L195.82313368055554,88.25331964487114L196.4245209001068,87.65080636974729L196.6765307825855,87.1275313987529L196.80253572382478,86.73268291319671L197.46119791666666,86.11351135352369L197.5642928685897,85.6818732916073L197.59293035523504,85.40284541241883L197.65593282585468,85.1953386008305L197.72466279380342,85.03109609720408L197.75330028044868,84.91250555299092L197.8907602163461,84.7615227257157L197.92512520032048,84.65088798731128L198.29168502938035,84.36577001887387L198.49214743589738,84.0754839877955L198.61242487980766,83.82218720320948L199.37990952190168,83.2172615158804L199.81519931891023,82.60005057026487L200.11302918002136,82.0739353428445L200.39940404647436,81.602829213748L200.8805138221154,81.10740675676465L200.92633380074778,80.79081157534438L201.46471854967945,80.31213552766471L201.5678135016026,79.96725644477323L201.94010082799147,79.54968021993729L201.97446581196576,79.28014444520996L202.089015758547,80.16111683375186L202.6445829994658,81.459500214615L202.80495292467944,82.16116341421507L202.93668536324782,82.50479450505796L203.23451522435894,82.53760112930357L203.3948851495726,82.46127990251219L203.45216012286323,82.37715541938098L203.50943509615382,82.28834898244689L203.80726495726495,82.06274809224145L203.97908987713674,81.83173402418359L204.17955228365386,81.59782371681784L204.64347956730768,81.19161697484127L204.67211705395295,80.92925455723406L204.73511952457267,80.7338570270195L204.8897619524573,80.52201997716774L205.21622930021368,80.22541405844377L205.82907151442302,79.69085975937583L206.109718883547,79.20238182814398L206.33881877670942,78.77882646245571L206.4648237179487,78.45049142076219L206.68819611378206,78.14236349602587L206.8886585202991,77.84635984146614L207.06048344017094,77.57662078883683L207.15785089476495,77.3595655748025L207.22658086271372,77.19240736894582L207.7306006276709,76.81675686796132L208.02843048878202,77.49128345465394L208.3033503605769,77.74865076432026L208.46944778311968,77.8112859576301L208.64127270299144,77.75743354853122L208.89328258547008,77.5967635005471L209.07083500267095,77.409279614077L209.1338374732906,78.31873475872592L209.20256744123935,79.88564998723925L209.23120492788462,80.807160751925L209.649312232906,81.19302519375307L209.72376969818376,81.38761878141158L209.95286959134614,81.39324803428875L210.36524939903845,81.17542678878779L210.54280181623932,82.00443438748124L210.82917668269232,82.35343530213488L210.89217915331196,82.52591077348937L211.2701939770299,82.44477066910964L211.34465144230765,82.35951319644794L211.85439870459402,82.0330031353814L212.24959602029918,81.63594334355513L212.31832598824784,81.36113405842453L212.46724091880344,81.12345333468265L212.53024338942308,80.94462315780784L212.90253071581196,80.65551300372424L213.005625667735,80.42789013103084L214.2198551014957,80.71191062280754L214.5005024706196,80.75607431977414L214.62650741185897,80.72841575771348L214.7639673477564,80.63972880262125L215.22789463141024,81.36299825798356L215.59445446047005,81.59861951524503L215.82355435363243,83.66255796822492L216.05265424679484,84.77291410489389L216.37912159455124,85.25661240412919L216.48221654647435,85.4923229360236L216.6483139690171,85.54301906488152L216.80868389423074,85.48270655192049L217.00914630074786,86.35557928393538L217.06642127403842,86.84308118051402L217.3928886217948,86.95306693569412L217.42725360576918,87.00112335118928L217.94272836538457,88.74714913507194L218.08018830128208,89.73955282294807L218.29783319978634,90.2062847657438L218.69875801282052,90.26618013640815L219.08822783119655,90.08338023341035L219.17986778846154,89.91884017655943L219.24859775641028,89.78389439982017L219.46051515758546,89.57562333346466L219.76980001335468,89.26990364790585L220.03899238782049,88.94193653345604L220.10199485844012,88.70893452215549L220.16499732905984,88.53326324014736L220.26809228098287,88.3740553581057L220.3253672542735,89.24245098372285L220.6117421207265,89.60066635095956L220.94966446314103,89.63483852555606L220.9783019497863,89.637406792703L221.3104967948718,89.45924570945719L221.44222923344017,89.28025724165192L221.47659421741454,89.15492912335682L222.1524389022436,90.72237069728092L222.30708133012817,91.57245711876213L222.3758112980769,92.04628722902217L222.40444878472223,92.31229859015912L222.50181623931624,92.41774862659905L222.82255608974356,92.31854830773456L223.4869457799145,91.93549410457504L223.84205061431624,91.5266628739547L224.1857004540598,91.10306876166455L224.36898036858975,91.74074083127807L224.4892578125,92.05160392259553L224.52362279647429,92.22053840717628L224.6553552350427,92.25015894747307L224.86154513888889,92.16067271337783L224.89018262553415,92.08939760271292L224.92454760950855,92.02869749870075L225.01618756677345,91.9388239908582L225.12501001602558,91.83144644071811L225.57175480769226,91.51839105588246L225.77794471153845,91.24193763912804L225.89249465811963,91.0233154784518L226.4423344017094,90.59252155368814L226.4766993856838,90.31646182862154L226.5855218349359,90.08049251274561L226.75734675480768,89.85134573958054L226.9921741452991,89.59147741902933L227.3358239850427,89.27871276443564L227.39882645566237,90.02226925793497L227.90857371794868,90.29327278675618L228.1090361244658,90.35072635020128L228.1663110977564,90.35038341525373L228.3667735042735,90.24538076784079L228.42404847756404,90.14756410637841L228.49277844551278,90.05405903648865L228.71042334401707,89.87627907270966L228.89370325854696,89.68274924561173L228.95097823183758,89.53216794374518L229.0082532051282,89.40700408961193L229.0426181891026,89.3146740743264L229.30035556891025,89.13830247811865L229.7986478365384,88.77400397832551L229.91319778311964,88.48684973463557L230.08502270299144,88.22875034180326L230.18239015758544,88.02254726509435L230.6921374198718,88.57684017431801L231.0186047676282,88.73815389401942L231.05296975160257,88.81771042303701L231.1159722222222,88.83098093483711L231.37943709935897,88.73660802730102L231.4252570779914,88.66275257997543L231.60853699252135,88.53333579977111L231.87772936698715,88.33647048163192L232.06100928151707,88.13324777893911L232.1698317307692,87.96032238371806L232.30156416933755,87.78869533758069L232.50202657585467,87.58443889749526L232.96022636217947,87.24244457323861L233.18932625534185,86.91943939828671L233.81362346420943,86.40737729253703L234.5123781383547,85.76711099733338L234.6040180956196,85.33301444881899L234.75293302617524,85.0064430477242L234.7930255074786,84.79397183907243L235.09085536858973,84.55079053790752L235.69797008547008,84.12460283608092L236.0588024172008,83.6884848366433L236.45972723023502,83.24711199344708L236.6888271233974,82.86834804857538L236.90647202190166,82.54332614329341L237.86869157318372,81.95972051851008L238.69917868589738,81.23995470185304L239.00273604433752,80.66426324355065L239.4953008146367,80.08006620113518L239.52393830128204,79.71337127509419L239.78167568108972,80.29621100320166L239.90768062232905,80.581911372506L240.26851295405984,80.59402625999545L240.37160790598287,80.553468425521L240.40597288995724,80.51330869165044L240.74962272970086,80.33025918464077L240.88135516826915,80.15712934768383L241.14482004540594,80.83500808498992L241.1849125267094,81.22555862678253L241.31091746794868,81.39623715170082L241.67174979967947,81.35586730055681L241.70611478365385,81.31546868927836L242.0612196180555,81.13297919063199L242.08985710470083,81.00766045825662L242.12422208867522,80.91664418564419L242.38768696581198,80.73578582397731L242.52514690170938,81.46705256814793L242.55378438835464,81.88998758146113L243.0864416399573,81.90602142422885L243.3613615117521,81.7893931317881L243.80810630341875,81.51474572709556L243.89974626068374,81.30283385212125L244.01429620726495,81.12856329497563" style="fill: none;" fill="none"></path></g></g></g></g><g opacity="0.2"><g><g><g><path stroke="rgb(0, 153, 136)" stroke-width="2px" d="M21.73012486645299,182.75575447082488L21.79312733707265,166.02341938018768L21.884767294337603,143.6520974636075L22.1425046741453,96.14798533916449L22.245599626068376,81.77182185649849L22.732436899038458,232.72241759300198L22.829804353632476,216.3329582214352L23.4541015625,133.52671372890444L23.70038394764957,109.40760481357549L23.80347889957265,98.70109069347357L24.422048611111112,55.28335380554178L24.80006343482906,33.7147127389906L25.155168269230764,18.364430546760396L25.304083199786323,12.102992415427998L25.424360643696577,8.534447431564168L25.71073551014957,86.39273154735542L26.02574786324786,70.2063601016996L26.163207799145297,63.48951268196084L26.231937767094017,60.90299892425516L26.266302751068373,59.63084208965281L26.44385516826923,54.674969196319374L26.73595753205128,45.36193716526011L27.06815237713675,35.740316987037474L27.228522302350424,30.746639847755244L27.583627136752135,20.544768452644178L27.77263454861111,15.391082644462415L27.915821981837603,11.297674059867688L28.41984174679487,0.0003587007521010932L28.597394163995727,-4.148437500000157L30.596290731837605,-38.28567159175885L30.997215544871793,45.80943393707256L31.283590411324788,39.91197156906109L31.615785256410255,34.925327777862364L32.108350026709395,25.609658241271788L32.2228999732906,23.407341122627074L32.60091479700854,18.105955004691914L33.969786658653845,32.71597731113416L33.99842414529915,32.220126271247686L34.54826388888889,24.136171817779363L34.605538862179486,23.226232409477056L34.63417634882479,22.774339795112425L34.7315438034188,21.43009114265424L35.17828859508547,14.974356770515271L35.26992855235043,13.732970833778218L35.29283854166666,13.32239913940412L35.579213408119664,9.316028237342678L36.13478064903846,2.8778772354124404L36.19205562232906,2.1499257087705947L36.8278078258547,-4.485159039497546L37.63538494925213,-11.269702434539951L37.72702490651709,15.271515727042974L37.92175981570513,13.147444605827168L38.07067474626068,11.41284513473493L38.39714209401709,34.46991848945598L38.586149505876065,58.372751951217445L38.76370192307692,55.8943759202955L38.87825186965812,54.271430850028786L39.06153178418803,51.87921333312968L39.113079260149576,51.092357516288544L39.290631677350426,49.1502742767332L39.313541666666666,48.76519846916179L39.51400407318376,46.48463535308819L39.82901642628205,43.14907002449015L40.45331363514958,36.76806497573833L40.527771100427344,36.08143436908702L40.86569344284187,32.054842591285514L41.12915831997863,29.776037812232783L41.15779580662392,29.454262137412837L41.22079827724358,28.814227461814696L41.306710737179486,27.86120879650097L41.369713207799144,27.230844974517634L41.72481804220086,23.52866637706738L41.81073050213674,22.624001979827696L41.96537293002136,21.43009114265424L42.12574285523504,20.544768452644178L42.26320279113248,19.666479110717603L42.417845219017096,18.507735013961614L42.56103265224358,17.079086184501477L42.727130074786324,15.670658230781385L43.637802150106836,8.664564371108852L43.77526208600427,7.6315413713453495L43.90126702724359,6.609947562217555L43.93563201121795,6.356747031211696L44.1704594017094,4.600168347358546L44.47974425747863,22.324205517768682L44.60574919871794,21.252499103545958L44.73748163728632,20.19222187995892L44.89785156249999,18.883139967918225L45.0238565037393,17.848358631133856L45.32168636485042,15.559003829955877L45.45914630074787,14.558510065078572L45.487783787393155,14.30970537662489L45.516421274038464,14.061779856681653L45.57942374465813,13.56856632232649L45.61378872863247,13.32239913940412L45.80279614049145,11.860341906547383L45.940256076388884,29.425249576568415L45.99180355235042,28.90126514434796L46.186538461538454,27.60273325443249L46.215175948183756,27.34513688087445L46.24381343482905,27.088419675826838L46.35836338141025,26.065946698188597L46.49009581997863,25.054902911186048L46.621828258547005,23.804725289344617L46.66192073985042,23.555920600890936L46.707740718482896,23.308874249458142L47.38358540331197,17.7780251502989L47.55541032318376,16.846985697746106L48.557722355769236,43.40227055549601L48.706637286324785,42.14242208003978L48.76391225961538,41.64305436611155L48.94146467681624,56.86146128177622L49.19920205662393,87.87061381340003L49.382481971153844,86.09908926486945L49.548579393696585,101.30167114734625L49.771951789529915,99.15649998187995L49.81777176816239,98.54987370967841L49.972414196047005,96.74494075775121L50.0296891693376,96.14798533916449L50.44206897702991,92.04490590095494L50.47070646367521,91.75653862953162L50.785718816773496,88.90627431869481L50.89454126602564,88.06315171718573L51.19809862446581,85.56543397903418L51.33555856036324,84.46999001502968L51.46156350160256,83.38421690463997L51.78803084935896,80.97353684902168L51.82239583333333,80.70802795886969L52.0400407318376,79.12904131412483L52.07440571581196,78.86704909801459L52.23477564102564,77.56851720809914L52.58415297809829,74.50461494922617L52.7960703792735,73.00035762786842L52.893437833867516,72.25482273101785L53.21417768429487,70.0445930957792L53.300090144230765,69.31664156913736L53.53491753472222,81.77182185649849L53.90147736378205,78.78001141548133L54.15348724626068,91.18156242370581L54.53150206997862,101.82829308509801L54.720509481837595,100.2554606199262L54.82933193108973,99.47651731967902L54.88660690438033,98.95868706703162L55.00688434829059,97.93005990982032L55.15579927884616,96.90934526920294L55.23025674412393,96.40118587017035L55.37344417735042,95.14045822620368L55.40780916132477,94.88901603221869L55.677001535790595,92.65241134166693L55.86600894764957,91.18156242370581L55.98055889423076,90.21008121967293L56.014923878205124,89.96830987930274L56.29557124732905,87.57433402538277L56.45021367521367,99.56267583370185L56.85686598557692,96.14798533916449L57.58998564369658,103.70971369743323L57.624350627670935,103.46706318855261L57.75608306623931,102.50085699558232L57.79044805021367,102.25996482372258L57.830540531517094,102.01995182037328L58.4720202323718,110.25688159465764L58.861490050747854,107.36705470085118L58.895855034722224,107.12880003452275L59.10777243589743,105.70806372165654L59.17650240384616,105.23770856857274L59.31968983707265,104.06841444969153L60.27618189102564,122.06763136386844L60.339184361645295,121.58320951461766L60.659924212072646,131.03251266479464L61.03221153846153,128.33434450626348L61.12385149572649,127.60639297962162L61.20976395566239,126.88283729553196L62.00015858707265,133.6471598148343L62.18343850160256,132.200048446655L62.42399338942307,130.52874910831426L62.630183293269226,140.44840741157503L63.00247061965812,149.27789676189394L63.22584301549145,147.79122281074496L63.31175547542735,147.05272126197787L63.59240284455127,145.1009671688077L63.695497796474356,155.45669305324523L63.787137753739316,154.7093998193738L63.873050213675214,153.96474409103365L63.901687700320515,153.71769773960085L64.50307491987178,149.3271301984784L64.96700220352562,156.51609110832186L65.41947449252136,174.19089484214751L65.50538695245726,173.43217241764037L65.53402443910255,173.17985105514495L65.59702690972222,172.67696666717498L65.63139189369657,172.42552447319L66.33014656784188,166.9931422471997L66.49051649305555,165.7816480398175L66.58788394764957,165.05897152423827L66.71388888888889,164.0997986793515L66.77689135950854,163.6224101781842L66.8971688034188,162.6720290184018L67.03462873931623,161.72692286968203L67.21218115651709,160.7862125635144L68.0083032852564,155.02590048313112L68.04266826923076,154.79995417594878L68.39204560630341,162.30981159210177L68.638327991453,160.48289942741363L68.66696547809829,160.25607395172088L68.7643329326923,159.57735586166353L68.82160790598289,159.12634241580935L69.15380275106837,156.88797938823672L69.38290264423077,155.3388844728467L70.05301983173077,152.06837761402102L70.08165731837606,151.8521021604535L70.16184228098291,151.20679247379275L70.93505442040599,165.13897585868804L70.96941940438033,164.9191837310788L71.50780415331195,170.83335030078857L71.54216913728632,170.61179983615844L71.83999899839743,168.63015401363342L72.02327891292735,167.32195127010314L72.14355635683759,166.45509111881225L72.43565872061966,164.52092039585082L72.64757612179486,163.0307297706601L72.67621360844015,162.8197293281552L72.8423110309829,161.7647271156308L73.10004841079059,160.09079027175872L73.40360576923077,158.22695302963228L73.55824819711538,157.2009633779523L73.70143563034186,156.18112790584536L73.80453058226496,155.5718641281125L73.9820829994658,154.56169950962038L74.09090544871795,153.95858991146056L74.25700287126067,153.15766739845247L74.56056022970085,160.44773268699618L74.86411758814103,158.83006262779205L75.11039997329058,157.42690968513458L75.33377236912393,156.03606510162325L75.62587473290597,154.26454055309264L75.76333466880341,153.48383891582458L75.79769965277778,153.28866350650756L75.83779213408118,153.094367265701L75.95234208066239,152.70577478408782L76.04970953525641,152.124644398689L76.27308193108973,150.77775824069946L76.58236678685897,149.06162130832644L76.96610910790598,155.70637691020937L77.10929654113247,154.93886280059786L77.17229901175212,154.55642449855776L77.28684895833334,153.98408579826327L77.43003639155982,161.4965807199475L77.52740384615383,160.91545033454864L77.55031383547008,160.72203326225252L77.57322382478633,160.52861618995635L78.16315604967949,156.89940857887237L78.45525841346154,155.20700919628115L78.6328108306624,154.08870685100527L78.89054821047007,152.7928124666211L78.91345819978632,152.60906624793978L79.20556056356837,150.95974612235992L79.41747796474358,149.688468456268L79.8584952590812,147.53274726867647L80.23078258547008,145.93353974819155L80.35678752670938,153.2842676639554L80.75198484241453,151.48988473415343L80.90089977297008,150.77775824069946L81.07845219017094,149.89155638217895L81.22163962339744,149.1864632368085L81.65120192307691,154.81577920913665L81.74284188034186,154.28300309181182L81.92612179487179,153.22360503673525L81.9662142761752,153.04777133464785L82.00057926014956,152.87193763256042L83.1346237313034,147.0061253309247L83.32935864049146,153.6834101676938L83.55273103632479,152.48070764541598L83.73028345352563,151.45647633075686L83.86774338942307,150.77775824069946L83.9364733573718,150.43927836418123L83.99947582799145,150.10167765617342L84.1770282451923,149.0923922061917L84.27439569978631,148.5903869867322L84.33739817040598,148.25630295276613L84.43476562499998,147.7569352388379L84.93305789262821,145.2811967134473L85.0017878605769,144.95414602756472L85.40271267361112,143.00502943992586L85.43707765758545,142.84326243400545L85.46571514423076,142.68237459659548L86.00409989316239,140.44225323200197L86.14728732638888,139.8083727359769L86.30192975427349,139.17625057697268L86.5883046207265,137.92079794406862L86.72003705929488,137.29658830165835L86.9720469417735,136.05520236492129L87.03504941239316,135.7466142177579L87.13241686698717,142.54698264598818L87.22978432158118,142.07574832439394L87.32142427884615,141.60539317131014L87.48179420405982,140.8255707025525L88.12900140224357,137.89530205726595L88.50701622596152,136.07278573513003L88.53565371260683,135.92156875133486L88.62729366987179,135.46967613697024L88.66165865384615,135.3193383216855L88.7361161191239,135.0195418596265L88.7991185897436,134.71974539756746L88.91366853632479,134.1219108104703L89.05112847222223,133.52671372890444L89.22868088942306,132.78557467460604L89.30886585202991,132.4901740550992L89.7670656383547,130.29137361049627L89.91025307158117,129.71112239360784L90.12789797008547,128.69919943809484L90.79228766025642,125.98784375190709L90.88392761752135,125.56408452987644L90.91829260149574,125.42341756820653L91.0500250400641,124.86074972152683L91.11875500801281,124.58029496669742L91.28485243055555,123.88047683238958L91.56549979967947,129.44033849239324L91.68577724358973,128.87591230869268L91.81178218482904,128.31236529350252L91.93778712606837,127.75233495235418L92.2585269764957,126.3588528633115L92.3329844417735,126.08191478252384L92.39598691239316,125.80585587024663L92.43035189636751,125.667826414108L92.58499432425214,125.116587758064L92.6766342815171,124.70425772666904L92.94009915865385,123.61145126819585L93.06037660256408,123.06812512874578L93.52430388621795,121.1805503368375L93.68467381143162,120.6460158824918L93.74767628205127,120.37874865531894L93.89659121260682,119.71409726142856L93.92522869925213,119.58134281635259L93.98250367254273,119.31671309471105L94.07987112713676,118.92020809650394L94.16005608974358,118.65733671188329L94.22305856036326,118.39358615875219L94.2574235443376,124.82382464408848L94.47506844284186,130.42764472961397L94.57816339476493,130.01971054077123L94.74426081730769,129.34099245071383L95.3571030315171,126.79052460193607L95.67211538461538,125.46473848819706L95.86112279647435,124.67524516582462L96.08449519230768,123.89014768600437L96.210500133547,123.36792159080478L96.2391376201923,123.2378046512601L96.80043235844015,134.52984499931307L96.83479734241452,134.39621138572664L96.9092548076923,134.12806499004336L97.35599959935897,132.39610302448244L97.73974192040596,137.36516344547243L98.0662092681624,136.16334009170504L98.60459401709402,133.91882288455935L99.17734375,131.57759714126558L99.2059812366453,131.44835937023134L99.274711204594,131.1907629966733L99.50953859508544,130.16389417648287L99.56681356837608,129.9080561399457L99.75009348290597,129.39813840389226L100.05365084134614,134.23268604278536L100.3171157184829,133.20581722259496L100.35148070245727,133.07833778858156L100.69513054220084,131.67870151996584L100.97005041399574,130.66853690147374L101.1418753338675,129.91596865653963L101.17051282051281,129.79024755954717L101.26215277777776,129.54056370258306L101.32515524839742,129.29087984561892L101.49125267094016,128.6684285402295L102.40192474626069,131.52748453617068L102.4420172275641,131.40352177619906L102.7971220619658,130.16829001903508L102.86012453258547,129.92300200462316L103.00331196581195,129.4324259757993L103.03767694978632,129.31022155284856L103.48442174145298,133.46429276466344L103.67915665064102,132.7266703844068L103.83379907852563,137.9462938308713L103.89680154914528,143.52549719810457L103.97125901442308,143.27229666709871L104.03426148504273,143.0199753046033L104.42945880074785,141.38735938072176L104.5669187366453,140.88799166679354L104.6241937099359,140.63918697833986L104.77310864049143,140.26641952991457L105.0652110042735,139.15339219570131L105.09384849091879,139.03030860424013L105.41458834134613,137.8038685321805L105.4775908119658,137.56033885478945L105.85560563568376,136.10267746448488L105.88424312232904,135.982231378555L105.91860810630341,135.86178529262514L106.03888555021368,135.38000094890566L106.15343549679487,134.89909577369662L106.43981036324786,134.18169426918L107.11565504807692,137.78628516197176L107.31038995726496,137.06800448894472L107.34475494123932,136.94931674003573L107.58530982905982,135.99717724323244L107.8029547275641,135.28768825530977L108.00914463141025,134.58083677291842L108.17524205395299,139.5472596883771L109.0572766426282,136.8297498226163L109.12027911324786,136.59589099884005L109.30355902777778,141.50340962409945L109.48111144497864,140.91172921657534L109.93931123130342,139.38285517692537L110.1684111244658,138.5661076307294L110.67815838675212,142.2410320043561L111.11344818376068,140.84139573574038L111.20508814102563,140.49324500560732L111.39982305021367,139.80046021938296L111.65183293269229,138.8799707889554L111.68619791666666,138.7656788825986L111.71483540331195,138.65138697624178L111.74920038728632,138.53621590137453L112.02984775641025,137.51022624969454L112.88324485844016,134.9175583124158L112.93479233440169,134.8059039115903L112.98061231303419,134.6942495107648L113.2326221955128,133.91442704200716L113.633547008547,137.9462938308713L113.70800447382477,137.7229850292203L114.15474926549146,136.38489055633517L114.1891142494658,136.2741153240201L114.29220920138887,135.9417896270749L114.35521167200854,135.72111833095522L114.3895766559829,135.61034309864016L114.45257912660254,135.38967180252047L115.10551382211537,138.47994911670656L115.357523704594,137.59814310073824L115.74126602564101,136.2837861776349L115.77563100961538,136.17476928234072L116.06200587606837,135.30439245700808L116.09637086004273,135.19625473022433L116.29683326655982,134.5474283695218L116.39420072115384,134.22477352619143L116.58893563034188,133.58034300804113L116.7149405715812,133.15130877494784L117.28196280715811,131.3446174859998L117.33923778044871,131.13361704349492L117.36787526709402,131.02811682224248L117.3965127537393,130.92261660099004L117.74589009081195,129.7673891782758L118.52482972756411,127.89651858806583L119.10903445512821,126.15048992633793L119.30949686164529,125.43660509586309L119.33813434829058,125.33550071716282L119.46413928952991,125.03130841255161L120.01397903311964,123.41715502738926L120.1628939636752,123.01625418662998L120.34617387820512,122.51688647270177L120.4206313434829,122.31819438934299L120.49508880876067,122.1186231374738L120.55809127938033,121.91993105411503L120.64400373931622,121.7221181392667L120.78146367521366,121.3256131410596L120.82155615651708,121.22714626789067L121.16520599626068,120.14313149452184L121.26830094818376,119.84948921203586L121.52603832799143,119.06790840625736L121.62340578258546,118.77602446079229L121.65204326923076,118.67843675613378L121.92696314102562,117.90301012992833L122.40234541933759,116.4602946043012L122.52835036057692,116.0778563022611L122.58562533386751,115.88707673549627L123.08391760149573,114.46458208560918L123.49629740918803,113.2416586875913L124.26378205128204,115.82729327678655L124.84798677884613,114.42765700817083L124.89380675747863,114.3344651460645L125.10572415865383,113.77883064746831L125.13436164529915,113.68651795387242L125.28900407318375,117.90652680397008L125.45510149572648,117.43880915641759L125.58683393429486,117.06604170799228L125.64410890758546,116.88053715229009L126.21113114316239,115.4008965492246L126.57196347489315,114.39249026775335L126.8354283520299,113.75421392917607L126.8640658386752,113.66278040409063L127.08743823450854,113.0280207395551L127.18480568910255,112.75635766983007L127.95229033119656,110.60415315628026L128.04393028846155,110.33776509761785L128.26730268429486,109.71707212924932L128.36467013888887,109.45156323909734L128.39903512286324,109.36364638805364L128.4620375934829,109.1869335174558L128.49640257745725,109.0990166664121L129.1722472622863,111.86136412620519L129.33834468482905,111.42002153396581L129.6304470486111,110.62964904308294L129.69344951923077,110.45469450950597L129.76217948717948,110.279739975929L129.98555188301282,109.66871786117528L130.40365918803417,113.00340402126287L130.46666165865383,112.82757031917546L130.66139656784188,112.30270671844457L130.91913394764956,111.60640525817846L131.1138688568376,111.08593749999974L131.14823384081197,110.99977898597692L131.33724125267094,114.99120402336095L131.5434311565171,114.55425727367376L131.77825854700853,118.35226523876165L132.207820846688,117.29726302623723L132.32809829059826,116.94735395908329L132.7404780982906,124.5556782484052L132.80348056891023,124.37720704078647L132.8664830395299,124.19873583316776L132.95812299679486,123.93146860599491L133.11849292200853,123.48748850822423L133.69697015224358,121.98674786090825L133.8516125801282,121.54804277420017L134.40145232371793,119.97960615158055L134.53318476228634,119.63321375846837L134.63055221688035,119.37473821639989L134.77373965010682,118.94394564628574L134.99711204594016,118.34259438514682L135.13457198183758,117.99971866607639L135.23766693376066,117.82915997505162L135.4324018429487,117.31748390197728L135.461039329594,117.23220455646488L135.65577423878204,116.72316598892185L135.87341913728633,116.13060641288732L136.06242654914527,115.62508451938604L136.14833900908118,115.37276315689061L136.33734642094018,114.86987876892064L136.69817875267094,113.9520268440244L136.76118122329058,113.78586399555181L137.13919604700854,117.15923357009862L137.23656350160255,116.90867054462407L137.2995659722222,116.7407493591306L137.48284588675213,116.32402348518346L137.99259314903844,114.99647903442357L138.06705061431623,114.83119535446141L138.2846955128205,114.33710265159581L138.3992454594017,114.00917279720281L138.46224793002136,113.84476828575109L138.89753772702988,112.70272839069341L139.36146501068376,111.73036801815007L139.68793235844015,111.32770884036992L140.1232221554487,110.36414015293096L140.16331463675212,110.28413581848119L140.39814202724358,109.80586814880346L140.43250701121792,109.72586381435369L140.8964342948718,108.61547398567174L141.02816673344014,108.29985249042485L141.0911692040598,108.14248132705663L141.1484441773504,107.9851101636884L141.26872162126065,107.74861383438085L141.38899906517094,107.51387584209417L141.96174879807688,110.2322648763654L142.3340361244658,109.36892139911626L142.3626736111111,109.29067540168737L142.61468349358972,112.84691202640508L142.87814837072648,112.29479420185064L143.80600293803417,110.4151319265363L144.03510283119655,109.94917261600469L144.1038327991453,109.79443895816777L144.8999549278846,108.17764806747411L145.00877737713674,107.94730591773961L145.129054821047,107.64223444461797L145.15769230769232,107.56574678420995L145.1863297943376,107.48925912380193L145.36388221153845,107.03297066688512L145.4612496661325,106.80526602268193L145.5242521367521,106.65404903888677L145.81062700320513,105.97357261180852L146.03399939903846,105.44695067405675L146.20582431891026,105.07154572010015L146.44637920673077,104.47371113300298L146.57811164529912,104.17567300796483L146.73848157051282,103.87851405143714L147.14513388087607,106.80350768566106L147.20813635149574,106.65404903888677L147.29977630876067,110.31226921081517L147.67206363514956,109.40760481357549L147.84388855502135,109.10780835151647L148.01571347489315,108.7332825660703L148.0787159455128,108.58382391929601L148.61137319711537,107.83828902244542L148.70301315438033,107.68970954418157L148.78892561431624,107.54113006591771L149.28721788194443,114.24478995799993L149.94015257745724,113.03857076168035L150.11197749732904,112.66404497623418L150.33534989316237,112.14093971252416L151.22883947649572,110.28853166103337L151.26893195779914,110.21468150615667L151.29756944444443,110.1417105197904L151.52094184027777,113.39902985095952L151.84168169070512,112.65789079666112L152.09369157318375,112.06884789466832L152.311336471688,111.55453431606267L152.44879640758546,111.26177120208715L152.80390124198718,110.45909035205815L153.07309361645298,110.0230227708814L153.26782852564102,109.58871352672551L153.8520332532051,111.99763524532293L153.9837656917735,111.70750963687871L154.38469050480768,114.60436987876867L154.56224292200852,114.2395149469373L154.74552283653847,113.87641835212682L154.89443776709402,113.5862927436826L154.92880275106836,113.51332175731633L155.3125450721154,112.71943259239171L155.34691005608974,112.64734077453588L155.71919738247863,111.856968283653L155.7821998530983,111.71366381645177L155.81083733974359,111.64245116710637L156.04566473023502,111.14308345317815L156.14303218482905,114.57359898090337L156.17739716880342,114.50238633155797L156.21176215277777,114.43029451370214L156.4179520566239,113.99862277507756L157.191164196047,116.04620623588536L157.75818643162393,114.82943701744054L157.92428385416665,114.47337377071355L157.95292134081194,114.40216112136815L158.0273788060897,114.2606149911878L158.27938868856836,113.69355130195592L160.3699252136752,113.1871502399442L160.8395799946581,112.2156690359113L160.87967247596154,112.14621472358678L161.29205228365385,111.38837146759008L161.32068977029914,111.31979632377599L161.39514723557693,111.18176686763738L161.47533219818374,111.0446165800092L161.6242471287393,110.83889114856694L161.66433961004273,110.77031600475286L161.7387970753205,110.63404488563512L162.55782919337605,109.06912493705724L162.72392661591877,108.73152422904943L162.82702156784188,108.52843630313848L162.93584401709398,108.3271067142484L163.1191239316239,107.99038517475103L163.47422876602562,107.25364196300481L163.7606036324786,106.65404903888677L163.88660857371795,106.45447778701757L163.92097355769226,106.38766098022435L164.21307592147434,105.79158473014806L164.40208333333328,105.39507973194097L164.9347405849359,104.34447336196874L165.16956797542733,103.95236420631385L165.29557291666666,103.69125115871405L165.60485777243588,103.10660409927343L165.66786024305557,102.97648715972876L166.000055088141,102.39447760581945L166.1432425213675,102.1368812322614L166.34943242521365,101.75092625617955L166.64726228632478,101.43002974987004L166.87063468215808,101.04583311080908L167.23719451121795,100.4717360734937L167.46056690705126,100.02687680721259L167.5922993456196,99.77367627620673L167.90158420138889,99.20485424995398L168.38842147435895,98.26150643825505L168.60033887553416,97.82368052005742L168.8408937633547,100.79702842235541L168.98980869391022,100.54470705985999L169.0241736778846,100.48228609561895L169.74011084401707,99.29189193248725L169.7744758279914,99.2294709682462L169.83747829861107,99.10550820827459L170.0608506944444,98.73186159133887L170.15821814903842,98.54547786712622L171.01734274839743,96.88121187686896L171.2178051549145,96.51459860801673L171.3495375934829,99.56267583370185L171.44690504807687,99.37717127799962L171.72182491987178,98.88483691215491L171.79055488782052,98.76263248920415L172.34612212873932,97.72257614135718L172.3747596153846,97.66191351413703L172.987601829594,96.51020276546453L173.02196681356835,96.44954013824437L173.11933426816236,96.26843142509436L173.3312516693376,95.84730970859503L173.3999816372863,95.72686362266515L173.65771901709402,98.48921108245825L173.71499399038458,98.36788582801795L173.80663394764954,98.3072232007978L174.2476512419872,97.52388405799842L174.3106537126068,97.40343797206855L174.66575854700855,100.02511847019171L174.7688534989316,99.84400975704168L175.14114082532052,99.18111670017218L175.25569077190167,99.0008871555326L175.32442073985038,98.88044106960272L175.39887820512817,98.76087415218329L175.80553051549143,98.04347264766669L176.41837272970085,97.03330802917456L176.94530248397433,99.3244211673734L177.16867487980767,98.96747875213599L177.6154196714743,98.55251121520972L177.9247045272436,98.08039772510504L178.06789196047006,97.84478056430791L178.33708433493587,97.43332970142339L178.37144931891024,97.37442541122412L178.4058143028846,97.31552112102484L178.7838291266025,96.73087406158423L179.5341312767094,95.50970900058722L179.688773704594,95.22134172916388L179.85487112713673,94.93297445774053L180.0782435229701,94.58746123313878L180.4104383680555,94.01336419582343L180.56508079594016,93.72763442993138L180.77699819711538,93.3856378793714L180.90873063568375,93.1579332351682L180.9430956196581,93.10078728198981L181.18365050747863,92.64713633060431L181.29247295673076,92.47745680808995L181.32683794070508,92.42031085491156L181.38411291399572,92.30777728557563L181.47575287126068,92.13809776306128L181.51011785523502,92.0818309783933L181.53875534188032,92.02556419372534L181.77358273237172,91.63081753253911L181.87667768429486,91.4620171785352L181.90531517094013,91.40662956237767L181.99122763087607,91.29409599304175L182.05423010149573,91.18156242370581L182.15159755608974,91.01364123821233L182.1859625400641,90.9582536220548L182.38069744925212,90.62241125106787L182.5811598557692,90.2883272171018L182.64988982371793,90.17667281627631L182.74725727831193,90.00963079929329L183.4460119524572,88.9036368131635L183.51474192040598,88.79286158084844L183.71520432692307,91.51476728916143L183.93857672275638,91.12617480754828L184.34522903311967,90.46328175067877L184.9637987446581,89.42058789730046L185.0268012152778,89.31069183349587L185.57664095886747,88.43943583965279L185.6740084134615,88.27678966522193L185.74846587873927,88.16865193843817L185.7771033653846,88.11414349079108L186.6075904780983,87.08991217613196L187.4094401041666,88.79286158084844L187.5010800614316,88.63109457492804L187.94782485309827,87.93479311466193L188.23419971955127,87.50751721858954L188.5205745860043,87.08199965953803L188.5606670673077,87.02837038040138L188.66948951655982,86.86924088001227L188.73821948450853,86.76374065875983L188.77831196581195,86.71011137962317L189.33960670405986,85.97073066234566L189.61452657585465,88.50009846687291L190.3476462339743,87.33695852756478L190.54810864049145,87.02133703231787L190.63402110042733,86.86396586894965L190.91466846955123,86.49735260009741L191.3270482772436,88.7392323017118L191.38432325053415,88.63461124896978L191.4129607371795,88.58186113834356L191.6477881276709,91.12881231307959L192.32363281249994,90.1784311532972L192.896382545406,89.33970439434029L193.11402744391023,88.97397029399848L193.26294237446575,88.7137364149091L193.29157986111113,88.66186547279335L193.49204226762816,91.23431253433203L193.89869457799142,90.55383610725379L193.9616970486111,90.45009422302222L194.21370693108972,90.13711023330664L194.31680188301283,89.98149740695929L195.05564903846152,88.79110324382759L195.25611144497864,88.53438603877996L195.6971287393162,87.86797630786872L195.82313368055554,87.66313004493689L196.4245209001068,86.74703645706153L196.6765307825855,86.34261894226051L196.80253572382478,86.14041018485999L197.46119791666666,85.18475401401497L197.5642928685897,85.03441619873024L197.59293035523504,84.98430359363533L197.65593282585468,84.88407838344551L197.72466279380342,84.78473234176613L197.75330028044868,84.73461973667122L197.8907602163461,84.535048484802L197.92512520032048,84.4849358797071L198.29168502938035,83.93809306621529L198.49214743589738,83.64005494117714L198.61242487980766,83.44224202632881L199.37990952190168,82.30987298488594L199.81519931891023,81.67423415183998L200.11302918002136,81.28476250171639L200.39940404647436,80.89617002010323L200.8805138221154,80.36427307128884L200.92633380074778,80.3159188032148L201.46471854967945,79.59412145614601L201.5678135016026,79.44993782043433L201.94010082799147,78.92331588268257L201.97446581196576,78.87584078311897L202.089015758547,81.48257541656471L202.6445829994658,83.40707528591133L202.80495292467944,83.21365821361518L202.93668536324782,83.02024114131905L203.23451522435894,82.5868110656736L203.3948851495726,82.3467980623243L203.45216012286323,82.25096869468665L203.50943509615382,82.15513932704903L203.80726495726495,81.72434675693489L203.97908987713674,81.48521292209603L204.17955228365386,81.2469582557676L204.64347956730768,80.58230686187721L204.67211705395295,80.53571093082405L204.73511952457267,80.44076073169686L204.8897619524573,80.20426440238928L205.21622930021368,79.78050518035866L205.82907151442302,78.88902831077553L206.109718883547,78.46966493129707L206.33881877670942,78.14349341392494L206.4648237179487,77.95798885822273L206.68819611378206,77.68017160892462L206.8886585202991,77.40235435962654L207.06048344017094,77.17201220989205L207.15785089476495,77.03398275375345L207.22658086271372,76.94167006015756L207.7306006276709,76.25328111648538L208.02843048878202,78.50307333469367L208.3033503605769,78.13470172882057L208.46944778311968,77.90523874759651L208.64127270299144,77.67665493488289L208.89328258547008,77.3557584285734L209.07083500267095,77.1280537843702L209.1338374732906,79.68291747570015L209.20256744123935,82.23602283000923L209.23120492788462,82.18942689895607L209.649312232906,81.77182185649849L209.72376969818376,81.6795091629026L209.95286959134614,81.4016919136045L210.36524939903845,80.84869492053963L210.54280181623932,83.24794578552222L210.82917668269232,82.87693667411781L210.89217915331196,82.78462398052193L211.2701939770299,82.3230605125425L211.34465144230765,82.23162698745705L211.85439870459402,81.54323804378487L212.24959602029918,81.04035365581488L212.31832598824784,80.94892013072945L212.46724091880344,80.76693224906899L212.53024338942308,80.67637789249396L212.90253071581196,80.22184777259804L213.005625667735,80.08645582199074L214.2198551014957,81.13794136047339L214.5005024706196,80.82231986522652L214.62650741185897,80.6869279146192L214.7639673477564,80.50669836997963L215.22789463141024,82.44790244102455L215.59445446047005,81.95205140113808L215.82355435363243,86.75846564769721L216.05265424679484,86.43844830989813L216.37912159455124,85.98215985298133L216.48221654647435,85.84588873386359L216.6483139690171,85.61906325817084L216.80868389423074,85.39223778247809L217.00914630074786,87.66488838195777L217.06642127403842,87.57433402538277L217.3928886217948,87.11804556846596L217.42725360576918,87.07320797443367L217.94272836538457,91.36618781089759L218.08018830128208,91.22815835475897L218.29783319978634,90.90638267993903L218.69875801282052,90.35602319240546L219.08822783119655,89.80918037891365L219.17986778846154,89.67203009128548L219.24859775641028,89.58147573471044L219.46051515758546,89.26321673393227L219.76980001335468,88.81132411956762L220.03899238782049,88.44998586177803L220.10199485844012,88.359431505203L220.16499732905984,88.26975631713843L220.26809228098287,88.13524353504157L220.3253672542735,90.54504442214942L220.6117421207265,90.13798940181707L220.94966446314103,89.68609678745246L220.9783019497863,89.64125919342017L221.3104967948718,89.19200408458687L221.44222923344017,89.01177453994725L221.47659421741454,88.96693694591497L222.1524389022436,93.07353305816625L222.30708133012817,92.84758675098395L222.3758112980769,92.75703239440892L222.40444878472223,92.71131563186621L222.50181623931624,92.57592368125891L222.82255608974356,92.16974782943701L223.4869457799145,91.36091279983496L223.84205061431624,90.91341602802251L224.1857004540598,90.46767759323095L224.36898036858975,92.69724893569922L224.4892578125,92.51789855957007L224.52362279647429,92.47394013404822L224.6553552350427,92.29458975791907L224.86154513888889,92.02644336223577L224.89018262553415,91.98248493671393L224.92454760950855,91.93764734268164L225.01618756677345,91.80401372909522L225.12501001602558,91.67038011550878L225.57175480769226,91.04880797862982L225.77794471153845,90.8272575139997L225.89249465811963,90.69538223743415L226.4423344017094,89.94633066654183L226.4766993856838,89.90237224101996L226.5855218349359,89.72653853893254L226.75734675480768,89.50762557983373L226.9921741452991,89.20167493820165L227.3358239850427,88.80956578254677L227.39882645566237,91.13760399818395L227.90857371794868,90.69977807998632L228.1090361244658,90.43690669536566L228.1663110977564,90.3498690128324L228.3667735042735,90.08787679672216L228.42404847756404,90.00083911418889L228.49277844551278,89.91380143165563L228.71042334401707,89.60960912704444L228.89370325854696,89.39245450496651L228.95097823183758,89.30629599094367L229.0082532051282,89.2192583084104L229.0426181891026,89.176179051399L229.30035556891025,88.87374508380866L229.7986478365384,88.22755622863745L229.91319778311964,88.05611836910224L230.08502270299144,87.8416012525556L230.18239015758544,87.7132426500318L230.6921374198718,89.40827953815437L231.0186047676282,88.98012447357152L231.05296975160257,88.93704521656012L231.1159722222222,88.85088670253728L231.37943709935897,88.59504866600011L231.4252570779914,88.55196940898871L231.60853699252135,88.33921062946297L231.87772936698715,88.04117250442482L232.06100928151707,87.82841372489905L232.1698317307692,87.7009342908857L232.30156416933755,87.53125476837134L232.50202657585467,87.27805423736548L232.96022636217947,86.72945308685279L233.18932625534185,86.4349316358564L233.81362346420943,85.63928413391089L234.5123781383547,84.80671155452704L234.6040180956196,84.681869626045L234.75293302617524,84.51658594608283L234.7930255074786,84.4752650260923L235.09085536858973,84.18601858615853L235.69797008547008,83.48532128334021L236.0588024172008,83.03430783748603L236.45972723023502,82.58505272865273L236.6888271233974,82.30020213127113L236.90647202190166,82.05579328536963L237.86869157318372,81.08431208133675L238.69917868589738,80.16030597686745L239.00273604433752,79.8007260560987L239.4953008146367,79.20377063751198L239.52393830128204,79.16332888603188L239.78167568108972,81.17047059535957L239.90768062232905,81.01046192646004L240.26851295405984,80.61219859123207L240.37160790598287,80.49263167381264L240.40597288995724,80.45306909084297L240.74962272970086,80.05568492412544L240.88135516826915,79.89743459224678L241.14482004540594,81.85182619094826L241.1849125267094,81.81138443946816L241.31091746794868,81.65225493907904L241.67174979967947,81.29531252384163L241.70611478365385,81.25487077236153L242.0612196180555,80.85924494266487L242.08985710470083,80.81968235969521L242.12422208867522,80.78011977672554L242.38768696581198,80.46449828147865L242.52514690170938,82.56395268440224L242.55378438835464,82.52439010143257L243.0864416399573,81.93007218837715L243.3613615117521,81.61445069313027L243.80810630341875,81.10277462005592L243.89974626068374,80.98496603965735L244.01429620726495,80.8671574592588" style="fill: none;" fill="none"></path></g></g></g></g></g></g><g transform="translate(61, 177)" clip-path="url(#clip_1)"><clipPath id="clip_1"><rect width="268" height="23"></rect></clipPath><g><g><line x1="0" y1="0" x2="0" y2="5" style="visibility: inherit;" fill="rgb(0, 0, 0)" stroke="rgb(204, 204, 204)" stroke-width="1px"></line><line x1="20.618990384615383" y1="0" x2="20.618990384615383" y2="5" style="visibility: inherit;" fill="rgb(0, 0, 0)" stroke="rgb(204, 204, 204)" stroke-width="1px"></line><line x1="41.23798076923077" y1="0" x2="41.23798076923077" y2="5" style="visibility: inherit;" fill="rgb(0, 0, 0)" stroke="rgb(204, 204, 204)" stroke-width="1px"></line><line x1="61.85697115384615" y1="0" x2="61.85697115384615" y2="5" style="visibility: inherit;" fill="rgb(0, 0, 0)" stroke="rgb(204, 204, 204)" stroke-width="1px"></line><line x1="82.47596153846153" y1="0" x2="82.47596153846153" y2="5" style="visibility: inherit;" fill="rgb(0, 0, 0)" stroke="rgb(204, 204, 204)" stroke-width="1px"></line><line x1="103.09495192307692" y1="0" x2="103.09495192307692" y2="5" style="visibility: inherit;" fill="rgb(0, 0, 0)" stroke="rgb(204, 204, 204)" stroke-width="1px"></line><line x1="123.7139423076923" y1="0" x2="123.7139423076923" y2="5" style="visibility: inherit;" fill="rgb(0, 0, 0)" stroke="rgb(204, 204, 204)" stroke-width="1px"></line><line x1="144.33293269230768" y1="0" x2="144.33293269230768" y2="5" style="visibility: inherit;" fill="rgb(0, 0, 0)" stroke="rgb(204, 204, 204)" stroke-width="1px"></line><line x1="164.95192307692307" y1="0" x2="164.95192307692307" y2="5" style="visibility: inherit;" fill="rgb(0, 0, 0)" stroke="rgb(204, 204, 204)" stroke-width="1px"></line><line x1="185.57091346153845" y1="0" x2="185.57091346153845" y2="5" style="visibility: inherit;" fill="rgb(0, 0, 0)" stroke="rgb(204, 204, 204)" stroke-width="1px"></line><line x1="206.1899038461538" y1="0" x2="206.1899038461538" y2="5" style="visibility: inherit;" fill="rgb(0, 0, 0)" stroke="rgb(204, 204, 204)" stroke-width="1px"></line><line x1="226.8088942307692" y1="0" x2="226.8088942307692" y2="5" style="visibility: inherit;" fill="rgb(0, 0, 0)" stroke="rgb(204, 204, 204)" stroke-width="1px"></line><line x1="247.4278846153846" y1="0" x2="247.4278846153846" y2="5" style="visibility: inherit;" fill="rgb(0, 0, 0)" stroke="rgb(204, 204, 204)" stroke-width="1px"></line><line x1="268.046875" y1="0" x2="268.046875" y2="5" style="visibility: inherit;" fill="rgb(0, 0, 0)" stroke="rgb(204, 204, 204)" stroke-width="1px"></line></g><g transform="translate(0, 8)"><text x="0" y="0" dx="0em" dy="0.95em" style="text-anchor: middle; visibility: hidden; font-family: Roboto, sans-serif; font-size: 12px; font-weight: 200;" fill="rgb(33, 33, 33)" stroke="none" stroke-width="1px">-0.001</text><text x="20.618990384615383" y="0" dx="0em" dy="0.95em" style="text-anchor: middle; visibility: inherit; font-family: Roboto, sans-serif; font-size: 12px; font-weight: 200;" fill="rgb(33, 33, 33)" stroke="none" stroke-width="1px">0</text><text x="41.23798076923077" y="0" dx="0em" dy="0.95em" style="text-anchor: middle; visibility: hidden; font-family: Roboto, sans-serif; font-size: 12px; font-weight: 200;" fill="rgb(33, 33, 33)" stroke="none" stroke-width="1px">0.001</text><text x="61.85697115384615" y="0" dx="0em" dy="0.95em" style="text-anchor: middle; visibility: inherit; font-family: Roboto, sans-serif; font-size: 12px; font-weight: 200;" fill="rgb(33, 33, 33)" stroke="none" stroke-width="1px">0.002</text><text x="82.47596153846153" y="0" dx="0em" dy="0.95em" style="text-anchor: middle; visibility: hidden; font-family: Roboto, sans-serif; font-size: 12px; font-weight: 200;" fill="rgb(33, 33, 33)" stroke="none" stroke-width="1px">0.003</text><text x="103.09495192307692" y="0" dx="0em" dy="0.95em" style="text-anchor: middle; visibility: inherit; font-family: Roboto, sans-serif; font-size: 12px; font-weight: 200;" fill="rgb(33, 33, 33)" stroke="none" stroke-width="1px">0.004</text><text x="123.7139423076923" y="0" dx="0em" dy="0.95em" style="text-anchor: middle; visibility: hidden; font-family: Roboto, sans-serif; font-size: 12px; font-weight: 200;" fill="rgb(33, 33, 33)" stroke="none" stroke-width="1px">0.005</text><text x="144.33293269230768" y="0" dx="0em" dy="0.95em" style="text-anchor: middle; visibility: inherit; font-family: Roboto, sans-serif; font-size: 12px; font-weight: 200;" fill="rgb(33, 33, 33)" stroke="none" stroke-width="1px">0.006</text><text x="164.95192307692307" y="0" dx="0em" dy="0.95em" style="text-anchor: middle; visibility: hidden; font-family: Roboto, sans-serif; font-size: 12px; font-weight: 200;" fill="rgb(33, 33, 33)" stroke="none" stroke-width="1px">0.007</text><text x="185.57091346153845" y="0" dx="0em" dy="0.95em" style="text-anchor: middle; visibility: inherit; font-family: Roboto, sans-serif; font-size: 12px; font-weight: 200;" fill="rgb(33, 33, 33)" stroke="none" stroke-width="1px">0.008</text><text x="206.1899038461538" y="0" dx="0em" dy="0.95em" style="text-anchor: middle; visibility: hidden; font-family: Roboto, sans-serif; font-size: 12px; font-weight: 200;" fill="rgb(33, 33, 33)" stroke="none" stroke-width="1px">0.009</text><text x="226.8088942307692" y="0" dx="0em" dy="0.95em" style="text-anchor: middle; visibility: inherit; font-family: Roboto, sans-serif; font-size: 12px; font-weight: 200;" fill="rgb(33, 33, 33)" stroke="none" stroke-width="1px">0.01</text><text x="247.4278846153846" y="0" dx="0em" dy="0.95em" style="text-anchor: middle; visibility: hidden; font-family: Roboto, sans-serif; font-size: 12px; font-weight: 200;" fill="rgb(33, 33, 33)" stroke="none" stroke-width="1px">0.011</text><text x="268.046875" y="0" dx="0em" dy="0.95em" style="text-anchor: middle; visibility: hidden; font-family: Roboto, sans-serif; font-size: 12px; font-weight: 200;" fill="rgb(33, 33, 33)" stroke="none" stroke-width="1px">0.012</text></g><line x1="0" y1="0" x2="268.046875" y2="0" fill="rgb(0, 0, 0)" stroke="rgb(204, 204, 204)" stroke-width="1px"></line></g></g></g></g></svg>